<svg width="40" height="40" viewBox="0 0 40 40" fill="none" xmlns="http://www.w3.org/2000/svg">
<path d="M8.9168 40C7.50975 39.6761 6.53422 38.8014 5.94909 37.5245C5.56748 36.6918 5.25339 35.8141 5.02835 34.9266C4.56553 33.0998 4.46083 31.2211 4.51171 29.3474C4.56748 27.2945 4.74557 25.2456 4.84929 23.1937C4.90702 22.0509 4.86885 20.9002 4.97257 19.7622C5.09684 18.4041 5.3395 17.0577 5.50975 15.7035C5.97062 12.0597 6.01269 8.41292 5.58216 4.76223C5.43246 3.49609 5.30525 2.22798 5.1761 0.959882C5.0988 0.191781 5.28177 0 6.05379 0C8.7485 0 11.4422 0 14.137 0C14.9364 0 15.135 0.209393 15.0029 0.985323C14.4236 4.36791 13.8356 7.74951 13.2475 11.1301C13.0587 12.2182 12.7651 13.2984 12.6888 14.3943C12.5968 15.6986 12.6966 17.0166 12.6947 18.3278C12.6937 18.9481 12.951 19.4706 13.1986 20.0186C13.7221 21.1781 13.9295 22.4266 14.0694 23.683C14.3669 26.3659 14.455 29.0577 14.2964 31.7515C14.1751 33.8102 13.8953 35.8464 12.8963 37.7016C12.2847 38.8366 11.4276 39.681 10.1037 39.9354C10.0704 39.9423 10.042 39.9775 10.0117 40C9.64576 40 9.28177 40 8.9168 40ZM13.7779 1.20157C11.2867 1.20157 8.84831 1.20157 6.34244 1.20157C7.16338 6.72994 7.38451 12.2319 6.38745 17.7182C7.66827 18.0489 10.497 18.0528 11.4745 17.7329C11.4677 17.589 11.451 17.4354 11.453 17.2818C11.4696 16.2299 11.3708 15.1595 11.5332 14.1311C12.0283 10.9873 12.6272 7.8591 13.181 4.72407C13.3865 3.56067 13.5763 2.39432 13.7779 1.20157ZM12.088 27.2466C12.0557 27.2397 12.0244 27.2329 11.9921 27.226C11.9921 26.9658 11.9765 26.7045 11.997 26.4462C12.0137 26.229 11.9295 26.1399 11.7348 26.0431C10.8649 25.6115 10.0049 25.1614 9.15261 24.6967C8.9804 24.6027 8.87962 24.589 8.70838 24.6986C7.91093 25.2074 7.09684 25.6908 6.29547 26.1947C6.20349 26.2524 6.09195 26.3796 6.09292 26.4736C6.10369 27.8268 6.11739 29.184 6.56846 30.4824C6.97746 31.6595 7.75144 32.18 9.0303 32.182C10.3101 32.184 11.1497 31.6791 11.4824 30.4883C11.7769 29.4335 11.8933 28.3288 12.088 27.2466ZM5.79058 31.68C5.74655 31.6849 5.70154 31.6898 5.6575 31.6947C5.88549 32.9178 6.0714 34.1507 6.35516 35.3611C6.56259 36.2456 6.91289 37.091 7.49703 37.816C8.37864 38.911 9.72404 39.1429 10.8219 38.3669C11.6986 37.7466 12.1135 36.816 12.4139 35.8405C13.1389 33.4863 13.2289 31.0587 13.1722 28.6184C13.1712 28.5724 13.1487 28.5264 13.133 28.4726C13.0019 29.1566 12.9119 29.8346 12.7358 30.4883C12.4579 31.5225 11.9462 32.4168 10.9452 32.9276C9.14772 33.8474 7.13304 33.3552 5.79058 31.68ZM11.5303 18.9804C9.75731 19.2955 7.99019 19.2104 6.0939 18.9335C6.20056 19.2906 6.22404 19.5665 6.35613 19.775C6.74655 20.3875 7.15359 20.9932 7.60369 21.5626C7.99214 22.0548 8.44811 22.4941 8.95496 23.044C9.78862 22.0157 10.5557 21.0528 11.3424 20.1076C11.6193 19.775 11.6966 19.4325 11.5303 18.9804ZM11.9148 24.8982C11.9501 24.8708 11.9843 24.8444 12.0195 24.817C11.9589 23.7476 11.8992 22.6781 11.8346 21.5333C11.135 22.3209 10.5137 23.0196 9.84146 23.7759C10.5391 24.1526 11.227 24.5254 11.9148 24.8982ZM7.96768 23.8102C7.32384 23.0714 6.726 22.3865 6.08901 21.6556C6.08901 22.7808 6.08901 23.8395 6.08901 24.999C6.75144 24.5802 7.34831 24.2025 7.96768 23.8102Z" fill="#25282B"/>
<path d="M17.824 15.3913C18.2741 14.5762 18.7311 13.8355 19.1029 13.0527C19.5706 12.0674 19.9776 11.0527 20.3876 10.0419C20.4444 9.90202 20.4199 9.6848 20.3504 9.54488C19.0099 6.83059 17.6567 4.12218 16.3074 1.4118C16.1137 1.02237 16.1841 0.700453 16.4884 0.528242C16.8054 0.349181 17.143 0.467577 17.3485 0.878535C18.6088 3.38636 19.8681 5.89517 21.1078 8.41278C21.509 9.22883 21.9385 10.0067 22.7291 10.5126C23.0041 10.6887 23.281 10.8472 23.6215 10.6192C23.7291 10.5478 23.8974 10.5507 24.0383 10.5488C25.0403 10.5322 26.0432 10.5165 27.0452 10.5145C28.1489 10.5116 28.7653 11.1564 28.6958 12.2611C28.5765 14.1642 28.7477 16.0459 29.6704 17.723C30.4052 19.0576 31.3514 20.2846 32.28 21.5018C33.1548 22.6496 34.1401 23.7122 35.054 24.8316C36.2369 26.2807 35.6274 28.3531 33.8808 28.857C33.0452 29.0977 32.2917 28.9001 31.599 28.3942C30.0334 27.2513 28.463 26.1143 26.8935 24.9754C26.3671 24.5928 25.8407 24.2112 25.3142 23.8286C23.5403 22.538 21.7594 21.2582 20.0002 19.948C19.6303 19.6721 19.3054 19.314 19.0246 18.9451C17.4639 16.8952 15.9229 14.8296 14.3769 12.7689C14.3074 12.676 14.2311 12.5801 14.19 12.4734C14.0843 12.2014 14.1362 11.9549 14.3778 11.7797C14.6176 11.6055 14.87 11.6173 15.0921 11.8159C15.2076 11.9187 15.3015 12.0468 15.3955 12.1711C16.187 13.2161 16.9757 14.265 17.824 15.3913ZM24.0784 11.6887C24.0784 11.8854 24.0794 12.0341 24.0784 12.1838C24.0559 15.3629 24.5002 18.4813 25.2673 21.5625C25.4365 22.2425 25.7115 22.7875 26.3465 23.129C26.596 23.2631 26.8123 23.4607 27.0442 23.628C28.7702 24.8824 30.4972 26.1339 32.2193 27.3922C32.6518 27.7083 33.1048 27.8864 33.6362 27.6946C34.5383 27.3687 34.778 26.3394 34.1332 25.5537C32.8377 23.9754 31.5187 22.4147 30.2428 20.8198C29.1381 19.4382 28.2634 17.9275 27.8456 16.1809C27.5344 14.8785 27.4375 13.5615 27.5285 12.2298C27.5501 11.9147 27.5011 11.6848 27.1127 11.6868C26.1234 11.6916 25.1352 11.6887 24.0784 11.6887ZM21.3328 11.0077C21.3397 10.9979 21.3035 11.0351 21.2849 11.0801C20.5579 12.8639 19.782 14.6232 18.6538 16.2024C18.6088 16.265 18.6009 16.4118 18.644 16.4705C19.1 17.0987 19.5696 17.7181 20.0334 18.3365C21.2917 17.8462 22.2174 17.0106 22.9825 15.9793C23.0432 15.8971 23.0559 15.7611 23.052 15.6515C23.008 14.4686 22.9591 13.2856 22.8994 12.1026C22.8945 12.0077 22.8309 11.8785 22.7546 11.8316C22.2917 11.5498 21.8182 11.2866 21.3328 11.0077ZM21.0187 19.3267C21.9728 19.9979 22.9532 20.6887 23.9953 21.4226C23.7369 20.0909 23.4962 18.8541 23.2643 17.6603C22.5315 18.2044 21.7957 18.7504 21.0187 19.3267Z" fill="#25282B"/>
</svg>
