<svg width="40" height="40" viewBox="0 0 40 40" fill="none" xmlns="http://www.w3.org/2000/svg">
<path d="M37.499 6.25448C37.2492 6.59776 36.9986 6.94185 36.6712 7.39113C36.7927 7.48001 36.9792 7.58601 37.126 7.72952C37.3547 7.95375 37.3589 8.2318 37.1699 8.42668C36.9632 8.63949 36.683 8.64194 36.4214 8.41526C36.2898 8.30111 36.1801 8.1633 36.0341 8.00757C35.7303 8.33861 35.4662 8.62726 35.1649 8.95586C35.3683 9.1434 35.5666 9.31463 35.7505 9.49973C36.0045 9.75576 36.0265 10.0485 35.8206 10.2491C35.6054 10.4594 35.3134 10.4488 35.0468 10.1953C34.8721 10.0289 34.7227 9.8373 34.5455 9.63916C34.224 9.99141 33.9574 10.2825 33.6013 10.6714C33.7734 10.7946 33.959 10.9014 34.1109 11.0416C34.4586 11.3604 34.5101 11.6548 34.2831 11.8815C34.0367 12.1277 33.7591 12.0796 33.3894 11.7225C33.2705 11.6075 33.1582 11.4868 33.0114 11.3368C32.8359 11.5235 32.6781 11.685 32.5279 11.8529C32.3169 12.0894 32.0663 12.2191 31.7313 12.1897C31.6444 12.1824 31.5355 12.2239 31.4638 12.2778C31.2292 12.4523 30.9921 12.4971 30.7642 12.2933C30.5389 12.0919 30.5575 11.8554 30.7212 11.6189C30.7389 11.5936 30.7473 11.5618 30.7482 11.5602C30.0393 10.8753 29.344 10.2018 28.6757 9.55599C25.2049 12.9097 21.7156 16.2813 18.2127 19.666C19.1241 20.0623 19.8371 20.7325 20.3097 21.7942C20.4169 21.636 20.4684 21.521 20.5536 21.4387C23.3619 18.721 26.1728 16.0057 28.9837 13.2905C29.0554 13.2212 29.1238 13.1494 29.2014 13.0866C29.4461 12.8893 29.7356 12.8893 29.9263 13.0826C30.1279 13.2864 30.1195 13.5351 29.8993 13.7822C29.841 13.8474 29.7735 13.9061 29.7102 13.9681C28.798 14.8503 27.885 15.7334 26.9728 16.6164C26.8867 16.6996 26.804 16.7869 26.7838 16.8073C27.1441 17.6871 27.5432 18.5008 27.8116 19.3529C28.5094 21.5691 27.642 23.756 25.6184 25.006C24.7484 25.5433 23.8657 26.0587 23.1678 26.8162C22.216 27.8501 21.6725 29.065 21.3932 30.4079C21.1873 31.397 20.7856 32.3094 20.1899 33.1395C20.1392 33.2104 20.0911 33.2863 20.0279 33.3458C19.838 33.5252 19.6161 33.5782 19.3899 33.4257C19.1562 33.2683 19.0954 33.0425 19.2346 32.7979C19.3857 32.532 19.6026 32.2948 19.7131 32.0167C20.0009 31.2918 20.3131 30.5669 20.4962 29.8143C21.0531 27.5247 22.3611 25.7855 24.4387 24.5795C25.2454 24.1115 26.0057 23.5994 26.4952 22.7971C27.1416 21.7363 27.1626 20.6053 26.804 19.4662C26.604 18.831 26.3002 18.226 26.0234 17.559C25.8775 17.6871 25.8032 17.7466 25.7348 17.8126C24.0834 19.4083 22.4345 21.0057 20.7789 22.5973C20.6177 22.7523 20.5426 22.9031 20.5392 23.1322C20.5131 25.0468 19.0338 26.649 17.1512 26.8243C15.0592 27.0192 13.2888 25.7725 12.877 23.8139C12.396 21.53 14.2264 19.401 16.6972 19.3619C16.8381 19.3594 17.0178 19.3162 17.1115 19.2265C18.8422 17.5696 20.5629 15.9022 22.2843 14.2371C22.308 14.2143 22.3248 14.1858 22.3738 14.1238C22.2371 14.0463 22.1105 13.9672 21.9772 13.9004C20.9181 13.3712 19.8211 12.9912 18.5992 13.0777C17.3166 13.1682 16.4263 13.8653 15.6905 14.8079C15.5757 14.9547 15.4795 15.1153 15.3656 15.2629C15.1774 15.5059 14.8837 15.5687 14.6601 15.4227C14.4255 15.2686 14.3614 14.9922 14.5285 14.7337C15.8829 12.6349 17.7765 11.6475 20.5148 12.2949C20.9797 12.405 21.4337 12.5778 21.8734 12.7621C22.3029 12.9423 22.7088 13.1755 23.1417 13.394C23.2033 13.3386 23.2792 13.2758 23.3501 13.2073C24.8277 11.7812 26.3028 10.3526 27.7829 8.92896C27.9255 8.79197 27.9787 8.65498 28.0023 8.45521C28.0284 8.23914 28.1651 8.01735 28.3069 7.83715C28.4521 7.65287 28.6622 7.51589 28.8968 7.31285C28.7179 7.16445 28.5558 7.04622 28.4141 6.90924C28.0993 6.60754 28.0647 6.34662 28.2926 6.11668C28.5153 5.89163 28.8284 5.93077 29.1398 6.23409C29.2968 6.38657 29.4394 6.55373 29.5989 6.72496C29.9491 6.42816 30.2503 6.17212 30.6199 5.85901C30.4157 5.68371 30.2149 5.53204 30.0385 5.35592C29.7761 5.09499 29.7685 4.81695 29.9938 4.60902C30.1971 4.42148 30.4976 4.43534 30.7456 4.66365C30.9397 4.84304 31.1161 5.04036 31.3228 5.25236C31.6519 4.97513 31.9524 4.72155 32.2882 4.43779C32.1473 4.29754 32.0131 4.1736 31.8916 4.03906C31.6612 3.78385 31.6595 3.51395 31.8789 3.31418C32.0798 3.13235 32.3659 3.13887 32.6021 3.35577C32.7473 3.48868 32.8629 3.65175 33.0072 3.81891C33.2671 3.60039 33.4645 3.42834 33.6696 3.26444C34.1219 2.90241 34.5405 2.90893 34.9565 3.30358C35.7008 4.01134 36.4391 4.72481 37.1682 5.44643C37.3049 5.58097 37.3893 5.76524 37.4973 5.92669C37.499 6.03758 37.499 6.14603 37.499 6.25448ZM19.5317 23.1094C19.5275 21.5928 18.2676 20.3689 16.6921 20.3509C15.1284 20.3338 13.8205 21.5936 13.8222 23.1151C13.8238 24.6399 15.1251 25.8866 16.698 25.8695C18.2752 25.8524 19.5359 24.6244 19.5317 23.1094ZM31.8342 11.1338C33.3591 9.45977 34.8881 7.78089 36.3893 6.1338C35.6603 5.4293 34.9641 4.75661 34.2527 4.06923C32.5397 5.52715 30.8081 7.00138 29.0782 8.47397C30.0047 9.36845 30.9094 10.2409 31.8342 11.1338Z" fill="#25282B"/>
<path d="M32.5758 36.3326C32.2839 36.2258 31.9775 36.1467 31.7041 36.0073C30.8139 35.5539 30.4586 34.6741 30.8054 33.8449C31.1497 33.023 32.0096 32.6365 32.9784 32.9178C33.3885 33.0368 33.7682 33.2562 34.1935 33.4445C34.7007 32.1855 35.2255 30.8801 35.769 29.5315C34.0678 28.8922 32.3826 28.2586 30.6755 27.6169C30.6282 27.7188 30.5843 27.8028 30.5489 27.8901C29.878 29.5551 29.2105 31.2209 28.5363 32.8852C28.2021 33.7103 27.587 34.1001 26.7246 34.0512C25.7735 33.9965 24.8976 33.3988 24.6866 32.6471C24.5103 32.0168 24.6765 31.455 25.1465 31.004C25.6486 30.5222 26.2849 30.4528 26.9305 30.6477C27.3406 30.7717 27.7195 30.9894 28.138 31.1753C28.3009 30.7725 28.4848 30.3216 28.6663 29.8707C29.2308 28.4674 29.7928 27.0641 30.3582 25.6616C30.635 24.9734 31.0831 24.7818 31.7894 25.046C33.3986 25.6486 35.0044 26.2585 36.6179 26.8505C37.0002 26.9907 37.3149 27.1782 37.493 27.5444C37.493 27.696 37.493 27.8485 37.493 28.0002C37.4677 28.0458 37.4364 28.0898 37.417 28.1388C36.509 30.3933 35.5859 32.643 34.7032 34.9073C34.4281 35.6126 34.0256 36.1353 33.2484 36.3334C33.0256 36.3326 32.8011 36.3326 32.5758 36.3326ZM36.4466 27.8395C34.7353 27.197 33.0484 26.5643 31.3404 25.9234C31.2324 26.1941 31.1371 26.4322 31.029 26.7012C32.7353 27.3421 34.4213 27.9749 36.1352 28.6182C36.2441 28.3467 36.3394 28.1086 36.4466 27.8395ZM26.7895 33.1477C27.203 33.0866 27.4646 32.9129 27.5642 32.5851C27.6612 32.2671 27.5617 31.9964 27.2216 31.826C26.9676 31.6988 26.6883 31.5977 26.4081 31.5463C26.0993 31.49 25.8343 31.6058 25.6993 31.9124C25.5643 32.2182 25.6048 32.5117 25.8841 32.6984C26.1617 32.8827 26.4857 33.0001 26.7895 33.1477ZM32.8585 35.4194C33.2501 35.3607 33.5007 35.1943 33.607 34.8763C33.7133 34.5608 33.6374 34.2982 33.3201 34.127C33.061 33.9876 32.7725 33.8799 32.483 33.8171C32.1421 33.7429 31.8856 33.9019 31.7497 34.1971C31.6172 34.4833 31.6662 34.7972 31.9472 34.9799C32.2273 35.1609 32.553 35.2751 32.8585 35.4194Z" fill="#25282B"/>
<path d="M13.0382 36.3326C12.369 36.2078 11.6872 36.1247 11.0315 35.9502C8.70246 35.3321 6.82235 34.0463 5.32451 32.2353C4.29501 30.9902 3.57267 29.5869 3.24019 28.0205C2.64106 25.2017 3.15159 22.6471 5.27979 20.5238C6.36583 19.4402 7.71852 18.8034 9.24168 18.5155C10.7961 18.2228 12.1429 17.5713 13.2508 16.4681C13.5293 16.1909 13.8306 16.1729 14.05 16.3857C14.2651 16.5945 14.2339 16.8872 13.9622 17.1595C12.7209 18.4006 11.1986 19.1165 9.46108 19.4752C6.62658 20.0599 4.84605 21.7314 4.19037 24.4622C3.7811 26.1671 4.03595 27.8379 4.75913 29.4214C5.95909 32.051 7.96409 33.8962 10.7741 34.8616C12.9023 35.5922 15.0221 35.5759 17.0718 34.5542C17.3005 34.4401 17.5131 34.2966 17.7325 34.1661C18.0895 33.9533 18.3916 33.9794 18.5587 34.2387C18.7232 34.4939 18.6338 34.754 18.2988 34.9758C17.1942 35.708 15.9756 36.1385 14.644 36.2731C14.5571 36.282 14.4719 36.3122 14.3858 36.3326C13.936 36.3326 13.4871 36.3326 13.0382 36.3326Z" fill="#25282B"/>
<path d="M5.70973 6.89622C5.99157 8.14866 6.26498 9.36359 6.53839 10.5777C6.67425 11.1811 6.81096 11.7837 6.94766 12.3871C7.21094 13.5474 6.49114 14.5071 5.2608 14.6514C4.49205 14.7411 3.7908 14.6367 3.32246 13.9705C2.62122 12.9733 3.10644 11.7698 4.36378 11.4078C4.76461 11.2928 5.19582 11.2773 5.64391 11.2121C5.47345 10.4546 5.29793 9.67344 5.12156 8.89311C4.85153 7.69775 4.57981 6.50239 4.3123 5.30622C4.18573 4.74115 4.45914 4.30818 5.03971 4.18342C6.86749 3.79285 8.69613 3.4088 10.5264 3.02802C11.064 2.91631 11.5121 3.2074 11.6386 3.76105C12.1331 5.91776 12.6175 8.07691 13.1061 10.2352C13.166 10.4994 13.2276 10.7636 13.2875 11.0286C13.5432 12.1685 12.9475 13.0744 11.7559 13.275C11.3602 13.3419 10.9205 13.3354 10.5324 13.2416C9.80917 13.0655 9.35686 12.4131 9.34589 11.6785C9.33492 10.9821 9.82267 10.3445 10.6243 10.1023C11.0429 9.97595 11.4927 9.94497 11.9829 9.8618C11.6859 8.54168 11.3787 7.17427 11.0631 5.76854C9.26826 6.14607 7.50123 6.51788 5.70973 6.89622ZM10.6598 3.99833C8.86827 4.37586 7.10377 4.74767 5.31058 5.1252C5.37809 5.41874 5.43716 5.67477 5.49792 5.93977C7.30208 5.55899 9.05898 5.18798 10.848 4.81046C10.783 4.53078 10.7248 4.28209 10.6598 3.99833ZM11.1948 12.4246C11.4547 12.3373 11.7272 12.2737 11.972 12.1563C12.2985 11.9997 12.4141 11.7087 12.3255 11.3972C12.2336 11.0735 11.9973 10.8786 11.6353 10.8957C11.383 10.9079 11.1214 10.9569 10.8851 11.0441C10.464 11.2007 10.3045 11.4771 10.383 11.8138C10.4691 12.1848 10.7214 12.361 11.1948 12.4246ZM5.22451 12.1914C4.95026 12.2753 4.66335 12.3332 4.40428 12.449C4.11737 12.577 3.96042 12.8135 4.0313 13.138C4.1005 13.4585 4.30133 13.6892 4.64478 13.6827C4.95954 13.6762 5.29033 13.624 5.58062 13.5115C5.95951 13.3639 6.07427 13.0638 5.97638 12.7189C5.88187 12.3879 5.64222 12.2313 5.22451 12.1914Z" fill="#25282B"/>
<path d="M8.57826 24.3039C9.05842 24.3284 9.47022 24.5029 9.81029 24.8323C11.509 26.4737 13.2136 28.1094 14.9021 29.7597C15.6261 30.4675 15.6185 31.5201 14.9224 32.179C14.2321 32.8329 13.1671 32.8378 12.4423 32.1455C10.725 30.5074 9.02129 28.8554 7.32345 27.1994C6.76398 26.6539 6.64668 25.9323 6.96144 25.2824C7.25426 24.6766 7.91246 24.2779 8.57826 24.3039ZM14.4295 30.854C14.3561 30.7439 14.2582 30.5197 14.0937 30.3598C12.46 28.7658 10.8153 27.1823 9.17149 25.598C9.08542 25.5148 8.98838 25.4341 8.8829 25.3778C8.4019 25.1218 7.77238 25.4732 7.8188 25.9975C7.83652 26.2022 7.96731 26.4362 8.1209 26.5862C9.7681 28.1982 11.4296 29.7956 13.0887 31.3954C13.1671 31.4712 13.2574 31.5397 13.3545 31.5919C13.8338 31.8487 14.4363 31.5006 14.4295 30.854Z" fill="#25282B"/>
<path d="M25.9096 15.6497C25.9096 16.0729 25.4683 16.3444 25.1755 16.1104C24.7215 15.7484 24.3139 15.3276 23.9173 14.9044C23.7485 14.7242 23.8135 14.4878 23.9949 14.3198C24.1772 14.1502 24.4194 14.1119 24.6042 14.2733C25.0253 14.6427 25.4202 15.0406 25.816 15.4361C25.8801 15.4989 25.8936 15.6089 25.9096 15.6497Z" fill="#25282B"/>
<path d="M22.8255 15.5581C23.0095 15.669 23.1546 15.7293 23.2626 15.828C23.5884 16.1248 23.9031 16.4322 24.2137 16.7429C24.4753 17.0046 24.4913 17.2786 24.2744 17.4889C24.0576 17.6993 23.774 17.6855 23.5015 17.4311C23.1631 17.1155 22.8129 16.8081 22.5167 16.4591C22.4061 16.3295 22.3707 16.0734 22.4188 15.9063C22.4576 15.7709 22.6719 15.6812 22.8255 15.5581Z" fill="#25282B"/>
<path d="M22.9554 18.6519C22.8744 18.7522 22.7951 18.9349 22.6583 18.9968C22.5216 19.0588 22.266 19.067 22.1681 18.983C21.7343 18.612 21.3158 18.2165 20.9436 17.7884C20.8542 17.6849 20.8981 17.3718 21.0002 17.2454C21.0905 17.1337 21.4339 17.0521 21.5166 17.1223C21.9993 17.5316 22.4398 17.9882 22.8896 18.4326C22.9233 18.466 22.9216 18.5337 22.9554 18.6519Z" fill="#25282B"/>
<path d="M28.9338 12.8687C28.8486 12.9771 28.7718 13.1655 28.6385 13.2185C28.4891 13.278 28.2275 13.2812 28.1204 13.1915C27.7001 12.8393 27.3069 12.4536 26.9331 12.0549C26.7584 11.8682 26.7888 11.6244 26.9795 11.4401C27.1575 11.268 27.4039 11.2216 27.587 11.3814C28.0166 11.7565 28.4157 12.1642 28.8182 12.567C28.8739 12.6224 28.8807 12.7235 28.9338 12.8687Z" fill="#25282B"/>
<path d="M27.4453 14.3234C27.3449 14.44 27.2605 14.626 27.1247 14.6732C26.9719 14.7262 26.7154 14.7181 26.6032 14.6243C26.1981 14.2876 25.8235 13.9141 25.4598 13.535C25.269 13.3368 25.2783 13.0898 25.4749 12.8916C25.6724 12.6918 25.9348 12.6739 26.1382 12.8533C26.5424 13.208 26.9196 13.592 27.2968 13.9745C27.366 14.0446 27.3812 14.1661 27.4453 14.3234Z" fill="#25282B"/>
<path d="M35.046 6.07058C35.3025 6.07874 35.538 6.31601 35.5337 6.56145C35.5295 6.83053 35.2814 7.0515 35.0004 7.03437C34.7329 7.01888 34.5236 6.79302 34.5363 6.53372C34.5481 6.27769 34.7861 6.06161 35.046 6.07058Z" fill="#25282B"/>
<path d="M32.4927 9.51205C32.4767 9.76889 32.243 9.97519 31.9755 9.96703C31.6945 9.95888 31.4759 9.7216 31.4987 9.44845C31.5198 9.19078 31.7628 8.98612 32.0244 9.00569C32.2826 9.02526 32.5071 9.26825 32.4927 9.51205Z" fill="#25282B"/>
<path d="M34.3136 5.40385C34.3069 5.66151 34.0807 5.87107 33.8098 5.86944C33.5246 5.86862 33.301 5.6395 33.317 5.36634C33.3322 5.11031 33.5702 4.89994 33.8318 4.91054C34.0908 4.92196 34.3204 5.15679 34.3136 5.40385Z" fill="#25282B"/>
<path d="M33.5165 7.54745C33.7907 7.55234 33.9983 7.75945 33.9966 8.02527C33.9949 8.29027 33.7823 8.49983 33.5106 8.50309C33.2338 8.50635 32.9941 8.26826 33.0068 8.00325C33.0194 7.74233 33.2431 7.54256 33.5165 7.54745Z" fill="#25282B"/>
<path d="M32.2864 6.38154C32.5581 6.3742 32.7809 6.57479 32.7918 6.83735C32.8036 7.11213 32.5767 7.34615 32.299 7.34452C32.045 7.3437 31.8037 7.11132 31.8003 6.86507C31.7961 6.61148 32.0197 6.38888 32.2864 6.38154Z" fill="#25282B"/>
<path d="M31.2836 8.34172C31.2744 8.6002 31.0482 8.80568 30.7765 8.80242C30.4896 8.79916 30.2702 8.57166 30.2887 8.29687C30.3056 8.03921 30.5419 7.83373 30.806 7.84678C31.0676 7.85983 31.2929 8.09303 31.2836 8.34172Z" fill="#25282B"/>
</svg>
