<svg width="41" height="40" viewBox="0 0 41 40" fill="none" xmlns="http://www.w3.org/2000/svg">
<path d="M26.8923 29.4049C26.5537 30.2297 26.2672 31.0643 25.8798 31.8478C24.5232 34.5913 22.4775 36.6056 19.5072 37.5259C16.3187 38.5123 13.3288 37.9165 10.5701 36.1378C7.26447 34.0053 5.19924 30.9319 4.15089 27.1867C2.90177 22.7252 1.73838 18.242 0.54135 13.7676C0.379648 13.1653 0.706308 12.7974 1.27498 12.9525C3.52687 13.5679 5.80915 13.5603 8.09903 13.277C11.1171 12.9048 14.0136 12.0811 16.8006 10.8602C17.0784 10.7386 17.1695 10.5921 17.1685 10.2893C17.1554 7.46769 17.1609 4.64604 17.1609 1.82439C17.1609 1.02022 17.545 0.79449 18.2418 1.19603C20.1887 2.31927 22.3191 2.88142 24.5178 3.18421C28.3444 3.71056 32.1471 3.57164 35.9064 2.63507C37.2391 2.30299 38.5229 1.84067 39.7156 1.14503C40.2821 0.814024 40.6978 1.0658 40.6978 1.7354C40.6999 5.61517 40.6967 9.49494 40.6999 13.3747C40.7021 15.1382 40.7412 16.9018 40.3744 18.6425C39.5821 22.4051 37.8457 25.5848 34.6182 27.802C32.3891 29.3333 29.9115 29.89 27.2266 29.4321C27.1332 29.4158 27.0388 29.4049 26.9444 29.3962C26.9183 29.393 26.8923 29.4049 26.8923 29.4049ZM1.84256 14.2711C3.02766 18.661 4.13244 23.0074 5.38591 27.3104C6.3279 30.5434 8.19887 33.1903 11.0335 35.0819C12.9881 36.3874 15.139 37.0538 17.5038 36.7846C20.5013 36.4439 22.7445 34.8724 24.3007 32.3416C26.3432 29.0197 26.7197 25.4004 25.8136 21.6779C24.8173 17.5866 23.6604 13.5332 22.573 9.46346C22.5155 9.2475 22.4536 9.03262 22.3842 8.78301C19.4833 11.1641 16.1711 12.5738 12.6506 13.5321C9.12785 14.4914 5.55737 14.9451 1.84256 14.2711ZM27.1028 28.2415C28.009 28.4532 28.8848 28.4987 29.765 28.4032C32.604 28.095 34.8081 26.6658 36.5326 24.4649C38.6466 21.7669 39.5463 18.6468 39.5561 15.2533C39.568 11.1565 39.5593 7.05964 39.5583 2.96282C39.5583 2.83584 39.5474 2.70778 39.5441 2.65027C32.4444 5.27332 25.3838 5.38401 18.3297 2.65244C18.3297 5.09316 18.3297 7.57838 18.3297 10.1135C19.7307 9.36796 21.0135 8.54643 22.1063 7.4525C22.6598 6.89902 23.0885 7.0108 23.2936 7.75962C23.5671 8.76131 23.8373 9.76516 24.1043 10.7484C24.1683 10.7658 24.1944 10.7777 24.2204 10.7777C24.9399 10.7994 25.4587 10.4706 25.8418 9.87694C26.0567 9.54377 26.3551 9.46672 26.6373 9.63493C26.9346 9.81074 26.9987 10.1309 26.8001 10.4814C26.7339 10.5986 26.6568 10.7115 26.5732 10.8179C26.0306 11.5059 25.2948 11.8402 24.4212 11.9454C24.9671 13.9792 25.5064 15.9912 26.0512 18.025C26.2021 17.9469 26.3204 17.8839 26.4398 17.8231C28.1544 16.968 29.8626 16.9886 31.5469 17.8937C32.9643 18.6555 33.9703 19.8385 34.7614 21.2091C34.8776 21.4088 34.9036 21.7355 34.8276 21.9536C34.7245 22.2488 34.4066 22.2217 34.1222 22.1837C33.101 22.0513 32.0809 21.87 31.0553 21.8223C29.7324 21.7593 28.4041 21.8071 27.0366 21.8071C27.4534 23.9429 27.5055 26.071 27.1028 28.2415ZM26.3714 19.2047C26.4636 19.5585 26.5678 19.8938 26.634 20.2378C26.6959 20.5547 26.8261 20.6556 27.1755 20.6524C28.5961 20.6405 30.0178 20.6676 31.4373 20.7056C31.993 20.7208 32.5465 20.8022 33.1325 20.8553C31.5524 18.56 28.824 17.4715 26.3714 19.2047Z" fill="#25282B"/>
<path d="M16.1798 31.7211C14.3512 31.6907 12.9111 30.9571 11.6033 29.9065C11.2973 29.6613 10.9902 29.4062 10.7362 29.11C10.606 28.958 10.492 28.6672 10.5528 28.5087C10.6212 28.3297 10.8784 28.143 11.0802 28.1061C12.6115 27.825 14.1591 27.6319 15.6817 27.3106C17.569 26.9134 19.3726 26.2384 21.1253 25.4321C21.2827 25.3594 21.4552 25.2856 21.6224 25.2801C21.9696 25.2682 22.191 25.5688 22.1498 25.9497C21.8665 28.5663 19.4519 31.2078 16.9265 31.6549C16.6476 31.7037 16.36 31.7059 16.1798 31.7211ZM12.3988 29.098C13.9681 30.256 15.5515 30.9744 17.4257 30.3591C19.0796 29.8165 19.9674 28.5077 20.6597 26.883C17.9618 27.9987 15.278 28.7128 12.3988 29.098Z" fill="#25282B"/>
<path d="M21.5365 18.3169C21.3933 18.4971 21.2978 18.7391 21.148 18.7781C20.9462 18.8313 20.6434 18.8042 20.4903 18.6794C20.0606 18.331 19.6091 18.0858 19.0513 18.14C18.2808 18.2149 17.7501 18.624 17.4885 19.3631C17.4701 19.4141 17.4527 19.4651 17.4343 19.5161C17.3149 19.8428 17.0881 20.0023 16.7419 19.9101C16.3924 19.8156 16.2731 19.5508 16.3501 19.2177C16.5476 18.3636 17.0555 17.7352 17.8217 17.3261C18.9135 16.7433 20.2896 16.9343 21.1708 17.7884C21.3086 17.9219 21.3944 18.1085 21.5365 18.3169Z" fill="#25282B"/>
<path d="M10.213 19.398C10.9933 19.4034 11.6662 19.6779 12.2305 20.2141C12.5235 20.493 12.5615 20.8272 12.3445 21.0768C12.1122 21.3449 11.7888 21.334 11.4524 21.0475C10.3606 20.1196 8.98453 20.4886 8.49291 21.8398C8.34315 22.2511 8.06207 22.4269 7.73432 22.314C7.41309 22.2033 7.29154 21.8864 7.41092 21.4664C7.75494 20.2553 8.91724 19.3969 10.213 19.398Z" fill="#25282B"/>
<path d="M33.3115 11.9206C32.4715 11.8848 31.6316 11.4247 31.064 10.4957C30.8469 10.1408 30.9044 9.83261 31.1975 9.64378C31.4851 9.4582 31.7813 9.54502 32.0244 9.88796C32.8796 11.0937 34.2644 11.0958 35.112 9.89339C35.3561 9.54611 35.6459 9.45712 35.9367 9.64053C36.2384 9.82936 36.2829 10.1517 36.0616 10.5261C35.5493 11.391 34.59 11.925 33.3115 11.9206Z" fill="#25282B"/>
</svg>
