<svg width="40" height="40" viewBox="0 0 40 40" fill="none" xmlns="http://www.w3.org/2000/svg">
<path d="M30.3121 40C29.5676 39.6508 29.2317 38.9875 28.9856 38.261C28.4145 36.5743 28.1114 34.8267 27.9848 33.0634C27.7724 30.1049 27.6567 27.1393 27.5005 24.1769C27.4974 24.1152 27.4911 24.0534 27.4778 23.8792C27.0661 24.2722 26.6888 24.5847 26.3669 24.9456C24.8279 26.676 24.2365 28.7182 24.417 31.0072C24.6552 34.029 23.6287 36.4969 21.0928 38.2125C18.8522 39.7281 16.3773 39.9313 13.8906 38.9766C7.58525 36.5548 3.86423 31.9595 2.67519 25.3128C2.6455 25.1464 2.63066 24.9776 2.61425 24.8089C2.5705 24.3472 2.858 23.9675 3.29002 23.9128C3.70564 23.8597 4.08219 24.1284 4.14547 24.5823C4.34312 26.0057 4.66031 27.3971 5.22904 28.7198C7.09229 33.0525 10.2172 36.072 14.6898 37.6008C17.8397 38.6774 21.1123 37.2579 22.3959 34.3728C22.8521 33.347 22.9389 32.2642 22.8639 31.1611C22.6014 27.3073 24.0349 24.2909 27.2849 22.1597C27.4067 22.08 27.5013 21.8761 27.5114 21.723C27.6474 19.7106 27.7083 17.6918 27.9067 15.6856C28.0575 14.1622 28.3669 12.6544 28.6309 11.1443C28.6739 10.899 28.645 10.7764 28.4364 10.6365C27.6997 10.1404 27.206 9.45528 26.9232 8.61155C26.8755 8.46859 26.77 8.29046 26.6443 8.23656C22.5756 6.48503 18.4132 6.08816 14.2281 7.70844C9.26647 9.62872 6.08293 13.2388 4.59078 18.3418C4.565 18.4293 4.54703 18.5184 4.52125 18.6059C4.37672 19.0934 4.00173 19.3293 3.54705 19.2199C3.11659 19.1168 2.86581 18.6903 3.01503 18.209C3.29236 17.3168 3.53142 16.4012 3.9197 15.5559C6.53918 9.8584 10.9297 6.39128 17.1304 5.34286C20.3194 4.80381 23.4295 5.29365 26.4388 6.45144C26.5357 6.48894 26.6325 6.52722 26.7302 6.56237C26.7544 6.57097 26.781 6.57175 26.8474 6.58347C26.8989 6.43816 26.9528 6.28581 27.0067 6.13347C27.7341 4.07023 28.8497 2.20699 29.9989 0.362493C30.0895 0.217183 30.2582 0.119529 30.3903 0C30.5465 0 30.7028 0 30.859 0C31.0082 0.121091 31.2028 0.214058 31.2996 0.367962C32.4379 2.18824 33.5269 4.03508 34.2691 6.06394C34.6597 7.13267 34.6511 8.18187 34.1207 9.19904C33.9425 9.54044 33.7011 9.84824 33.4785 10.1857C33.5847 10.2764 33.6902 10.3701 33.7996 10.46C34.8207 11.2982 35.7456 12.2294 36.5136 13.3068C37.7214 15.0005 38.4659 16.8278 38.1261 18.966C37.8214 20.8832 36.6433 22.098 34.8457 22.3074C34.4918 22.3488 34.1285 22.3136 33.759 22.3136C33.7519 22.4628 33.7441 22.5394 33.7441 22.6152C33.7754 26.0932 33.6566 29.565 33.2793 33.0244C33.0871 34.7837 32.8402 36.5344 32.2754 38.2227C32.0277 38.9633 31.6957 39.6422 30.9379 39.9992C30.7285 40 30.5207 40 30.3121 40ZM29.1934 19.1074C29.177 19.4074 29.159 19.7059 29.1458 20.0035C28.9715 23.8308 29.0716 27.6526 29.3856 31.4689C29.5403 33.3478 29.7497 35.222 30.2395 37.0508C30.3301 37.3907 30.4629 37.7188 30.577 38.0524C30.7395 37.861 30.8301 37.6875 30.8676 37.5024C31.1285 36.2313 31.4613 34.9681 31.6176 33.6837C32.1848 29.0244 32.2996 24.3448 32.0918 19.6574C32.0832 19.4676 32.0582 19.2785 32.0418 19.1067C31.084 19.1074 30.1653 19.1074 29.1934 19.1074ZM30.677 2.33042C30.627 2.37027 30.5848 2.38823 30.5692 2.41948C29.8793 3.79993 29.1794 5.17646 28.513 6.56784C28.377 6.85143 28.3013 7.1983 28.3145 7.51079C28.3559 8.47718 28.8364 9.19591 29.7286 9.57794C30.6207 9.95996 31.4738 9.81934 32.1981 9.17248C32.923 8.52483 33.1699 7.70297 32.8566 6.76862C32.3293 5.19677 31.502 3.76946 30.677 2.33042ZM32.8082 11.7115C33.3754 14.7013 33.5715 17.7192 33.7035 20.7715C33.9777 20.7715 34.2097 20.7754 34.4418 20.7707C35.4496 20.7512 36.137 20.2363 36.4402 19.2785C36.6855 18.5028 36.7066 17.7161 36.5167 16.9286C35.9784 14.7021 34.5183 13.1247 32.8082 11.7115ZM30.1864 11.3342C29.6778 13.3615 29.4669 15.4075 29.2934 17.5098C30.2028 17.5098 31.0723 17.5098 31.9606 17.5098C31.7692 15.3856 31.5762 13.3357 31.0582 11.3342C30.7559 11.3342 30.4965 11.3342 30.1864 11.3342Z" fill="#25282B"/>
<path d="M20.4826 9.06448C22.2037 9.07073 23.6013 10.4863 23.5912 12.2129C23.581 13.9316 22.1576 15.3269 20.4318 15.312C18.7303 15.2964 17.3405 13.8886 17.3428 12.1824C17.346 10.4598 18.7577 9.05745 20.4826 9.06448ZM20.4701 13.7488C21.3271 13.7472 22.0302 13.0417 22.0287 12.1839C22.0271 11.3254 21.3224 10.6246 20.4639 10.6262C19.6053 10.6277 18.9045 11.3316 18.9061 12.1902C18.9077 13.0488 19.6123 13.7503 20.4701 13.7488Z" fill="#25282B"/>
<path d="M11.8516 19.2174C10.1329 19.208 8.73608 17.7878 8.74936 16.062C8.76264 14.3441 10.1868 12.9527 11.9141 12.9699C13.6165 12.9871 15.0016 14.3956 14.9969 16.105C14.9922 17.826 13.5758 19.2276 11.8516 19.2174ZM13.4344 16.1097C13.4422 15.2503 12.7462 14.5402 11.8884 14.5331C11.0282 14.5253 10.3189 15.2206 10.3118 16.0784C10.304 16.937 11.0001 17.6479 11.8571 17.6557C12.7157 17.6635 13.4266 16.9659 13.4344 16.1097Z" fill="#25282B"/>
<path d="M12.6528 25.4839C12.6465 27.2042 11.2286 28.6042 9.50362 28.5932C7.78491 28.5823 6.3904 27.1605 6.40446 25.4347C6.41853 23.7332 7.82631 22.3441 9.53331 22.3457C11.2567 22.3473 12.659 23.759 12.6528 25.4839ZM11.0903 25.4605C11.0864 24.6027 10.3794 23.9035 9.52003 23.9082C8.66145 23.9121 7.96303 24.6183 7.96771 25.4777C7.97162 26.3347 8.67942 27.0347 9.53721 27.0308C10.3942 27.0261 11.0942 26.3183 11.0903 25.4605Z" fill="#25282B"/>
<path d="M16.5739 34.8432C14.8505 34.8487 13.438 33.4441 13.4373 31.7222C13.4357 29.9996 14.8443 28.5926 16.5677 28.5957C18.2747 28.5981 19.6754 29.991 19.6856 31.6964C19.6942 33.4214 18.295 34.8378 16.5739 34.8432ZM18.1223 31.7074C18.1169 30.8496 17.4083 30.1519 16.5497 30.1582C15.6919 30.1636 14.9943 30.8714 15.0005 31.7308C15.006 32.5886 15.7146 33.2862 16.5731 33.2808C17.4294 33.2745 18.1278 32.5659 18.1223 31.7074Z" fill="#25282B"/>
<path d="M3.26014 20.7849C3.6906 20.774 4.05778 21.1333 4.057 21.5638C4.05622 21.9794 3.71326 22.331 3.29686 22.3411C2.86562 22.3521 2.5 21.9943 2.5 21.5622C2.50078 21.1458 2.84374 20.7951 3.26014 20.7849Z" fill="#25282B"/>
</svg>
