<svg width="40" height="40" viewBox="0 0 40 40" fill="none" xmlns="http://www.w3.org/2000/svg">
<path d="M28.8709 27.8475C29.0872 28.0595 29.3454 28.2914 29.5801 28.5462C30.8051 29.8761 30.7225 31.6064 29.3689 32.8192C28.9767 33.1707 28.6953 33.5715 28.8987 34.1042C29.1919 34.8728 29.7501 35.412 30.4511 35.2141C30.6121 35.1688 30.7692 35.0826 30.9081 34.9855C31.3769 34.6572 31.8332 34.3108 32.2998 33.9792C33.2651 33.2936 34.3562 33.3907 35.1986 34.2339C35.5584 34.5941 35.9157 34.9576 36.2694 35.3239C36.5497 35.6142 36.57 35.92 36.336 36.161C36.1055 36.398 35.7906 36.3828 35.5114 36.1063C35.1495 35.7479 34.7997 35.3772 34.4378 35.0192C33.9647 34.5506 33.4746 34.5064 32.9264 34.884C32.4373 35.221 31.9578 35.5722 31.4684 35.9084C30.4375 36.6169 29.2439 36.4237 28.4499 35.4461C27.9573 34.8395 27.6388 34.1897 27.7938 33.374C27.8914 32.8602 28.1464 32.4489 28.5176 32.0916C28.7334 31.884 28.9472 31.656 29.0968 31.398C29.5217 30.6671 29.4473 30.0199 28.8941 29.3865C28.6804 29.1419 28.4527 28.9075 28.2098 28.6933C28.1407 28.6324 27.974 28.6129 27.8899 28.6542C26.7964 29.1908 25.7944 29.0549 24.8586 28.2769C20.9325 25.0131 17.0035 21.7532 13.0781 18.4882C12.9292 18.3647 12.7985 18.302 12.5908 18.3306C12.241 18.3788 11.9468 18.2186 11.6989 17.9639C11.1243 17.3736 10.5533 16.7793 9.96128 16.2075C9.81951 16.0705 9.60828 15.9574 9.41664 15.9324C6.63501 15.5683 4.34174 13.1603 4.06034 10.3182C3.83522 8.04473 4.45609 6.08249 6.17728 4.58409C8.01745 2.98205 10.1497 2.58308 12.4145 3.44226C14.6654 4.29601 16.004 6.00458 16.3844 8.42739C16.4639 8.93362 16.6334 9.31157 16.996 9.65256C17.4847 10.112 17.9314 10.6172 18.4031 11.0959C18.6791 11.376 18.8038 11.6989 18.7821 12.0993C18.7749 12.2312 18.8401 12.395 18.9249 12.5008C22.1076 16.4735 25.2925 20.4447 28.4887 24.4061C29.0337 25.0816 29.365 25.8114 29.2172 26.6923C29.1552 27.0626 29.0034 27.417 28.8709 27.8475ZM13.7624 17.6265C13.8215 17.6794 13.891 17.7465 13.9651 17.8081C17.8039 21.0034 21.6431 24.1988 25.4827 27.3931C26.1798 27.9729 27.0521 27.962 27.6388 27.3706C28.2323 26.7727 28.2558 25.8889 27.6855 25.1794C24.5327 21.2564 21.3767 17.3352 18.2228 13.4125C18.1697 13.3466 18.1295 13.2705 18.096 13.2183C16.6238 14.7156 15.1972 16.1665 13.7624 17.6265ZM10.2901 4.39276C9.2339 4.41776 8.30954 4.68954 7.46462 5.23926C4.89921 6.90761 4.34174 10.5683 6.28557 12.953C6.43055 13.131 6.56911 13.2045 6.77358 13.0965C7.14403 12.9012 7.5412 12.7425 7.87604 12.4964C9.76893 11.106 11.431 9.46667 12.8152 7.55335C13.1465 7.09568 13.3481 6.53944 13.5939 6.02089C13.6801 5.83898 13.6284 5.68497 13.4518 5.54401C12.5046 4.78774 11.4314 4.41378 10.2901 4.39276ZM14.5503 6.82535C12.8038 9.84063 10.3898 12.1555 7.55509 14.0398C9.14663 15.2084 11.9503 15.2486 13.8454 13.3455C15.8124 11.3702 15.6998 8.44007 14.5503 6.82535ZM11.327 15.8755C11.7352 16.2926 12.1555 16.7217 12.5349 17.1094C14.2226 15.4005 15.9392 13.6622 17.624 11.9561C17.2169 11.5456 16.7962 11.1212 16.3926 10.7143C15.7657 13.5071 14.0538 15.2461 11.327 15.8755Z" fill="#25282B"/>
<path d="M12.6794 26.4233C11.6164 26.6548 10.6112 26.8777 9.60352 27.0897C9.38587 27.1353 9.41544 27.2846 9.41544 27.4357C9.4158 29.4357 9.419 31.4352 9.41437 33.4351C9.41117 34.7263 8.67132 35.7706 7.51187 36.1402C6.1109 36.5867 4.60628 35.8101 4.14249 34.4008C3.67052 32.9666 4.40751 31.4146 5.81382 30.9341C6.08632 30.8409 6.17003 30.7261 6.16754 30.4354C6.15293 28.5997 6.1597 26.7635 6.16041 24.9278C6.16077 24.028 6.42935 23.7066 7.30883 23.5254C9.68545 23.0362 12.0614 22.5445 14.4369 22.0513C15.3588 21.8599 15.9301 22.3231 15.9305 23.275C15.9316 25.9413 15.9369 28.608 15.9283 31.2743C15.9237 32.6894 14.9167 33.8399 13.5535 34.0211C12.259 34.1932 10.9952 33.3482 10.6326 32.0683C10.2415 30.688 11.0098 29.2092 12.3955 28.7156C12.6217 28.6352 12.6897 28.5323 12.6844 28.3011C12.6701 27.6908 12.6794 27.081 12.6794 26.4233ZM14.8426 23.1304C14.719 23.15 14.6346 23.1601 14.5516 23.1775C12.2801 23.6464 10.0078 24.1132 7.73734 24.5871C7.18024 24.7035 7.27463 24.5835 7.27249 25.1495C7.26644 26.9748 7.27178 28.8004 7.26964 30.6257C7.26857 31.4095 7.02671 31.7298 6.28936 31.9454C6.24804 31.9574 6.20814 31.9741 6.16789 31.9889C5.52743 32.2187 5.10497 32.8158 5.09143 33.5112C5.07754 34.2204 5.46118 34.819 6.09736 35.0799C7.17382 35.5217 8.3201 34.7357 8.32509 33.5355C8.33399 31.4258 8.3258 29.3164 8.32901 27.2067C8.33007 26.5573 8.64817 26.1634 9.26833 26.0254C10.2956 25.7964 11.3233 25.5695 12.3509 25.3427C13.1645 25.1633 13.7491 25.6413 13.7555 26.495C13.7601 27.0962 13.7565 27.6974 13.7565 28.2985C13.7562 29.249 13.5987 29.4719 12.7175 29.7687C11.6417 30.1307 11.2474 31.5088 11.9659 32.3959C12.3948 32.9253 13.1075 33.1333 13.743 32.9144C14.3999 32.6883 14.8394 32.0704 14.8408 31.3377C14.8451 28.7471 14.8426 26.1566 14.8426 23.566C14.8426 23.4355 14.8426 23.3051 14.8426 23.1304Z" fill="#25282B"/>
<path d="M34.3223 14.0824C34.3223 15.4533 34.3352 16.84 34.3181 18.2265C34.3063 19.1922 33.8789 19.9568 33.0795 20.4692C32.1438 21.0693 31.1614 21.0914 30.2181 20.5025C29.2606 19.9046 28.8435 18.9871 28.9582 17.8561C29.0729 16.7237 29.6824 15.9305 30.7296 15.5341C31.0342 15.4188 31.0994 15.2779 31.0937 14.976C31.0744 13.9603 31.0841 12.9438 31.0873 11.9281C31.0894 11.2864 31.3826 10.9044 31.9885 10.7482C32.9965 10.4881 34.0043 10.2275 35.0141 9.97422C35.8939 9.75353 36.4956 10.2384 36.4995 11.1639C36.5016 11.6118 36.5027 12.0597 36.4991 12.5075C36.4938 13.1464 36.207 13.5302 35.6051 13.7008C35.2022 13.815 34.7972 13.9193 34.3932 14.0295C34.3754 14.0353 34.3605 14.0538 34.3223 14.0824ZM35.412 11.0066C34.4021 11.2646 33.4375 11.5205 32.4676 11.752C32.2328 11.8082 32.1623 11.9042 32.1652 12.1448C32.178 13.1939 32.1748 14.2433 32.1691 15.2924C32.1655 15.966 31.893 16.3266 31.2689 16.5164C31.1866 16.5415 31.1033 16.5639 31.0242 16.5973C30.3731 16.8727 29.9563 17.5543 30.0008 18.2667C30.0454 18.9777 30.5234 19.5727 31.203 19.7644C32.2467 20.0583 33.2295 19.2752 33.2409 18.1149C33.2551 16.694 33.2437 15.2732 33.2452 13.8523C33.2455 13.3113 33.3488 13.1772 33.8532 13.05C34.301 12.937 34.7519 12.8351 35.1947 12.704C35.283 12.6779 35.3981 12.5452 35.402 12.4572C35.423 11.989 35.412 11.519 35.412 11.0066Z" fill="#25282B"/>
<path d="M28.3792 7.43649C28.3792 8.72689 28.3817 10.0032 28.377 11.2798C28.3763 11.5081 28.3646 11.7393 28.3272 11.9636C28.106 13.3018 26.9942 14.2458 25.6577 14.2403C24.3159 14.2345 23.2345 13.2866 22.9962 11.9067C22.7782 10.6438 23.5422 9.33313 24.7751 8.91568C25.064 8.81784 25.1437 8.68884 25.138 8.39169C25.1188 7.39807 25.1284 6.40337 25.1316 5.40939C25.1341 4.63826 25.4002 4.30343 26.1397 4.11681C27.1075 3.87221 28.0746 3.62399 29.0421 3.37758C29.9312 3.1511 30.53 3.61493 30.5392 4.54115C30.5439 5.01078 30.5471 5.48077 30.5378 5.95041C30.5257 6.56752 30.2521 6.92554 29.6704 7.09187C29.2572 7.20964 28.8408 7.31401 28.3792 7.43649ZM29.4624 4.42012C29.3331 4.44403 29.2394 4.45599 29.1482 4.47918C28.2851 4.6995 27.4256 4.93722 26.5575 5.13435C26.2626 5.20139 26.1931 5.32713 26.1992 5.61739C26.2184 6.57839 26.2067 7.54012 26.2063 8.50113C26.206 9.42155 26.046 9.64803 25.1808 9.9517C24.281 10.2677 23.8194 11.2548 24.1531 12.1502C24.4267 12.884 25.1644 13.3156 25.9295 13.1895C26.7079 13.0612 27.2803 12.4078 27.2863 11.5987C27.2974 10.1347 27.2895 8.67108 27.291 7.20711C27.2913 6.72008 27.4014 6.57839 27.8737 6.45519C28.3307 6.33597 28.7906 6.22617 29.2448 6.0968C29.3278 6.07325 29.4503 5.97831 29.4528 5.91272C29.4706 5.42425 29.4624 4.93505 29.4624 4.42012Z" fill="#25282B"/>
<path d="M18.1789 15.9674C18.6274 15.9877 19.0916 16.1623 19.368 16.6283C19.7103 17.2052 20.0259 17.8017 20.3073 18.4116C20.511 18.8529 20.433 19.2968 20.0793 19.648C19.737 19.9875 19.3135 20.0683 18.8889 19.8625C18.2908 19.5726 17.6938 19.2689 17.1367 18.9069C16.529 18.5119 16.3292 17.7742 16.5596 17.0853C16.7872 16.4044 17.401 15.9601 18.1789 15.9674ZM19.2087 18.8863C19.2511 18.8421 19.2939 18.7982 19.3363 18.754C19.057 18.2554 18.7952 17.7459 18.4917 17.2632C18.3236 16.9961 17.9524 16.998 17.7251 17.2161C17.4972 17.4353 17.4708 17.8234 17.7262 17.9963C18.2039 18.3184 18.7129 18.5924 19.2087 18.8863Z" fill="#25282B"/>
</svg>
