<svg width="40" height="40" viewBox="0 0 40 40" fill="none" xmlns="http://www.w3.org/2000/svg">
<g clip-path="url(#clip0_3009_179777)">
<path d="M0.5 20.7811C0.674444 20.0659 0.783333 19.3263 1.03704 18.6404C1.56074 17.2241 2.50926 16.0767 3.55185 15.0093C5.77 12.7385 8.35926 10.95 11.0633 9.32407C12.7007 8.33963 14.3822 7.42889 16.0474 6.49074C16.5256 6.22148 16.7956 6.28704 17.1204 6.71889C18.4511 8.48852 18.0163 11.0011 16.1626 12.2456C15.8315 12.4678 15.4952 12.6826 15.0681 12.9619C20.6081 12.9619 26.0356 12.9619 31.4196 12.9619C31.3115 12.0963 31.203 11.2281 31.0967 10.3785C30.7356 10.293 30.3459 10.24 29.9852 10.1074C28.6296 9.60963 27.7996 8.32815 27.8422 6.84852C27.8815 5.48741 28.8322 4.2537 30.1674 3.83148C31.51 3.40704 32.9819 3.86963 33.8152 5.01704C34.0022 5.27444 34.1407 5.32222 34.4422 5.22518C37.0926 4.37185 39.8822 6.05333 40.4211 8.81C40.4378 8.89592 40.4733 8.97852 40.5004 9.06259C40.5004 11.1719 40.5004 13.2815 40.5004 15.3907C40.103 16.6141 39.2311 17.0941 37.9874 17.0085C37.6841 16.9878 37.3781 17.0056 37.0363 17.0056C37.0852 17.1696 37.1056 17.2704 37.1448 17.3637C37.8126 18.957 38.4641 20.5578 39.16 22.1385C39.5344 22.9889 39.71 23.8541 39.5078 24.7585C39.147 26.3722 38.0741 27.3881 36.6322 28.0844C36.4126 28.1907 36.1922 28.3618 36.0541 28.56C34.4244 30.8911 32.3863 32.7718 29.9167 34.1826C29.4481 34.4504 28.9641 34.6915 28.383 35.0004C29.1644 35.0004 29.8337 35.0004 30.503 35.0004C31.8178 35.0004 33.1322 34.9963 34.447 35.0037C34.8711 35.0059 35.1681 35.2937 35.1685 35.6663C35.1689 36.0389 34.8719 36.3133 34.4478 36.3304C34.3696 36.3333 34.2915 36.3315 34.2133 36.3315C23.9563 36.3315 13.6993 36.3315 3.44222 36.3311C3.31222 36.3311 3.17926 36.3407 3.05259 36.3178C2.5737 36.2315 2.31593 35.6537 2.63889 35.3007C2.79667 35.1281 3.10741 35.0152 3.35 35.013C5.70593 34.9922 8.06185 35.0004 10.4178 35.0004C10.5489 35.0004 10.6796 35.0004 10.8107 35.0004C10.7533 34.8989 10.6981 34.8659 10.6411 34.8381C8.64815 33.863 6.87037 32.5841 5.30148 31.0181C3.36963 29.09 1.82 26.9078 1.01296 24.2711C0.767407 23.4689 0.667037 22.6226 0.5 21.797C0.5 21.4585 0.5 21.1196 0.5 20.7811ZM6.70926 13.9667C5.34 14.85 3.15259 17.2148 2.48333 18.6589C2.19852 19.2733 1.99815 19.9563 1.91185 20.6278C1.70222 22.2626 2.11815 23.8104 2.81519 25.2752C4.47741 28.767 7.11778 31.3363 10.4511 33.2237C12.5978 34.4393 14.8944 35.0881 17.387 35.0081C18.8307 34.9618 20.2785 35.0441 21.7211 34.9856C22.8341 34.9404 23.9663 34.8737 25.0478 34.6293C29.3748 33.6518 32.6267 31.1067 35.1426 27.5267C35.3093 27.2896 35.5922 27.1252 35.8419 26.9578C36.3237 26.6341 36.8789 26.3956 37.2993 26.0085C38.3481 25.0418 38.4907 23.9352 37.9215 22.6426C37.1989 21.0022 36.4959 19.3511 35.857 17.677C35.6248 17.0689 35.3937 16.5741 34.6996 16.453C34.6378 16.4422 34.5841 16.3848 34.5226 16.3748C34.3433 16.3463 34.1559 16.2922 33.9822 16.3181C33.5796 16.3781 33.2389 16.1467 33.1689 15.7241C32.9937 14.6641 32.6019 14.3311 31.523 14.3311C24.6756 14.3307 17.8278 14.3307 10.9804 14.3307C10.8281 14.3307 10.6763 14.3307 10.5004 14.3307C10.5004 14.5263 10.5085 14.6689 10.4993 14.8104C10.367 16.7993 11.1259 17.0378 12.6767 17.017C15.7485 16.9763 18.8211 17.0048 21.8933 17.0048C24.7181 17.0048 27.5433 17.0059 30.3681 17.0037C30.9119 17.0033 31.0941 16.8519 31.17 16.3611C31.2444 15.8778 31.4952 15.6448 31.9004 15.6815C32.3022 15.7178 32.5422 16.0522 32.4978 16.533C32.43 17.2652 32.077 17.8196 31.4004 18.1167C31.1448 18.2285 31.0337 18.3659 31.0307 18.6304C31.0293 18.7456 30.99 18.8604 30.9659 18.9748C30.2881 22.1963 28.5552 24.6037 25.5215 25.9922C25.253 26.1152 25.1622 26.2444 25.1667 26.5344C25.1841 27.693 25.1741 28.8515 25.1733 30.01C25.1733 30.127 25.1796 30.2456 25.1656 30.3611C25.12 30.7385 24.84 31.0019 24.497 31C24.133 30.9981 23.8489 30.7204 23.8456 30.3148C23.8356 29 23.8474 27.6852 23.8304 26.3704C23.8285 26.2215 23.7363 26.0022 23.6185 25.9374C22.2122 25.16 20.7278 24.7904 19.1159 25.1385C17.6667 25.4515 16.4619 26.2459 15.2856 27.0859C14.8752 27.3789 14.4611 27.5167 13.9726 27.4156C11.7107 26.9493 9.63704 26.0604 7.79296 24.6581C6.87667 23.9615 6.32111 23.03 6.00519 21.9359C5.76556 21.1052 5.83074 20.3463 6.30407 19.5867C7.05111 18.3874 7.89556 17.2752 8.91259 16.3022C8.16815 15.5133 7.43815 14.7396 6.70926 13.9667ZM9.76222 17.3422C8.76741 18.3011 7.95481 19.3448 7.33111 20.5274C7.23 20.7189 7.19259 20.9822 7.22407 21.1981C7.37037 22.2063 7.84593 23.0311 8.66963 23.6507C10.2874 24.867 12.0974 25.653 14.0707 26.0685C14.2119 26.0981 14.4007 26.0415 14.5304 25.9633C15.1985 25.5615 15.8393 25.1115 16.5178 24.7289C19.1115 23.267 21.7096 23.3667 24.2878 24.7759C24.5215 24.9037 24.7011 24.9111 24.9359 24.8056C27.2837 23.7507 28.7552 21.9481 29.4748 19.5044C29.5826 19.1381 29.6507 18.76 29.7478 18.3404C29.513 18.3404 29.3459 18.3404 29.1793 18.3404C23.5293 18.3404 17.8796 18.3352 12.2296 18.3456C11.2722 18.3467 10.4259 18.1304 9.76222 17.3422ZM32.7544 12.7841C33.0281 13.0885 33.2452 13.3326 33.4656 13.5737C33.6578 13.7837 33.9181 13.9593 34.0359 14.2041C34.3619 14.8811 34.9719 15.1459 35.603 15.3893C36.5644 15.76 37.573 15.6856 38.5707 15.6463C38.9707 15.6307 39.1667 15.3419 39.1674 14.8759C39.1707 13.1341 39.1793 11.3922 39.1596 9.65074C39.1552 9.25741 39.0441 8.86555 38.9719 8.40852C38.0281 9.14667 37.0556 9.56518 35.9422 9.63926C35.8489 9.64556 35.7448 9.80185 35.6819 9.91C35.3833 10.4222 35.1452 10.9767 34.7959 11.4496C34.3222 12.0907 33.6274 12.4652 32.7544 12.7841ZM16.2456 7.92963C14.1389 8.89815 8.44667 12.4267 7.81185 13.1674C8.23815 13.6341 8.66704 14.1041 9.16926 14.6537C9.16926 14.3148 9.16889 14.1078 9.16926 13.9004C9.17111 13.2067 9.38 12.9974 10.0819 12.9948C10.863 12.9922 11.6437 12.9989 12.4244 12.9896C12.573 12.9878 12.7481 12.9707 12.8652 12.8922C13.7826 12.2759 14.7011 11.6596 15.5948 11.01C16.5778 10.2967 16.8507 8.96148 16.2456 7.92963ZM32.5215 11.4207C32.6352 11.3863 32.697 11.3744 32.7533 11.3496C33.7352 10.9189 34.3137 10.1711 34.4815 9.11444C34.5756 8.52111 34.7333 8.36667 35.3374 8.33333C35.5707 8.32037 35.8052 8.30889 36.0363 8.27592C36.8341 8.16185 37.5741 7.91741 38.1548 7.31704C36.5481 5.55222 33.4811 6.26593 32.6885 8.57778C32.3733 9.49815 32.5352 10.4444 32.5215 11.4207ZM32.8874 6.04222C32.3693 5.12555 31.3393 4.77148 30.4081 5.15111C29.487 5.52704 28.9859 6.51667 29.2307 7.47741C29.4696 8.41555 30.3207 9.05667 31.2204 8.95407C31.4133 7.79074 31.9719 6.81815 32.8874 6.04222Z" fill="#25282B"/>
<path d="M37.4804 36.3303C37.4026 36.3306 37.3245 36.3325 37.2467 36.3303C36.7852 36.3173 36.5045 36.0603 36.5093 35.6569C36.5141 35.2699 36.7885 35.0158 37.2259 35.0014C37.4204 34.9951 37.6159 34.9932 37.81 35.0025C38.2204 35.0229 38.483 35.2803 38.4878 35.6554C38.493 36.048 38.2237 36.3099 37.7915 36.3292C37.6885 36.334 37.5845 36.3299 37.4804 36.3303Z" fill="#25282B"/>
</g>
<defs>
<clipPath id="clip0_3009_179777">
<rect width="40" height="40" fill="white"/>
</clipPath>
</defs>
</svg>
