<svg width="24" height="24" viewBox="0 0 24 24" fill="none" xmlns="http://www.w3.org/2000/svg">
<path fill-rule="evenodd" clip-rule="evenodd" d="M0.360163 10.8992C2.60744 6.78999 6.9771 4 12.0001 4C17.0231 4 21.3928 6.79007 23.64 10.8994C24.1201 11.7772 24.1201 12.8384 23.64 13.7162C21.3927 17.8254 17.0231 20.6154 12.0001 20.6154C6.9771 20.6154 2.60739 17.8253 0.36014 13.716C-0.119933 12.8382 -0.119924 11.777 0.360163 10.8992ZM9.00009 12C9.00009 10.3431 10.3432 9 12.0001 9C13.6569 9 15.0001 10.3431 15.0001 12C15.0001 13.6569 13.6569 15 12.0001 15C10.3432 15 9.00009 13.6569 9.00009 12ZM12.0001 7C9.23867 7 7.00009 9.23858 7.00009 12C7.00009 14.7614 9.23867 17 12.0001 17C14.7615 17 17.0001 14.7614 17.0001 12C17.0001 9.23858 14.7615 7 12.0001 7Z" fill="#25282B"/>
</svg>
