<svg width="25" height="24" viewBox="0 0 25 24" fill="none" xmlns="http://www.w3.org/2000/svg">
<path fill-rule="evenodd" clip-rule="evenodd" d="M6.13317 18.873C3.69413 17.6239 1.68152 15.6631 0.370642 13.266C-0.123433 12.3626 -0.123425 11.2704 0.370665 10.367C2.68349 6.13796 7.18059 3.2666 12.3501 3.2666C15.0295 3.2666 17.5284 4.03804 19.6361 5.37013L15.9599 9.04633C15.1281 7.96416 13.8206 7.26667 12.3502 7.26667C9.83729 7.26667 7.80019 9.30377 7.80019 11.8167C7.80019 13.2871 8.49768 14.5946 9.57985 15.4263L6.13317 18.873ZM7.6069 19.5206C9.08412 20.0677 10.6821 20.3666 12.3501 20.3666C17.5196 20.3666 22.0167 17.4952 24.3295 13.2662C24.8236 12.3628 24.8236 11.2706 24.3295 10.3672C23.4599 8.777 22.2815 7.37877 20.8746 6.25296L16.688 10.4395C16.8258 10.8739 16.9002 11.3366 16.9002 11.8167C16.9002 14.3296 14.8631 16.3667 12.3502 16.3667C11.8701 16.3667 11.4074 16.2923 10.973 16.1545L7.6069 19.5206ZM12.3502 11.8167L10.2009 13.9807C9.64462 13.4282 9.30019 12.6627 9.30019 11.8167C9.30019 10.1322 10.6657 8.76667 12.3502 8.76667C13.0448 8.76667 13.6853 8.9989 14.198 9.38996L12.3502 11.8167Z" fill="#25282B"/>
<path d="M21.5334 2L2.53342 21" stroke="#25282B" stroke-width="1.5" stroke-linecap="round" stroke-linejoin="round"/>
</svg>
