<svg width="24" height="24" viewBox="0 0 24 24" fill="none" xmlns="http://www.w3.org/2000/svg">
<path fill-rule="evenodd" clip-rule="evenodd" d="M1.795 2.795C2.30402 2.28597 2.99441 2 3.71429 2H20C20.7199 2 21.4103 2.28597 21.9193 2.795C22.4283 3.30402 22.7143 3.99441 22.7143 4.71429V18.2857C22.7143 19.0056 22.4283 19.696 21.9193 20.205C21.4103 20.714 20.7199 21 20 21H3.71429C2.99441 21 2.30402 20.714 1.795 20.205C1.28597 19.696 1 19.0056 1 18.2857V4.71429C1 3.99441 1.28597 3.30402 1.795 2.795ZM20.9596 3.75464C20.7051 3.50013 20.3599 3.35714 20 3.35714H3.71429C3.35435 3.35714 3.00915 3.50013 2.75464 3.75464C2.50013 4.00915 2.35714 4.35435 2.35714 4.71429V16.9286L5.94814 13.7339C6.05907 13.6233 6.2048 13.5546 6.36063 13.5392C6.51646 13.5239 6.6728 13.5629 6.80314 13.6497L10.4131 16.0546L15.4481 11.0196C15.5489 10.9191 15.6788 10.8528 15.8193 10.8301C15.9599 10.8075 16.1039 10.8296 16.2312 10.8934L21.3571 13.5357V4.71429C21.3571 4.35435 21.2142 4.00915 20.9596 3.75464ZM8.34392 9.84099C8.76588 9.41903 9.00293 8.84674 9.00293 8.25C9.00293 7.65326 8.76588 7.08097 8.34392 6.65901C7.92196 6.23705 7.34967 6 6.75293 6C6.15619 6 5.5839 6.23705 5.16194 6.65901C4.73998 7.08097 4.50293 7.65326 4.50293 8.25C4.50293 8.84674 4.73998 9.41903 5.16194 9.84099C5.5839 10.2629 6.15619 10.5 6.75293 10.5C7.34967 10.5 7.92196 10.2629 8.34392 9.84099Z" fill="#25282B"/>
</svg>
