<svg width="100" height="100" viewBox="0 0 100 100" fill="none" xmlns="http://www.w3.org/2000/svg">
<path fill-rule="evenodd" clip-rule="evenodd" d="M31.0567 21.1353C31.981 18.0057 34.6242 15.6219 37.7701 15.103C40.2836 14.6814 42.9106 15.5733 44.8403 17.4867C46.5267 19.1732 47.3375 21.0867 47.3375 23.3893C47.3375 26.3406 45.3916 29.4379 42.7322 30.719L41.662 31.2216V35.4378V39.6377H47.7429C53.1031 39.6377 54.1209 39.6377 54.7357 40.1354C54.8854 40.2566 55.0111 40.4072 55.1698 40.5945C55.9969 41.5836 55.932 42.8485 55.0239 43.8539C54.1969 44.762 53.7104 44.8268 47.2565 44.8268H41.662V48.4754V52.124L52.105 52.1564L52.1883 52.1568C62.3708 52.2051 62.5655 52.206 63.0184 52.5456C63.2616 52.724 66.1805 56.9077 69.4723 61.8211L75.4722 70.7723H79.9316C83.9207 70.7723 84.4558 70.8048 85.0558 71.0805C86.045 71.5345 86.4991 72.2642 86.4991 73.3993C86.4991 74.3885 86.2234 74.9236 85.3802 75.5398C84.9423 75.8642 84.7477 75.8804 79.0397 75.8804C73.3479 75.8804 73.1209 75.8642 72.6831 75.5398C72.4398 75.3615 69.5372 71.194 66.2291 66.2805L60.2292 57.3293L49.1699 57.2807L49.0867 57.2803C38.3043 57.232 38.1095 57.2312 37.6728 56.8915C37.4296 56.7131 37.0728 56.3564 36.8945 56.1131C36.5553 55.677 36.5539 55.4822 36.4738 43.5876L36.4729 43.4485L36.3918 31.2216L35.354 30.7027C34.1053 30.0703 32.354 28.4001 31.7378 27.2163C30.8135 25.4812 30.5216 22.9353 31.0567 21.1353ZM39 27C41.2091 27 43 25.2091 43 23C43 20.7909 41.2091 19 39 19C36.7909 19 35 20.7909 35 23C35 25.2091 36.7909 27 39 27Z" fill="#25282B"/>
<path d="M26.9221 38.6647C24.733 39.8322 23.0141 41.1133 21.1492 42.9619C17.6952 46.4159 15.4574 50.5834 14.4034 55.5293C13.8683 57.9779 13.8683 62.794 14.3872 65.194C15.425 69.9939 17.5006 73.9506 20.7925 77.3721C24.1492 80.8424 27.8788 83.0477 32.4355 84.2153C39.3597 85.999 46.5272 84.718 52.6082 80.6153C54.5703 79.2856 57.6675 76.1559 58.9973 74.1938C60.2621 72.2803 61.6242 69.475 61.7377 68.5669C61.8999 67.0426 60.7161 65.7129 59.1756 65.7129C57.8297 65.7129 57.327 66.1507 56.3865 68.1615C53.5811 74.1776 48.7163 78.0856 42.311 79.464C40.43 79.8694 36.749 79.8694 34.8517 79.464C28.0572 78.037 22.7384 73.5128 20.3222 67.0912C19.6574 65.3561 19.2844 63.394 19.1871 61.2048C18.8303 53.5347 22.8357 46.6916 29.9058 42.897C31.1545 42.2322 31.495 41.7619 31.5761 40.6106C31.6409 39.4268 31.268 38.7133 30.3112 38.2106C29.241 37.6755 28.6572 37.7404 26.9221 38.6647Z" fill="#25282B"/>
</svg>
