<svg width="100" height="100" viewBox="0 0 100 100" fill="none" xmlns="http://www.w3.org/2000/svg">
<path d="M17.656 15.0848C16.7118 15.3858 15.8771 16.0837 15.3845 17.0141C15.1382 17.4794 15.1245 18.1499 15.1245 33.6397V49.7863L15.4119 50.3337C15.8224 51.1 16.3834 51.6199 17.177 51.9894C17.8612 52.3178 17.9023 52.3178 22.8968 52.3178H27.9187V63.771C27.9187 75.0052 27.9323 75.2515 28.206 75.8536C28.5481 76.6062 29.1776 77.2903 29.9028 77.6735L30.4501 77.9745L42.9296 78.0156L55.409 78.0566L55.8742 78.6997C56.531 79.5892 58.3099 81.2859 59.3909 82.0385C62.7571 84.4195 67.0811 85.4321 71.1588 84.83C74.6481 84.2963 77.8364 82.6954 80.3131 80.2186C87.3602 73.1716 86.4981 61.5405 78.4932 55.5745C76.3859 54.0009 73.1977 52.7283 70.8578 52.5094L69.9273 52.4136L69.8999 42.4109L69.8589 32.4082L69.4894 31.7924C69.2978 31.4503 67.1358 29.1925 64.7001 26.7705C60.513 22.6107 60.2393 22.3644 59.5414 22.1592C58.8983 21.9676 57.7352 21.9402 50.9481 21.9402H43.1074V20.0519C43.1074 18.7383 43.039 17.9446 42.8885 17.4383C42.6422 16.6036 41.9443 15.7552 41.137 15.3311L40.576 15.03L29.287 15.0027C23.0747 14.989 17.8475 15.03 17.656 15.0848ZM40.3297 17.6162L40.7128 17.9446V33.6397V49.3348L40.3297 49.6632L39.9465 49.9916H29.0681H18.176L17.7791 49.5948L17.3823 49.1979V33.6397V18.0815L17.7791 17.6846L18.176 17.2878H29.0681H39.9465L40.3297 17.6162ZM58.2962 27.5779C58.2962 30.7661 58.3099 30.9303 58.6246 31.5872C58.7888 31.9703 59.172 32.4766 59.4593 32.7366C60.4309 33.585 60.6361 33.626 64.2896 33.6807L67.6011 33.7355V43.0814V52.4136L66.6843 52.5094C64.3854 52.7146 60.9235 54.1103 58.9804 55.5882C57.0237 57.066 55.0532 59.4606 54.0406 61.5816C52.9186 63.9352 52.4944 65.9193 52.4944 68.7381C52.4944 70.5717 52.5491 71.0643 52.8638 72.3232C53.0554 73.1305 53.3838 74.1705 53.5754 74.6357C53.767 75.101 53.9175 75.5388 53.9175 75.6073C53.9175 75.6757 48.7451 75.703 42.4096 75.6894L30.9017 75.6483L30.5733 75.2652L30.2449 74.882V63.5931V52.3178H35.2804C40.2476 52.3178 40.3023 52.3178 40.9865 51.9894C41.3696 51.8252 41.9033 51.4284 42.177 51.1136C43.1348 50.0463 43.1074 50.5526 43.1074 36.6911V24.2664H50.7018H58.2962V27.5779ZM63.537 31.2177L61.2382 31.2588L60.9372 30.903C60.6361 30.5609 60.6224 30.4377 60.6224 28.262V25.9769L63.2223 28.5768L65.8222 31.1767L63.537 31.2177ZM71.6377 54.9724C75.7702 55.8618 79.3416 58.5849 81.2026 62.2658C83.9393 67.6434 83.0361 73.9379 78.9037 78.2756C75.7017 81.6691 71.1177 83.229 66.5748 82.4901C60.7456 81.5459 56.1753 77.1124 54.9985 71.2696C54.7659 70.0928 54.7522 67.1782 54.9985 66.0698C55.9016 61.7731 58.4467 58.3249 62.1824 56.3408C63.5781 55.6019 64.878 55.1503 66.2464 54.9177C66.8074 54.8356 67.3548 54.7398 67.4642 54.7124C67.9158 54.603 70.7346 54.7808 71.6377 54.9724Z" fill="#25282B"/>
<path d="M21.1455 19.8743C20.4887 20.1753 20.2013 20.4763 19.914 21.1605C19.7361 21.571 19.7087 22.4605 19.7087 26.6887C19.7087 32.4495 19.7361 32.5316 20.8171 33.2568L21.4055 33.6399H28.9999C37.5932 33.6399 37.2921 33.681 38.0174 32.5726L38.3868 32.0116L38.4279 26.9897C38.4553 23.7741 38.4142 21.7489 38.3184 21.4205C38.1268 20.6953 37.7027 20.1753 37.0322 19.8743C36.5122 19.6416 35.9785 19.6143 29.082 19.6143C22.1992 19.6143 21.6518 19.6416 21.1455 19.8743ZM36.1017 26.6203L36.129 31.2453H29.082H22.0349V26.5929V21.9405L29.0546 21.9678L36.0606 22.0089L36.1017 26.6203Z" fill="#25282B"/>
<path d="M20.1189 36.308C19.7495 36.6775 19.6537 37.1838 19.8726 37.6217C20.16 38.2511 20.5705 38.3742 22.1988 38.3332C23.5261 38.2921 23.6903 38.2648 24.0051 37.9637C24.484 37.5122 24.484 36.828 24.0187 36.3764C23.704 36.048 23.6082 36.0344 22.0346 36.0344C20.5842 36.0344 20.3652 36.0617 20.1189 36.308Z" fill="#25282B"/>
<path d="M27.2073 36.2252C26.8105 36.5126 26.6463 37.1147 26.8379 37.5662C27.0842 38.1683 27.6042 38.3599 28.9862 38.3599C30.8609 38.3599 31.3398 38.0999 31.3398 37.0873C31.3398 36.7863 31.2303 36.5263 31.0251 36.3347C30.7377 36.061 30.5598 36.0337 29.0683 36.0337C27.9463 36.0473 27.3715 36.1021 27.2073 36.2252Z" fill="#25282B"/>
<path d="M34.104 36.3484C33.7893 36.6905 33.7072 37.3746 33.9398 37.8125C34.1451 38.1957 34.8156 38.3599 36.1429 38.3599C37.5112 38.3599 37.9765 38.1957 38.2638 37.6483C38.4965 37.1968 38.4144 36.7863 38.0039 36.3347C37.7439 36.061 37.607 36.0337 36.0608 36.0337C34.5009 36.0337 34.3777 36.0473 34.104 36.3484Z" fill="#25282B"/>
<path d="M20.1465 40.9605C19.5171 41.5489 19.6402 42.452 20.3928 42.8351C20.8307 43.0541 23.3211 43.0678 23.7179 42.8488C24.4432 42.4657 24.5937 41.5899 24.019 41.0289C23.7043 40.7005 23.6085 40.6868 22.0622 40.6868C20.6254 40.6868 20.4065 40.7142 20.1465 40.9605Z" fill="#25282B"/>
<path d="M27.098 41.029C26.6601 41.4943 26.6601 42.2195 27.0707 42.6437C27.3443 42.9037 27.5496 42.9447 28.7537 42.9858C29.5063 43.0131 30.2726 42.9994 30.4642 42.9584C31.3673 42.7258 31.682 41.5216 30.9842 40.9743C30.6558 40.7143 30.4368 40.6869 29.0137 40.6869C27.4812 40.6869 27.4127 40.7006 27.098 41.029Z" fill="#25282B"/>
<path d="M34.1588 40.9743C33.8988 41.1796 33.803 41.3848 33.803 41.7132C33.803 42.7669 34.2272 43.0132 36.0471 43.0132C37.5796 43.0132 37.9628 42.89 38.2501 42.329C38.4964 41.8501 38.428 41.4533 38.0038 40.988C37.7439 40.7143 37.607 40.687 36.1292 40.687C34.7061 40.687 34.4872 40.7143 34.1588 40.9743Z" fill="#25282B"/>
<path d="M20.0641 45.764C19.5988 46.3113 19.6125 46.7766 20.1051 47.2692C20.5019 47.6523 20.543 47.666 21.9661 47.666C23.4713 47.666 24.1007 47.5018 24.2786 47.0503C24.4565 46.5713 24.3607 46.0103 24.0186 45.6819C23.7039 45.3535 23.6081 45.3398 22.0482 45.3398H20.4198L20.0641 45.764Z" fill="#25282B"/>
<path d="M27.1527 45.6677C26.619 46.1192 26.619 46.8855 27.1527 47.3507C27.5358 47.6791 27.6179 47.6791 29.1779 47.6381C30.7104 47.597 30.8336 47.5697 31.0799 47.2686C31.4493 46.8171 31.422 46.0918 30.9978 45.6813C30.6831 45.3529 30.5873 45.3393 29.0958 45.3393C27.6453 45.3393 27.4948 45.3666 27.1527 45.6677Z" fill="#25282B"/>
<path d="M34.1445 45.6813C33.7203 46.0918 33.693 46.8171 34.0624 47.2686C34.3087 47.5697 34.4319 47.597 35.9644 47.6381C37.5244 47.6791 37.6065 47.6791 37.9896 47.3507C38.5233 46.8855 38.5233 46.1192 37.9896 45.6677C37.6475 45.3666 37.497 45.3393 36.0465 45.3393C34.555 45.3393 34.4593 45.3529 34.1445 45.6813Z" fill="#25282B"/>
<path d="M46.98 38.6618C46.5832 39.0997 46.5148 39.3871 46.6927 39.866C46.98 40.7007 46.8432 40.687 55.3544 40.687C60.9783 40.687 63.1814 40.6459 63.4003 40.5228C63.8656 40.2902 64.0298 39.9891 64.0434 39.4281C64.0434 39.045 63.9613 38.8671 63.6877 38.6481C63.3319 38.3608 63.2087 38.3608 55.2859 38.3608H47.2537L46.98 38.6618Z" fill="#25282B"/>
<path d="M47.1983 44.3131C46.8015 44.5321 46.4867 45.2162 46.6236 45.5857C46.6646 45.7089 46.8288 45.9552 46.9794 46.1194L47.253 46.4341H55.3537H63.4544L63.7417 46.1194C64.1659 45.6678 64.1386 44.9289 63.687 44.5047L63.3312 44.1763L55.4495 44.1489C48.7719 44.1216 47.4993 44.1489 47.1983 44.3131Z" fill="#25282B"/>
<path d="M46.994 50.3196C46.7066 50.5659 46.6108 50.7575 46.6108 51.1543C46.6108 51.5511 46.7066 51.7427 46.994 51.989L47.3634 52.3174H55.3683H63.3732L63.7016 51.9753C63.9343 51.7564 64.0437 51.4964 64.0437 51.1543C64.0437 50.8122 63.9343 50.5522 63.7016 50.3333L63.3732 49.9912H55.3683H47.3634L46.994 50.3196Z" fill="#25282B"/>
<path d="M34.1031 56.1904C33.501 56.8199 33.8158 57.9283 34.6505 58.1335C34.8283 58.1746 38.7419 58.1882 43.3532 58.1746L51.7549 58.1335L52.0834 57.7504C52.5075 57.2441 52.5075 56.642 52.0697 56.2178L51.7413 55.8757H43.0659H34.3905L34.1031 56.1904Z" fill="#25282B"/>
<path d="M34.4042 61.8146C33.7064 62.1156 33.5558 63.1145 34.1169 63.6482L34.4316 63.9492H41.9302H49.4151L49.7435 63.6071C50.1814 63.1829 50.1814 62.5809 49.7572 62.0746L49.4288 61.6914L42.1218 61.6641C36.2105 61.6367 34.7463 61.6641 34.4042 61.8146Z" fill="#25282B"/>
<path d="M34.1451 67.8484C33.9124 68.0673 33.803 68.3273 33.803 68.6694C33.803 69.0115 33.9124 69.2715 34.1451 69.4904L34.4735 69.8325H41.329H48.1844L48.5128 69.4904C48.7455 69.2715 48.8549 69.0115 48.8549 68.6694C48.8549 68.3273 48.7455 68.0673 48.5128 67.8484L48.1844 67.5063H41.329H34.4735L34.1451 67.8484Z" fill="#25282B"/>
<path d="M65.3208 77.1755V60.8184H70.544C72.6517 60.8184 74.1866 61.246 75.1488 62.1013C76.1262 62.9565 76.6149 64.1325 76.6149 65.6293C76.6149 66.5151 76.4164 67.3475 76.0193 68.1264C75.6222 68.9053 74.9579 69.5315 74.0262 70.0049C73.1099 70.4784 71.8575 70.7151 70.2691 70.7151H68.78V77.1755H65.3208ZM63.488 74.7242V72.502H72.308V74.7242H63.488ZM63.488 70.7151V67.8744H70.2004V70.7151H63.488ZM69.9255 67.8744C70.5822 67.8744 71.1473 67.8056 71.6208 67.6682C72.0942 67.5155 72.4608 67.2787 72.7204 66.958C72.98 66.6373 73.1099 66.2325 73.1099 65.7438C73.1099 65.0413 72.8884 64.522 72.4455 64.186C72.0026 63.8347 71.3077 63.6591 70.3608 63.6591H68.78V67.8744H69.9255Z" fill="#25282B"/>
</svg>
