<svg width="100" height="100" viewBox="0 0 100 100" fill="none" xmlns="http://www.w3.org/2000/svg">
<path fill-rule="evenodd" clip-rule="evenodd" d="M84.776 29.9427C85.9542 26.5517 84.1603 22.8476 80.7693 21.6695L49.3162 10.7414C46.1392 9.63754 42.6448 11.1396 41.2597 14.2044L33.9528 30.3721L36.6866 31.6076L43.9935 15.4399C44.7393 13.7896 46.6209 12.9808 48.3316 13.5752L79.7848 24.5033C81.6107 25.1377 82.5766 27.1322 81.9422 28.9581L65.5282 76.2007C64.8938 78.0266 62.8993 78.9925 61.0734 78.3581L57.6775 77.1783L56.6929 80.0121L60.0888 81.192C63.4798 82.3701 67.1839 80.5763 68.3621 77.1853L84.776 29.9427Z" fill="#25282B"/>
<path fill-rule="evenodd" clip-rule="evenodd" d="M68.5208 46.8783C68.7927 46.0958 68.3787 45.241 67.5962 44.9691L57.5372 41.4742C56.7546 41.2023 55.8998 41.6163 55.628 42.3988C55.3561 43.1814 55.77 44.0362 56.5526 44.308L66.6116 47.803C67.3942 48.0748 68.2489 47.6609 68.5208 46.8783Z" fill="#25282B"/>
<path fill-rule="evenodd" clip-rule="evenodd" d="M54.7337 34.9501C54.4562 35.7307 54.8641 36.5884 55.6447 36.8658L68.779 41.5342C69.5596 41.8117 70.4173 41.4038 70.6948 40.6232C70.9722 39.8426 70.5643 38.9849 69.7837 38.7075L56.6494 34.0391C55.8688 33.7616 55.0111 34.1695 54.7337 34.9501Z" fill="#25282B"/>
<path fill-rule="evenodd" clip-rule="evenodd" d="M71.7174 33.6669C71.9892 32.8844 71.5753 32.0296 70.7927 31.7577L47.6545 23.7185C46.872 23.4467 46.0172 23.8606 45.7453 24.6432C45.4734 25.4257 45.8874 26.2805 46.6699 26.5524L69.8082 34.5915C70.5907 34.8634 71.4455 34.4495 71.7174 33.6669Z" fill="#25282B"/>
<path fill-rule="evenodd" clip-rule="evenodd" d="M66.3083 53.2411C66.5802 52.4586 66.1662 51.6038 65.3837 51.3319L57.135 48.466C56.3525 48.1941 55.4977 48.6081 55.2258 49.3906C54.9539 50.1732 55.3679 51.0279 56.1504 51.2998L64.3991 54.1658C65.1816 54.4376 66.0364 54.0237 66.3083 53.2411Z" fill="#25282B"/>
<path fill-rule="evenodd" clip-rule="evenodd" d="M64.3037 59.0096C64.5666 58.224 64.1429 57.374 63.3573 57.1111L56.6229 54.8572C55.8373 54.5943 54.9873 55.018 54.7244 55.8036C54.4614 56.5892 54.8852 57.4392 55.6708 57.7021L62.4052 59.956C63.1908 60.2189 64.0408 59.7952 64.3037 59.0096Z" fill="#25282B"/>
<path fill-rule="evenodd" clip-rule="evenodd" d="M29.5224 32.9873H52.3893C53.4939 32.9873 54.3893 33.8827 54.3893 34.9873V85.0001C54.3893 86.1047 53.4939 87.0001 52.3893 87.0001H19.523C18.4184 87.0001 17.523 86.1047 17.523 85.0001V45.4629C17.523 44.9485 17.7211 44.4539 18.0763 44.0819L28.0757 33.6064C28.4531 33.211 28.9758 32.9873 29.5224 32.9873ZM52.3893 29.9873C55.1507 29.9873 57.3893 32.2259 57.3893 34.9873V85.0001C57.3893 87.7615 55.1507 90.0001 52.3893 90.0001H19.523C16.7616 90.0001 14.523 87.7615 14.523 85.0001V45.4629C14.523 44.177 15.0184 42.9406 15.9062 42.0105L25.9056 31.5349C26.8491 30.5465 28.156 29.9873 29.5224 29.9873H52.3893Z" fill="#25282B"/>
<path fill-rule="evenodd" clip-rule="evenodd" d="M49.0912 56.3203C49.0912 55.4919 48.4196 54.8203 47.5912 54.8203H23.0962C22.2677 54.8203 21.5962 55.4919 21.5962 56.3203C21.5962 57.1487 22.2677 57.8203 23.0962 57.8203H47.5912C48.4196 57.8203 49.0912 57.1487 49.0912 56.3203Z" fill="#25282B"/>
<path fill-rule="evenodd" clip-rule="evenodd" d="M49.0912 63.0562C49.0912 62.2277 48.4196 61.5562 47.5912 61.5562H23.0962C22.2677 61.5562 21.5962 62.2277 21.5962 63.0562C21.5962 63.8846 22.2677 64.5562 23.0962 64.5562H47.5912C48.4196 64.5562 49.0912 63.8846 49.0912 63.0562Z" fill="#25282B"/>
<path fill-rule="evenodd" clip-rule="evenodd" d="M49.0912 69.1802C49.0912 68.3517 48.4196 67.6802 47.5912 67.6802H23.0962C22.2677 67.6802 21.5962 68.3517 21.5962 69.1802C21.5962 70.0086 22.2677 70.6802 23.0962 70.6802H47.5912C48.4196 70.6802 49.0912 70.0086 49.0912 69.1802Z" fill="#25282B"/>
<path fill-rule="evenodd" clip-rule="evenodd" d="M49.0912 75.3027C49.0912 74.4743 48.4196 73.8027 47.5912 73.8027H34.1189C33.2905 73.8027 32.6189 74.4743 32.6189 75.3027C32.6189 76.1312 33.2905 76.8027 34.1189 76.8027H47.5912C48.4196 76.8027 49.0912 76.1312 49.0912 75.3027Z" fill="#25282B"/>
<path fill-rule="evenodd" clip-rule="evenodd" d="M25.9371 42.2494L20.8022 42.249L25.9373 37.1726L25.9371 42.2494ZM28.937 44.2496C28.937 44.8019 28.4892 45.2496 27.9369 45.2496L15.9345 45.2487C15.0409 45.2486 14.596 44.1657 15.2316 43.5375L27.2345 31.6718C27.8661 31.0474 28.9376 31.4948 28.9375 32.383L28.937 44.2496Z" fill="#25282B"/>
</svg>
