<svg width="100" height="100" viewBox="0 0 100 100" fill="none" xmlns="http://www.w3.org/2000/svg">
<path d="M25.5763 15.2012C24.6967 15.5888 24.652 15.8721 24.652 21.388C24.652 26.9487 24.6967 27.2021 25.6061 27.5748C26.3813 27.9028 35.7435 27.9028 36.5187 27.5748C37.6815 27.0978 37.7114 25.3535 36.5784 24.787C36.1311 24.5634 35.6093 24.5187 33.075 24.5187H30.0934L31.4351 23.6391C35.6988 20.8811 40.4693 19.1667 45.7915 18.4959C47.9084 18.2275 51.7248 18.1828 53.8418 18.4213C60.5205 19.1369 66.8266 21.7756 72.1339 26.084C73.5501 27.2319 73.8185 27.3959 74.3253 27.3959C75.4136 27.3959 76.3379 26.084 75.9354 25.115C75.5627 24.2056 71.1201 21.06 67.8553 19.3903C60.2373 15.5143 51.9336 14.2024 43.6149 15.5888C38.6506 16.4088 33.5968 18.3617 29.6163 20.9855L27.9317 22.0887V19.2711C27.9317 16.0211 27.8274 15.5441 26.9776 15.2012C26.3366 14.9329 26.2024 14.9329 25.5763 15.2012Z" fill="#25282B"/>
<path d="M26.5606 34.2081C24.1455 34.5808 21.8795 36.2505 20.8061 38.442C20.1502 39.7837 19.9862 40.5291 19.9862 42.1094C20.0011 43.8089 20.3589 45.0761 21.1938 46.373C24.4586 51.4119 32.0915 51.0989 34.8644 45.8215C36.0868 43.4958 36.1315 41.0062 35.0283 38.606C33.5823 35.4902 30.0789 33.6715 26.5606 34.2081ZM29.7956 37.7711C32.8369 39.2023 33.5525 42.9889 31.2268 45.3593C28.8714 47.7595 24.9357 47.0141 23.5343 43.8834C23.1765 43.0635 23.1318 42.8249 23.1914 41.8261C23.266 40.5888 23.579 39.8135 24.3691 38.9191C25.7258 37.3686 27.962 36.8916 29.7956 37.7711Z" fill="#25282B"/>
<path d="M71.2253 34.2084C66.6187 34.9091 63.6371 39.3218 64.6956 43.8688C66.2609 50.6519 75.31 52.2172 79.0967 46.3733C79.9315 45.0763 80.2893 43.8091 80.3042 42.1096C80.3042 40.5294 80.1402 39.784 79.4843 38.4423C78.0382 35.4607 74.5646 33.6866 71.2253 34.2084ZM74.5646 37.8608C75.4591 38.3528 76.2045 39.1131 76.7114 40.0523C76.9946 40.589 77.0543 40.917 77.0543 42.0351C77.0543 43.1979 76.9946 43.4812 76.6518 44.1371C76.4281 44.5545 75.9064 45.2105 75.4889 45.5832C73.6254 47.2678 70.9271 47.1932 69.1083 45.4043C66.738 43.0786 67.4237 39.2324 70.4948 37.7565C71.2998 37.3689 71.5085 37.3242 72.5819 37.3689C73.5509 37.4136 73.9236 37.518 74.5646 37.8608Z" fill="#25282B"/>
<path d="M18.7486 53.2906C16.1397 53.6782 13.9184 55.3181 12.7854 57.6586C12.1444 59.0152 11.9506 60.2824 12.0102 62.8764C12.055 65.3064 12.1444 65.53 13.173 65.8282C13.8737 66.0369 14.7086 65.694 14.9471 65.0977C15.0216 64.8741 15.126 63.6814 15.1558 62.459C15.2005 60.8191 15.29 60.029 15.4838 59.5072C15.8565 58.4786 16.9895 57.3008 18.0778 56.8089L18.9722 56.4213L28.0363 56.4511L37.1003 56.4958L37.801 56.8387C38.7253 57.3008 39.6049 58.1655 40.1117 59.1345C40.4994 59.8799 40.5292 60.0588 40.6037 62.4739C40.6932 65.3511 40.7528 65.5151 41.7963 65.8282C42.2436 65.9624 42.4523 65.9474 42.8846 65.7387C43.6897 65.366 43.7642 65.0082 43.7046 61.9819C43.6598 59.701 43.6002 59.209 43.317 58.4338C42.4374 56.0635 40.5888 54.3192 38.0694 53.4993C37.324 53.2459 36.4742 53.231 28.3792 53.2011C23.5043 53.1862 19.1661 53.216 18.7486 53.2906Z" fill="#25282B"/>
<path d="M63.2482 53.2906C60.371 53.7378 58.0006 55.6759 56.972 58.4338C56.6887 59.209 56.6291 59.701 56.5844 61.9819C56.5247 65.0082 56.5993 65.366 57.4043 65.7387C57.8366 65.9474 58.0453 65.9624 58.4926 65.8282C59.5361 65.5151 59.5958 65.3511 59.6852 62.4739C59.7598 60.0588 59.7896 59.8799 60.1772 59.1345C60.6841 58.1655 61.5636 57.3008 62.4879 56.8387L63.1886 56.4958L72.2526 56.4511L81.3167 56.4213L82.2112 56.8089C83.2994 57.3008 84.4325 58.4786 84.8052 59.5072C84.999 60.029 85.0884 60.8191 85.1331 62.459C85.1629 63.6814 85.2673 64.8741 85.3418 65.0977C85.5804 65.694 86.4152 66.0369 87.1159 65.8282C88.1445 65.53 88.234 65.3064 88.2787 62.8615C88.3085 61.6689 88.2489 60.2675 88.1594 59.7159C87.6675 56.8983 85.5655 54.4832 82.8075 53.5589C81.8385 53.231 81.6596 53.231 72.9533 53.2011C68.0784 53.1862 63.7104 53.231 63.2482 53.2906Z" fill="#25282B"/>
<path d="M64.0534 72.4477C63.8 72.552 63.5167 72.7757 63.4273 72.9546C63.2186 73.3273 63.2186 74.3857 63.4124 74.7584C63.7403 75.3547 64.113 75.4293 67.5866 75.5038L70.9409 75.5784L69.5097 76.5027C65.4697 79.1115 61.4445 80.6918 56.3311 81.6459C54.7806 81.9292 54.0352 81.9739 50.666 81.9888C46.5962 81.9888 45.6271 81.8993 42.6903 81.2285C37.4129 80.0209 32.7914 77.74 28.3339 74.1323C26.9176 72.9993 26.6195 72.8204 26.1275 72.8204C25.4716 72.8204 24.7411 73.3571 24.592 73.9534C24.3833 74.7584 24.7411 75.2653 26.3362 76.5027C32.0162 80.9303 38.1284 83.5392 45.2992 84.6126C48.0124 85.03 52.619 85.0598 55.3621 84.6871C61.3103 83.8821 66.4387 82.0633 71.1943 79.0817L72.5808 78.2171L72.6553 81.0794C72.7447 84.3293 72.8193 84.6126 73.8181 84.9107C74.2803 85.0449 74.489 85.03 74.9213 84.8511C75.9052 84.4337 75.9201 84.3442 75.95 78.6643C75.9649 72.9993 75.935 72.8502 74.966 72.4328C74.2355 72.1346 64.7541 72.1346 64.0534 72.4477Z" fill="#25282B"/>
</svg>
