<svg width="100" height="100" viewBox="0 0 100 100" fill="none" xmlns="http://www.w3.org/2000/svg">
<path fill-rule="evenodd" clip-rule="evenodd" d="M47.8129 17.0964C47.2014 17.1823 46.1173 17.4728 45.4037 17.7423C43.6061 18.4207 9.34343 35.0682 8.66321 35.5936C7.8303 36.2369 7.16719 37.2716 7.04125 38.1245C6.76627 39.9869 7.85173 41.3797 10.7318 42.8603L12.6191 43.8304L12.6199 51.69L12.6206 59.5494L11.8159 60.0789C10.0885 61.2156 9.2572 63.3833 9.79487 65.3488C10.0672 66.3438 10.9106 67.5195 11.7021 68.0073C12.1102 68.2587 12.4463 68.5312 12.4491 68.613C12.4538 68.7414 8.4208 81.8699 8.1857 82.4923C8.11359 82.683 9.1384 82.7216 14.2821 82.7216C19.791 82.7216 20.4544 82.6931 20.3667 82.4608C20.1047 81.7673 16.1098 68.7638 16.1098 68.6042C16.1098 68.5035 16.3243 68.3307 16.5865 68.2204C18.1946 67.5439 19.311 64.8462 18.7908 62.8939C18.4969 61.7909 17.6806 60.6524 16.7732 60.0795L15.9436 59.5558V52.579C15.9436 48.7417 15.9978 45.602 16.0639 45.602C16.13 45.602 17.2889 46.1469 18.6392 46.8126L21.0943 48.0231L21.095 58.4969C21.0955 68.8686 21.0989 68.9763 21.4477 69.5611C21.9953 70.4793 25.6643 74.0858 27.325 75.3379C32.3082 79.0956 38.0846 81.4673 44.3541 82.3297C46.8788 82.6769 51.9676 82.6769 54.4906 82.3297C60.8356 81.4564 66.4568 79.1496 71.5211 75.3409C73.3253 73.984 77.0672 70.2235 77.4653 69.3669C77.7267 68.8047 77.7518 67.8487 77.7518 58.4363V48.1218L83.8221 45.0997C87.1609 43.4376 90.185 41.8425 90.5424 41.555C91.4707 40.8084 92.1152 39.408 91.9827 38.4256C91.843 37.3914 91.3459 36.4662 90.5673 35.7918C89.5691 34.9273 54.9951 17.8364 53.4133 17.4256C51.9123 17.0358 49.3268 16.8838 47.8129 17.0964ZM52.8122 20.5536C53.3056 20.7042 60.2217 24.0585 68.1811 28.0077C76.1408 31.9567 84.009 35.8587 85.6659 36.6783C87.3229 37.498 88.7267 38.2957 88.7852 38.4509C88.847 38.6143 88.7677 38.8763 88.5971 39.0732C88.3048 39.4107 76.5852 45.343 75.8317 45.5351C75.6159 45.5901 75.3602 45.7318 75.2636 45.8501C75.1671 45.9682 70.1359 48.4982 64.0832 51.4723C55.922 55.4824 52.8236 56.9267 52.0924 57.0619C50.705 57.3183 48.6139 57.2841 47.3619 56.9844C46.6658 56.8177 42.2699 54.767 34.6514 51.0551C28.2459 47.9342 22.2947 45.0397 21.4266 44.6229C20.5585 44.2063 19.9229 43.8385 20.0143 43.8056C20.1057 43.7729 26.8722 42.9492 35.051 41.9749C51.0496 40.0695 50.5482 40.1595 50.9089 39.1311C51.1151 38.5429 50.8772 37.8852 50.3001 37.4491L49.8482 37.1072L32.6051 39.1662C23.1215 40.2985 15.1752 41.2364 14.9467 41.2503C14.3828 41.2845 10.3699 39.2944 10.2207 38.9067C10.1375 38.6899 10.221 38.5093 10.5057 38.2908C10.923 37.9708 44.0028 21.7648 45.7677 21.0159C47.3704 20.3359 48.5866 20.1198 50.3369 20.204C51.205 20.2458 52.3189 20.4031 52.8122 20.5536ZM34.338 54.3078C39.8019 56.9615 44.6213 59.2737 45.0478 59.4458C45.4743 59.6181 46.4443 59.8868 47.2034 60.0431C48.951 60.4026 52.0821 60.2893 53.5768 59.8121C54.1251 59.6371 59.0266 57.2794 64.469 54.5727C69.9113 51.866 74.4161 49.6515 74.4796 49.6515C74.5431 49.6515 74.5949 53.8196 74.5949 58.9143V68.177L73.4099 69.4656C69.7659 73.4281 64.4844 76.6437 58.9913 78.2445C53.2482 79.9181 46.3356 80.0047 40.7001 78.4736C37.3796 77.5715 33.4852 75.802 30.8046 73.9778C28.9504 72.7157 26.0828 70.2407 25.0404 69.0024L24.2512 68.0651V58.7739C24.2512 53.6637 24.2856 49.4827 24.3274 49.4827C24.3695 49.4827 28.8741 51.6539 34.338 54.3078Z" fill="#25282B"/>
</svg>
