<svg width="100" height="100" viewBox="0 0 100 100" fill="none" xmlns="http://www.w3.org/2000/svg">
<path fill-rule="evenodd" clip-rule="evenodd" d="M46.8314 29H53.3906C55.4403 29 57.102 30.6617 57.102 32.7114V38.6651C57.102 40.7149 55.4403 42.3765 53.3906 42.3765H46.8314C44.7816 42.3765 43.12 40.7149 43.12 38.6651V32.7114C43.12 30.6617 44.7816 29 46.8314 29ZM40.12 32.7114C40.12 29.0048 43.1248 26 46.8314 26H53.3906C57.0972 26 60.102 29.0048 60.102 32.7114V38.6651C60.102 40.4481 59.4067 42.0688 58.2724 43.2706H81.5725C84.2542 43.2706 86.4282 45.4446 86.4282 48.1263V55.0648H88.5105C92.2171 55.0648 95.2219 58.0695 95.2219 61.7762V67.7299C95.2219 71.4365 92.2171 74.4413 88.5105 74.4413H81.9513C78.2447 74.4413 75.2399 71.4365 75.2399 67.7299V61.7762C75.2399 58.0695 78.2447 55.0648 81.9513 55.0648H83.4282V48.1263C83.4282 47.1015 82.5974 46.2706 81.5725 46.2706H51.4622L51.6111 54.9086L48.6115 54.9604L48.4617 46.2706H18.6496C17.6247 46.2706 16.7939 47.1015 16.7939 48.1263V55.0648H18.2707C21.9773 55.0648 24.9821 58.0695 24.9821 61.7762V67.7299C24.9821 71.4365 21.9773 74.4413 18.2706 74.4413H11.7114C8.00482 74.4413 5.00003 71.4365 5.00003 67.7299V61.7762C5.00003 58.0695 8.00483 55.0648 11.7114 55.0648H13.7939V48.1263C13.7939 45.4446 15.9679 43.2706 18.6496 43.2706H41.9495C40.8153 42.0688 40.12 40.4481 40.12 38.6651V32.7114ZM50.4138 45.4983V45.3765H49.8083V45.5087L50.4138 45.4983ZM18.2707 58.0648H11.7114C9.66168 58.0648 8.00003 59.7264 8.00003 61.7762V67.7299C8.00003 69.7796 9.66168 71.4413 11.7114 71.4413H18.2706C20.3204 71.4413 21.9821 69.7796 21.9821 67.7299V61.7762C21.9821 59.7264 20.3204 58.0648 18.2707 58.0648ZM53.3906 58.0648H46.8314C44.7816 58.0648 43.12 59.7264 43.12 61.7762V67.7299C43.12 69.7796 44.7816 71.4413 46.8314 71.4413H53.3906C55.4403 71.4413 57.102 69.7796 57.102 67.7299V61.7762C57.102 59.7264 55.4403 58.0648 53.3906 58.0648ZM46.8314 55.0648C43.1248 55.0648 40.12 58.0695 40.12 61.7762V67.7299C40.12 71.4365 43.1248 74.4413 46.8314 74.4413H53.3906C57.0972 74.4413 60.102 71.4365 60.102 67.7299V61.7762C60.102 58.0695 57.0972 55.0648 53.3906 55.0648H46.8314ZM88.5105 58.0648H81.9513C79.9015 58.0648 78.2399 59.7264 78.2399 61.7762V67.7299C78.2399 69.7796 79.9015 71.4413 81.9513 71.4413H88.5105C90.5603 71.4413 92.2219 69.7796 92.2219 67.7299V61.7762C92.2219 59.7264 90.5603 58.0648 88.5105 58.0648Z" fill="#25282B"/>
</svg>
