<svg width="100" height="100" viewBox="0 0 100 100" fill="none" xmlns="http://www.w3.org/2000/svg">
<path fill-rule="evenodd" clip-rule="evenodd" d="M50.4199 57.1071C62.5997 57.1071 72.4734 47.2334 72.4734 35.0536C72.4734 22.8737 62.5997 13 50.4199 13C38.24 13 28.3663 22.8737 28.3663 35.0536C28.3663 47.2334 38.24 57.1071 50.4199 57.1071ZM69.1361 84.0341L52.9379 59.9821C56.8202 59.5947 60.4416 58.3209 63.5966 56.3661L78.4832 77.7035H72.8383H71.8492L71.4596 78.6126L69.1361 84.0341ZM75.4734 35.0536C75.4734 42.9794 71.793 50.0457 66.0479 54.6365L82.5889 78.3453L84.2342 80.7035H81.3587H73.8274L70.8088 87.7468L69.7241 90.2778L68.186 87.9938L49.9257 60.8801L32.0484 87.4253L30.5102 89.7093L29.4255 87.1783L26.4069 80.135H18.8756H16.0001L17.6454 77.7767L34.1562 54.1113C28.7767 49.5161 25.3663 42.6831 25.3663 35.0536C25.3663 21.2169 36.5832 10 50.4199 10C64.2566 10 75.4734 21.2169 75.4734 35.0536ZM46.9865 59.8738C43.1663 59.3502 39.6205 57.9655 36.5512 55.9216L21.7511 77.135H27.396H28.3851L28.7748 78.0441L31.0982 83.4656L46.9865 59.8738ZM61.0026 28.0711C61.5883 28.6569 61.5883 29.6067 61.0026 30.1925L49.642 41.553L48.5813 42.6137L47.5207 41.553L40.7043 34.7367C40.1186 34.1509 40.1186 33.2012 40.7043 32.6154C41.2901 32.0296 42.2399 32.0296 42.8257 32.6154L48.5813 38.371L58.8812 28.0711C59.467 27.4854 60.4168 27.4854 61.0026 28.0711ZM67.0072 35.0536C67.0072 44.2145 59.5808 51.6409 50.4199 51.6409C41.2589 51.6409 33.8326 44.2145 33.8326 35.0536C33.8326 25.8926 41.2589 18.4662 50.4199 18.4662C59.5808 18.4662 67.0072 25.8926 67.0072 35.0536ZM70.0072 35.0536C70.0072 45.8713 61.2377 54.6409 50.4199 54.6409C39.6021 54.6409 30.8326 45.8713 30.8326 35.0536C30.8326 24.2358 39.6021 15.4662 50.4199 15.4662C61.2377 15.4662 70.0072 24.2358 70.0072 35.0536Z" fill="#25282B"/>
</svg>
