<svg width="100" height="100" viewBox="0 0 100 100" fill="none" xmlns="http://www.w3.org/2000/svg">
<path fill-rule="evenodd" clip-rule="evenodd" d="M46.2563 10.0939C38.472 10.8469 30.756 14.0118 24.7057 18.9334C22.9261 20.3811 20.1083 23.221 18.689 24.9978C15.1001 29.4901 12.1591 35.5666 10.9394 41.0091C10.1734 44.4278 9.99989 46.0897 9.99989 50.0113C9.99989 53.933 10.1734 55.5949 10.9394 59.0135C12.1857 64.5747 15.2034 70.7381 18.9116 75.2957C20.3595 77.0752 23.1996 79.8927 24.9766 81.3119C29.4694 84.9004 35.5466 87.841 40.9897 89.0606C44.4087 89.8265 46.0708 90 49.9929 90C53.915 90 55.577 89.8265 58.996 89.0606C63.0885 88.1437 68.4395 85.8573 71.9559 83.5231C78.0545 79.4746 82.7385 74.148 85.9366 67.6243C87.8955 63.6281 89.0082 60.0492 89.709 55.4909C90.0968 52.9687 90.0968 47.0539 89.709 44.5317C89.0082 39.9735 87.8955 36.3945 85.9366 32.3983C83.8462 28.134 81.516 24.8897 78.1519 21.5602C74.8491 18.2912 71.8236 16.143 67.6077 14.0736C63.6587 12.1351 60.0028 10.9919 55.6296 10.3279C53.663 10.0294 48.3054 9.89552 46.2563 10.0939ZM55.0033 13.941C62.9555 15.096 70.1433 18.6768 75.737 24.2699C81.3481 29.8802 84.8251 36.8661 86.0944 45.0797C86.2803 46.2821 86.3606 47.7705 86.3606 50.0113C86.3606 55.9334 85.1976 60.9412 82.6083 66.1685C77.235 77.0157 67.2562 84.2037 54.925 86.109C52.5603 86.4744 47.4255 86.4744 45.0607 86.109C36.8462 84.8398 29.8596 81.3632 24.2487 75.7527C18.6376 70.1424 15.1607 63.1566 13.8913 54.943C13.5258 52.5784 13.5258 47.4442 13.8913 45.0797C14.5367 40.9041 15.6313 37.3794 17.3775 33.8542C22.6546 23.2011 32.5626 15.9492 44.5077 13.9972C47.5279 13.5038 51.834 13.4806 55.0033 13.941ZM52.36 30.1973C50.889 30.6759 49.4735 32.013 49.0536 33.3206C48.5621 34.8515 49.1343 36.8379 50.3827 37.9338C53.1347 40.3499 57.7635 39.3167 58.8507 36.0435C59.8292 33.0982 57.5829 30.1644 54.2422 30.0243C53.4986 29.9931 52.7865 30.0585 52.36 30.1973ZM47.1823 43.6047C46.111 43.7939 41.8322 45.2591 41.603 45.5154C41.4267 45.7125 40.859 47.6626 40.951 47.7548C40.9797 47.7835 41.4582 47.664 42.0142 47.4896C44.1969 46.8045 46.2322 47.122 46.7605 48.2298C47.3218 49.4067 47.0499 51.0445 45.3032 57.0083C43.9539 61.6159 43.719 62.709 43.6946 64.4931C43.6788 65.6457 43.7403 66.0507 44.0325 66.7185C44.4937 67.7719 45.6375 68.8384 46.9805 69.4669C47.927 69.9098 48.211 69.9647 49.859 70.0234C52.054 70.1017 53.0962 69.8998 56.0211 68.8298L58.0566 68.0852L58.3589 67.035C58.5252 66.4575 58.6242 65.9479 58.5791 65.9026C58.5338 65.8575 58.1864 65.9368 57.807 66.0789C56.792 66.459 54.1578 66.4659 53.4698 66.0902C51.835 65.1978 51.9357 63.6923 54.134 56.1612C55.5081 51.4534 55.6301 50.8782 55.6445 49.0416C55.6649 46.4336 54.8195 45.0819 52.4981 44.011C51.5932 43.5936 51.2892 43.5366 49.758 43.4978C48.8107 43.4737 47.6517 43.5219 47.1823 43.6047Z" fill="#25282B"/>
</svg>
