<svg width="100" height="100" viewBox="0 0 100 100" fill="none" xmlns="http://www.w3.org/2000/svg">
<path d="M48.0478 20.1487C43.1264 20.8754 39.1959 24.2444 37.693 29.0502C37.1481 30.8338 37.1481 34.1863 37.693 35.9864C39.3776 41.3867 44.1503 44.9044 49.8149 44.9209C51.9948 44.9209 53.3325 44.6236 55.3143 43.6658C57.9567 42.3941 59.7403 40.6105 61.0945 37.9351C62.1019 35.9369 62.3826 34.4836 62.3001 31.9733C62.234 30.3549 62.1349 29.6943 61.7716 28.6373C61.1275 26.7546 60.1531 25.1857 58.7164 23.7489C56.685 21.7176 54.2904 20.5451 51.3838 20.1487C49.9305 19.9505 49.4681 19.9505 48.0478 20.1487ZM52.9197 23.27C55.8923 24.2774 58.2539 26.639 59.2118 29.5787C59.7238 31.1476 59.7733 33.7734 59.2944 35.1607C58.0888 38.7279 55.6446 41.0399 52.127 41.9482C48.9396 42.7575 45.5706 41.8822 43.0769 39.5536C41.7722 38.348 41.029 37.192 40.418 35.4579C39.8565 33.856 39.8234 31.3457 40.3519 29.7108C41.3924 26.4409 44.4806 23.6168 47.7175 22.9562C49.0552 22.692 51.6811 22.8406 52.9197 23.27Z" fill="#25282B"/>
<path d="M73.7283 28.8025C70.3923 29.5622 67.4857 32.221 66.4452 35.491C66.0324 36.7461 65.9498 39.4215 66.2801 40.6105C66.726 42.229 67.6178 43.7484 68.8234 44.987C70.1776 46.3412 71.0859 46.9192 72.7539 47.4807C75.2476 48.3229 77.7579 48.1248 80.2681 46.9027C86.841 43.6493 87.4521 34.467 81.3746 30.3053C79.1947 28.819 76.222 28.241 73.7283 28.8025ZM77.8735 31.6265C79.1286 32.0063 79.9874 32.5513 80.9783 33.5918C84.2647 37.0599 83.1417 42.5593 78.7322 44.6071C75.8587 45.9613 72.1428 45.0365 70.2271 42.5097C69.1867 41.1555 68.8729 40.1316 68.8564 38.2159C68.8564 36.6965 68.906 36.4818 69.3849 35.4414C70.2436 33.6248 71.8786 32.2045 73.8108 31.5935C74.7522 31.2962 76.8165 31.3127 77.8735 31.6265Z" fill="#25282B"/>
<path d="M22.7153 29.4789C20.2381 30.0074 17.9921 31.5268 16.6048 33.5911C13.9955 37.4886 14.524 42.5421 17.86 45.8286C19.5775 47.5296 22.385 48.7021 24.7631 48.7021C28.8753 48.7021 32.8389 45.7625 34.1105 41.7659C34.639 40.1475 34.606 37.6372 34.0445 36.0188C33.4499 34.3178 32.7068 33.1452 31.4186 31.9396C29.0735 29.7101 25.8366 28.8018 22.7153 29.4789ZM27.6532 32.6333C29.635 33.5746 30.8571 34.9784 31.4847 37.0427C32.4755 40.2796 30.8571 43.7973 27.7028 45.2836C25.5724 46.2745 22.7153 46.0598 20.8161 44.7386C19.8087 44.0615 18.7518 42.8559 18.3224 41.8815C16.6048 38.1162 18.4875 33.7563 22.4676 32.3525C23.2438 32.0883 23.7557 32.0222 25.0109 32.0718C26.3651 32.1048 26.7284 32.1874 27.6532 32.6333Z" fill="#25282B"/>
<path d="M48.2961 46.6714C43.2425 47.1668 38.4037 49.2642 34.8696 52.5011L33.7465 53.5415L32.1446 52.7818C30.1959 51.857 28.8582 51.4441 26.9094 51.1799C19.164 50.0899 11.4186 54.8792 8.87528 62.3274C8.19818 64.3091 8 65.9771 8 69.5113C8 72.7647 8 72.7812 8.46241 73.6565C8.79271 74.3006 9.13952 74.6804 9.73405 75.0438L10.5268 75.5392L18.8998 75.5888L27.2893 75.6383L27.3884 76.2989C27.537 77.2567 28.0159 78.1155 28.8086 78.8256C30.2124 80.0973 28.4453 79.9982 50.2778 79.9982C72.1104 79.9982 70.3433 80.0973 71.7471 78.8256C72.6884 77.9834 73.1013 77.0916 73.2004 75.7539L73.2829 74.6474L81.5568 74.5979C87.4361 74.5648 89.9629 74.4823 90.2601 74.3501C90.9868 74.0364 91.9281 73.1115 92.2419 72.4014C92.5061 71.8399 92.5557 71.2784 92.5557 68.5039C92.5557 64.9863 92.3575 63.3183 91.6804 61.3365C89.9629 56.2995 85.9663 52.402 80.9128 50.8001C76.3382 49.3633 71.0039 50.0073 67.0569 52.4515L66.2476 52.9635L65.2237 52.0882C60.55 48.1247 54.1918 46.0768 48.2961 46.6714ZM53.6799 49.611C61.9373 51.0313 68.4111 57.2573 70.1121 65.4156C70.3929 66.8029 70.4754 67.8598 70.525 71.2123C70.6075 75.6548 70.525 76.3815 69.8148 76.9264C69.3855 77.2733 69.3029 77.2733 50.2778 77.2733C31.3684 77.2733 31.1537 77.2733 30.7409 76.943C30.0307 76.3815 29.9647 75.853 30.0307 71.3279C30.0803 67.7938 30.1463 66.8359 30.4436 65.4156C32.1446 57.3234 38.5689 51.0808 46.7272 49.6275C48.5108 49.3137 51.8798 49.2972 53.6799 49.611ZM79.3274 53.1782C84.2488 54.4333 88.1462 58.3473 89.4179 63.3017C89.6986 64.4082 89.7482 65.1349 89.7482 68.025C89.7482 70.4527 89.6986 71.4766 89.55 71.6252C89.4014 71.7738 87.3535 71.8234 81.3091 71.8234H73.2829L73.1839 68.9663C73.0352 64.8376 72.4077 62.3109 70.6571 58.9253C70.2277 58.0831 69.4845 56.861 69.0056 56.2004L68.1303 54.9948L68.6753 54.648C71.5819 52.8644 75.7932 52.2864 79.3274 53.1782ZM28.1811 54.2186C29.5848 54.5654 31.7813 55.5068 31.7813 55.738C31.7813 55.7875 31.4675 56.2664 31.1042 56.828C30.1298 58.2482 28.7261 61.2539 28.2306 62.988C27.5865 65.2009 27.3223 67.3148 27.3223 70.2049V72.8143H19.2466C12.3599 72.8143 11.1543 72.7812 10.9727 72.5665C10.824 72.3849 10.791 71.361 10.8405 68.57C10.9066 65.2009 10.9561 64.6725 11.2864 63.6486C12.9049 58.7272 16.8024 55.16 21.7898 54.07C23.4909 53.6901 26.381 53.7562 28.1811 54.2186Z" fill="#25282B"/>
</svg>
