<svg width="100" height="100" viewBox="0 0 100 100" fill="none" xmlns="http://www.w3.org/2000/svg">
<path d="M46.6918 15.0975C35.7745 16.207 26.131 22.1931 20.2956 31.4804C13.6246 42.0827 13.2274 55.8219 19.2682 66.7941C24.1995 75.7801 33.0622 82.3552 42.8564 84.3277C45.733 84.903 46.8425 85.0126 50.0479 84.9989C54.9381 84.9989 58.4996 84.3414 62.7871 82.6702C69.6773 79.9717 75.7318 74.9445 79.8276 68.5064C80.7043 67.1366 82.3754 63.6984 82.9918 62.0135C83.6904 60.1231 84.4986 56.863 84.7863 54.7398C85.1013 52.5618 85.1287 47.6168 84.8548 45.6305C84.4164 42.4389 83.2658 38.2884 82.1836 35.9734L81.7316 35.0145L82.6631 33.2338C84.8822 28.9873 85.3068 27.0696 84.7041 24.1382C84.0329 20.837 81.8275 17.9467 78.8002 16.3851C76.9236 15.4125 75.814 15.1523 73.5401 15.1659C71.8553 15.1796 71.4717 15.2207 70.3896 15.5495C68.828 16.0152 67.5404 16.7138 66.3349 17.7138L65.4035 18.4946L64.2665 17.9604C61.8146 16.8234 58.3489 15.8098 55.3217 15.344C53.2669 15.029 48.6507 14.892 46.6918 15.0975ZM54.9107 16.933C56.8558 17.2344 59.0475 17.7823 60.8557 18.3987C62.2255 18.8644 64.1021 19.6452 64.2665 19.8096C64.2939 19.837 64.198 20.0425 64.0337 20.2616C63.7049 20.7274 62.7871 22.604 62.7871 22.8232C62.7871 22.9054 62.4858 23.193 62.1296 23.467C61.3214 24.056 60.6365 25.0834 60.1023 26.4395C59.6229 27.6997 58.8421 28.5901 57.3764 29.5216C54.897 31.1379 54.1573 32.6858 54.4861 35.5624L54.5957 36.5213L53.4724 38.0966C52.2259 39.8499 51.993 40.2883 51.8286 41.3019C51.6643 42.3704 51.8834 43.343 52.7327 45.247C53.6505 47.3291 54.2258 48.0551 55.4449 48.6441C56.7189 49.2742 57.3627 49.2879 60.4858 48.7811L63.1844 48.3565L63.8008 48.6304C64.4583 48.9181 64.8007 49.3564 65.2117 50.4112C65.4309 50.9865 65.4309 51.0824 64.9788 53.6987C64.4583 56.7671 64.4446 57.4246 64.8281 58.315C65.2117 59.178 67.4445 61.4656 68.2664 61.8354C69.0198 62.1642 70.1704 62.1916 70.9238 61.8765C71.9649 61.4382 75.7181 58.8355 76.1017 58.2876C76.3619 57.9041 76.6496 57.0685 77.0332 55.4932C77.7866 52.4659 78.2523 51.5344 79.7728 50.0002C80.6632 49.1099 81.2111 48.6989 82.0741 48.2469C82.6905 47.9318 83.2658 47.7127 83.3617 47.7674C83.5809 47.9044 83.4165 52.9453 83.1288 54.8083C80.9919 68.8625 70.4444 79.9854 56.6504 82.7524C47.2124 84.6428 37.6374 82.4648 29.9254 76.6842C22.953 71.4515 18.3094 63.5888 16.9395 54.6713C16.6245 52.5618 16.6108 47.3976 16.9259 45.4525C17.0491 44.7128 17.1724 44.0827 17.1998 44.0416C17.2409 44.0142 18.1313 43.8361 19.186 43.658C21.8572 43.206 22.4051 43.3293 23.7064 44.7265C24.8023 45.8771 25.6652 46.0278 27.1035 45.2744C28.7336 44.4251 29.2952 43.2882 28.7473 41.9868C28.6377 41.7266 28.0761 40.9595 27.5008 40.2746C26.5556 39.1787 26.4323 38.9733 26.3775 38.3842C26.3365 37.9733 26.3775 37.6856 26.4734 37.6308C26.5556 37.5761 27.3364 37.6856 28.1994 37.8774C30.7746 38.4664 32.5691 38.3158 34.2951 37.398C35.1443 36.9459 35.7197 36.4254 37.6785 34.3844C39.336 32.631 39.8839 32.3571 42.0619 32.1927C45.3494 31.9324 45.9932 31.7407 46.9384 30.7955C47.8014 29.9325 48.0343 29.2476 48.1028 27.3299C48.1712 25.4258 48.0069 24.7409 47.2535 23.7136C46.6234 22.8369 46.0069 22.467 43.5276 21.426C41.5414 20.5904 41.2674 20.5082 40.3907 20.5082C39.6784 20.5082 39.199 20.6041 38.5415 20.8644C38.0483 21.0698 37.5141 21.2616 37.3497 21.3164C36.8703 21.4534 35.9662 21.1383 35.432 20.6452L34.9389 20.1932L35.884 19.7548C39.4318 18.0836 42.9797 17.1385 47.5137 16.6727C48.6781 16.5495 53.5957 16.7275 54.9107 16.933ZM76.1291 17.0563C78.7728 17.796 81.1015 19.7 82.2795 22.1109C83.2247 24.0423 83.5398 26.1792 83.1425 27.8915C82.6494 29.9736 81.0056 33.179 78.5263 36.8775C77.1564 38.9322 74.0881 43.0964 73.7182 43.3978C73.5675 43.5347 73.3347 43.3156 72.4854 42.2334C68.4033 36.987 65.3624 32.0146 64.3076 28.8367C63.2529 25.6998 64.1706 22.2068 66.6911 19.6589C68.1568 18.1795 69.5403 17.4124 71.6224 16.9193C72.6635 16.6864 75.0195 16.7549 76.1291 17.0563ZM34.0485 21.5767C35.2539 22.9602 37.0758 23.33 38.8154 22.5355C40.1578 21.9328 40.6784 21.9876 43.0344 23.0013C45.322 23.9738 45.8015 24.3026 46.2124 25.1519C46.4864 25.7135 46.5138 25.9464 46.459 27.2614C46.4179 28.5764 46.3768 28.7956 46.048 29.2887C45.5001 30.1243 44.9933 30.2887 42.4591 30.4941C39.2675 30.7544 38.5689 31.0695 36.5415 33.179C34.4046 35.4255 34.1444 35.6583 33.2266 36.083C31.9253 36.6857 30.624 36.7405 28.5008 36.261C26.5967 35.8364 26.2817 35.8227 25.6926 36.1788C25.0077 36.6035 24.7064 37.2062 24.7064 38.1651C24.7201 39.2609 25.0214 39.9047 26.2817 41.4115C26.994 42.2471 27.309 42.7402 27.2816 42.932C27.2405 43.2471 26.3502 43.9183 25.7885 44.0553C25.4872 44.1238 25.3228 44.0279 24.6927 43.3704C23.8434 42.48 23.0215 42.0142 21.9531 41.8225C21.2408 41.6855 20.7476 41.7266 18.145 42.1512L17.556 42.2471L17.6519 41.7814C17.7066 41.5211 18.008 40.5075 18.3368 39.5349C20.638 32.5078 25.3776 26.2751 31.4869 22.2479C32.1718 21.8095 32.8705 21.3438 33.0622 21.2205C33.254 21.0835 33.4321 20.9876 33.4595 20.9876C33.4869 20.9739 33.7471 21.2479 34.0485 21.5767ZM62.7597 29.4257C63.4857 31.5763 65.0747 34.5351 67.2116 37.7541C69.4033 41.028 72.8963 45.5621 73.3484 45.699C73.499 45.7538 73.7593 45.699 73.9511 45.5758C74.5401 45.1922 77.6907 41.0828 79.6221 38.1788C80.17 37.3706 80.6632 36.7542 80.7316 36.809C80.8686 36.9733 81.5809 38.8637 82.0056 40.2198C82.3891 41.4526 82.9918 44.1101 83.1288 45.1648L83.211 45.8497L81.5946 46.6579C80.1426 47.3839 79.855 47.5894 78.6632 48.7674C76.9099 50.5345 76.1976 51.8906 75.4716 54.959C75.1976 56.1096 74.8689 57.2054 74.7319 57.3698C74.4168 57.7671 70.7868 60.1642 70.1704 60.3697C69.3485 60.6574 68.8554 60.4245 67.6363 59.178C66.4445 57.9588 66.1843 57.5753 66.1706 56.9452C66.1706 56.7123 66.376 55.3151 66.6226 53.822C67.1431 50.7536 67.1157 50.3427 66.2938 48.8496C65.7596 47.8633 64.9651 47.2195 63.9241 46.9182C63.1844 46.699 63.0885 46.7127 60.4721 47.1236C57.3353 47.6305 57.1572 47.6305 56.349 47.2606C55.3901 46.836 55.0477 46.4113 54.2806 44.6991C53.0341 41.9458 53.0752 41.4526 54.7463 39.1513C56.1161 37.261 56.2805 36.8364 56.1298 35.5624C55.8559 33.0694 56.2668 32.1927 58.3215 30.8777C59.9927 29.8229 61.0201 28.6449 61.6091 27.1381C62.1707 25.7272 62.1433 25.7409 62.2392 27.0011C62.3077 27.7271 62.4995 28.6312 62.7597 29.4257Z" fill="#25282B" stroke="#25282B"/>
<path d="M34.6922 48.2876C34.021 48.5205 33.569 48.8904 32.6923 49.9177C31.3225 51.493 30.9115 52.7669 30.8567 55.6298L30.8293 56.9311L32.0211 59.5338L33.2128 62.1501L34.4456 62.8761C35.8018 63.6843 36.5004 64.3829 36.7332 65.2048C36.9661 65.9445 36.9387 66.4924 36.6236 68.0266C36.1853 70.1635 36.2264 70.5745 37.2538 73.8072C37.7469 75.3688 38.2948 76.8756 38.4729 77.1496C39.103 78.1221 40.6235 78.5057 41.6919 77.9577C42.3495 77.629 42.5275 77.3824 43.0755 75.9989C43.596 74.6976 44.1439 74.0949 45.4726 73.3278C46.5274 72.7114 47.2123 72.0265 47.5547 71.2594C47.6917 70.9306 47.8013 70.1087 47.8561 68.8485C47.9383 67.0677 47.9794 66.8623 48.3355 66.2048C48.6232 65.6842 48.993 65.287 49.6505 64.8076C51.4998 63.4651 52.0614 61.8762 51.4861 59.7393C51.3354 59.205 51.2806 58.4653 51.308 57.1777C51.3491 55.5339 51.3217 55.3422 51.0615 54.9997C50.5409 54.2874 50.1711 54.1367 48.3492 53.8491C47.2397 53.671 46.3904 53.4518 46.0616 53.2738C45.774 53.1231 45.1028 52.4382 44.5685 51.767C44.0343 51.0958 43.3083 50.3698 42.9659 50.1506C42.1714 49.6438 41.1166 49.4246 40.0482 49.5479C39.24 49.6438 39.2126 49.6301 38.4044 49.0684C37.062 48.1233 35.8566 47.863 34.6922 48.2876ZM37.5688 50.493L38.6784 51.2464L40.0756 51.219C41.8426 51.1779 42.0344 51.2738 43.2672 52.7806C43.7741 53.4107 44.3494 54.0682 44.5549 54.2326C45.1987 54.8216 46.226 55.1915 47.8561 55.4244C48.7191 55.5613 49.4999 55.7257 49.5958 55.8216C49.7053 55.9312 49.719 56.3695 49.6505 57.3284C49.5821 58.3694 49.6095 58.89 49.8012 59.6571C50.2944 61.7118 50.0889 62.4104 48.5684 63.5747C47.4315 64.4514 47.1575 64.7802 46.6644 65.8623C46.3356 66.5746 46.2945 66.8623 46.2397 68.5471C46.1712 70.643 46.0342 71.0265 45.1576 71.5881C44.9247 71.7388 44.3494 72.095 43.8836 72.3826C42.87 73.0264 42.1166 73.9853 41.5824 75.3551C41.1303 76.492 40.7742 76.7797 40.1304 76.4784C39.8427 76.3551 39.6646 75.9441 38.8975 73.5333C38.3359 71.7936 37.9935 70.4923 37.9935 70.1224C37.9935 69.78 38.1304 68.8622 38.2811 68.0814C38.6373 66.3281 38.5825 65.287 38.0756 64.1774C37.5962 63.1364 36.9524 62.4789 35.5963 61.657L34.4867 60.9858L33.4868 58.7667L32.4731 56.5339L32.5553 54.849C32.6512 52.8765 32.8841 52.1916 33.9251 50.9862C35.2538 49.4383 35.8839 49.3561 37.5688 50.493Z" fill="#25282B" stroke="#25282B"/>
<path d="M72.3074 20.8919C70.554 21.3165 69.1294 22.4808 68.376 24.0698C67.787 25.3163 67.6911 26.9464 68.1295 28.234C68.4445 29.1792 68.7459 29.6723 69.4171 30.3983C71.6088 32.7681 75.4032 32.8092 77.677 30.4805C78.4989 29.6312 79.0058 28.6313 79.2386 27.3985C79.7729 24.4397 77.6223 21.3987 74.5813 20.8371C73.6635 20.6727 73.1841 20.6727 72.3074 20.8919ZM75.2114 22.7548C77.3072 23.6726 78.2661 26.2204 77.2661 28.2614C76.6086 29.6176 75.3895 30.4257 73.869 30.5353C72.5403 30.6312 71.691 30.3025 70.7184 29.3436C69.7595 28.371 69.4308 27.5217 69.5267 26.193C69.7321 23.3301 72.595 21.5905 75.2114 22.7548Z" fill="#25282B" stroke="#25282B"/>
</svg>
