<svg width="100" height="100" viewBox="0 0 100 100" fill="none" xmlns="http://www.w3.org/2000/svg">
<path d="M40.003 12.2012C37.9843 12.7459 36.3664 14.2328 35.5352 16.3085L35.179 17.1918L35.1345 24.8029L35.0899 32.4287H28.9004H22.7108L21.8202 32.8556C20.7663 33.3561 19.9351 34.1364 19.4008 35.1522C19.0445 35.7999 19 36.0649 19 37.2868C19 38.4351 19.0594 38.8031 19.3414 39.3625C20.1281 40.9672 21.6569 42.0419 23.3936 42.2333L24.2693 42.3363V48.0925C24.2693 54.4669 24.3138 54.8644 25.2193 56.7635C26.9114 60.3703 30.3698 62.6374 34.5407 62.8582C36.025 62.9466 36.1289 62.9613 36.3071 63.3146C36.6188 63.8888 37.9992 65.0518 38.8749 65.4787C39.3202 65.6995 40.1217 65.9498 40.6561 66.0381L41.6357 66.2V74.6355C41.6357 82.8943 41.6357 83.071 41.9474 83.9101C42.3631 84.9701 43.3427 86.0301 44.4411 86.56C45.6137 87.1342 47.2761 87.1489 48.4784 86.5895C49.4581 86.1331 50.2744 85.3381 50.8236 84.3223L51.2095 83.5863L51.2541 74.8564L51.2986 66.1412H58.1858H65.073L65.1175 74.7239L65.1621 83.2918L65.6519 84.2782C66.1862 85.3529 66.9284 86.0889 68.0416 86.6189C69.0955 87.1342 70.9509 87.1047 72.0938 86.56C73.0883 86.0742 73.8898 85.2498 74.4242 84.1162L74.8101 83.2918L74.8546 74.7386L74.8991 66.1853L75.8788 66.0087C77.6154 65.6995 78.9958 64.8457 80.0349 63.4324C80.9551 62.1958 81.3262 60.8855 81.2371 59.1926C81.1629 58.0737 81.0739 57.7204 80.6286 56.8077C79.9606 55.4827 78.8177 54.3786 77.4522 53.7308C76.4725 53.2745 76.3835 53.2598 74.1125 53.2156L71.7672 53.1567V50.5363V47.9158L74.0382 47.8569C75.9233 47.8128 76.428 47.7391 77.1108 47.4742C78.7435 46.8264 80.1833 45.3984 80.8661 43.7643L81.1926 42.9546L81.2371 30.2204C81.2668 17.7659 81.2668 17.4715 80.97 16.4999C80.4208 14.6891 78.7584 12.9814 76.8881 12.3042C76.1905 12.054 75.1812 12.0392 58.4827 12.0098C43.2833 11.9804 40.7006 12.0098 40.003 12.2012ZM76.1163 14.5566C77.0365 14.8658 78.1201 15.8374 78.5357 16.7502L78.8919 17.4862V29.926V42.3658L78.5357 43.1018C78.1053 44.044 77.3928 44.7507 76.4428 45.1776L75.7007 45.5309H58.3194C39.2163 45.5309 40.2999 45.5751 39.0976 44.6329C38.5335 44.1912 37.9101 43.2932 37.7172 42.6307L37.6133 42.3069L42.3334 42.2627C47.9292 42.1891 48.0034 42.1744 49.4432 40.7611C50.5268 39.6717 50.9127 38.7737 50.8978 37.2132C50.8978 35.3877 49.844 33.7095 48.1964 32.9145L47.3503 32.5023L42.4521 32.4287L37.5539 32.3551L37.5094 25.3623C37.4945 20.828 37.5242 18.1045 37.6281 17.604C37.925 16.2055 38.9788 15.0425 40.4038 14.5272C40.8639 14.3653 44.0997 14.3358 58.2006 14.3211C73.5039 14.3211 75.5077 14.3505 76.1163 14.5566ZM47.0683 34.9608C49.0721 36.0502 49.0721 38.6706 47.0832 39.6275C46.4449 39.9367 46.2965 39.9367 34.9415 39.9367C24.1209 39.9367 23.4232 39.922 22.8592 39.657C22.1913 39.3625 21.4936 38.6265 21.3601 38.0818C21.1819 37.3751 21.3897 36.2857 21.8053 35.7558C22.2655 35.1522 22.6366 34.9166 23.3787 34.7694C23.6607 34.7105 29.0043 34.6811 35.2532 34.6958C45.6285 34.7105 46.6527 34.7252 47.0683 34.9608ZM28.4254 47.798C28.4254 52.8623 28.4551 53.3775 28.7222 54.2314C29.4644 56.6457 31.4979 58.3093 34.1103 58.6626L35.179 58.8098V59.6784L35.1938 60.5469H34.6595C34.3775 60.5469 33.6798 60.4439 33.101 60.3261C30.2511 59.7373 27.8762 57.5437 26.9114 54.6583C26.6145 53.7603 26.5848 53.3334 26.5255 47.9894L26.4661 42.2921H27.4457H28.4254V47.798ZM35.3274 42.8368C35.6391 44.574 37.2422 46.4731 39.0679 47.3417C40.0475 47.798 40.1514 47.8128 42.4224 47.8569L44.7528 47.9158V50.551V53.1861H42.6748C40.9678 53.1861 40.4186 53.245 39.6913 53.4806C38.2664 53.9664 37.3016 54.6583 36.3664 55.8949L35.936 56.4691L34.8821 56.3807C34.3032 56.3366 33.5908 56.2041 33.2939 56.0863C32.4924 55.7477 31.5424 54.8202 31.1565 53.9958C30.8003 53.2598 30.8003 53.2156 30.8003 47.7686V42.2921H33.0119H35.2235L35.3274 42.8368ZM49.5026 50.5363V53.1861H48.3151H47.1277V50.5363V47.8864H48.3151H49.5026V50.5363ZM64.6129 50.4921L64.5683 53.1125L58.2303 53.1567L51.8775 53.1861V50.5363V47.8864H58.26H64.6426L64.6129 50.4921ZM69.3923 50.5363V53.1861H68.2049H67.0175V50.5363V47.8864H68.2049H69.3923V50.5363ZM76.1756 55.733C77.8084 56.3366 78.8919 57.8971 78.8919 59.6489C78.8919 60.915 78.4466 61.8866 77.4818 62.7257C76.1905 63.8593 77.3483 63.8004 57.8741 63.7563L40.5225 63.7121L39.7358 63.2852C37.0789 61.8277 36.7672 58.2798 39.1273 56.3955C40.2256 55.5122 39.2757 55.5563 58.26 55.5563C71.2329 55.5563 75.8194 55.6152 76.1756 55.733ZM48.9089 74.4589C48.9089 83.6746 48.9385 83.439 47.9589 84.1751C46.8605 84.9995 45.2426 84.7493 44.4262 83.6304L44.0849 83.1446L44.0403 74.6355L44.0106 66.1412H46.4597H48.9089V74.4589ZM72.5094 74.2675C72.5094 79.317 72.45 82.6146 72.361 82.9532C72.2719 83.2624 71.9602 83.704 71.6188 83.9985C70.6243 84.9112 69.3478 84.9112 68.3533 83.9985C68.0119 83.704 67.7002 83.2624 67.6112 82.9532C67.5221 82.6146 67.4627 79.317 67.4627 74.2675V66.1412H69.9861H72.5094V74.2675Z" fill="#25282B"/>
</svg>
