<svg width="100" height="100" viewBox="0 0 100 100" fill="none" xmlns="http://www.w3.org/2000/svg">
<path d="M74.0074 12.2426C73.4895 12.4431 72.7877 12.9777 71.6181 14.1139L69.9639 15.718L69.0616 15.6679C68.41 15.6177 67.9756 15.7013 67.4576 15.9519C66.9563 16.1858 63.0298 20.0121 54.5083 28.5336L42.2608 40.7811L40.8406 45.7436C40.0553 48.4838 39.4203 50.8564 39.4203 51.0235C39.4203 51.4413 40.2057 52.2266 40.6234 52.2266C40.7905 52.2266 43.1631 51.5916 45.9033 50.8063L50.8658 49.3861L62.5285 37.7234L74.1912 26.0774L74.5922 26.5452C75.0768 27.0799 75.2606 27.9321 75.0935 28.7842C74.9932 29.3189 74.4251 29.9872 71.2338 33.1953C67.9087 36.5371 67.491 37.0216 67.491 37.5062C67.491 38.2246 68.126 38.8596 68.8611 38.8596C69.3624 38.8596 69.7801 38.4753 73.1887 35.05C77.5831 30.6222 77.7502 30.3715 77.7502 28.166C77.7502 26.5954 77.4661 25.7766 76.4803 24.5903C76.0125 24.0055 75.9624 23.8551 75.9624 22.8025V21.6496L77.5664 19.9954C78.9031 18.6253 79.2038 18.2076 79.4211 17.4724C79.7552 16.3362 79.7552 15.7347 79.4044 14.7155C78.6859 12.5934 76.2297 11.474 74.0074 12.2426ZM76.5304 15.1165C77.3826 15.9853 77.2322 16.4532 75.5948 18.124L74.1912 19.561L73.1386 18.5083L72.0859 17.4557L73.5229 16.0522C75.1938 14.4147 75.6616 14.2643 76.5304 15.1165ZM71.2004 20.4298C72.3867 21.5995 73.3391 22.6855 73.3391 22.8192C73.3391 22.9529 70.2145 26.1944 66.405 30.0039L59.4708 36.9381L57.0982 34.5487L54.7088 32.1761L61.643 25.242C65.4526 21.4324 68.6941 18.3078 68.8277 18.3078C68.9614 18.3078 70.0308 19.2602 71.2004 20.4298ZM55.2101 36.5204L57.5493 38.8596L53.8233 42.5856L50.1139 46.295L47.7413 43.9056L45.352 41.533L49.0279 37.857C51.0496 35.8353 52.7372 34.1811 52.7873 34.1811C52.8375 34.1811 53.9235 35.2338 55.2101 36.5204ZM47.3069 47.5648C47.1398 47.7319 42.9125 48.9182 42.8122 48.8347C42.7454 48.7511 43.8816 44.5907 44.0487 44.3066C44.0988 44.2398 44.8841 44.9081 45.7864 45.8104C46.6886 46.7127 47.3737 47.498 47.3069 47.5648Z" fill="#25282B"/>
<path d="M12.6859 41.7506C11.8672 42.018 10.4637 43.4549 10.213 44.3071C9.92899 45.3096 9.92899 83.205 10.213 84.2075C10.4804 85.1265 11.8672 86.5133 12.7862 86.7807C13.7553 87.0647 86.4383 87.0814 87.3907 86.7807C88.3097 86.5133 89.3623 85.5609 89.8135 84.5751L90.2145 83.723V64.3575C90.2145 49.6371 90.1643 44.825 90.014 44.3071C89.7466 43.3881 88.3598 42.0013 87.4408 41.7339C86.9228 41.5835 83.5644 41.5334 74.1908 41.5334H61.6258L61.2248 41.9511C60.6734 42.4858 60.6734 43.2544 61.2248 43.7891L61.6258 44.2068H74.1741H86.7223L87.1233 44.6245L87.5411 45.0255V64.2573V83.489L87.1233 83.89L86.7223 84.3078H50.1135H13.5047L13.1036 83.89L12.6859 83.489V64.2573V45.0255L13.1036 44.6245L13.5047 44.2068H25.3846H37.2645L37.6655 43.7891C38.2169 43.2544 38.2169 42.4858 37.6655 41.9511L37.2645 41.5334L25.2676 41.5501C17.0302 41.5668 13.0869 41.6337 12.6859 41.7506Z" fill="#25282B"/>
<path d="M58.5514 52.6446C58.1337 53.0456 58.1337 53.079 58.1337 56.237C58.1337 59.3949 58.1337 59.4283 58.5514 59.8294L58.9525 60.2471H70.164H81.3756L81.7766 59.8294C82.1943 59.4283 82.1943 59.3949 82.1943 56.237C82.1943 53.079 82.1943 53.0456 81.7766 52.6446L81.3756 52.2269H70.164H58.9525L58.5514 52.6446ZM79.5209 56.237V57.5737H70.164H60.8071V56.237V54.9003H70.164H79.5209V56.237Z" fill="#25282B"/>
<path d="M34.5573 57.8911C34.2566 58.1251 34.1563 58.3757 34.1563 58.9104C34.1563 59.4451 34.2566 59.6957 34.5573 59.9296C34.9249 60.2304 35.3593 60.2471 43.4297 60.2471C51.5 60.2471 51.9344 60.2304 52.302 59.9296C52.8534 59.4785 52.8534 58.3423 52.302 57.8911C51.9344 57.5904 51.5 57.5737 43.4297 57.5737C35.3593 57.5737 34.9249 57.5904 34.5573 57.8911Z" fill="#25282B"/>
<path d="M34.4904 66.0114C34.223 66.262 34.0726 66.6129 34.0726 66.9304C34.0726 67.2479 34.223 67.5987 34.4904 67.8494L34.8914 68.2671H52.7864H70.6815L71.0825 67.8494C71.3498 67.5987 71.5002 67.2479 71.5002 66.9304C71.5002 66.6129 71.3498 66.262 71.0825 66.0114L70.6815 65.5937H52.7864H34.8914L34.4904 66.0114Z" fill="#25282B"/>
<path d="M74.5925 66.0114C74.3252 66.262 74.1748 66.6129 74.1748 66.9304C74.1748 67.2479 74.3252 67.5987 74.5925 67.8494C74.9935 68.2671 75.027 68.2671 78.1849 68.2671C81.3429 68.2671 81.3763 68.2671 81.7773 67.8494C82.0446 67.5987 82.195 67.2479 82.195 66.9304C82.195 66.6129 82.0446 66.262 81.7773 66.0114C81.3763 65.5937 81.3429 65.5937 78.1849 65.5937C75.027 65.5937 74.9935 65.5937 74.5925 66.0114Z" fill="#25282B"/>
<path d="M68.9937 73.6973C68.3922 73.8309 66.9385 74.4157 65.7355 75.0173C64.5492 75.6021 63.1958 76.1869 62.7613 76.3038C61.0236 76.7383 59.2525 76.0866 58.1999 74.6162C57.3811 73.48 56.6125 73.2795 55.8773 74.0314C55.2758 74.6162 55.3427 75.2512 56.0611 76.2203C57.4981 78.1418 59.1857 79.0106 61.4748 79.0106C63.2626 79.0273 64.4155 78.6932 66.5876 77.5403C67.5066 77.0557 68.6929 76.521 69.2276 76.3707C71.2494 75.7859 72.9203 76.354 74.1734 78.0415C74.7916 78.877 74.9086 78.9605 75.4934 78.9605C76.2787 78.9605 76.8468 78.4091 76.8468 77.6739C76.8468 77.039 75.8944 75.719 74.8418 74.8836C73.338 73.6806 71.0823 73.2294 68.9937 73.6973Z" fill="#25282B"/>
<path d="M17.1131 76.7048C16.8458 76.9554 16.6954 77.3063 16.6954 77.6238C16.6954 77.9412 16.8458 78.2921 17.1131 78.5427L17.5141 78.9604H31.2988C38.8679 78.9604 45.2005 78.9103 45.3509 78.8602C45.7686 78.6931 46.1362 77.8243 46.0192 77.2729C45.7853 76.2369 46.5372 76.2871 31.3489 76.2871H17.5141L17.1131 76.7048Z" fill="#25282B"/>
<path d="M18.7814 69.0708V51.5454H24.3778C26.636 51.5454 28.2805 52.0036 29.3114 52.92C30.3587 53.8363 30.8823 55.0963 30.8823 56.6999C30.8823 57.649 30.6696 58.5408 30.2441 59.3754C29.8187 60.2099 29.1069 60.8808 28.1087 61.3881C27.1269 61.8954 25.7851 62.149 24.0832 62.149H22.4878V69.0708H18.7814ZM16.8178 66.4445V64.0636H26.2678V66.4445H16.8178ZM16.8178 62.149V59.1054H24.0096V62.149H16.8178ZM23.7151 59.1054C24.4187 59.1054 25.0241 59.0317 25.5314 58.8845C26.0387 58.7208 26.4314 58.4672 26.7096 58.1236C26.9878 57.7799 27.1269 57.3463 27.1269 56.8227C27.1269 56.0699 26.8896 55.5136 26.4151 55.1536C25.9405 54.7772 25.196 54.589 24.1814 54.589H22.4878V59.1054H23.7151Z" fill="#25282B"/>
</svg>
