<svg width="40" height="40" viewBox="0 0 40 40" fill="none" xmlns="http://www.w3.org/2000/svg">
<path d="M7.49455 2.51046C7.13143 2.74546 3.06574 7.03578 3.02035 7.23049C2.99441 7.33792 2.99441 7.49235 3.01387 7.57963C3.06574 7.79448 5.58815 10.9636 7.53345 13.2665C10.3282 16.5564 12.0466 18.1611 12.7987 18.1611C13.0776 18.1611 14.0502 18.5169 14.7376 18.8728C15.3471 19.1884 16.216 19.6986 16.216 19.7456C16.216 19.8195 11.865 23.6868 7.49455 27.487C5.78268 28.9776 4.23941 30.3338 4.07081 30.5084C2.66371 31.9116 2.64426 34.2347 4.03839 35.6716C5.33526 37.0211 7.44267 37.1084 8.80439 35.8663C8.93407 35.7454 10.2828 34.1273 11.8002 32.2608C16.3133 26.7149 19.4906 22.8946 19.5879 22.8946C19.6851 22.8946 22.8819 26.7418 27.3756 32.2608C28.8929 34.1273 30.2416 35.7454 30.3713 35.8663C31.733 37.1084 33.8404 37.0211 35.1373 35.6716C36.4536 34.3153 36.525 32.1131 35.2929 30.7031C35.1632 30.5554 33.7886 29.3334 32.2388 27.9772C26.7595 23.2034 22.7782 19.6583 22.8171 19.5778C22.83 19.5576 23.4914 18.8997 24.2825 18.1275C25.0736 17.3487 27.4469 14.992 29.5478 12.8838C31.6487 10.7756 33.7497 8.69418 34.2101 8.25104C35.8182 6.72693 35.9868 6.50537 36.1294 5.69967C36.3823 4.28971 35.494 2.95359 34.1063 2.64474C33.7432 2.56417 33.3152 2.59103 32.8678 2.73203C32.5565 2.82602 30.2805 4.3837 28.4714 5.73996C24.7753 8.51289 21.3905 11.3731 20.3595 12.5951C19.7435 13.3202 19.5879 13.6223 19.5879 14.0923C19.5879 14.5489 19.4776 15.3479 19.4063 15.4217C19.2701 15.5627 18.2261 13.0046 18.2261 12.5414C18.2261 11.7625 16.6829 9.99 13.4991 7.0895C11.8066 5.55196 8.3829 2.60446 8.13001 2.45675C7.929 2.34932 7.71502 2.36275 7.49455 2.51046ZM9.64087 5.58553C10.4968 6.3308 11.8974 7.5662 12.7534 8.33833C15.6843 10.9971 16.7672 12.1251 16.832 12.5817C17.0525 14.1729 18.0575 16.2946 19.4906 18.1947C20.4568 19.4704 22.5512 21.3973 30.7539 28.5546C32.6668 30.2264 34.2879 31.6699 34.3592 31.7774C34.7158 32.3011 34.852 32.865 34.7547 33.4626C34.5018 35.0941 32.7122 35.8394 31.3764 34.8659C31.2726 34.792 29.8785 33.1135 28.2639 31.1328C20.3076 21.357 19.2896 20.2022 17.448 18.8527C15.9501 17.7583 13.8233 16.7511 13.0062 16.7511C12.8766 16.7511 12.695 16.6706 12.5134 16.543C11.7288 15.9589 8.8822 12.7428 6.04854 9.23131L4.60902 7.45206L4.83597 7.21707L5.06292 6.98207L8.35048 10.3794C10.5487 12.6488 11.6964 13.7902 11.8066 13.8103C12.267 13.8909 12.6496 13.5686 12.6496 13.0986C12.6496 12.8301 12.6301 12.8099 9.34259 9.39916L6.03557 5.97495L6.24307 5.75339L6.45705 5.53853L9.76407 8.96274C13.0581 12.3668 13.0776 12.3869 13.3369 12.3869C13.7908 12.3869 14.1021 11.9908 14.0243 11.5141C14.0048 11.4 12.9025 10.2116 10.7173 7.94219L7.43619 4.53141L7.65666 4.29642C7.8447 4.095 7.89009 4.07485 7.97439 4.15542C8.03275 4.20242 8.77845 4.84698 9.64087 5.58553ZM34.2879 4.23599C34.7029 4.55827 34.8715 5.02826 34.7483 5.53853C34.6899 5.78695 34.5861 5.92795 34.1841 6.31737C33.9118 6.57922 33.2439 7.23049 32.6927 7.76091C32.1415 8.29133 30.1833 10.2384 28.3482 12.0848C26.5066 13.9379 24.276 16.1603 23.3812 17.0331L21.7601 18.6244L21.41 18.2752C21.2219 18.0805 20.9042 17.718 20.7032 17.4628C20.3595 17.013 20.3465 16.9928 20.4308 16.7914C20.7226 16.0529 20.9496 14.9853 20.9496 14.3139V13.9312L21.4878 13.3806C23.3942 11.4201 28.8734 7.02907 32.2323 4.76641C32.7122 4.44413 33.1596 4.15543 33.2309 4.12185C33.4644 4.02114 34.0933 4.08828 34.2879 4.23599ZM18.3818 21.5114L18.6411 21.7867L18.5115 21.9344C17.1562 23.5055 14.0826 27.2319 10.5552 31.5692C9.14157 33.3082 7.90306 34.792 7.8058 34.8659C7.29353 35.2351 6.74885 35.3761 6.17174 35.2754C4.59605 35.0136 3.87628 33.1605 4.81651 31.7706C4.88784 31.6699 6.50893 30.2264 8.42181 28.5546C11.9493 25.4795 14.5819 23.1564 16.4105 21.498L17.4091 20.5916L17.7722 20.9139C17.9668 21.0952 18.2456 21.3637 18.3818 21.5114Z" fill="#25282B"/>
</svg>
