<svg width="42" height="40" viewBox="0 0 42 40" fill="none" xmlns="http://www.w3.org/2000/svg">
<path d="M8.43818 5.29108C7.21396 5.35594 5.68165 5.59105 4.59525 5.86671C3.671 6.10182 3.54939 6.24776 3.50885 7.11526L3.47642 7.71521H2.00087C0.428025 7.71521 0.31452 7.74764 0.0956194 8.17733C-0.0422072 8.44488 -0.0259923 34.2752 0.111834 34.5509C0.168586 34.6644 0.34695 34.8184 0.509099 34.8995L0.809075 35.0454L1.84683 34.5995C7.34368 32.2564 13.408 31.7457 19.6427 33.0915L20.7534 33.3347L21.8317 33.0996C23.1613 32.8078 24.799 32.5564 26.0313 32.4429C27.8961 32.2808 31.3012 32.3781 32.9146 32.6537C35.6143 33.0996 37.6169 33.6834 39.741 34.6157C40.7788 35.0778 40.9896 35.0859 41.3139 34.6968L41.5166 34.4536V21.4087C41.5166 7.21254 41.5409 8.02329 41.0707 7.8125C40.9328 7.74764 40.3572 7.71521 39.4086 7.71521H37.9493V7.09904C37.9493 6.40991 37.8763 6.22344 37.5601 6.06129C36.9764 5.76942 34.7712 5.39648 32.9146 5.29108C28.196 5.00732 24.2639 6.16668 21.3696 8.67999L20.7291 9.23941L20.1453 8.69621C18.4266 7.09093 15.9214 5.94778 13.1 5.49376C12.3379 5.37215 10.1813 5.19379 9.73537 5.21811C9.62187 5.21811 9.03813 5.25054 8.43818 5.29108ZM12.9216 7.13958C15.6133 7.65035 17.6239 8.61513 19.2616 10.1637L19.9508 10.8123V20.8168C19.9508 26.3218 19.9345 30.8214 19.9102 30.8214C19.8859 30.8214 19.7156 30.7241 19.5211 30.6025C18.1914 29.7594 15.9051 28.9891 13.6999 28.6405C11.2353 28.2433 9.01381 28.2108 5.74651 28.5189L5.11413 28.5757V17.9954V7.41523L5.78705 7.28551C6.37889 7.17201 7.15721 7.0585 8.03281 6.95311C8.18685 6.93689 9.15975 6.92878 10.1813 6.945C11.6487 6.96121 12.2325 7.00986 12.9216 7.13958ZM34.6739 7.09904C35.1684 7.17201 35.7522 7.2774 35.9711 7.33416L36.3683 7.43145L36.3927 18.0036L36.4089 28.5757L35.7846 28.5189C33.9361 28.3487 33.247 28.3081 31.9822 28.3081C28.2609 28.3081 24.9855 29.0135 22.4073 30.3755L21.5722 30.8133V20.8168V10.8204L22.1236 10.2772C24.0126 8.42055 26.2259 7.47198 29.8824 6.95311C30.458 6.87203 33.8226 6.97743 34.6739 7.09904ZM3.57371 19.5764V29.8161L3.74397 30.0026C4.00341 30.2782 4.23042 30.335 4.80605 30.2458C6.02216 30.0674 8.11388 29.9296 9.61376 29.9296C11.8433 29.9296 13.7161 30.1728 15.4917 30.6917L16.1808 30.8944L15.4106 30.8376C14.1945 30.7485 10.6758 30.7809 9.69484 30.8863C7.17342 31.1782 4.45743 31.8349 2.17923 32.7105L1.62793 32.9213V21.133V9.33669H2.60082H3.57371V19.5764ZM39.8951 21.133V32.9213L39.3519 32.7105C36.7089 31.7132 33.774 31.0484 30.9445 30.8133C29.8337 30.7241 26.7691 30.7566 25.707 30.862C25.399 30.8944 25.4476 30.8701 25.9908 30.6998C26.8988 30.4242 28.496 30.1161 29.6392 30.0026C30.8553 29.881 34.4469 29.9539 35.8008 30.1242C36.9602 30.2782 37.4142 30.2863 37.6412 30.1647C38.0385 29.9539 38.0304 30.2458 38.0304 19.4305V9.33669H38.9627H39.8951V21.133Z" fill="#25282B"/>
</svg>
