<svg width="41" height="40" viewBox="0 0 41 40" fill="none" xmlns="http://www.w3.org/2000/svg">
<path d="M0.417667 5.32102C-0.00831874 5.58135 -0.0162074 5.66023 0.00745851 8.92612L0.0311244 11.9159L0.236229 12.3498C0.528108 12.973 0.875207 13.3359 1.46685 13.6277C1.90073 13.8407 2.09794 13.8881 2.73692 13.9196L3.50212 13.967L3.54945 17.1618C3.58101 19.6152 3.62045 20.5224 3.723 21.0667C4.36198 24.5929 5.93182 27.5985 8.43251 30.0992C10.3258 32.0004 12.4873 33.3335 14.9801 34.1539C18.4274 35.282 21.9457 35.282 25.3931 34.1539C27.8859 33.3335 30.0473 32.0004 31.9406 30.0992C34.4413 27.5985 36.0111 24.5929 36.6501 21.0667C36.7527 20.5224 36.7921 19.6152 36.8237 17.1618L36.871 13.967L37.6204 13.9196C38.8668 13.8486 39.6162 13.399 40.0817 12.4445L40.342 11.9159L40.3657 8.90246C40.3814 6.29132 40.3736 5.85745 40.2631 5.65235C39.9949 5.13169 41.6436 5.17114 20.1708 5.17114C1.22231 5.17114 0.654326 5.17903 0.417667 5.32102ZM38.6302 9.27322L38.6065 11.6398L38.3462 11.8922L38.0937 12.1526H20.1866H2.27938L2.02695 11.8922L1.76662 11.6398L1.74296 9.27322L1.71929 6.90664H20.1866H38.6538L38.6302 9.27322ZM35.0724 16.9804C35.0408 20.1674 35.0014 20.5697 34.6306 22.037C33.4237 26.7544 29.8501 30.683 25.2747 32.3317C23.5156 32.9707 22.1508 33.1994 20.1866 33.1994C18.2223 33.1994 16.8576 32.9707 15.0984 32.3317C10.523 30.683 6.94945 26.7544 5.74249 22.037C5.37172 20.5697 5.33228 20.1674 5.30073 16.9804L5.26128 13.9275H20.1866H35.1118L35.0724 16.9804Z" fill="#25282B"/>
<path d="M19.3178 15.7502C15.3814 16.1604 12.2969 19.5998 12.2969 23.5915C12.2969 26.8732 14.3638 29.8393 17.4561 30.9989C19.1127 31.6221 21.2584 31.6221 22.915 30.9989C27.4431 29.295 29.4153 24.0175 27.0881 19.7892C25.8338 17.5015 23.5461 16.0105 20.9034 15.7423C20.4538 15.7029 20.0672 15.6713 20.0357 15.6713C20.012 15.6792 19.6886 15.7186 19.3178 15.7502ZM21.4635 17.5961C23.7118 18.0695 25.463 19.734 26.1178 22.0217C26.3466 22.8342 26.3624 24.2778 26.1494 25.0509C25.8102 26.2973 25.2343 27.2755 24.3744 28.0643C23.1675 29.1766 21.8185 29.7052 20.1856 29.7052C17.322 29.7052 15.0027 27.8908 14.2218 25.0509C14.0088 24.2778 14.0245 22.8342 14.2533 22.0217C14.9002 19.7576 16.6515 18.0773 18.876 17.5961C19.515 17.4541 20.8088 17.4541 21.4635 17.5961Z" fill="#25282B"/>
<path d="M19.127 19.3386C17.7229 19.6778 16.437 20.8848 15.9952 22.2811C15.7665 22.9989 15.7665 24.1822 15.9952 24.9001C16.5632 26.6908 18.3066 27.9688 20.1841 27.9688C22.0616 27.9688 23.805 26.6908 24.373 24.9001C24.6017 24.1822 24.6017 22.9989 24.373 22.2811C23.6788 20.1117 21.3516 18.8022 19.127 19.3386ZM21.3437 21.2634C23.3001 22.2258 23.2764 24.9632 21.3043 25.9335C20.8546 26.1544 20.7048 26.1938 20.1841 26.1938C19.6635 26.1938 19.5136 26.1544 19.0639 25.9335C18.1173 25.4681 17.5809 24.624 17.5809 23.5906C17.5809 21.6342 19.5767 20.4036 21.3437 21.2634Z" fill="#25282B"/>
<path d="M30.1366 17.7215C29.7974 18.0528 29.7895 18.5419 30.113 18.9127C30.3102 19.1257 30.3969 19.1572 30.7125 19.1572C31.0044 19.1572 31.1227 19.1178 31.3041 18.9442C31.8879 18.3841 31.5014 17.4769 30.6967 17.4769C30.4443 17.4769 30.326 17.5322 30.1366 17.7215Z" fill="#25282B"/>
</svg>
