<svg width="40" height="40" viewBox="0 0 40 40" fill="none" xmlns="http://www.w3.org/2000/svg">
<path d="M18.3359 1.26095C16.2213 1.67501 14.4763 2.99854 13.552 4.87661C13.0049 5.9857 12.8718 6.57722 12.8718 7.87116C12.8718 9.16511 13.0049 9.76402 13.5373 10.8288C13.7369 11.2132 13.8996 11.5534 13.9143 11.5829C13.9291 11.6125 13.833 11.6865 13.7073 11.753C12.3542 12.4554 12.0215 14.2817 13.0419 15.4426C13.3302 15.7679 13.7739 16.0341 14.2101 16.1524L14.5207 16.2338V16.9879C14.5207 19.0583 14.0474 21.9493 13.308 24.3745C12.9901 25.4097 12.3838 26.9846 11.8958 28.0345C11.5852 28.7074 11.5187 28.8035 11.2969 28.8701C10.8532 29.0179 9.98814 29.6464 9.5445 30.1344C9.0639 30.652 8.49456 31.7241 8.41323 32.2491C8.35407 32.6188 8.29492 32.678 7.92522 32.7371C7.23758 32.8406 6.32813 33.4987 5.92146 34.1937C5.57394 34.7926 5.5 35.2658 5.5 36.9073C5.5 37.9055 5.52958 38.4674 5.58873 38.5931C5.78097 39.022 4.90109 38.9998 19.5486 38.9998C34.196 38.9998 33.3161 39.022 33.5084 38.5931C33.6489 38.29 33.6267 35.5246 33.4788 34.9701C33.1904 33.861 32.207 32.9146 31.1719 32.7445C30.8096 32.6853 30.7726 32.6484 30.6543 32.1604C30.3512 30.9034 29.3086 29.6095 28.1477 29.0549L27.5414 28.7591L27.1939 28.0198C25.5894 24.5963 24.5765 20.3152 24.5765 16.9879V16.2338L24.9757 16.1228C25.4785 15.975 25.9443 15.6274 26.2549 15.1616C26.5506 14.7254 26.6468 14.4 26.6468 13.7863C26.6468 12.9656 26.1292 12.1375 25.3898 11.753C25.2641 11.6865 25.168 11.6125 25.1828 11.5829C25.1976 11.5534 25.3602 11.2132 25.5599 10.8288C26.0848 9.77142 26.2253 9.16511 26.2253 7.87116C26.2253 6.6068 26.0996 6.00788 25.582 4.95055C24.8426 3.41999 23.5931 2.25174 22.0255 1.62326C20.9017 1.17962 19.4598 1.03174 18.3359 1.26095ZM21.1457 2.88023C24.6282 4.04108 25.9148 8.22608 23.6744 11.0949L23.3565 11.4942H19.5486H15.7407L15.4227 11.0949C13.2415 8.30002 14.4097 4.20375 17.737 2.95417C18.4321 2.68799 18.8831 2.62144 19.7778 2.65841C20.3693 2.6806 20.702 2.73235 21.1457 2.88023ZM24.7169 13.0765C25.0053 13.2318 25.168 13.5054 25.168 13.8603C25.168 14.2152 25.0053 14.4888 24.7169 14.644C24.4064 14.7993 14.6907 14.7993 14.3802 14.644C13.7813 14.3335 13.7739 13.4093 14.3654 13.0839C14.6537 12.9286 24.4138 12.9213 24.7169 13.0765ZM23.1198 17.4981C23.2455 21.1507 24.0219 24.3671 25.7373 28.4042C25.7669 28.4782 24.5025 28.5004 19.5486 28.5004C14.5946 28.5004 13.3302 28.4782 13.3598 28.4042C13.382 28.3599 13.552 27.9606 13.7369 27.517C15.0604 24.3967 15.859 20.7958 15.9773 17.4981L16.0216 16.2264H19.5486H23.0755L23.1198 17.4981ZM26.5802 30.0531C27.7633 30.2749 28.9389 31.347 29.2051 32.434L29.2495 32.6336L25.9222 32.6558L22.5949 32.678L22.4026 32.8554C22.1734 33.0772 22.0921 33.3952 22.2104 33.6835C22.3952 34.1272 22.3435 34.1198 26.6985 34.1198C29.3825 34.1198 30.7726 34.1494 30.9722 34.2011C31.3641 34.312 31.9261 34.874 32.037 35.2658C32.0813 35.4285 32.1183 36.0052 32.1183 36.5376V37.521H19.5486H6.9788V36.4859C6.9788 35.325 7.04534 35.0662 7.44462 34.6521C7.94001 34.1346 7.68122 34.1641 12.3468 34.1198C16.3618 34.0828 16.5836 34.0754 16.7314 33.9423C16.9311 33.7575 17.005 33.3656 16.8867 33.0772C16.7019 32.641 16.6945 32.641 13.1084 32.641H9.84766L9.89202 32.434C10.1508 31.3766 11.3265 30.2823 12.4503 30.0605C12.9309 29.9644 26.0848 29.9644 26.5802 30.0531Z" fill="#25282B"/>
<path d="M19.3266 32.6928C18.7203 32.9146 18.6686 33.8019 19.2453 34.0459C19.5189 34.1568 19.9256 34.0902 20.0956 33.9128C20.591 33.3582 20.0143 32.4414 19.3266 32.6928Z" fill="#25282B"/>
</svg>
