<svg width="40" height="40" viewBox="0 0 40 40" fill="none" xmlns="http://www.w3.org/2000/svg">
<path d="M3.92274 23.6716C4.14753 23.7014 4.33627 23.791 4.47595 23.9503C4.61354 24.1072 4.69137 24.318 4.72331 24.5689C5.38151 29.5117 8.39335 33.7145 12.8378 35.8929C14.6176 36.7644 15.872 37.0405 17.1688 36.8758C18.5401 36.6953 19.5578 36.2001 20.5009 35.2571C21.1163 34.6344 21.4872 34.0759 21.7444 33.3902L21.7444 33.39C21.8937 32.9933 21.9722 32.7386 22.0164 32.3478C22.0615 31.9495 22.0708 31.4101 22.0745 30.444L22.0746 30.4435C22.0819 29.4328 22.0985 28.8059 22.1615 28.2912C22.2251 27.7721 22.3356 27.37 22.5255 26.8076C23.1268 25.0113 24.4323 23.3007 25.9957 22.2484L25.9967 22.2477L26.4589 21.9418L26.4984 21.33C26.4984 21.3298 26.4984 21.3297 26.4984 21.3296C26.5205 20.9611 26.5721 19.9213 26.6165 19.0274L26.6165 19.0273C26.7422 16.5415 27.0161 14.1257 27.3579 12.4834L27.3583 12.4814C27.4467 12.084 27.5277 11.6863 27.5497 11.5762L27.5496 11.5762L27.5509 11.5709C27.5635 11.5179 27.5573 11.5088 27.5508 11.4991L27.5498 11.4977C27.5296 11.4674 27.4788 11.4215 27.3461 11.3305L27.345 11.3298C26.8552 10.9877 26.4406 10.4784 26.1431 9.83794C26.1179 9.78496 26.0929 9.73252 26.0687 9.68168C25.9608 9.45498 25.8682 9.26032 25.8349 9.19228C25.8284 9.18728 25.8183 9.18016 25.8036 9.17094C25.7672 9.1482 25.7138 9.11946 25.6439 9.08558C25.5048 9.01815 25.3122 8.93597 25.0868 8.84758C24.6366 8.67097 24.0649 8.47309 23.549 8.32306C22.3134 7.96482 21.0482 7.76726 19.7088 7.72335L19.7082 7.72332C17.9167 7.65751 16.317 7.88392 14.6131 8.4397C13.7911 8.70883 12.1933 9.47099 11.4721 9.92979C8.37071 11.9414 6.14138 14.9319 5.16203 18.4035L5.16179 18.4044C5.04468 18.8106 4.93978 19.0931 4.78815 19.27C4.62071 19.4653 4.41215 19.5172 4.15362 19.5172C3.927 19.5172 3.71124 19.4205 3.55269 19.2772C3.3947 19.1343 3.2799 18.9321 3.2799 18.7099C3.2799 18.6018 3.31495 18.4257 3.36629 18.2228C3.41912 18.0139 3.49373 17.7598 3.58159 17.487C3.75719 16.9416 3.98783 16.3145 4.20821 15.814C5.95963 11.7896 9.27577 8.60015 13.36 7.01267C17.1038 5.55099 21.44 5.57467 25.4158 7.06371L25.4163 7.06393L25.9122 7.25202L26.0699 6.77323L26.0706 6.77131C26.304 6.09373 26.9335 4.80827 27.5593 3.6526C27.8732 3.07312 28.1881 2.5225 28.4548 2.0927C28.5881 1.87795 28.7103 1.69182 28.815 1.54676C28.9163 1.40654 29.0109 1.29061 29.0888 1.22972L29.0893 1.22932L30.06 1.35531L30.156 1.24008C30.1563 1.24035 30.1566 1.24061 30.1569 1.24088C30.2258 1.29864 30.314 1.41646 30.4094 1.55795C30.5096 1.7065 30.6297 1.89978 30.7627 2.1239C31.0288 2.57246 31.3494 3.15024 31.6694 3.75341C32.3073 4.95545 32.9521 6.27492 33.156 6.87531L33.156 6.8754C33.621 8.24765 33.4248 9.5646 32.578 10.6201L32.4468 10.7907L32.7906 11.0679L32.7918 11.0689C33.4723 11.6297 34.5588 12.7533 35.0761 13.4429C36.2417 14.9897 36.788 16.3472 36.8636 17.9199L36.8636 17.92C36.9277 19.274 36.5851 20.4125 35.9081 21.215C35.2294 22.0196 34.2272 22.4711 33.0065 22.4711H32.6962L32.6544 24.9601L32.6543 24.9604C32.5989 27.9287 32.4418 30.5387 32.1946 32.68C31.9477 34.8186 31.6101 36.4988 31.1897 37.6023C30.817 38.5885 30.2241 39.15 29.5726 39.15C28.921 39.15 28.3282 38.5885 27.9554 37.6023C27.5536 36.5581 27.2307 34.9945 26.9857 32.9623C26.7403 30.9274 26.5721 28.4135 26.4834 25.4642L26.4423 24.1127L26.0231 24.5319L26.0226 24.5324C25.2376 25.3101 24.7549 26.0174 24.3867 26.9125L24.3867 26.9126C24.1564 27.4719 24.0284 27.8579 23.9543 28.3705C23.8794 28.8887 23.8589 29.5396 23.8515 30.6302C23.8442 31.7219 23.8203 32.3943 23.7304 32.9366C23.6396 33.4847 23.4819 33.8957 23.2173 34.466L23.2171 34.4664C22.84 35.2733 22.5494 35.6854 21.8603 36.4045C20.3836 37.949 18.6453 38.6738 16.4638 38.6663L16.4636 38.6663C14.936 38.6588 13.8501 38.37 12.0414 37.4843C8.0988 35.5614 5.08029 32.1183 3.70124 27.9814C3.51816 27.4396 3.3396 26.7677 3.20401 26.151C3.06909 25.5375 2.97411 24.9669 2.96245 24.6309C2.95531 24.4558 2.95385 24.3207 2.99911 24.2031C3.04606 24.081 3.13648 23.9944 3.24812 23.8936L3.24853 23.8932C3.35468 23.798 3.44705 23.7225 3.55778 23.6848C3.67166 23.6459 3.78668 23.6528 3.92274 23.6716ZM3.92274 23.6716C3.92288 23.6717 3.92303 23.6717 3.92317 23.6717L3.90253 23.8203L3.92217 23.6716C3.92236 23.6716 3.92255 23.6716 3.92274 23.6716ZM25.8422 9.19851C25.8426 9.19888 25.8423 9.19848 25.841 9.1973C25.8416 9.19791 25.842 9.19831 25.8422 9.19851ZM27.5048 12.5139C27.1651 14.146 26.8918 16.5535 26.7663 19.0348L26.2789 9.77414C26.5669 10.3945 26.9657 10.8819 27.4309 11.2068C27.6894 11.3841 27.7337 11.4505 27.6968 11.6056C27.6746 11.7164 27.5934 12.1152 27.5048 12.5139ZM29.9144 4.22036L29.9135 4.21864C29.8036 4.01723 29.6995 3.8363 29.6213 3.70626C29.6127 3.69206 29.6045 3.67852 29.5967 3.66567C29.5527 3.73325 29.4987 3.82182 29.4369 3.92799C29.2822 4.19342 29.0833 4.55922 28.8757 4.95743C28.4596 5.75541 28.0143 6.67234 27.8217 7.16284C27.5941 7.74438 27.5163 8.21313 27.5756 8.61591C27.6344 9.01483 27.8304 9.36652 28.1853 9.71079L28.1855 9.71104C29.0074 10.5124 30.3558 10.4481 31.1437 9.55691C31.3969 9.26899 31.5492 8.95994 31.606 8.62217C31.6628 8.28333 31.6251 7.90606 31.4833 7.48055L31.4829 7.47943C31.3031 6.9258 30.5119 5.28244 29.9144 4.22036ZM32.5467 13.2705L32.545 13.2688C32.3619 13.0821 32.1715 12.8973 32.0126 12.7493C31.9282 12.6707 31.8551 12.6048 31.7975 12.5549C31.8069 12.6043 31.817 12.6583 31.8275 12.7157C31.8692 12.9417 31.921 13.2341 31.9728 13.5374L31.9729 13.5378C32.2178 14.9997 32.4324 17.0881 32.5434 19.1672L32.5434 19.1673L32.6242 20.7022L33.1104 20.6795L33.111 20.6795C33.3714 20.6685 33.5328 20.6523 33.6675 20.6198C33.7993 20.5881 33.912 20.5393 34.0728 20.4536C34.4338 20.2575 34.6784 20.0027 34.8354 19.6448C34.9949 19.2811 35.0683 18.8013 35.0646 18.1495V18.1486C35.0646 17.7908 35.0571 17.578 35.025 17.3796C34.9931 17.1819 34.9359 16.9929 34.8291 16.6837L34.8289 16.6829C34.4173 15.4697 33.7384 14.4476 32.5467 13.2705ZM30.87 22.1393L30.87 22.1388C30.859 21.427 30.8424 20.7651 30.8258 20.2713C30.8175 20.0243 30.8092 19.8199 30.8017 19.6725C30.7979 19.5987 30.7943 19.5401 30.7911 19.4978C30.7895 19.4766 30.788 19.4605 30.7867 19.4492C30.7864 19.4464 30.7861 19.4441 30.7859 19.4424C30.7724 19.4384 30.7453 19.4322 30.6954 19.4267C30.5285 19.4085 30.209 19.4064 29.5726 19.4064C28.9361 19.4064 28.6166 19.4085 28.4497 19.4267C28.3999 19.4322 28.3728 19.4384 28.3592 19.4424C28.359 19.4441 28.3587 19.4464 28.3584 19.4493C28.3571 19.4608 28.3557 19.4771 28.354 19.4986C28.3508 19.5415 28.3472 19.6012 28.3435 19.6761C28.3359 19.8258 28.3276 20.0335 28.3193 20.2842C28.3028 20.7854 28.2862 21.4565 28.2751 22.1757L28.2751 22.1762C28.1866 26.9564 28.5189 32.1652 29.0919 35.0452C29.1944 35.5507 29.3244 36.0687 29.4412 36.4591C29.4887 36.618 29.5334 36.7537 29.5726 36.8578C29.6117 36.7537 29.6564 36.618 29.7039 36.4591C29.8207 36.0687 29.9507 35.5507 30.0533 35.0451C30.6189 32.202 30.9585 26.8677 30.87 22.1393ZM30.7867 19.4436L30.7864 19.4425L30.7867 19.4436ZM28.3584 19.4436C28.3585 19.4432 28.3586 19.4429 28.3587 19.4425L28.3584 19.4436ZM30.6584 17.6025C30.6585 17.5856 30.6584 17.5664 30.658 17.5448C30.656 17.4391 30.6469 17.29 30.6317 17.1064C30.6012 16.7401 30.547 16.2462 30.4798 15.71C30.3451 14.6365 30.1593 13.4027 30.0092 12.6927L29.8724 12.0584H29.5726H29.2727L29.1358 12.6933C28.9858 13.3881 28.8 14.6216 28.6654 15.6988C28.5981 16.2369 28.5439 16.7335 28.5135 17.1022C28.4982 17.2869 28.4891 17.4371 28.4871 17.5436C28.4867 17.5657 28.4866 17.5853 28.4867 17.6025C28.5486 17.6072 28.6344 17.6117 28.7391 17.6157C28.9575 17.6239 29.2528 17.6294 29.5726 17.6294C29.8923 17.6294 30.1876 17.6239 30.406 17.6157C30.5107 17.6117 30.5965 17.6072 30.6584 17.6025Z" fill="#25282B" stroke="#25282B" stroke-width="0.3"/>
<path d="M20.1352 9.64638C21.2852 9.70077 22.2185 10.333 22.7436 11.3834L22.7436 11.3834L22.7444 11.3849C22.8724 11.6483 22.9492 11.8137 22.9897 12.0013C23.0296 12.1869 23.0327 12.3884 23.0327 12.7206C23.0327 13.0529 23.0296 13.2543 22.9897 13.44C22.9492 13.6276 22.8724 13.793 22.7444 14.0564L22.7439 14.0573C22.3962 14.7606 21.9426 15.198 21.2264 15.5368C21.0003 15.6443 20.8454 15.7108 20.6622 15.747C20.4822 15.7826 20.2813 15.7877 19.9657 15.7877C19.65 15.7877 19.4491 15.7826 19.2692 15.747C19.0859 15.7108 18.9311 15.6444 18.705 15.5369C17.9888 15.198 17.5352 14.7606 17.1874 14.0573L17.1874 14.0573L17.187 14.0564C17.0589 13.793 16.9821 13.6276 16.9417 13.4411C16.9017 13.2563 16.8986 13.0567 16.8986 12.728C16.8986 12.4087 16.9037 12.2061 16.9393 12.0252C16.9755 11.8412 17.0418 11.6864 17.1491 11.4607C17.2805 11.175 17.5321 10.793 17.7061 10.6032L17.7061 10.6032L17.7071 10.602C17.8824 10.4148 18.1425 10.22 18.4147 10.0578C18.6868 9.89572 18.983 9.75902 19.2346 9.69514L19.2345 9.69509L19.2382 9.69425C19.4199 9.65298 19.8193 9.63134 20.1352 9.64638ZM20.1352 9.64638L20.1281 9.79621M20.1352 9.64638C20.1352 9.64638 20.1352 9.64638 20.1353 9.64638L20.1281 9.79621M20.1281 9.79621C19.818 9.78145 19.4339 9.8036 19.2715 9.84052M20.1281 9.79621C21.2211 9.84791 22.1073 10.4461 22.6095 11.4504C22.8679 11.9822 22.8827 12.0486 22.8827 12.7206C22.8827 13.3927 22.8679 13.4591 22.6095 13.9909C22.2771 14.6629 21.8488 15.0764 21.162 15.4014C20.7115 15.6155 20.6008 15.6377 19.9657 15.6377C19.3306 15.6377 19.2198 15.6155 18.7693 15.4014L19.2715 9.84052M19.2715 9.84052C18.8062 9.95868 18.1416 10.3575 17.8166 10.7046C17.6542 10.8818 17.4105 11.251 17.2849 11.5243C17.0708 11.9748 17.0486 12.0855 17.0486 12.728C17.0486 13.3927 17.0634 13.4591 17.3219 13.9909L19.2715 9.84052ZM20.6953 11.6199L20.6953 11.6199L20.6941 11.6191C20.5615 11.5297 20.356 11.4627 20.1296 11.434C19.9041 11.4054 19.6771 11.4171 19.5068 11.4685L19.5055 11.4689C19.3652 11.5098 19.1862 11.6358 19.0248 11.8085C18.8647 11.9799 18.7433 12.1746 18.7001 12.331C18.5462 12.9284 18.7824 13.5458 19.2839 13.8559L19.2839 13.8559L19.2851 13.8566C19.4645 13.9699 19.7179 14.0289 19.9808 14.0246C20.2435 14.0203 20.4961 13.9532 20.6731 13.8362C20.8868 13.6949 21.0291 13.5462 21.1197 13.3737C21.2105 13.2008 21.2557 12.992 21.2557 12.7206C21.2557 12.4532 21.2106 12.2437 21.1218 12.071C21.0335 11.899 20.8963 11.7528 20.6953 11.6199Z" fill="#25282B" stroke="#25282B" stroke-width="0.3"/>
<path d="M12.0137 13.3388C13.1637 13.3932 14.0969 14.0254 14.6221 15.0757L14.6221 15.0757L14.6228 15.0772C14.7509 15.3407 14.8277 15.5061 14.8681 15.6937C14.9081 15.8793 14.9112 16.0807 14.9112 16.413C14.9112 16.7453 14.9081 16.9467 14.8681 17.1323C14.8277 17.3199 14.7509 17.4854 14.6228 17.7488L14.6224 17.7497C14.2746 18.453 13.8211 18.8903 13.1049 19.2292C12.8788 19.3367 12.7239 19.4031 12.5406 19.4394C12.3606 19.475 12.1598 19.4801 11.8441 19.4801C11.5285 19.4801 11.3276 19.475 11.1476 19.4394C10.9644 19.4032 10.8095 19.3368 10.5835 19.2293C9.86723 18.8904 9.41363 18.453 9.06585 17.7497L9.06584 17.7497L9.0654 17.7488C8.93735 17.4854 8.86058 17.32 8.82016 17.1334C8.78012 16.9487 8.77706 16.7491 8.77706 16.4204C8.77706 16.1011 8.78217 15.8985 8.81773 15.7176C8.85391 15.5336 8.92023 15.3788 9.0275 15.1531C9.15894 14.8674 9.41058 14.4853 9.58452 14.2956L9.58452 14.2956L9.58559 14.2944C9.76089 14.1072 10.0209 13.9124 10.2931 13.7502C10.5652 13.5881 10.8615 13.4514 11.113 13.3875L11.113 13.3875L11.1167 13.3866C11.2983 13.3454 11.6978 13.3237 12.0137 13.3388ZM12.0137 13.3388L12.0066 13.4886M12.0137 13.3388C12.0137 13.3388 12.0137 13.3388 12.0137 13.3388L12.0066 13.4886M12.0066 13.4886C11.6964 13.4738 11.3124 13.496 11.1499 13.5329M12.0066 13.4886C13.0995 13.5403 13.9857 14.1385 14.4879 15.1428C14.7464 15.6745 14.7612 15.741 14.7612 16.413C14.7612 17.0851 14.7464 17.1515 14.4879 17.6832C14.1556 18.3553 13.7273 18.7688 13.0405 19.0938C12.59 19.3079 12.4792 19.3301 11.8441 19.3301C11.209 19.3301 11.0982 19.3079 10.6478 19.0938L11.1499 13.5329M11.1499 13.5329C10.6847 13.6511 10.02 14.0499 9.6951 14.3969C9.53263 14.5742 9.28892 14.9434 9.16338 15.2167C8.94922 15.6672 8.92706 15.7779 8.92706 16.4204C8.92706 17.0851 8.94183 17.1515 9.20031 17.6832L11.1499 13.5329ZM12.5737 15.3123L12.5737 15.3123L12.5726 15.3115C12.44 15.2221 12.2344 15.1551 12.008 15.1264C11.7825 15.0978 11.5555 15.1095 11.3853 15.1609L11.3839 15.1613C11.2436 15.2022 11.0646 15.3281 10.9032 15.5009C10.7432 15.6723 10.6218 15.867 10.5785 16.0234C10.4246 16.6208 10.6609 17.2382 11.1624 17.5483L11.1624 17.5483L11.1636 17.549C11.3429 17.6623 11.5963 17.7212 11.8592 17.717C12.122 17.7127 12.3745 17.6455 12.5516 17.5286C12.7652 17.3873 12.9075 17.2386 12.9981 17.0661C13.089 16.8931 13.1342 16.6844 13.1342 16.413C13.1342 16.1455 13.089 15.9361 13.0003 15.7634C12.9119 15.5914 12.7748 15.4452 12.5737 15.3123Z" fill="#25282B" stroke="#25282B" stroke-width="0.3"/>
<path d="M3.72289 22.4713C3.27687 22.4713 2.97531 22.1579 2.88188 21.8059C2.78834 21.4535 2.89585 21.033 3.28857 20.8164L3.36103 20.9477L3.28768 20.8168C3.87517 20.4875 4.61138 20.9218 4.61138 21.5902C4.61138 21.823 4.49857 22.0422 4.33908 22.2006C4.17945 22.3592 3.95856 22.4713 3.72289 22.4713Z" fill="#25282B" stroke="#25282B" stroke-width="0.3"/>
<path d="M9.79977 22.2006C10.9498 22.255 11.883 22.8872 12.4082 23.9376L12.4082 23.9376L12.4089 23.9391C12.537 24.2025 12.6138 24.3679 12.6542 24.5555C12.6942 24.7411 12.6973 24.9426 12.6973 25.2748C12.6973 25.6071 12.6942 25.8085 12.6542 25.9942C12.6138 26.1818 12.537 26.3472 12.4089 26.6106L12.4085 26.6115C12.0607 27.3148 11.6072 27.7522 10.891 28.091C10.6649 28.1985 10.51 28.265 10.3267 28.3012C10.1467 28.3368 9.94587 28.3419 9.63021 28.3419C9.31455 28.3419 9.1137 28.3368 8.9337 28.3012C8.7505 28.265 8.59562 28.1986 8.36959 28.0911C7.65333 27.7522 7.19973 27.3148 6.85195 26.6115L6.85195 26.6115L6.8515 26.6106C6.72345 26.3472 6.64669 26.1818 6.60626 25.9953C6.56623 25.8105 6.56317 25.6109 6.56317 25.2822C6.56317 24.9629 6.56827 24.7603 6.60383 24.5794C6.64001 24.3954 6.70633 24.2406 6.8136 24.0149C6.94504 23.7292 7.19668 23.3472 7.37063 23.1574L7.37062 23.1574L7.37169 23.1562C7.547 22.969 7.80704 22.7742 8.07922 22.612C8.35131 22.4499 8.64756 22.3132 8.89911 22.2493L8.89909 22.2493L8.90279 22.2485C9.0844 22.2072 9.48387 22.1855 9.79977 22.2006ZM9.79977 22.2006L9.79268 22.3504M9.79977 22.2006C9.79978 22.2006 9.7998 22.2006 9.79982 22.2006L9.79268 22.3504M9.79268 22.3504C9.48251 22.3356 9.0985 22.3578 8.93603 22.3947M9.79268 22.3504C10.8857 22.4021 11.7718 23.0003 12.274 24.0046C12.5325 24.5364 12.5473 24.6028 12.5473 25.2748C12.5473 25.9469 12.5325 26.0133 12.274 26.5451C11.9417 27.2171 11.5134 27.6306 10.8266 27.9556C10.3761 28.1697 10.2653 28.1919 9.63021 28.1919C8.99511 28.1919 8.88434 28.1697 8.43385 27.9556L8.93603 22.3947M8.93603 22.3947C8.47078 22.5129 7.80614 22.9117 7.4812 23.2588C7.31873 23.436 7.07503 23.8052 6.94948 24.0785C6.73532 24.529 6.71317 24.6397 6.71317 25.2822C6.71317 25.9469 6.72794 26.0133 6.98641 26.5451L8.93603 22.3947ZM10.3598 24.1741L10.3598 24.1741L10.3587 24.1733C10.2261 24.0839 10.0205 24.0169 9.7941 23.9882C9.56865 23.9596 9.34162 23.9713 9.17139 24.0227L9.17004 24.0231C9.02974 24.064 8.8507 24.19 8.68933 24.3627C8.52928 24.5341 8.40786 24.7288 8.36463 24.8852C8.21073 25.4826 8.44699 26.1 8.94846 26.4101L8.94846 26.4101L8.94966 26.4108C9.12903 26.5241 9.38243 26.5831 9.64531 26.5788C9.90809 26.5745 10.1606 26.5074 10.3377 26.3904C10.5513 26.2491 10.6936 26.1004 10.7842 25.9279C10.8751 25.755 10.9203 25.5462 10.9203 25.2748C10.9203 25.0074 10.8752 24.7979 10.7864 24.6252C10.698 24.4532 10.5609 24.307 10.3598 24.1741Z" fill="#25282B" stroke="#25282B" stroke-width="0.3"/>
<path d="M16.4454 28.1083C17.5954 28.1627 18.5286 28.795 19.0538 29.8453L19.0538 29.8453L19.0545 29.8468C19.1826 30.1102 19.2594 30.2757 19.2998 30.4632C19.3398 30.6489 19.3429 30.8503 19.3429 31.1826C19.3429 31.5149 19.3398 31.7163 19.2998 31.9019C19.2594 32.0895 19.1826 32.2549 19.0545 32.5184L19.0541 32.5193C18.7063 33.2225 18.2528 33.6599 17.5366 33.9988C17.3105 34.1063 17.1556 34.1727 16.9723 34.2089C16.7923 34.2445 16.5915 34.2496 16.2758 34.2496C15.9602 34.2496 15.7593 34.2445 15.5793 34.2089C15.3961 34.1727 15.2412 34.1063 15.0152 33.9988C14.2989 33.6599 13.8453 33.2225 13.4975 32.5193L13.4975 32.5193L13.4971 32.5183C13.3691 32.2549 13.2923 32.0895 13.2519 31.903C13.2118 31.7182 13.2088 31.5186 13.2088 31.1899C13.2088 30.8706 13.2139 30.668 13.2494 30.4871C13.2856 30.3031 13.3519 30.1483 13.4592 29.9227C13.5906 29.6369 13.8423 29.2549 14.0162 29.0651L14.0162 29.0651L14.0173 29.064C14.1926 28.8767 14.4526 28.6819 14.7248 28.5197C14.9969 28.3576 15.2932 28.2209 15.5447 28.1571L15.5447 28.157L15.5484 28.1562C15.73 28.1149 16.1295 28.0933 16.4454 28.1083ZM16.4454 28.1083L16.4383 28.2581M16.4454 28.1083C16.4454 28.1083 16.4454 28.1083 16.4454 28.1083L16.4383 28.2581M16.4383 28.2581C16.1281 28.2434 15.7441 28.2655 15.5816 28.3024M16.4383 28.2581C17.5313 28.3098 18.4174 28.908 18.9196 29.9124C19.1781 30.4441 19.1929 30.5105 19.1929 31.1826C19.1929 31.8546 19.1781 31.9211 18.9196 32.4528C18.5873 33.1248 18.159 33.5384 17.4722 33.8633C17.0217 34.0775 16.9109 34.0996 16.2758 34.0996C15.6407 34.0996 15.5299 34.0775 15.0795 33.8633L15.5816 28.3024M15.5816 28.3024C15.1164 28.4206 14.4517 28.8194 14.1268 29.1665C13.9643 29.3437 13.7206 29.713 13.5951 29.9862C13.3809 30.4367 13.3588 30.5475 13.3588 31.1899C13.3588 31.8546 13.3735 31.9211 13.632 32.4528L15.5816 28.3024ZM17.0054 30.0818L17.0054 30.0818L17.0043 30.081C16.8717 29.9916 16.6661 29.9247 16.4397 29.8959C16.2143 29.8673 15.9872 29.879 15.817 29.9304L15.8156 29.9308C15.6753 29.9717 15.4963 30.0977 15.3349 30.2704C15.1749 30.4418 15.0535 30.6365 15.0102 30.7929C14.8563 31.3903 15.0926 32.0077 15.5941 32.3178L15.5941 32.3178L15.5953 32.3186C15.7746 32.4318 16.028 32.4908 16.2909 32.4865C16.5537 32.4822 16.8062 32.4151 16.9833 32.2981C17.1969 32.1568 17.3392 32.0081 17.4298 31.8356C17.5207 31.6627 17.5659 31.4539 17.5659 31.1826C17.5659 30.9151 17.5208 30.7057 17.432 30.5329C17.3436 30.3609 17.2065 30.2147 17.0054 30.0818Z" fill="#25282B" stroke="#25282B" stroke-width="0.3"/>
</svg>
