<svg width="40" height="40" viewBox="0 0 40 40" fill="none" xmlns="http://www.w3.org/2000/svg">
<path d="M16.7945 1.22427C16.0045 1.63034 16.0045 2.78952 16.7945 3.18084C16.9644 3.26944 17.2228 3.31374 17.555 3.31374H18.0497V9.32374V15.3337L17.1859 15.762C16.7059 15.9982 16.2925 16.205 16.2629 16.2197C16.226 16.2345 16.2039 15.319 16.2039 14.1893V12.1368L16.4254 12.0113C16.7872 11.8045 16.957 11.4649 16.9201 11.0071C16.8905 10.5567 16.7207 10.2983 16.3515 10.099C16.1079 9.96608 15.8199 9.9587 11.0134 9.9587C5.46119 9.9587 5.63839 9.94393 5.25445 10.3943C4.86314 10.8595 4.92959 11.4649 5.4095 11.8857L5.68268 12.1294L5.7196 23.3151C5.7639 35.8519 5.71222 34.7813 6.31026 35.9848C6.84186 37.0628 7.58019 37.7937 8.70983 38.3474C10.6959 39.3294 12.9995 38.9603 14.5795 37.4245C14.8527 37.1587 15.1259 36.8634 15.1924 36.7674L15.3105 36.5902L15.8864 36.9594C20.6265 40.0013 26.8137 39.4033 30.8449 35.5123C33.754 32.6992 35.0903 28.8452 34.5071 24.9099C33.9681 21.2847 31.7974 18.0877 28.5857 16.1902C28.2165 15.9687 27.6849 15.6955 27.4117 15.5848L26.9096 15.3854V9.36065V3.3285L27.456 3.29897C27.8695 3.2842 28.0614 3.23252 28.2091 3.12177C28.5783 2.84859 28.7186 2.59018 28.7186 2.20624C28.7186 1.82231 28.5783 1.5639 28.2091 1.29071C28.0098 1.13567 27.9285 1.13567 22.5314 1.11351C17.4295 1.09875 17.0382 1.10613 16.7945 1.22427ZM24.6947 9.85533C24.6947 15.8136 24.702 16.4191 24.8202 16.6553C24.9605 16.9581 25.2263 17.1353 25.8465 17.342C26.4519 17.5487 27.4117 18.036 28.091 18.4864C28.7998 18.9515 30.1583 20.3101 30.6677 21.0558C31.3249 22.023 31.9598 23.4332 32.1149 24.297L32.1665 24.5628L31.5833 24.3709C31.1181 24.2158 30.8597 24.1789 30.269 24.1789C29.5602 24.1789 29.5012 24.1863 28.6669 24.5259C28.187 24.7179 27.7292 24.8729 27.648 24.8729C27.5594 24.8729 27.2197 24.7622 26.8875 24.6219C25.3222 23.9796 24.8792 23.9796 23.314 24.6219C22.9817 24.7622 22.6421 24.8729 22.5535 24.8729C22.4723 24.8729 22.0145 24.7179 21.5346 24.5259C20.7151 24.1937 20.6338 24.1789 19.9694 24.1789C19.3049 24.1789 19.2236 24.1937 18.3819 24.5333C17.4073 24.9246 17.3188 24.932 16.6321 24.6293L16.2039 24.4373V21.7129V18.9885L16.3737 18.8408C16.8979 18.3683 18.094 17.7038 19.1055 17.3346C19.7848 17.0836 20.0875 16.8473 20.1909 16.4634C20.2352 16.2936 20.2647 13.7685 20.2647 9.75197V3.31374H22.4797H24.6947V9.85533ZM13.9889 15.0901V18.0065H10.9617H7.93459V15.0901V12.1737H10.9617H13.9889V15.0901ZM13.9889 27.1839C13.9889 34.9585 14.0184 34.5229 13.4647 35.3498C12.8814 36.2211 12.0471 36.6493 10.9248 36.6493C10.3342 36.6493 10.2086 36.6198 9.76564 36.413C8.64338 35.8814 7.93459 34.7739 7.93459 33.5409V33.2899H8.58432C9.61798 33.2899 10.0388 32.9724 10.0388 32.1824C10.0388 31.3924 9.61798 31.0749 8.58432 31.0749H7.93459V29.9674V28.8599H8.58432C9.61798 28.8599 10.0388 28.5424 10.0388 27.7524C10.0388 26.9624 9.61798 26.6449 8.58432 26.6449H7.93459V25.5374V24.4299H8.58432C9.61798 24.4299 10.0388 24.1125 10.0388 23.3225C10.0388 22.5324 9.61798 22.215 8.58432 22.215H7.93459V21.2182V20.2215H10.9617H13.9889V27.1839ZM20.7594 26.608C22.2656 27.2356 22.7824 27.2356 24.2738 26.6154C24.6282 26.4677 24.99 26.3496 25.0712 26.3496C25.1524 26.3496 25.5585 26.4825 25.972 26.6376C27.5446 27.2504 27.9359 27.2356 29.6341 26.5342C30.2174 26.2905 30.4019 26.3053 31.5685 26.7188L32.4323 27.0289L32.3954 27.4792C32.2625 29.1479 31.6497 30.8903 30.6899 32.3227C30.1804 33.0905 28.9917 34.3014 28.2386 34.833C25.3518 36.856 21.697 37.2326 18.4705 35.8445C17.8208 35.5639 16.861 35.0028 16.4549 34.6706L16.2039 34.4638V30.6614C16.2039 27.0732 16.2113 26.859 16.3368 26.896C17.2966 27.1839 17.8208 27.1396 18.9505 26.6892C19.4082 26.5047 19.8586 26.357 19.9546 26.3496C20.0506 26.3496 20.4123 26.4677 20.7594 26.608Z" fill="#25282B"/>
<path d="M24.8422 19.9851C24.5026 20.1697 24.3254 20.4281 24.2737 20.7899C24.1777 21.4987 24.6355 22.0303 25.3295 22.0303C25.9645 22.0303 26.4296 21.5799 26.4296 20.9597C26.4296 20.1549 25.5289 19.6086 24.8422 19.9851Z" fill="#25282B"/>
<path d="M21.5952 28.7717C21.2555 28.9563 21.0783 29.2147 21.0267 29.5765C20.9307 30.2853 21.3884 30.8169 22.0825 30.8169C22.7174 30.8169 23.1826 30.3665 23.1826 29.7463C23.1826 28.9415 22.2818 28.3952 21.5952 28.7717Z" fill="#25282B"/>
<path d="M25.654 30.9866C25.3144 31.1711 25.1372 31.4296 25.0855 31.7913C24.9895 32.5001 25.4473 33.0317 26.1413 33.0317C26.7763 33.0317 27.2414 32.5814 27.2414 31.9612C27.2414 31.1564 26.3407 30.61 25.654 30.9866Z" fill="#25282B"/>
</svg>
