<svg width="99" height="61" viewBox="0 0 99 61" fill="none" xmlns="http://www.w3.org/2000/svg">
<g clip-path="url(#clip0_3173_18117)">
<path d="M25.3494 57.3559V56.4097H26.1878V52.5947C21.9112 53.7456 17.5184 54.3429 13.472 54.3429C13.0153 54.3429 12.5586 54.3356 12.1055 54.3199C13.9384 55.5386 16.17 56.5938 18.6402 57.4092H18.6426L18.7904 57.4564C20.7627 58.1118 26.9316 59.482 29.1111 59.7994C32.267 59.4118 35.6604 58.5564 38.3426 57.4407C38.3426 57.391 38.3426 57.4092 38.3426 57.3559H25.3494Z" fill="white"/>
<path d="M31.3003 18.1056H25.547C25.4137 18.1056 25.3047 17.9965 25.3047 17.8633V16.9147C25.3047 16.7814 25.4137 16.6724 25.547 16.6724H31.3003C31.4336 16.6724 31.5426 16.7814 31.5426 16.9147V17.8633C31.5426 17.9965 31.4348 18.1056 31.3003 18.1056ZM25.7893 17.621H31.058V17.157H25.7893V17.621Z" fill="white"/>
<path d="M31.2673 57.3836H25.4728C25.3395 57.3836 25.2305 57.2745 25.2305 57.1413V55.8946C25.2305 55.7614 25.3395 55.6523 25.4728 55.6523H31.2673C31.4006 55.6523 31.5096 55.7614 31.5096 55.8946V57.1413C31.5096 57.2745 31.4006 57.3836 31.2673 57.3836ZM25.7151 56.899H31.025V56.1369H25.7151V56.899Z" fill="white"/>
<path d="M30.7801 56.1367H25.9571C25.8917 56.1367 25.8299 56.1113 25.7851 56.064C25.7391 56.018 25.7148 55.955 25.7148 55.8908L25.7318 54.6757C25.7342 54.5436 25.842 54.437 25.9741 54.437H30.797C30.8624 54.437 30.9242 54.4624 30.9691 54.5097C31.0151 54.5557 31.0393 54.6187 31.0393 54.6829L31.0224 55.8981C31.0199 56.0301 30.9121 56.1367 30.7801 56.1367ZM26.2031 55.6521H30.5414L30.5511 54.9216H26.2128L26.2031 55.6521Z" fill="white"/>
<path d="M28.4227 19.4615C27.0562 19.4615 25.8398 18.5844 25.8398 17.8927C25.8398 17.8854 25.8398 17.8769 25.8411 17.8696C25.8507 17.7436 25.9549 17.6455 26.0821 17.6455H30.7633C30.8942 17.6455 31.0008 17.7485 31.0056 17.8781C31.0056 17.883 31.0056 17.889 31.0056 17.8927C31.0056 18.5844 29.7893 19.4615 28.4227 19.4615ZM26.4262 18.1301C26.6927 18.4899 27.4535 18.9769 28.4227 18.9769C29.3919 18.9769 30.1527 18.4899 30.4193 18.1301H26.4262Z" fill="white"/>
<path d="M30.363 54.661C30.2298 54.661 30.1207 54.5519 30.1207 54.4187V21.3051C29.7307 20.783 29.6349 19.9871 29.847 19.3728C28.8802 19.4964 27.8722 19.4964 26.8873 19.3716C27.1005 19.9858 27.0036 20.783 26.6135 21.3051V54.4187C26.6135 54.5519 26.5045 54.661 26.3712 54.661C26.2379 54.661 26.1289 54.5519 26.1289 54.4187V21.2216C26.1289 21.1646 26.1495 21.1089 26.1858 21.0653C26.5905 20.5855 26.6268 19.6696 26.2597 19.2141C26.1968 19.1354 26.1883 19.0263 26.2392 18.9391C26.29 18.8519 26.3894 18.8059 26.4887 18.8228C27.7341 19.0336 29.0328 19.0336 30.2443 18.8228C30.3437 18.8059 30.443 18.8519 30.4951 18.9391C30.546 19.0263 30.5375 19.1354 30.4745 19.2141C30.1074 19.6684 30.145 20.5843 30.5484 21.0653C30.5847 21.1089 30.6053 21.1646 30.6053 21.2216V54.4199C30.6053 54.5531 30.4963 54.661 30.363 54.661Z" fill="white"/>
<path d="M27.7032 54.1319C27.57 54.1319 27.4609 54.0229 27.4609 53.8896V21.3697C27.4609 21.2365 27.57 21.1274 27.7032 21.1274C27.8365 21.1274 27.9455 21.2365 27.9455 21.3697V53.8896C27.9455 54.0241 27.8377 54.1319 27.7032 54.1319Z" fill="white"/>
<path d="M29.0353 54.1319C28.902 54.1319 28.793 54.0229 28.793 53.8896V21.3697C28.793 21.2365 28.902 21.1274 29.0353 21.1274C29.1685 21.1274 29.2776 21.2365 29.2776 21.3697V53.8896C29.2776 54.0241 29.1685 54.1319 29.0353 54.1319Z" fill="white"/>
<path d="M45.2378 18.1056H39.4845C39.3512 18.1056 39.2422 17.9965 39.2422 17.8633V16.9147C39.2422 16.7814 39.3512 16.6724 39.4845 16.6724H45.2378C45.3711 16.6724 45.4801 16.7814 45.4801 16.9147V17.8633C45.4801 17.9965 45.3723 18.1056 45.2378 18.1056ZM39.7268 17.621H44.9955V17.157H39.7268V17.621Z" fill="white"/>
<path d="M45.2048 57.3836H39.4103C39.277 57.3836 39.168 57.2745 39.168 57.1413V55.8946C39.168 55.7614 39.277 55.6523 39.4103 55.6523H45.2048C45.3381 55.6523 45.4471 55.7614 45.4471 55.8946V57.1413C45.4471 57.2745 45.3381 57.3836 45.2048 57.3836ZM39.6526 56.899H44.9625V56.1369H39.6526V56.899Z" fill="white"/>
<path d="M44.7176 56.137H39.8946C39.8292 56.137 39.7674 56.1115 39.7226 56.0643C39.6778 56.017 39.6523 55.9553 39.6523 55.891L39.6681 54.6771C39.6693 54.5451 39.7783 54.4385 39.9104 54.4385H44.7333C44.7987 54.4385 44.8605 54.4639 44.9053 54.5112C44.9502 54.5584 44.9756 54.6202 44.9756 54.6844L44.9586 55.8983C44.9574 56.0304 44.8496 56.137 44.7176 56.137ZM40.1406 55.6524H44.4789L44.4886 54.9231H40.1503L40.1406 55.6524Z" fill="white"/>
<path d="M42.3602 19.461C40.9937 19.461 39.7773 18.5839 39.7773 17.8922C39.7773 17.8861 39.7773 17.8788 39.7786 17.8716C39.787 17.7444 39.8912 17.645 40.0209 17.645H44.702C44.8304 17.645 44.9358 17.7456 44.9443 17.8716C44.9443 17.8788 44.9455 17.8861 44.9455 17.8922C44.9431 18.5839 43.728 19.461 42.3602 19.461ZM40.3637 18.1296C40.6302 18.4894 41.391 18.9764 42.3602 18.9764C43.3294 18.9764 44.0902 18.4894 44.3568 18.1296H40.3637Z" fill="white"/>
<path d="M44.3045 54.6614C44.1712 54.6614 44.0622 54.5524 44.0622 54.4192V21.3056C43.6733 20.7835 43.5763 19.9875 43.7884 19.3733C42.8216 19.4969 41.8136 19.4969 40.8287 19.3721C41.0419 19.9863 40.945 20.7835 40.5549 21.3056V54.4192C40.5549 54.5524 40.4459 54.6614 40.3126 54.6614C40.1793 54.6614 40.0703 54.5524 40.0703 54.4192V21.222C40.0703 21.1651 40.0909 21.1094 40.1273 21.0658C40.5319 20.586 40.5682 19.6701 40.2012 19.2146C40.1382 19.1359 40.1297 19.0268 40.1806 18.9396C40.2314 18.8524 40.332 18.8063 40.4301 18.8233C41.6755 19.0341 42.9742 19.0341 44.1857 18.8233C44.2851 18.8063 44.3844 18.8524 44.4365 18.9396C44.4874 19.0268 44.4801 19.1359 44.4159 19.2146C44.0488 19.6689 44.0864 20.5848 44.4898 21.0658C44.5262 21.1094 44.5468 21.1651 44.5468 21.222V54.4204C44.5468 54.5536 44.4389 54.6614 44.3045 54.6614Z" fill="white"/>
<path d="M41.6407 54.1314C41.5075 54.1314 41.3984 54.0224 41.3984 53.8891V21.3693C41.3984 21.236 41.5075 21.127 41.6407 21.127C41.774 21.127 41.883 21.236 41.883 21.3693V53.8891C41.883 54.0236 41.7752 54.1314 41.6407 54.1314Z" fill="white"/>
<path d="M42.9728 54.1319C42.8395 54.1319 42.7305 54.0229 42.7305 53.8896V21.3697C42.7305 21.2365 42.8395 21.1274 42.9728 21.1274C43.106 21.1274 43.2151 21.2365 43.2151 21.3697V53.8896C43.2151 54.0241 43.106 54.1319 42.9728 54.1319Z" fill="white"/>
<path d="M59.1753 18.1056H53.422C53.2887 18.1056 53.1797 17.9965 53.1797 17.8633V16.9147C53.1797 16.7814 53.2887 16.6724 53.422 16.6724H59.1753C59.3086 16.6724 59.4176 16.7814 59.4176 16.9147V17.8633C59.4176 17.9965 59.3098 18.1056 59.1753 18.1056ZM53.6643 17.621H58.933V17.157H53.6643V17.621Z" fill="white"/>
<path d="M59.1423 57.3836H53.3478C53.2145 57.3836 53.1055 57.2745 53.1055 57.1413V55.8946C53.1055 55.7614 53.2145 55.6523 53.3478 55.6523H59.1423C59.2756 55.6523 59.3846 55.7614 59.3846 55.8946V57.1413C59.3846 57.2745 59.2768 57.3836 59.1423 57.3836ZM53.5901 56.899H58.9V56.1369H53.5901V56.899Z" fill="white"/>
<path d="M58.6551 56.137H53.8321C53.7667 56.137 53.7049 56.1115 53.6601 56.0643C53.6153 56.017 53.5898 55.9553 53.5898 55.891L53.6068 54.6771C53.608 54.5451 53.7171 54.4385 53.8491 54.4385H58.672C58.7374 54.4385 58.7992 54.4639 58.8441 54.5112C58.8889 54.5584 58.9143 54.6202 58.9143 54.6844L58.8986 55.8983C58.8961 56.0304 58.7871 56.137 58.6551 56.137ZM54.0781 55.6524H58.4164L58.4261 54.9231H54.0878L54.0781 55.6524Z" fill="white"/>
<path d="M56.2977 19.4615C54.9312 19.4615 53.7148 18.5844 53.7148 17.8927C53.7148 17.8866 53.7148 17.8793 53.7161 17.8721C53.7245 17.7448 53.8287 17.6455 53.9584 17.6455H58.6395C58.7704 17.6455 58.877 17.7485 58.8818 17.8781C58.8818 17.883 58.8818 17.889 58.8818 17.8927C58.8818 18.5844 57.6655 19.4615 56.2977 19.4615ZM54.3012 18.1301C54.5677 18.4899 55.3285 18.9769 56.2977 18.9769C57.2669 18.9769 58.0277 18.4899 58.2943 18.1301H54.3012Z" fill="white"/>
<path d="M58.242 54.6614C58.1087 54.6614 57.9997 54.5524 57.9997 54.4192V21.3056C57.6096 20.7835 57.5138 19.9875 57.7259 19.3733C56.7591 19.4969 55.7511 19.4969 54.7662 19.3721C54.9794 19.9863 54.8825 20.7835 54.4924 21.3056V54.4192C54.4924 54.5524 54.3834 54.6614 54.2501 54.6614C54.1168 54.6614 54.0078 54.5524 54.0078 54.4192V21.222C54.0078 21.1651 54.0284 21.1094 54.0648 21.0658C54.4694 20.586 54.5057 19.6701 54.1387 19.2146C54.0757 19.1359 54.0672 19.0268 54.1181 18.9396C54.1689 18.8524 54.2695 18.8063 54.3676 18.8233C55.613 19.0341 56.9117 19.0341 58.1232 18.8233C58.2226 18.8063 58.3219 18.8524 58.374 18.9396C58.4249 19.0268 58.4176 19.1359 58.3534 19.2146C57.9863 19.6689 58.0239 20.5848 58.4273 21.0658C58.4637 21.1094 58.4843 21.1651 58.4843 21.222V54.4204C58.4843 54.5536 58.3764 54.6614 58.242 54.6614Z" fill="white"/>
<path d="M55.5782 54.1319C55.445 54.1319 55.3359 54.0229 55.3359 53.8896V21.3697C55.3359 21.2365 55.445 21.1274 55.5782 21.1274C55.7115 21.1274 55.8205 21.2365 55.8205 21.3697V53.8896C55.8205 54.0241 55.7127 54.1319 55.5782 54.1319Z" fill="white"/>
<path d="M56.9103 54.1319C56.777 54.1319 56.668 54.0229 56.668 53.8896V21.3697C56.668 21.2365 56.777 21.1274 56.9103 21.1274C57.0435 21.1274 57.1526 21.2365 57.1526 21.3697V53.8896C57.1526 54.0241 57.0435 54.1319 56.9103 54.1319Z" fill="white"/>
<path d="M73.1167 18.106H67.3634C67.2301 18.106 67.1211 17.997 67.1211 17.8637V16.9151C67.1211 16.7819 67.2301 16.6729 67.3634 16.6729H73.1167C73.25 16.6729 73.359 16.7819 73.359 16.9151V17.8637C73.359 17.997 73.25 18.106 73.1167 18.106ZM67.6045 17.6214H72.8732V17.1574H67.6045V17.6214Z" fill="white"/>
<path d="M73.0798 57.384H67.2853C67.152 57.384 67.043 57.275 67.043 57.1417V55.8951C67.043 55.7619 67.152 55.6528 67.2853 55.6528H73.0798C73.2131 55.6528 73.3221 55.7619 73.3221 55.8951V57.1417C73.3221 57.275 73.2143 57.384 73.0798 57.384ZM67.5276 56.8994H72.8375V56.1374H67.5276V56.8994Z" fill="white"/>
<path d="M72.5926 56.1375H67.7696C67.7042 56.1375 67.6424 56.112 67.5976 56.0648C67.5528 56.0175 67.5273 55.9557 67.5273 55.8915L67.5431 54.6776C67.5443 54.5456 67.6533 54.439 67.7854 54.439H72.6083C72.6737 54.439 72.7355 54.4644 72.7803 54.5117C72.8252 54.5589 72.8506 54.6207 72.8506 54.6849L72.8349 55.8988C72.8336 56.0309 72.7258 56.1375 72.5926 56.1375ZM68.0156 55.6529H72.3539L72.3636 54.9236H68.0253L68.0156 55.6529Z" fill="white"/>
<path d="M70.2352 19.4615C68.8687 19.4615 67.6523 18.5844 67.6523 17.8927C67.6523 17.8842 67.6523 17.8757 67.6536 17.8672C67.6645 17.7436 67.7686 17.6455 67.8946 17.6455H72.5758C72.7067 17.6455 72.8133 17.7485 72.8181 17.8781C72.8181 17.883 72.8181 17.889 72.8181 17.8927C72.8193 18.5844 71.603 19.4615 70.2352 19.4615ZM68.2399 18.1301C68.5064 18.4899 69.2673 18.9769 70.2364 18.9769C71.2056 18.9769 71.9664 18.4899 72.233 18.1301H68.2399Z" fill="white"/>
<path d="M72.1794 54.6614C72.0462 54.6614 71.9371 54.5524 71.9371 54.4192V21.3056C71.5471 20.7835 71.4513 19.9875 71.6634 19.3733C70.6966 19.4969 69.6886 19.4969 68.7037 19.3721C68.9169 19.9875 68.82 20.7835 68.4299 21.3056V54.4192C68.4299 54.5524 68.3209 54.6614 68.1876 54.6614C68.0543 54.6614 67.9453 54.5524 67.9453 54.4192V21.222C67.9453 21.1651 67.9659 21.1094 68.0022 21.0658C68.4069 20.586 68.4432 19.6701 68.0761 19.2146C68.0132 19.1359 68.0047 19.0268 68.0556 18.9396C68.1064 18.8524 68.207 18.8063 68.3051 18.8233C69.5505 19.0341 70.8492 19.0341 72.0607 18.8233C72.1601 18.8063 72.2594 18.8524 72.3115 18.9396C72.3624 19.0268 72.3551 19.1359 72.2909 19.2146C71.9238 19.6689 71.9614 20.5848 72.3648 21.0658C72.4012 21.1094 72.4217 21.1651 72.4217 21.222V54.4204C72.4217 54.5536 72.3139 54.6614 72.1794 54.6614Z" fill="white"/>
<path d="M69.5157 54.1319C69.3825 54.1319 69.2734 54.0229 69.2734 53.8896V21.3697C69.2734 21.2365 69.3825 21.1274 69.5157 21.1274C69.649 21.1274 69.758 21.2365 69.758 21.3697V53.8896C69.758 54.0241 69.6502 54.1319 69.5157 54.1319Z" fill="white"/>
<path d="M70.8478 54.1319C70.7145 54.1319 70.6055 54.0229 70.6055 53.8896V21.3697C70.6055 21.2365 70.7145 21.1274 70.8478 21.1274C70.981 21.1274 71.0901 21.2365 71.0901 21.3697V53.8896C71.0901 54.0241 70.981 54.1319 70.8478 54.1319Z" fill="white"/>
<path d="M73.1162 17.1577H25.5219C25.4225 17.1577 25.3329 17.0971 25.2965 17.0038L24.2825 14.4355C24.2534 14.3603 24.2619 14.2768 24.308 14.2101C24.3528 14.1435 24.4279 14.1035 24.5078 14.1035H74.1303C74.2102 14.1035 74.2853 14.1435 74.3302 14.2101C74.375 14.2768 74.3847 14.3603 74.3556 14.4355L73.3416 17.0038C73.304 17.0971 73.2156 17.1577 73.1162 17.1577ZM25.6866 16.6731H72.9503L73.7729 14.5893H24.864L25.6866 16.6731Z" fill="white"/>
<path d="M62.4323 12.784H36.2073C36.0898 12.784 35.9905 12.7004 35.9687 12.5853C35.9481 12.4702 36.0123 12.3563 36.1213 12.3151L49.2344 7.36017C49.2902 7.33958 49.3507 7.33958 49.4052 7.36017L62.5184 12.3151C62.6274 12.3563 62.6916 12.4702 62.671 12.5853C62.6504 12.7004 62.5499 12.784 62.4323 12.784ZM37.5339 12.2994H61.1058L49.3192 7.84477L37.5339 12.2994Z" fill="white"/>
<path d="M74.1305 14.5892H24.5081C24.3906 14.5892 24.2913 14.5056 24.2695 14.3905C24.2489 14.2754 24.3131 14.1616 24.4221 14.1204L49.2333 4.74347C49.289 4.72288 49.3496 4.72288 49.4041 4.74347L74.2153 14.1204C74.3244 14.1616 74.3886 14.2754 74.368 14.3905C74.3474 14.5056 74.2468 14.5892 74.1305 14.5892ZM25.8347 14.1046H72.804L49.3193 5.22928L25.8347 14.1046Z" fill="white"/>
<path d="M74.35 10.3053L64.6351 6.40064L49.3195 0.177246L34.0027 6.40064L24.2188 10.3343V12.6228L36.9212 7.58547L49.3195 2.54933L61.7166 7.58547L74.35 12.6228V10.3053Z" fill="white"/>
<path d="M37.8588 49.9582V56.8976H32.8518V49.9582H37.8588ZM38.3434 49.4736H32.3672V57.3822H38.3434V49.4736Z" fill="white"/>
<path d="M34.8658 26.2168H34.2031V28.0219H34.8658V26.2168Z" fill="white"/>
<path d="M34.6236 26.4587V27.7792H34.4455V26.4587H34.6236ZM35.1082 25.9741H33.9609V28.2638H35.1082V25.9741Z" fill="white"/>
<path d="M33.2357 31.7637H32.6094V33.5688H33.2357V31.7637Z" fill="white"/>
<path d="M32.9935 32.0061V33.3266H32.8518V32.0061H32.9935ZM33.4781 31.5215H32.3672V33.8112H33.4781V31.5215Z" fill="white"/>
<path d="M33.2357 34.5386H32.6094V36.3437H33.2357V34.5386Z" fill="white"/>
<path d="M32.9935 34.7805V36.101H32.8518V34.7805H32.9935ZM33.4781 34.2959H32.3672V36.5856H33.4781V34.2959Z" fill="white"/>
<path d="M34.5391 22.473C34.6311 22.3712 34.7426 22.2864 34.8662 22.2246V22.473H34.5391Z" fill="white"/>
<path d="M35.1088 21.8901C34.6521 21.9749 34.2753 22.2923 34.1094 22.7152H35.1088V21.8901Z" fill="white"/>
<path d="M33.2357 26.2168H32.6094V28.0219H33.2357V26.2168Z" fill="white"/>
<path d="M32.9935 26.4587V27.7792H32.8518V26.4587H32.9935ZM33.4781 25.9741H32.3672V28.2638H33.4781V25.9741Z" fill="white"/>
<path d="M33.2357 28.9902H32.6094V30.7953H33.2357V28.9902Z" fill="white"/>
<path d="M32.9935 29.2326V30.5532H32.8518V29.2326H32.9935ZM33.4781 28.748H32.3672V31.0378H33.4781V28.748Z" fill="white"/>
<path d="M33.2357 40.0854H32.6094V41.8906H33.2357V40.0854Z" fill="white"/>
<path d="M32.9935 40.3279V41.6484H32.8518V40.3279H32.9935ZM33.4781 39.8433H32.3672V42.133H33.4781V39.8433Z" fill="white"/>
<path d="M34.8658 23.4429H34.2031V25.248H34.8658V23.4429Z" fill="white"/>
<path d="M34.6236 23.6848V25.0053H34.4455V23.6848H34.6236ZM35.1082 23.2002H33.9609V25.4899H35.1082V23.2002Z" fill="white"/>
<path d="M33.2357 23.4424H32.6094V25.2475H33.2357V23.4424Z" fill="white"/>
<path d="M32.9935 23.6848V25.0053H32.8518V23.6848H32.9935ZM33.4781 23.2002H32.3672V25.4899H33.4781V23.2002Z" fill="white"/>
<path d="M33.2357 42.8584H32.6094V44.6635H33.2357V42.8584Z" fill="white"/>
<path d="M32.9935 43.1008V44.4213H32.8518V43.1008H32.9935ZM33.4781 42.6162H32.3672V44.9059H33.4781V42.6162Z" fill="white"/>
<path d="M33.2357 37.311H32.6094V39.1161H33.2357V37.311Z" fill="white"/>
<path d="M32.9935 37.5539V38.8744H32.8518V37.5539H32.9935ZM33.4781 37.0693H32.3672V39.359H33.4781V37.0693Z" fill="white"/>
<path d="M38.0939 37.3115H37.4688V39.1166H38.0939V37.3115Z" fill="white"/>
<path d="M37.8517 37.5534V38.874H37.7112V37.5534H37.8517ZM38.3363 37.0688H37.2266V39.3585H38.3363V37.0688Z" fill="white"/>
<path d="M37.2764 22.473C37.0365 21.8357 36.4974 21.3596 35.8359 21.1997V20.5273C36.8802 20.7091 37.721 21.4662 37.9972 22.4718H37.2764V22.473Z" fill="white"/>
<path d="M36.0783 20.8337C36.7919 21.0445 37.371 21.5582 37.6569 22.2318H37.4376C37.1711 21.6563 36.6792 21.2178 36.0783 21.0191V20.8337ZM35.5938 20.2534V21.4007C36.3194 21.4976 36.9094 22.0234 37.1008 22.7152H38.2978C38.0821 21.391 36.97 20.3637 35.5938 20.2534Z" fill="white"/>
<path d="M38.0939 42.8579H37.4688V44.663H38.0939V42.8579Z" fill="white"/>
<path d="M37.8517 43.1008V44.4213H37.7112V43.1008H37.8517ZM38.3363 42.6162H37.2266V44.9059H38.3363V42.6162Z" fill="white"/>
<path d="M38.0939 40.0854H37.4688V41.8906H38.0939V40.0854Z" fill="white"/>
<path d="M37.8517 40.3279V41.6484H37.7112V40.3279H37.8517ZM38.3363 39.8433H37.2266V42.133H38.3363V39.8433Z" fill="white"/>
<path d="M38.0939 34.5386H37.4688V36.3437H38.0939V34.5386Z" fill="white"/>
<path d="M37.8517 34.7805V36.101H37.7112V34.7805H37.8517ZM38.3363 34.2959H37.2266V36.5856H38.3363V34.2959Z" fill="white"/>
<path d="M38.0939 31.7642H37.4688V33.5693H38.0939V31.7642Z" fill="white"/>
<path d="M37.8517 32.0066V33.3271H37.7112V32.0066H37.8517ZM38.3363 31.522H37.2266V33.8117H38.3363V31.522Z" fill="white"/>
<path d="M38.0939 26.2163H37.4688V28.0214H38.0939V26.2163Z" fill="white"/>
<path d="M37.8517 26.4587V27.7792H37.7112V26.4587H37.8517ZM38.3363 25.9741H37.2266V28.2638H38.3363V25.9741Z" fill="white"/>
<path d="M38.0939 23.4424H37.4688V25.2475H38.0939V23.4424Z" fill="white"/>
<path d="M37.8517 23.6848V25.0053H37.7112V23.6848H37.8517ZM38.3363 23.2002H37.2266V25.4899H38.3363V23.2002Z" fill="white"/>
<path d="M38.0939 28.9907H37.4688V30.7958H38.0939V28.9907Z" fill="white"/>
<path d="M37.8517 29.2331V30.5537H37.7112V29.2331H37.8517ZM38.3363 28.7485H37.2266V31.0382H38.3363V28.7485Z" fill="white"/>
<path d="M32.707 22.473C32.9832 21.4675 33.824 20.7091 34.8695 20.5273V21.1997C34.2081 21.3584 33.6677 21.8345 33.4279 22.473H32.707Z" fill="white"/>
<path d="M34.6269 20.8337V21.0179C34.026 21.2165 33.5329 21.6551 33.2664 22.2318H33.0471C33.333 21.5582 33.9121 21.0433 34.6269 20.8337ZM35.1115 20.2534C33.7352 20.3625 32.6219 21.391 32.4062 22.7152H33.6032C33.7946 22.0222 34.3846 21.4976 35.1115 21.4007V20.2534Z" fill="white"/>
<path d="M36.4986 23.4424H35.8359V25.2475H36.4986V23.4424Z" fill="white"/>
<path d="M36.2564 23.6848V25.0053H36.0783V23.6848H36.2564ZM36.741 23.2002H35.5938V25.4899H36.741V23.2002Z" fill="white"/>
<path d="M36.4986 26.2168H35.8359V28.0219H36.4986V26.2168Z" fill="white"/>
<path d="M36.2564 26.4587V27.7792H36.0783V26.4587H36.2564ZM36.741 25.9741H35.5938V28.2638H36.741V25.9741Z" fill="white"/>
<path d="M36.4986 28.9897H35.8359V30.7949H36.4986V28.9897Z" fill="white"/>
<path d="M36.2564 29.2326V30.5532H36.0783V29.2326H36.2564ZM36.741 28.748H35.5938V31.0378H36.741V28.748Z" fill="white"/>
<path d="M36.4986 31.7642H35.8359V33.5693H36.4986V31.7642Z" fill="white"/>
<path d="M36.2564 32.0061V33.3266H36.0783V32.0061H36.2564ZM36.741 31.5215H35.5938V33.8112H36.741V31.5215Z" fill="white"/>
<path d="M38.0939 45.6328H37.4688V47.4064H38.0939V45.6328Z" fill="white"/>
<path d="M37.8517 45.8752V47.1642H37.7112V45.8752H37.8517ZM38.3363 45.3906H37.2266V47.6488H38.3363V45.3906Z" fill="white"/>
<path d="M36.4986 34.5381H35.8359V36.3432H36.4986V34.5381Z" fill="white"/>
<path d="M36.2564 34.7805V36.101H36.0783V34.7805H36.2564ZM36.741 34.2959H35.5938V36.5856H36.741V34.2959Z" fill="white"/>
<path d="M33.2357 45.6328H32.6094V47.4064H33.2357V45.6328Z" fill="white"/>
<path d="M32.9935 45.8747V47.1638H32.8518V45.8747H32.9935ZM33.4781 45.3901H32.3672V47.6483H33.4781V45.3901Z" fill="white"/>
<path d="M36.4986 45.6328H35.8359V47.4064H36.4986V45.6328Z" fill="white"/>
<path d="M36.2564 45.8752V47.1642H36.0783V45.8752H36.2564ZM36.741 45.3906H35.5938V47.6488H36.741V45.3906Z" fill="white"/>
<path d="M35.8359 22.473V22.2246C35.9583 22.2864 36.0698 22.3712 36.1618 22.473H35.8359Z" fill="white"/>
<path d="M35.5938 21.8916V22.7166H36.592C36.426 22.2926 36.0505 21.9752 35.5938 21.8916Z" fill="white"/>
<path d="M36.4986 42.8579H35.8359V44.663H36.4986V42.8579Z" fill="white"/>
<path d="M36.2564 43.1008V44.4213H36.0783V43.1008H36.2564ZM36.741 42.6162H35.5938V44.9059H36.741V42.6162Z" fill="white"/>
<path d="M34.8658 37.3115H34.2031V39.1166H34.8658V37.3115Z" fill="white"/>
<path d="M34.6236 37.5539V38.8744H34.4455V37.5539H34.6236ZM35.1082 37.0693H33.9609V39.359H35.1082V37.0693Z" fill="white"/>
<path d="M34.8658 34.5381H34.2031V36.3432H34.8658V34.5381Z" fill="white"/>
<path d="M34.6236 34.7805V36.101H34.4455V34.7805H34.6236ZM35.1082 34.2959H33.9609V36.5856H35.1082V34.2959Z" fill="white"/>
<path d="M34.8658 40.0859H34.2031V41.8911H34.8658V40.0859Z" fill="white"/>
<path d="M34.6236 40.3283V41.6489H34.4455V40.3283H34.6236ZM35.1082 39.8438H33.9609V42.1335H35.1082V39.8438Z" fill="white"/>
<path d="M34.8658 31.7642H34.2031V33.5693H34.8658V31.7642Z" fill="white"/>
<path d="M34.6236 32.0066V33.3271H34.4455V32.0066H34.6236ZM35.1082 31.522H33.9609V33.8117H35.1082V31.522Z" fill="white"/>
<path d="M36.4986 37.311H35.8359V39.1161H36.4986V37.311Z" fill="white"/>
<path d="M36.2564 37.5534V38.874H36.0783V37.5534H36.2564ZM36.741 37.0688H35.5938V39.3585H36.741V37.0688Z" fill="white"/>
<path d="M36.4986 40.0854H35.8359V41.8906H36.4986V40.0854Z" fill="white"/>
<path d="M36.2564 40.3279V41.6484H36.0783V40.3279H36.2564ZM36.741 39.8433H35.5938V42.133H36.741V39.8433Z" fill="white"/>
<path d="M34.8658 42.8589H34.2031V44.664H34.8658V42.8589Z" fill="white"/>
<path d="M34.6236 43.1008V44.4213H34.4455V43.1008H34.6236ZM35.1082 42.6162H33.9609V44.9059H35.1082V42.6162Z" fill="white"/>
<path d="M34.8658 28.9907H34.2031V30.7958H34.8658V28.9907Z" fill="white"/>
<path d="M34.6236 29.2326V30.5532H34.4455V29.2326H34.6236ZM35.1082 28.748H33.9609V31.0378H35.1082V28.748Z" fill="white"/>
<path d="M34.8658 45.6328H34.2031V47.4064H34.8658V45.6328Z" fill="white"/>
<path d="M34.6236 45.8747V47.1638H34.4455V45.8747H34.6236ZM35.1082 45.3901H33.9609V47.6483H35.1082V45.3901Z" fill="white"/>
<path d="M51.7963 49.9582V56.8976H46.7893V49.9582H51.7963ZM52.2809 49.4736H46.3047V57.3822H52.2809V49.4736Z" fill="white"/>
<path d="M48.8033 26.2168H48.1406V28.0219H48.8033V26.2168Z" fill="white"/>
<path d="M48.5611 26.4587V27.7792H48.383V26.4587H48.5611ZM49.0457 25.9741H47.8984V28.2638H49.0457V25.9741Z" fill="white"/>
<path d="M47.1693 31.7642H46.543V33.5693H47.1693V31.7642Z" fill="white"/>
<path d="M46.9271 32.0066V33.3271H46.7854V32.0066H46.9271ZM47.4117 31.522H46.3008V33.8117H47.4117V31.522Z" fill="white"/>
<path d="M47.1693 34.5386H46.543V36.3437H47.1693V34.5386Z" fill="white"/>
<path d="M46.9271 34.7805V36.101H46.7854V34.7805H46.9271ZM47.4117 34.2959H46.3008V36.5856H47.4117V34.2959Z" fill="white"/>
<path d="M48.4766 22.473C48.5686 22.3712 48.6801 22.2864 48.8037 22.2246V22.473H48.4766Z" fill="white"/>
<path d="M49.0463 21.8901C48.5896 21.9749 48.2128 22.2923 48.0469 22.7152H49.0463V21.8901Z" fill="white"/>
<path d="M47.1693 26.2163H46.543V28.0214H47.1693V26.2163Z" fill="white"/>
<path d="M46.9271 26.4587V27.7792H46.7854V26.4587H46.9271ZM47.4117 25.9741H46.3008V28.2638H47.4117V25.9741Z" fill="white"/>
<path d="M47.1693 28.9907H46.543V30.7958H47.1693V28.9907Z" fill="white"/>
<path d="M46.9271 29.2326V30.5532H46.7854V29.2326H46.9271ZM47.4117 28.748H46.3008V31.0378H47.4117V28.748Z" fill="white"/>
<path d="M47.1693 40.0859H46.543V41.8911H47.1693V40.0859Z" fill="white"/>
<path d="M46.9271 40.3283V41.6489H46.7854V40.3283H46.9271ZM47.4117 39.8438H46.3008V42.1335H47.4117V39.8438Z" fill="white"/>
<path d="M48.8033 23.4424H48.1406V25.2475H48.8033V23.4424Z" fill="white"/>
<path d="M48.5611 23.6848V25.0053H48.383V23.6848H48.5611ZM49.0457 23.2002H47.8984V25.4899H49.0457V23.2002Z" fill="white"/>
<path d="M47.1693 23.4424H46.543V25.2475H47.1693V23.4424Z" fill="white"/>
<path d="M46.9271 23.6848V25.0053H46.7854V23.6848H46.9271ZM47.4117 23.2002H46.3008V25.4899H47.4117V23.2002Z" fill="white"/>
<path d="M47.1693 42.8589H46.543V44.664H47.1693V42.8589Z" fill="white"/>
<path d="M46.9271 43.1008V44.4213H46.7854V43.1008H46.9271ZM47.4117 42.6162H46.3008V44.9059H47.4117V42.6162Z" fill="white"/>
<path d="M47.1693 37.3115H46.543V39.1166H47.1693V37.3115Z" fill="white"/>
<path d="M46.9271 37.5539V38.8744H46.7854V37.5539H46.9271ZM47.4117 37.0693H46.3008V39.359H47.4117V37.0693Z" fill="white"/>
<path d="M52.0314 37.3115H51.4062V39.1166H52.0314V37.3115Z" fill="white"/>
<path d="M51.7892 37.5534V38.874H51.6487V37.5534H51.7892ZM52.2738 37.0688H51.1641V39.3585H52.2738V37.0688Z" fill="white"/>
<path d="M51.2139 22.4725C50.974 21.8353 50.4349 21.3591 49.7734 21.1992V20.5269C50.8177 20.7086 51.6585 21.4658 51.9347 22.4713H51.2139V22.4725Z" fill="white"/>
<path d="M50.0158 20.8337C50.7294 21.0445 51.3085 21.5582 51.5944 22.2318H51.3751C51.1086 21.6563 50.6167 21.2178 50.0158 21.0191V20.8337ZM49.5312 20.2534V21.4007C50.2569 21.4976 50.8469 22.0234 51.0383 22.7152H52.2353C52.0196 21.391 50.9075 20.3637 49.5312 20.2534Z" fill="white"/>
<path d="M52.0314 42.8589H51.4062V44.664H52.0314V42.8589Z" fill="white"/>
<path d="M51.7892 43.1008V44.4213H51.6487V43.1008H51.7892ZM52.2738 42.6162H51.1641V44.9059H52.2738V42.6162Z" fill="white"/>
<path d="M52.0314 40.0859H51.4062V41.8911H52.0314V40.0859Z" fill="white"/>
<path d="M51.7892 40.3283V41.6489H51.6487V40.3283H51.7892ZM52.2738 39.8438H51.1641V42.1335H52.2738V39.8438Z" fill="white"/>
<path d="M52.0314 34.5381H51.4062V36.3432H52.0314V34.5381Z" fill="white"/>
<path d="M51.7892 34.7805V36.101H51.6487V34.7805H51.7892ZM52.2738 34.2959H51.1641V36.5856H52.2738V34.2959Z" fill="white"/>
<path d="M52.0314 31.7642H51.4062V33.5693H52.0314V31.7642Z" fill="white"/>
<path d="M51.7892 32.0066V33.3271H51.6487V32.0066H51.7892ZM52.2738 31.522H51.1641V33.8117H52.2738V31.522Z" fill="white"/>
<path d="M52.0314 26.2168H51.4062V28.0219H52.0314V26.2168Z" fill="white"/>
<path d="M51.7892 26.4587V27.7792H51.6487V26.4587H51.7892ZM52.2738 25.9741H51.1641V28.2638H52.2738V25.9741Z" fill="white"/>
<path d="M52.0314 23.4424H51.4062V25.2475H52.0314V23.4424Z" fill="white"/>
<path d="M51.7892 23.6848V25.0053H51.6487V23.6848H51.7892ZM52.2738 23.2002H51.1641V25.4899H52.2738V23.2002Z" fill="white"/>
<path d="M52.0314 28.9907H51.4062V30.7958H52.0314V28.9907Z" fill="white"/>
<path d="M51.7892 29.2326V30.5532H51.6487V29.2326H51.7892ZM52.2738 28.748H51.1641V31.0378H52.2738V28.748Z" fill="white"/>
<path d="M46.6406 22.4725C46.9168 21.467 47.7576 20.7086 48.8031 20.5269V21.1992C48.1417 21.3579 47.6013 21.834 47.3615 22.4725H46.6406Z" fill="white"/>
<path d="M48.5605 20.8337V21.0179C47.9596 21.2165 47.4665 21.6551 47.2 22.2318H46.9807C47.2666 21.5582 47.8457 21.0433 48.5605 20.8337ZM49.0451 20.2534C47.6688 20.3625 46.5555 21.391 46.3398 22.7152H47.5368C47.7282 22.0222 48.3182 21.4976 49.0451 21.4007V20.2534Z" fill="white"/>
<path d="M50.4361 23.4424H49.7734V25.2475H50.4361V23.4424Z" fill="white"/>
<path d="M50.1939 23.6843V25.0048H50.0158V23.6843H50.1939ZM50.6785 23.1997H49.5312V25.4894H50.6785V23.1997Z" fill="white"/>
<path d="M50.4361 26.2168H49.7734V28.0219H50.4361V26.2168Z" fill="white"/>
<path d="M50.1939 26.4587V27.7792H50.0158V26.4587H50.1939ZM50.6785 25.9741H49.5312V28.2638H50.6785V25.9741Z" fill="white"/>
<path d="M50.4361 28.9907H49.7734V30.7958H50.4361V28.9907Z" fill="white"/>
<path d="M50.1939 29.2326V30.5532H50.0158V29.2326H50.1939ZM50.6785 28.748H49.5312V31.0378H50.6785V28.748Z" fill="white"/>
<path d="M50.4361 31.7642H49.7734V33.5693H50.4361V31.7642Z" fill="white"/>
<path d="M50.1939 32.0066V33.3271H50.0158V32.0066H50.1939ZM50.6785 31.522H49.5312V33.8117H50.6785V31.522Z" fill="white"/>
<path d="M52.0314 45.6328H51.4062V47.4064H52.0314V45.6328Z" fill="white"/>
<path d="M51.7892 45.8752V47.1642H51.6487V45.8752H51.7892ZM52.2738 45.3906H51.1641V47.6488H52.2738V45.3906Z" fill="white"/>
<path d="M50.4361 34.5381H49.7734V36.3432H50.4361V34.5381Z" fill="white"/>
<path d="M50.1939 34.7805V36.101H50.0158V34.7805H50.1939ZM50.6785 34.2959H49.5312V36.5856H50.6785V34.2959Z" fill="white"/>
<path d="M47.1693 45.6323H46.543V47.4059H47.1693V45.6323Z" fill="white"/>
<path d="M46.9271 45.8747V47.1638H46.7854V45.8747H46.9271ZM47.4117 45.3901H46.3008V47.6483H47.4117V45.3901Z" fill="white"/>
<path d="M50.4361 45.6328H49.7734V47.4064H50.4361V45.6328Z" fill="white"/>
<path d="M50.1939 45.8747V47.1638H50.0158V45.8747H50.1939ZM50.6785 45.3901H49.5312V47.6483H50.6785V45.3901Z" fill="white"/>
<path d="M49.7734 22.473V22.2246C49.8958 22.2864 50.0073 22.3712 50.0993 22.473H49.7734Z" fill="white"/>
<path d="M49.5312 21.8921V22.7171H50.5295C50.3635 22.2931 49.988 21.9757 49.5312 21.8921Z" fill="white"/>
<path d="M50.4361 42.8589H49.7734V44.664H50.4361V42.8589Z" fill="white"/>
<path d="M50.1939 43.1008V44.4213H50.0158V43.1008H50.1939ZM50.6785 42.6162H49.5312V44.9059H50.6785V42.6162Z" fill="white"/>
<path d="M48.8033 37.311H48.1406V39.1161H48.8033V37.311Z" fill="white"/>
<path d="M48.5611 37.5539V38.8744H48.383V37.5539H48.5611ZM49.0457 37.0693H47.8984V39.359H49.0457V37.0693Z" fill="white"/>
<path d="M48.8033 34.5386H48.1406V36.3437H48.8033V34.5386Z" fill="white"/>
<path d="M48.5611 34.7805V36.101H48.383V34.7805H48.5611ZM49.0457 34.2959H47.8984V36.5856H49.0457V34.2959Z" fill="white"/>
<path d="M48.8033 40.0864H48.1406V41.8915H48.8033V40.0864Z" fill="white"/>
<path d="M48.5611 40.3283V41.6489H48.383V40.3283H48.5611ZM49.0457 39.8438H47.8984V42.1335H49.0457V39.8438Z" fill="white"/>
<path d="M48.8033 31.7642H48.1406V33.5693H48.8033V31.7642Z" fill="white"/>
<path d="M48.5611 32.0066V33.3271H48.383V32.0066H48.5611ZM49.0457 31.522H47.8984V33.8117H49.0457V31.522Z" fill="white"/>
<path d="M50.4361 37.3115H49.7734V39.1166H50.4361V37.3115Z" fill="white"/>
<path d="M50.1939 37.5539V38.8744H50.0158V37.5539H50.1939ZM50.6785 37.0693H49.5312V39.359H50.6785V37.0693Z" fill="white"/>
<path d="M50.4361 40.0859H49.7734V41.8911H50.4361V40.0859Z" fill="white"/>
<path d="M50.1939 40.3283V41.6489H50.0158V40.3283H50.1939ZM50.6785 39.8438H49.5312V42.1335H50.6785V39.8438Z" fill="white"/>
<path d="M48.8033 42.8584H48.1406V44.6635H48.8033V42.8584Z" fill="white"/>
<path d="M48.5611 43.1008V44.4213H48.383V43.1008H48.5611ZM49.0457 42.6162H47.8984V44.9059H49.0457V42.6162Z" fill="white"/>
<path d="M48.8033 28.9902H48.1406V30.7953H48.8033V28.9902Z" fill="white"/>
<path d="M48.5611 29.2326V30.5532H48.383V29.2326H48.5611ZM49.0457 28.748H47.8984V31.0378H49.0457V28.748Z" fill="white"/>
<path d="M48.8033 45.6323H48.1406V47.4059H48.8033V45.6323Z" fill="white"/>
<path d="M48.5611 45.8747V47.1638H48.383V45.8747H48.5611ZM49.0457 45.3901H47.8984V47.6483H49.0457V45.3901Z" fill="white"/>
<path d="M65.7338 49.9582V56.8976H60.7268V49.9582H65.7338ZM66.2184 49.4736H60.2422V57.3822H66.2184V49.4736Z" fill="white"/>
<path d="M62.7447 26.2163H62.082V28.0214H62.7447V26.2163Z" fill="white"/>
<path d="M62.5025 26.4587V27.7792H62.3244V26.4587H62.5025ZM62.9871 25.9741H61.8398V28.2638H62.9871V25.9741Z" fill="white"/>
<path d="M61.1107 31.7642H60.4844V33.5693H61.1107V31.7642Z" fill="white"/>
<path d="M60.8685 32.0066V33.3271H60.7268V32.0066H60.8685ZM61.3531 31.522H60.2422V33.8117H61.3531V31.522Z" fill="white"/>
<path d="M61.1107 34.5381H60.4844V36.3432H61.1107V34.5381Z" fill="white"/>
<path d="M60.8685 34.781V36.1015H60.7268V34.781H60.8685ZM61.3531 34.2964H60.2422V36.5861H61.3531V34.2964Z" fill="white"/>
<path d="M62.4141 22.4735C62.5061 22.3717 62.6176 22.2869 62.7412 22.2251V22.4735H62.4141Z" fill="white"/>
<path d="M62.9838 21.8906C62.5271 21.9754 62.1503 22.2928 61.9844 22.7156H62.9838V21.8906Z" fill="white"/>
<path d="M61.1107 26.2168H60.4844V28.0219H61.1107V26.2168Z" fill="white"/>
<path d="M60.8685 26.4592V27.7797H60.7268V26.4592H60.8685ZM61.3531 25.9746H60.2422V28.2643H61.3531V25.9746Z" fill="white"/>
<path d="M61.1107 28.9912H60.4844V30.7963H61.1107V28.9912Z" fill="white"/>
<path d="M60.8685 29.2336V30.5541H60.7268V29.2336H60.8685ZM61.3531 28.749H60.2422V31.0387H61.3531V28.749Z" fill="white"/>
<path d="M61.1107 40.0859H60.4844V41.8911H61.1107V40.0859Z" fill="white"/>
<path d="M60.8685 40.3283V41.6489H60.7268V40.3283H60.8685ZM61.3531 39.8438H60.2422V42.1335H61.3531V39.8438Z" fill="white"/>
<path d="M62.7447 23.4424H62.082V25.2475H62.7447V23.4424Z" fill="white"/>
<path d="M62.5025 23.6843V25.0048H62.3244V23.6843H62.5025ZM62.9871 23.1997H61.8398V25.4894H62.9871V23.1997Z" fill="white"/>
<path d="M61.1107 23.4429H60.4844V25.248H61.1107V23.4429Z" fill="white"/>
<path d="M60.8685 23.6848V25.0053H60.7268V23.6848H60.8685ZM61.3531 23.2002H60.2422V25.4899H61.3531V23.2002Z" fill="white"/>
<path d="M61.1107 42.8594H60.4844V44.6645H61.1107V42.8594Z" fill="white"/>
<path d="M60.8685 43.1013V44.4218H60.7268V43.1013H60.8685ZM61.3531 42.6167H60.2422V44.9064H61.3531V42.6167Z" fill="white"/>
<path d="M61.1107 37.311H60.4844V39.1161H61.1107V37.311Z" fill="white"/>
<path d="M60.8685 37.5534V38.874H60.7268V37.5534H60.8685ZM61.3531 37.0688H60.2422V39.3585H61.3531V37.0688Z" fill="white"/>
<path d="M65.9689 37.3115H65.3438V39.1166H65.9689V37.3115Z" fill="white"/>
<path d="M65.7267 37.5539V38.8744H65.5862V37.5539H65.7267ZM66.2113 37.0693H65.1016V39.359H66.2113V37.0693Z" fill="white"/>
<path d="M65.1514 22.473C64.9115 21.8357 64.3724 21.3596 63.7109 21.1997V20.5273C64.7552 20.7091 65.596 21.4662 65.8722 22.4718H65.1514V22.473Z" fill="white"/>
<path d="M63.9533 20.8342C64.6669 21.045 65.246 21.5587 65.5319 22.2323H65.3126C65.0461 21.6568 64.5542 21.2182 63.9533 21.0196V20.8342ZM63.4688 20.2539V21.4012C64.1944 21.4981 64.7844 22.0239 64.9758 22.7156H66.1728C65.9571 21.3915 64.845 20.3642 63.4688 20.2539Z" fill="white"/>
<path d="M65.9689 42.8589H65.3438V44.664H65.9689V42.8589Z" fill="white"/>
<path d="M65.7267 43.1008V44.4213H65.5862V43.1008H65.7267ZM66.2113 42.6162H65.1016V44.9059H66.2113V42.6162Z" fill="white"/>
<path d="M65.9689 40.0859H65.3438V41.8911H65.9689V40.0859Z" fill="white"/>
<path d="M65.7267 40.3283V41.6489H65.5862V40.3283H65.7267ZM66.2113 39.8438H65.1016V42.1335H66.2113V39.8438Z" fill="white"/>
<path d="M65.9689 34.5386H65.3438V36.3437H65.9689V34.5386Z" fill="white"/>
<path d="M65.7267 34.7805V36.101H65.5862V34.7805H65.7267ZM66.2113 34.2959H65.1016V36.5856H66.2113V34.2959Z" fill="white"/>
<path d="M65.9689 31.7642H65.3438V33.5693H65.9689V31.7642Z" fill="white"/>
<path d="M65.7267 32.0066V33.3271H65.5862V32.0066H65.7267ZM66.2113 31.522H65.1016V33.8117H66.2113V31.522Z" fill="white"/>
<path d="M65.9689 26.2163H65.3438V28.0214H65.9689V26.2163Z" fill="white"/>
<path d="M65.7267 26.4587V27.7792H65.5862V26.4587H65.7267ZM66.2113 25.9741H65.1016V28.2638H66.2113V25.9741Z" fill="white"/>
<path d="M65.9689 23.4424H65.3438V25.2475H65.9689V23.4424Z" fill="white"/>
<path d="M65.7267 23.6848V25.0053H65.5862V23.6848H65.7267ZM66.2113 23.2002H65.1016V25.4899H66.2113V23.2002Z" fill="white"/>
<path d="M65.9689 28.9912H65.3438V30.7963H65.9689V28.9912Z" fill="white"/>
<path d="M65.7267 29.2331V30.5537H65.5862V29.2331H65.7267ZM66.2113 28.7485H65.1016V31.0382H66.2113V28.7485Z" fill="white"/>
<path d="M60.582 22.473C60.8582 21.4675 61.699 20.7091 62.7445 20.5273V21.1997C62.0831 21.3584 61.5427 21.8345 61.3029 22.473H60.582Z" fill="white"/>
<path d="M62.5019 20.8342V21.0184C61.901 21.217 61.4079 21.6556 61.1414 22.2323H60.9221C61.208 21.5587 61.7871 21.0438 62.5019 20.8342ZM62.9865 20.2539C61.6103 20.3629 60.4969 21.3915 60.2812 22.7156H61.4782C61.6696 22.0227 62.2596 21.4981 62.9865 21.4012V20.2539Z" fill="white"/>
<path d="M64.3736 23.4429H63.7109V25.248H64.3736V23.4429Z" fill="white"/>
<path d="M64.1314 23.6853V25.0058H63.9533V23.6853H64.1314ZM64.616 23.2007H63.4688V25.4904H64.616V23.2007Z" fill="white"/>
<path d="M64.3736 26.2173H63.7109V28.0224H64.3736V26.2173Z" fill="white"/>
<path d="M64.1314 26.4592V27.7797H63.9533V26.4592H64.1314ZM64.616 25.9746H63.4688V28.2643H64.616V25.9746Z" fill="white"/>
<path d="M64.3736 28.9912H63.7109V30.7963H64.3736V28.9912Z" fill="white"/>
<path d="M64.1314 29.2331V30.5537H63.9533V29.2331H64.1314ZM64.616 28.7485H63.4688V31.0382H64.616V28.7485Z" fill="white"/>
<path d="M64.3736 31.7642H63.7109V33.5693H64.3736V31.7642Z" fill="white"/>
<path d="M64.1314 32.0066V33.3271H63.9533V32.0066H64.1314ZM64.616 31.522H63.4688V33.8117H64.616V31.522Z" fill="white"/>
<path d="M65.9689 45.6328H65.3438V47.4064H65.9689V45.6328Z" fill="white"/>
<path d="M65.7267 45.8752V47.1642H65.5862V45.8752H65.7267ZM66.2113 45.3906H65.1016V47.6488H66.2113V45.3906Z" fill="white"/>
<path d="M64.3736 34.5381H63.7109V36.3432H64.3736V34.5381Z" fill="white"/>
<path d="M64.1314 34.7805V36.101H63.9533V34.7805H64.1314ZM64.616 34.2959H63.4688V36.5856H64.616V34.2959Z" fill="white"/>
<path d="M61.1107 45.6333H60.4844V47.4069H61.1107V45.6333Z" fill="white"/>
<path d="M60.8685 45.8757V47.1647H60.7268V45.8757H60.8685ZM61.3531 45.3911H60.2422V47.6493H61.3531V45.3911Z" fill="white"/>
<path d="M64.3736 45.6333H63.7109V47.4069H64.3736V45.6333Z" fill="white"/>
<path d="M64.1314 45.8757V47.1647H63.9533V45.8757H64.1314ZM64.616 45.3911H63.4688V47.6493H64.616V45.3911Z" fill="white"/>
<path d="M63.7109 22.4735V22.2251C63.8333 22.2869 63.9447 22.3717 64.0368 22.4735H63.7109Z" fill="white"/>
<path d="M63.4688 21.8916V22.7166H64.467C64.301 22.2926 63.9255 21.9752 63.4688 21.8916Z" fill="white"/>
<path d="M64.3736 42.8594H63.7109V44.6645H64.3736V42.8594Z" fill="white"/>
<path d="M64.1314 43.1013V44.4218H63.9533V43.1013H64.1314ZM64.616 42.6167H63.4688V44.9064H64.616V42.6167Z" fill="white"/>
<path d="M62.7447 37.311H62.082V39.1161H62.7447V37.311Z" fill="white"/>
<path d="M62.5025 37.5539V38.8744H62.3244V37.5539H62.5025ZM62.9871 37.0693H61.8398V39.359H62.9871V37.0693Z" fill="white"/>
<path d="M62.7447 34.5386H62.082V36.3437H62.7447V34.5386Z" fill="white"/>
<path d="M62.5025 34.7805V36.101H62.3244V34.7805H62.5025ZM62.9871 34.2959H61.8398V36.5856H62.9871V34.2959Z" fill="white"/>
<path d="M62.7447 40.0864H62.082V41.8915H62.7447V40.0864Z" fill="white"/>
<path d="M62.5025 40.3283V41.6489H62.3244V40.3283H62.5025ZM62.9871 39.8438H61.8398V42.1335H62.9871V39.8438Z" fill="white"/>
<path d="M62.7447 31.7646H62.082V33.5698H62.7447V31.7646Z" fill="white"/>
<path d="M62.5025 32.0066V33.3271H62.3244V32.0066H62.5025ZM62.9871 31.522H61.8398V33.8117H62.9871V31.522Z" fill="white"/>
<path d="M64.3736 37.3115H63.7109V39.1166H64.3736V37.3115Z" fill="white"/>
<path d="M64.1314 37.5534V38.874H63.9533V37.5534H64.1314ZM64.616 37.0688H63.4688V39.3585H64.616V37.0688Z" fill="white"/>
<path d="M64.3736 40.0859H63.7109V41.8911H64.3736V40.0859Z" fill="white"/>
<path d="M64.1314 40.3283V41.6489H63.9533V40.3283H64.1314ZM64.616 39.8438H63.4688V42.1335H64.616V39.8438Z" fill="white"/>
<path d="M62.7447 42.8589H62.082V44.664H62.7447V42.8589Z" fill="white"/>
<path d="M62.5025 43.1013V44.4218H62.3244V43.1013H62.5025ZM62.9871 42.6167H61.8398V44.9064H62.9871V42.6167Z" fill="white"/>
<path d="M62.7447 28.9907H62.082V30.7958H62.7447V28.9907Z" fill="white"/>
<path d="M62.5025 29.2331V30.5537H62.3244V29.2331H62.5025ZM62.9871 28.7485H61.8398V31.0382H62.9871V28.7485Z" fill="white"/>
<path d="M62.7447 45.6328H62.082V47.4064H62.7447V45.6328Z" fill="white"/>
<path d="M62.5025 45.8752V47.1642H62.3244V45.8752H62.5025ZM62.9871 45.3906H61.8398V47.6488H62.9871V45.3906Z" fill="white"/>
<path d="M1.63506 51.8786C3.37111 54.2325 6.56943 56.355 10.6388 57.8537C14.7663 59.3741 19.4669 60.1773 24.2317 60.1773C24.6751 60.1773 25.1185 60.17 25.5619 60.1555C22.9184 59.6067 19.6741 58.8398 18.1876 58.3637L18.0604 58.3237C14.862 57.2855 12.0344 55.8595 9.88284 54.1998C5.16775 50.5641 4.16221 46.3155 7.02737 42.4072C6.37075 42.532 5.72261 42.6738 5.089 42.8325C3.697 43.1911 2.36316 43.6199 1.12502 44.1057C-0.384489 46.6935 -0.208824 49.3781 1.63506 51.8786Z" fill="white"/>
<path d="M95.8925 42.5842C93.444 39.9601 89.2959 37.8037 84.2149 36.511C81.0094 35.6957 77.513 35.2656 74.1039 35.2656C73.6496 35.2656 73.1953 35.2729 72.7422 35.2886C75.3784 35.8423 78.6397 36.6225 80.1577 37.1107L80.2728 37.1471C83.4117 38.1671 86.2006 39.5628 88.3376 41.1849C93.1085 44.8061 94.1794 49.056 91.37 52.9727C93.4307 52.6032 95.3909 52.0495 97.2154 51.3239C98.9357 48.3763 98.4802 45.3573 95.8925 42.5842Z" fill="white"/>
<path d="M90.9815 54.023C90.4557 54.1199 89.9142 54.178 89.369 54.2059C88.1442 54.2665 85.8278 54.3731 84.8502 54.3731C78.8618 54.3731 72.5003 53.1241 66.4538 50.7592L66.4332 50.752L66.4138 50.7435C64.9915 50.0941 62.8908 49.1407 60.4981 48.0588C56.5862 46.2889 53.0257 44.6861 51.8251 44.153L51.8154 44.1591L51.3599 43.9519L51.0752 43.8223L48.7843 42.778C45.0771 41.0867 41.3409 39.3834 37.8215 37.7794C33.8515 36.1281 29.1594 35.2559 24.2517 35.2559C19.5318 35.2559 14.8845 36.0518 10.8127 37.5565C7.30908 38.8515 4.41485 40.6143 2.33594 42.7065C3.07494 42.4654 3.83333 42.2485 4.60384 42.0547C4.92609 41.9723 5.24956 41.8924 5.57545 41.8173C6.96987 41.495 8.42001 41.2818 9.89197 41.1655C11.3227 41.0528 13.2684 40.9135 14.1891 40.9135C20.3265 40.9135 26.6262 42.2546 31.9277 44.6897C32.9829 45.1719 34.9176 46.0502 37.8421 47.3756C40.7267 48.684 44.1891 50.2516 47.5595 51.7781L49.5536 52.6806C54.1003 54.7402 58.6918 56.8203 60.5187 57.6526C64.4887 59.3038 69.1808 60.1761 74.0885 60.1761C78.8085 60.1761 83.4545 59.3814 87.5251 57.8767C91.0263 56.5828 93.9193 54.8213 95.9983 52.7315C94.3591 53.2743 92.663 53.7116 90.9815 54.023Z" fill="white"/>
<path d="M79.9317 37.9402H79.9293L79.7815 37.893C78.4973 37.4665 75.0288 36.6827 72.3672 36.1182V42.4639C76.1252 41.4124 80.3157 40.866 84.2761 40.866C84.9497 40.866 85.6233 40.8829 86.2932 40.9144C84.4929 39.7454 82.3232 38.7289 79.9317 37.9402Z" fill="white"/>
</g>
<defs>
<clipPath id="clip0_3173_18117">
<rect width="99" height="61" fill="white"/>
</clipPath>
</defs>
</svg>
