<svg width="102" height="102" viewBox="0 0 102 102" fill="none" xmlns="http://www.w3.org/2000/svg">
<path d="M77.5797 1.12572C70.0788 2.35002 63.9544 7.3925 61.2612 14.5723C60.9022 15.4854 60.5431 16.6267 60.4234 17.1039L60.2039 17.9755L59.5656 17.5812C57.4709 16.3154 54.0995 16.1909 51.8053 17.3115C49.4314 18.4735 47.8155 20.4033 47.0375 22.9972C46.6983 24.1593 46.6584 25.0308 46.6584 33.2689C46.6584 42.0051 46.6784 42.2956 47.0574 42.6899C47.5362 43.1879 48.0349 43.2086 48.5736 42.8144C48.9327 42.5238 48.9526 42.1088 49.0523 33.2067L49.1521 23.9102L49.7107 22.7274C51.4263 19.096 55.875 17.8925 59.0668 20.1958L59.8249 20.7561V22.6652C59.8249 26.6701 60.962 30.5713 63.1365 34.1405C63.5953 34.8667 63.7349 35.261 63.5753 35.3025C62.0991 35.7383 61.2812 36.2156 60.4234 37.1286C59.4459 38.1661 59.406 38.1661 58.4285 38.0831C57.7901 38.0209 57.2116 37.7926 56.7527 37.4399C55.5159 36.4438 54.4386 36.8173 54.4386 38.2076C54.4386 39.0792 56.7926 40.594 58.1891 40.6148C58.7875 40.6148 58.8274 40.6563 58.8274 41.4033C58.8274 42.5446 59.386 44.1009 59.9446 44.4744C60.5431 44.8895 60.982 44.7857 61.4607 44.1217C61.8198 43.6236 61.8398 43.5406 61.5405 42.7936C60.8024 40.9883 61.4208 39.0584 63.0168 38.1661C63.7748 37.7511 64.094 37.6889 64.9917 37.7926C65.9293 37.9171 66.2485 38.1039 67.6849 39.2867C70.1785 41.3618 73.6896 43.0011 76.8415 43.5614C77.5797 43.7066 78.1781 43.8934 78.1781 43.9972C78.1781 44.1009 77.8988 44.8272 77.5797 45.6157C76.9213 47.1513 76.9612 47.6286 77.7792 48.0851C78.3577 48.4171 78.5771 48.3341 79.1955 47.6493C79.7342 47.0683 79.8339 47.0061 80.2928 47.2343C81.1905 47.6493 82.6867 49.3094 83.2452 50.4715C84.6417 53.4388 84.2028 56.676 82.0483 59.2491C81.2104 60.2659 81.3102 60.2659 78.9761 59.3944C78.1382 59.1038 76.8016 58.7926 75.9239 58.7303C74.1684 58.5851 73.5898 58.8756 73.5898 59.9339C73.5898 60.6809 74.2282 61.1582 75.2257 61.1582C77.5996 61.1582 80.4523 62.4863 82.3675 64.4783C86.1778 68.4418 86.6166 74.5218 83.4447 79.1285C81.6493 81.7431 78.0784 83.756 75.1858 83.7767C74.2282 83.7767 73.5898 84.2747 73.5898 85.001C73.5898 85.9763 74.1883 86.3291 75.6047 86.2253L76.8216 86.1423L76.7418 88.7362C76.682 91.1226 76.6421 91.4546 76.1034 92.5959C75.3055 94.2559 73.8891 95.6878 72.2333 96.497C71.0164 97.0988 70.7171 97.1611 69.0015 97.1611C67.2859 97.1611 66.9867 97.0988 65.7698 96.497C63.1963 95.2312 61.6203 92.9694 61.2213 90.002C61.0019 88.3627 60.7226 87.9269 59.9047 87.9269C59.0269 87.9269 58.7676 88.4664 58.8673 90.1888C59.007 92.1809 59.6055 93.8202 60.8423 95.5218L61.7999 96.8498L60.9022 97.3893C58.2888 98.9872 55.0371 98.8834 52.5036 97.1196C51.2468 96.248 50.4288 95.2312 49.6907 93.5919L49.1521 92.3884L49.0523 71.2016C48.9726 53.6671 48.9127 49.9527 48.6733 49.6829C48.3142 49.2264 47.3966 49.2472 46.9976 49.7037C46.6784 50.0564 46.6584 51.8203 46.6584 70.9319C46.6584 88.9852 46.6983 91.9526 46.9577 93.0109C48.1546 97.7214 52.2442 101 56.9323 101C59.2264 101 61.3809 100.253 63.0367 98.9042L63.7549 98.3024L64.5728 98.7174C69.1412 101.021 74.707 99.4229 77.5597 94.9615C78.8165 93.0109 79.1756 91.5168 79.1756 88.2589V85.5405L80.5321 84.8765C88.5517 80.8508 90.4868 69.7698 84.3624 62.9635L83.2053 61.677L83.9833 60.7639C85.1404 59.4151 86.1179 57.1948 86.3573 55.3894C86.876 51.4053 85.0407 47.3588 81.7291 45.2422C81.0907 44.8272 80.592 44.3914 80.6319 44.2669C80.6718 44.1424 81.7291 43.8934 82.9859 43.7066C85.5992 43.3331 87.3947 42.7729 89.629 41.6316C95.3544 38.6849 99.3243 33.2482 100.761 26.4004C100.9 25.6533 101 23.931 101 22.1464C100.98 19.5941 100.88 18.8263 100.441 17.0624C97.9677 7.43401 89.7686 0.897461 80.2928 1.00121C79.0759 1.02197 77.859 1.06346 77.5797 1.12572ZM84.8611 3.9686C91.3845 5.79468 96.4316 11.0032 98.1672 17.685C98.7856 20.1336 98.7856 24.6573 98.1672 27.1266C95.5738 37.2531 85.8187 43.2916 76.0236 40.8223C69.7995 39.2659 64.8321 34.265 62.8971 27.6454C62.4183 25.9853 62.3584 25.4458 62.3385 22.5614C62.3185 19.0753 62.538 17.8302 63.6352 15.0704C65.8097 9.5506 70.9166 5.13065 76.682 3.80259C78.4774 3.38757 83.1255 3.49133 84.8611 3.9686Z" fill="#25282B" stroke="#25282B" stroke-width="0.7"/>
<path d="M77.16 10.2978C76.7012 10.6921 76.6812 10.8166 76.6214 14.116L76.5615 17.5606L73.25 17.6229C68.9409 17.7059 69.2003 17.3946 69.2003 22.2711C69.2003 27.0231 68.921 26.7118 73.2699 26.7118H76.5615L76.6214 30.198C76.6613 32.7918 76.761 33.7879 76.9605 34.0369C77.1999 34.3481 77.7385 34.3896 80.9703 34.3896C84.3217 34.3896 84.7407 34.3481 85.02 34.0161C85.2993 33.6841 85.3591 33.1031 85.3591 30.1772V26.7118H88.7106C91.7229 26.7118 92.1219 26.6703 92.4012 26.3383C92.7004 26.0063 92.7403 25.4045 92.7403 22.2296C92.7403 19.3245 92.6805 18.3907 92.461 18.0794C92.2017 17.7266 91.8625 17.6851 88.7704 17.6229L85.3591 17.5606V14.1367C85.3591 9.61302 85.6583 9.90354 81.09 9.90354C77.9779 9.90354 77.5789 9.94504 77.16 10.2978ZM82.9652 15.8591C82.9652 18.7849 83.0251 19.366 83.3043 19.698C83.5836 20.03 83.9826 20.0715 86.9949 20.0715H90.3464V22.1466V24.2217H87.0548C84.0225 24.2217 83.7233 24.2632 83.3642 24.6367C83.0051 25.0102 82.9652 25.3215 82.9652 28.4756V31.8995H80.9703H78.9754V28.3926C78.9754 23.9104 79.2746 24.2217 74.8259 24.2217H71.5742L71.6341 22.1881L71.6939 20.1753L75.0653 20.113C77.14 20.0922 78.5564 19.9677 78.716 19.8432C78.9155 19.6565 78.9754 18.7642 78.9754 16.1288C78.9754 14.2405 79.0352 12.6012 79.115 12.5389C79.1749 12.4559 80.0726 12.3937 81.1099 12.3937H82.9652V15.8591Z" fill="#25282B" stroke="#25282B" stroke-width="0.7"/>
<path d="M31.0001 16.9167C28.6062 17.7883 26.731 19.5313 25.6537 21.8969C25.0951 23.1628 25.0353 23.474 25.0153 25.3209V27.3544L24.2174 27.1884C23.7785 27.1054 22.3022 27.0224 20.9257 27.0224C18.7513 27.0432 18.2526 27.1054 16.9758 27.5827C12.966 29.0768 10.0933 32.0857 8.67696 36.2359C8.15828 37.7922 8.07848 38.3109 8.07848 40.303C8.05853 41.5481 8.13833 43.0629 8.21813 43.6439L8.37772 44.6815L7.53985 45.0758C6.3828 45.636 4.38788 47.7526 3.70961 49.1429C1.81444 53.1064 2.35307 57.7131 5.08611 60.7427L5.98382 61.7388L5.38534 62.1745C4.52753 62.8178 3.03134 64.9759 2.25332 66.6567C0.517745 70.3919 0.597542 74.6251 2.41292 78.5885C3.53007 80.9956 5.94392 83.548 8.19818 84.71L9.75421 85.4986V87.8434C9.75421 90.6863 9.9936 91.9314 10.8714 93.882C12.0683 96.5173 14.6218 98.6754 17.4346 99.4432C19.649 100.024 22.6015 99.7337 24.4568 98.7377L25.1949 98.3642L26.3519 99.1735C26.9703 99.63 28.0077 100.19 28.6461 100.419C30.1024 100.958 32.7556 101.145 34.2717 100.792C37.8027 99.9827 40.7153 97.2436 41.9322 93.5499L42.3711 92.1804L42.431 59.2901C42.4709 38.9127 42.411 25.7774 42.2913 24.7398C41.8524 21.0047 39.7777 18.2448 36.546 17.0412C34.8702 16.4395 32.4963 16.3772 31.0001 16.9167ZM36.3664 19.6351C38.3214 20.6311 39.4984 22.3327 39.8775 24.6568C40.1368 26.3584 40.1568 89.5243 39.8775 91.4334C39.4984 94.1932 37.7429 96.6833 35.3291 97.8454C34.3316 98.3434 33.9526 98.4057 32.0973 98.4057C30.2021 98.4057 29.8829 98.3434 28.8855 97.8246C27.1898 96.9739 27.1299 96.8286 27.9878 95.7703C29.2047 94.297 30.2819 91.3503 30.3019 89.4828C30.3019 88.5905 29.8031 87.9264 29.1249 87.9264C28.3468 87.9264 27.9878 88.466 27.8282 89.8355C27.5289 92.7407 25.8731 95.1893 23.3595 96.4758C22.1227 97.1191 21.8833 97.1606 20.028 97.1606C18.2127 97.1606 17.9134 97.0984 16.7364 96.5173C15.0607 95.708 13.6443 94.214 12.8663 92.4916C12.3277 91.2673 12.2479 90.8938 12.188 88.632L12.1082 86.1004L13.365 86.2041C14.7415 86.3079 15.2003 86.1004 15.4198 85.3118C15.6193 84.627 14.8612 83.7763 14.0632 83.7763C9.27543 83.7763 4.68712 79.7921 3.66971 74.7496C3.31063 72.9235 3.31063 72.0105 3.66971 70.1844C4.52753 65.9927 7.69945 62.5688 11.6893 61.4897C12.3676 61.303 13.2852 61.1577 13.7241 61.1577C15.2402 61.1577 15.9983 59.7674 14.9609 58.9166C14.3026 58.3356 11.2105 58.8336 8.61711 59.9334C7.97874 60.2032 7.93884 60.1824 7.08102 59.3109C6.58229 58.8129 5.94392 57.8376 5.62473 57.132C5.14595 56.0322 5.06616 55.6172 5.06616 53.8949C5.06616 52.1311 5.126 51.7991 5.64468 50.6785C6.26311 49.3712 7.61965 47.8149 8.69691 47.1923L9.33528 46.8188L9.65447 47.4621C9.9936 48.1676 10.7118 48.4374 11.3302 48.1054C12.0484 47.6904 12.0484 46.9433 11.39 45.4285C10.612 43.6647 10.3726 42.5441 10.3527 40.7181C10.3527 37.7092 11.4698 34.887 13.5446 32.7289C15.8587 30.3218 18.4122 29.2843 21.7237 29.471C23.958 29.5748 25.1749 29.9483 26.8108 30.9859C28.5663 32.0857 29.5039 31.9404 29.5039 30.5293C29.5039 29.9483 29.3643 29.7408 28.7259 29.305C28.1075 28.8693 27.888 28.5373 27.6087 27.6035C27.1299 26.0471 27.2696 24.0551 27.9678 22.644C28.6261 21.2952 30.1822 19.8219 31.439 19.3861C32.8354 18.8881 35.1096 18.9918 36.3664 19.6351Z" fill="#25282B" stroke="#25282B" stroke-width="0.7"/>
<path d="M23.181 35.3445C22.6623 35.469 22.1237 36.1745 22.1237 36.7141C22.1237 36.9216 22.3032 37.2743 22.5226 37.5026C22.8618 37.8554 23.1012 37.8969 23.9789 37.7931C26.3529 37.5233 28.2481 39.7022 27.6695 42.0055C27.2705 43.6449 27.2506 43.9354 27.6097 44.3504C28.0087 44.8069 28.5273 44.8692 29.0859 44.5579C29.5447 44.3089 30.0235 43.1053 30.2031 41.7358L30.3427 40.6567L31.3003 40.5322C32.4174 40.387 34.0333 39.3494 34.4722 38.5194C34.7315 38.0214 34.7315 37.9176 34.4323 37.4196C33.9735 36.6933 33.2353 36.7141 32.1182 37.5026C31.4599 37.9591 31.001 38.1251 30.3427 38.1251C29.5447 38.1251 29.3652 38.0421 28.7468 37.2951C27.8092 36.133 26.3928 35.4275 24.8567 35.3237C24.1784 35.2822 23.4204 35.303 23.181 35.3445Z" fill="#25282B" stroke="#25282B" stroke-width="0.7"/>
<path d="M14.4795 45.9677C14.2401 46.2374 14.1404 46.7354 14.1404 47.6485C14.1404 49.2048 13.8411 49.8896 12.6442 50.8856C11.9659 51.4667 11.7465 51.7987 11.7465 52.2344C11.7465 53.106 12.2651 53.5417 13.123 53.4172C13.7813 53.3135 13.881 53.3757 14.4396 54.1643C14.8984 54.8076 15.2176 55.0566 15.6764 55.0981C16.9133 55.2226 17.3322 53.936 16.4345 52.8155C15.7363 51.9647 15.6365 51.3629 16.0555 50.5536C16.255 50.1386 16.4345 49.2048 16.4944 48.2918C16.5742 46.9222 16.5143 46.6732 16.1353 46.1544C15.6365 45.5111 14.9383 45.4281 14.4795 45.9677Z" fill="#25282B" stroke="#25282B" stroke-width="0.7"/>
<path d="M28.3022 54.1028C27.7835 54.6423 27.8035 54.8913 28.5017 56.2816C28.9605 57.1947 29.1002 57.7342 29.1002 58.668C29.1002 59.332 29.0403 60.0375 28.9805 60.2243C28.9007 60.4111 28.3621 60.8883 27.7835 61.2826C26.6065 62.0504 25.6091 63.3369 25.0505 64.831C24.6116 65.9931 24.5518 68.5662 24.9508 68.9397C25.4495 69.4377 26.028 69.4792 26.5267 69.0642C26.9058 68.7529 27.0055 68.4209 27.1053 67.1136C27.3247 64.333 28.781 62.7974 31.3145 62.6522C32.5115 62.5692 32.8506 62.6522 33.8082 63.1294C35.065 63.7727 35.7832 63.7105 36.1223 62.9219C36.4814 62.1126 36.0625 61.4901 34.7658 60.8261C34.1274 60.5148 33.1698 60.2243 32.5713 60.162L31.4941 60.079V58.6472C31.4941 56.9664 30.9355 55.2441 30.0976 54.3103C29.4393 53.584 28.8608 53.5217 28.3022 54.1028Z" fill="#25282B" stroke="#25282B" stroke-width="0.7"/>
<path d="M18.01 75.5804C17.4115 76.2029 17.4714 76.5765 18.4489 77.9045C18.8279 78.4025 19.2668 79.3571 19.4464 80.0004C19.8852 81.5567 19.6259 83.3828 18.7481 84.8561C18.409 85.4164 18.1297 86.1011 18.1297 86.3502C18.1297 86.9312 18.7082 87.5122 19.3067 87.5122C20.2244 87.5122 21.561 85.2089 21.94 82.9885L22.1395 81.8057H24.2741C26.249 81.8057 26.5084 81.7642 27.7452 81.1417C28.4833 80.7889 29.2215 80.2494 29.4209 79.9381C29.7401 79.4193 29.7401 79.3156 29.4808 78.8176C29.0818 78.0705 28.3437 78.029 27.0869 78.7138C25.7902 79.3778 24.0147 79.5646 22.718 79.1703C21.94 78.9213 21.7405 78.7346 21.2617 77.8008C20.5835 76.4935 19.3267 75.0616 18.8479 75.0616C18.6683 75.0616 18.2893 75.2899 18.01 75.5804Z" fill="#25282B" stroke="#25282B" stroke-width="0.7"/>
<path d="M72.9677 45.9891C72.5488 46.3419 72.4889 46.5494 72.4889 47.919C72.4889 48.998 72.6086 49.7035 72.9079 50.3676C73.3866 51.4259 73.3068 51.8824 72.4889 52.8992C71.9104 53.6047 71.8705 54.0405 72.3094 54.6838C72.8281 55.4515 73.646 55.2855 74.5038 54.2272C75.1821 53.3972 75.2818 53.335 75.98 53.418C76.6384 53.5217 76.778 53.4595 77.0772 52.9822C77.556 52.2352 77.3366 51.5919 76.4389 50.9693C75.3217 50.2431 74.7232 48.8943 74.8629 47.5247C74.9626 46.6116 74.9227 46.3626 74.5836 46.0099C74.0849 45.4911 73.5662 45.4911 72.9677 45.9891Z" fill="#25282B" stroke="#25282B" stroke-width="0.7"/>
<path d="M59.0065 54.1234C58.2085 54.9535 57.5701 56.7796 57.4704 58.5019L57.3706 60.1205H56.6325C54.9368 60.1205 52.8422 61.3655 52.8422 62.3823C52.8422 63.0048 53.3808 63.6481 53.8995 63.6481C54.079 63.6481 54.6376 63.4199 55.1563 63.1294C56.832 62.1956 59.1461 62.5068 60.5026 63.8141C61.3804 64.6857 62.0188 66.2627 62.0188 67.6116C62.0188 68.8151 62.1584 69.0849 62.9564 69.3339C63.2955 69.4376 63.5349 69.3339 63.9339 68.9396C64.4326 68.4208 64.4526 68.2963 64.3728 66.989C64.1932 64.5612 62.8367 62.2163 60.9216 61.0335C60.3032 60.66 60.0438 60.3487 59.9441 59.8922C59.7047 58.5849 59.8244 57.6719 60.4228 56.489C61.1211 55.1195 61.161 54.5177 60.6622 54.0404C60.1635 53.5632 59.5052 53.6047 59.0065 54.1234Z" fill="#25282B" stroke="#25282B" stroke-width="0.7"/>
<path d="M69.0021 75.8912C68.6031 76.3269 68.0645 77.1777 67.8052 77.738C67.2466 79.0246 66.6481 79.3151 64.6133 79.3151C63.3765 79.3151 62.9176 79.2113 62 78.734C61.3815 78.4228 60.7033 78.1738 60.4639 78.1738C59.8853 78.1738 59.4265 78.7133 59.4265 79.4396C59.4265 80.7884 62.6184 82.0749 65.3913 81.8467L66.9474 81.7222L67.067 82.8635C67.2067 84.233 68.2839 86.5779 69.042 87.1797C69.7402 87.6984 70.5981 87.4494 70.8773 86.6402C71.0369 86.1836 70.9771 85.9346 70.5183 85.2498C69.7203 84.067 69.4211 83.0295 69.4211 81.4939C69.4011 80.0206 69.8998 78.5888 70.8574 77.4267C71.4958 76.6382 71.5357 76.0364 70.997 75.4761C70.3986 74.8536 69.82 74.9574 69.0021 75.8912Z" fill="#25282B" stroke="#25282B" stroke-width="0.7"/>
</svg>
