<svg width="100" height="100" viewBox="0 0 100 100" fill="none" xmlns="http://www.w3.org/2000/svg">
<path d="M55.9273 0.341293C54.1478 1.4562 53.874 2.27531 53.874 6.48464C53.874 9.73833 53.874 9.80659 54.3824 10.3982C54.7735 10.8532 54.9886 10.9443 55.4971 10.8305C56.6117 10.5574 56.7095 10.3072 56.8073 6.75768L56.905 3.52673L59.2321 3.45847C60.7574 3.41297 61.6373 3.48122 61.8133 3.66325C62.0284 3.86803 62.0871 4.96018 62.0871 9.19226C62.0871 15.0398 62.224 16.132 63.3191 18.521C64.1208 20.3185 66.3305 22.8896 67.8754 23.8453C70.9455 25.711 74.9347 25.711 78.0049 23.8453C79.5888 22.8669 81.8181 20.2958 82.5612 18.5438C83.7345 15.8362 83.8518 15.1536 83.9691 9.10125L84.0865 3.52673L86.4135 3.45847C87.8997 3.41297 88.8188 3.48122 88.9557 3.6405C89.0926 3.79977 89.2099 6.68942 89.2685 12.2412L89.3663 20.5916L89.8943 21.8885C90.9112 24.4141 93.1209 26.4164 95.2915 26.7349C97.2861 27.0307 97.0905 26.5984 97.0905 30.8077V34.5165L85.0447 41.2514L72.9988 47.9863L63.2017 42.5256C57.8046 39.4994 52.3487 36.4733 51.0972 35.7679L48.7897 34.5165V30.9443C48.7897 28.3504 48.8484 27.3038 49.0439 27.1217C49.1613 27.008 49.7283 26.8487 50.2563 26.8032C51.8403 26.6439 53.5416 25.5973 54.7344 24.0956C56.1619 22.3208 56.6313 20.8191 56.7681 17.8157C56.8464 15.5631 56.8464 15.4949 56.3575 14.926C55.7122 14.1752 54.8713 14.1524 54.3238 14.835C53.9913 15.2673 53.8936 15.7452 53.8349 17.5199C53.7371 19.8862 53.3851 21.0011 52.3683 22.116C51.723 22.8441 50.5692 23.4357 49.8652 23.4357C48.0466 23.4357 46.4627 24.7099 46.0716 26.5074C45.9151 27.19 45.8565 33.2196 45.8565 45.802V64.0728L42.1606 66.6439L38.4647 69.1923L37.2718 68.7144C36.1963 68.3049 35.6096 68.2594 31.0924 68.2594H26.1059V53.4926V38.7031L31.4444 38.6348L36.7634 38.5666L37.8389 37.9295C39.3251 37.0421 40.6353 35.4721 41.2806 33.8111C41.7499 32.6507 41.8281 32.1047 41.8477 30.4892C41.8477 28.76 41.789 28.3959 41.2219 27.0535C39.99 24.1638 37.878 22.5711 35.0034 22.3663L33.3804 22.2298L33.3022 20.4551C33.1848 18.1342 32.4613 16.405 31.112 15.2218C30.0365 14.2662 29.0392 13.8794 27.3379 13.6974L26.1059 13.5836V11.4903C26.1059 9.69283 26.0473 9.28327 25.6757 8.64619C24.7175 7.03072 24.4829 6.9397 20.9238 6.9397C17.3648 6.9397 17.1302 7.03072 16.172 8.64619C15.8004 9.28327 15.7418 9.69283 15.7418 11.4903V13.5836L14.236 13.7429C10.7357 14.0842 8.74108 16.4505 8.54553 20.4096L8.44776 22.2981H7.2549C5.04519 22.2981 4.00877 22.9579 4.00877 24.3686C4.00877 24.6871 4.18477 25.1422 4.38032 25.347C4.73231 25.711 5.78828 25.7565 20.0243 25.711C30.6036 25.711 35.551 25.7793 36.0985 25.9386C37.1936 26.2799 38.4647 27.8043 38.7971 29.1695C39.3446 31.3993 38.4647 33.6974 36.6656 34.744L35.8052 35.2673H20.9825C4.77142 35.2673 5.37762 35.3129 4.1261 33.9477C3.28524 33.0148 2.83547 31.7179 2.83547 30.0796C2.83547 28.9875 2.75725 28.5779 2.44437 28.2139C1.9555 27.6451 1.05597 27.6223 0.46932 28.1911C0.03911 28.6007 0 28.8055 0 30.5347C0 32.992 0.645315 34.7213 2.1706 36.405C4.04788 38.4755 4.28254 38.5438 10.4228 38.6348L15.7418 38.7031V53.4699V68.2366L10.4033 68.3049C5.10385 68.3732 5.0843 68.3732 3.96966 68.9875C2.58126 69.7383 1.27107 71.2856 0.54754 72.992C0.097775 74.1069 0.019555 74.5848 0 76.3367C0 78.0887 0.07822 78.5666 0.50843 79.6587C1.79906 82.8441 4.3021 84.6189 7.48956 84.6416H8.50642V86.1206C8.50642 88.8282 9.58195 91.058 11.4788 92.2639C12.3001 92.7873 12.8476 92.9465 14.0796 93.0603L15.644 93.1741L15.7418 95.4949C15.8591 98.066 16.0938 98.7031 17.3257 99.5449C17.9124 99.9545 18.3426 100 20.9238 100C23.5051 100 23.9353 99.9545 24.522 99.5449C25.7539 98.7031 26.0081 98.066 26.0668 95.5404L26.145 93.2878L27.3183 94.5392C27.9636 95.2446 29.0001 96.1092 29.6454 96.4733C32.0702 97.9067 30.6036 97.8612 61.0507 97.7929L88.7797 97.7247L89.8161 97.0421C90.9698 96.314 91.5956 95.5404 92.2605 94.1069C92.6711 93.2196 92.6907 92.8555 92.7493 87.2355L92.808 81.2969L94.0791 81.1604C94.7635 81.0694 95.7217 80.8191 96.2106 80.5688C97.423 79.9317 98.7527 78.43 99.3785 76.9283L99.926 75.6542L99.9847 51.3083C100.024 29.4198 100.004 26.8714 99.7305 26.0068C99.2025 24.4141 97.8532 23.4357 96.191 23.4357C94.9395 23.4357 93.5315 22.4346 92.7493 20.9784C92.2996 20.1365 92.2996 20.0455 92.2018 11.6041L92.104 3.07167L91.6151 2.07053C91.2827 1.38794 90.8329 0.887367 90.2658 0.523323C89.4837 0.0455017 89.1512 0 86.6091 0C83.6171 0 83.0305 0.13652 82.1701 1.09215C81.1728 2.1843 81.1532 2.29807 81.0359 8.53242C80.9381 13.9022 80.899 14.562 80.5079 15.6997C79.6084 18.3618 77.5942 20.5916 75.4041 21.3879C71.4931 22.8214 67.5038 20.7736 65.6461 16.3822C65.1181 15.1308 65.1181 15.0853 65.0204 9.10125C64.903 2.25256 64.8248 1.82025 63.3973 0.728096C62.6346 0.13652 62.4782 0.113762 59.5645 0.0455017C57.0615 0 56.4162 0.0455017 55.9273 0.341293ZM23.1727 11.9454V13.6519H20.9238H18.675V11.9454V10.2389H20.9238H23.1727V11.9454ZM28.9805 17.6109C29.88 18.248 30.408 19.4994 30.408 21.0239V22.2981H20.9238H11.4397V21.0239C11.4397 18.9989 12.1241 17.8157 13.5712 17.2696C13.8449 17.1786 17.2866 17.1104 21.2172 17.1331C27.8659 17.1786 28.3939 17.2014 28.9805 17.6109ZM60.7378 44.9374C67.1323 48.5097 72.5295 51.4903 72.7641 51.5586C73.0379 51.6496 77.0271 49.5336 85.0251 45.0739C91.5565 41.4334 96.9341 38.4528 96.9928 38.4528C97.0514 38.4528 97.0905 46.5529 97.0905 56.4278C97.0905 75.6314 97.1101 75.2901 96.1519 76.5415C95.663 77.1786 94.3724 77.8157 93.5315 77.8157H92.808L92.7493 69.5563C92.6907 61.57 92.6711 61.2969 92.2605 60.3868C91.576 58.8851 90.8916 58.0887 89.7183 57.4289C88.7797 56.8828 88.369 56.7918 87.0393 56.7918C84.4385 56.8146 83.578 57.5199 82.2483 60.8191C80.8403 64.2776 78.572 66.3026 75.4432 66.9397C71.6104 67.6906 67.6798 65.2105 65.9394 60.9329C64.4533 57.3151 63.5928 56.7691 59.4472 56.7691C56.2206 56.7918 56.4553 56.7008 52.1336 59.727C50.4128 60.9101 48.9657 61.8885 48.907 61.8885C48.8484 61.8885 48.7897 56.6098 48.7897 50.1706C48.7897 43.7315 48.8679 38.4528 48.9657 38.4528C49.0439 38.4528 54.3433 41.3652 60.7378 44.9374ZM23.1727 53.4699V68.2594H20.9238H18.675V53.4699V38.6803H20.9238H23.1727V53.4699ZM61.872 60.3185C62.3804 60.5233 62.6346 60.9101 63.3582 62.5711C65.3528 67.19 69.0291 70.0796 73.3703 70.4437C76.2058 70.694 79.7062 69.3288 81.8963 67.099C83.0696 65.9158 84.458 63.6633 85.0447 61.9568C85.5922 60.3868 86.0811 60 87.2739 60.1593C88.4472 60.3413 89.1708 60.8419 89.5423 61.752C89.8161 62.4346 89.8552 63.8225 89.8552 73.5836V84.6416H79.7257H69.5962L67.0736 80.4096C65.6852 78.066 64.3555 76.0637 64.1013 75.9272C63.0257 75.3584 61.7938 76.7235 62.2044 77.975C62.3218 78.3163 63.1822 79.8862 64.1013 81.4334C65.0399 82.9807 65.8026 84.3458 65.8026 84.4369C65.8026 84.5506 65.0595 84.6416 64.1599 84.6416H62.5173L58.1174 77.2696C55.6731 73.2196 53.6785 69.7838 53.6393 69.6246C53.5807 69.3743 55.4971 67.8043 55.8491 67.8043C55.9077 67.8043 56.6899 69.033 57.5895 70.5347C59.2321 73.2651 59.5841 73.6291 60.5227 73.4471C61.1485 73.3561 61.7742 72.3094 61.6373 71.6268C61.5591 71.3538 60.816 69.9204 59.9361 68.4869C59.0756 67.0762 58.3717 65.7793 58.3717 65.62C58.3717 65.4835 58.489 65.2332 58.6454 65.0967C59.0952 64.6416 59.545 62.8214 59.545 61.3879V60.0683H60.4054C60.8551 60.0683 61.52 60.182 61.872 60.3185ZM56.3184 62.9124C56.0837 63.4585 54.2064 64.8692 47.8902 69.2833C43.4121 72.4005 39.5206 74.9943 39.2273 75.0398C38.582 75.1536 37.3891 74.4937 37.5065 74.1069C37.5456 73.9477 41.8477 70.8532 47.0493 67.2127L56.5139 60.6143L56.5726 61.4107C56.6117 61.8658 56.5139 62.5256 56.3184 62.9124ZM54.93 77.9295C57.0419 81.4334 58.7628 84.3686 58.7628 84.4596C58.7628 84.5734 58.0392 84.6416 57.1397 84.6416H55.5166L52.0358 78.8168C49.5524 74.653 48.6137 72.9238 48.7702 72.7418C49.1808 72.2639 50.843 71.24 50.9799 71.3993C51.0581 71.4903 52.8376 74.4255 54.93 77.9295ZM34.6123 71.8771C34.495 71.9681 32.9893 73.0375 31.2684 74.2435C28.8045 75.9499 27.8463 76.7691 26.9272 77.9067C25.6562 79.4994 24.7371 81.4562 24.346 83.4812C24.1113 84.6871 24.17 88.0319 24.4633 89.124L24.5806 89.6473H18.9097H13.2387L12.613 89.0557C11.7526 88.2139 11.4397 87.3493 11.4397 85.8931V84.6416H15.644C20.083 84.6416 20.6305 84.5279 21.0021 83.5722C21.2954 82.7986 21.2758 82.5028 20.8456 81.8885L20.4741 81.3424L13.1605 81.2287L5.8665 81.1149L4.98652 80.5461C2.60081 78.9761 2.13149 75.2218 4.06744 73.1058C5.41673 71.6041 4.41943 71.6951 20.3372 71.6724C28.3352 71.6724 34.7101 71.7634 34.6123 71.8771ZM48.8679 79.4994C50.4323 82.116 51.723 84.3458 51.723 84.4596C51.723 84.5506 50.9799 84.6416 50.0803 84.6416H48.4377L45.9542 80.5233C44.6049 78.2708 43.5099 76.3823 43.549 76.3367C43.7054 76.1547 45.9347 74.653 45.9738 74.6985C45.9933 74.7213 47.3035 76.8828 48.8679 79.4994ZM36.7243 77.8385C37.6825 78.4073 39.2664 78.6348 40.2246 78.3163L40.9286 78.0887L42.8059 81.2287C43.8423 82.9579 44.6832 84.4369 44.6832 84.5051C44.6832 84.5734 40.7722 84.6416 35.9812 84.6416H27.2792V84.1183C27.2792 83.2765 28.3547 80.9784 29.1761 80.0455C29.5867 79.5904 31.0142 78.43 32.3244 77.4972L34.7492 75.7907L35.3554 76.587C35.6683 77.0193 36.2941 77.5882 36.7243 77.8385ZM89.8161 90.3299L89.7574 92.6052L89.0143 93.4471L88.2908 94.3117H60.3663H32.4613L31.3467 93.6974C29.5867 92.7418 27.9245 90.5802 27.3965 88.5552L27.2597 88.0546H58.5672H89.8943L89.8161 90.3299ZM23.1727 94.8805V96.7008H20.9238H18.675V94.8805V93.0603H20.9238H23.1727V94.8805Z" fill="#25282B"/>
<path d="M69.766 30.3062C68.6514 30.9433 68.8274 32.9 70.0593 33.3324L70.6851 33.5371V36.4495C70.6851 38.9296 70.646 39.3619 70.3918 39.3619C69.9029 39.3619 69.1207 40.4313 69.1207 41.0684C69.1207 41.387 69.3358 41.9103 69.6096 42.2061C70.0593 42.7521 70.2158 42.7749 72.2495 42.7749C74.2832 42.7749 74.4397 42.7521 74.8894 42.2061C75.1632 41.9103 75.3783 41.387 75.3783 41.0684C75.3783 40.3631 74.5765 39.3619 74.0094 39.3619C73.6379 39.3619 73.6183 39.2482 73.6183 35.5394C73.6183 31.3756 73.5401 31.0343 72.445 30.3744C71.7997 29.9876 70.3918 29.9421 69.766 30.3062Z" fill="#25282B"/>
</svg>
