<svg width="100" height="100" viewBox="0 0 100 100" fill="none" xmlns="http://www.w3.org/2000/svg">
<g clip-path="url(#clip0_2973_162510)">
<path d="M1.03985e-05 88.6725C0.457418 87.8762 1.14631 87.6466 2.04723 87.6725C3.92779 87.7262 5.81112 87.6892 7.82131 87.6892C7.82131 87.2096 7.82131 86.8003 7.82131 86.3901C7.82131 69.1707 7.81945 51.9521 7.82316 34.7327C7.82408 31.6271 9.48797 29.2447 12.2546 28.4596C12.9639 28.2586 13.7287 28.1771 14.4685 28.1744C20.3602 28.1521 26.2519 28.1596 32.1435 28.1679C32.5287 28.1688 32.9352 28.1901 33.2926 28.3142C34.0009 28.5596 34.288 29.1253 34.1935 29.8559C34.1037 30.5531 33.675 30.9633 32.9861 31.0642C32.6667 31.1114 32.3361 31.0901 32.0111 31.0901C26.25 31.091 20.488 31.0892 14.7269 31.092C11.9324 31.0929 10.7509 32.2781 10.7509 35.0753C10.75 52.229 10.7509 69.3836 10.7509 86.5373C10.7509 86.8864 10.7509 87.2355 10.7509 87.6364C12.4583 87.6364 14.0685 87.6364 15.5519 87.6364C15.6982 86.1364 15.6935 84.6614 16.0037 83.2568C17.4232 76.8346 23.5824 72.7253 30.0833 73.7457C30.3908 73.7938 30.8982 73.6679 31.0491 73.4447C33.7574 69.441 37.4259 68.1096 42.0685 69.3846C42.1259 69.4003 42.1945 69.3762 42.2574 69.3707C43.5482 64.8984 46.1769 62.6299 50.0454 62.6503C53.8769 62.6707 56.4769 64.941 57.675 69.1484C59.3722 69.117 61.0352 68.8873 62.6398 69.1003C65.2907 69.4521 67.3176 70.966 68.7537 73.217C69.0565 73.691 69.3259 73.8762 69.9148 73.7799C77.9361 72.4679 84.9917 79.0281 84.2907 87.1216C84.2778 87.2762 84.2889 87.4327 84.2889 87.6383C85.9306 87.6383 87.5398 87.6383 89.2482 87.6383C89.2482 87.2383 89.2482 86.8892 89.2482 86.5401C89.2482 69.3531 89.2482 52.167 89.2472 34.9799C89.2472 32.3244 88.0232 31.0947 85.3695 31.0929C79.5759 31.0892 73.7815 31.092 67.988 31.091C67.663 31.091 67.3324 31.1123 67.013 31.0651C66.3241 30.9633 65.8954 30.5531 65.8046 29.8568C65.7102 29.1262 65.9935 28.5549 66.7056 28.316C67.0945 28.1855 67.5352 28.1688 67.9528 28.1679C73.7463 28.1586 79.5407 28.1577 85.3343 28.1633C89.6556 28.167 92.1769 30.6984 92.1769 35.0262C92.1778 52.1475 92.1778 69.2688 92.1778 86.391C92.1778 86.7781 92.1778 87.1651 92.1778 87.6901C94.1398 87.6901 96.0472 87.7281 97.9528 87.6734C98.8537 87.6475 99.5417 87.879 99.9991 88.6734C99.9991 90.1707 99.9991 91.6679 99.9991 93.166C99.0843 95.9531 97.1111 96.9114 94.2509 96.9068C64.7176 96.8586 35.1843 96.8771 5.65094 96.8771C2.3852 96.8771 1.27223 96.1466 -0.000915527 93.166C1.03985e-05 91.667 1.03985e-05 90.1697 1.03985e-05 88.6725ZM81.2611 87.6883C81.3185 87.0771 81.4157 86.5336 81.4148 85.991C81.3991 79.7262 75.4111 75.204 69.3732 76.8855C67.7769 77.3299 67.4417 77.1697 66.7519 75.6309C65.0593 71.8531 60.5732 70.6725 57.1685 73.1318C56.5074 73.6096 55.8593 73.9059 55.1222 73.3929C54.4324 72.9123 54.4352 72.2429 54.6213 71.4744C55.1065 69.467 54.3546 67.5336 52.7269 66.4151C51.1028 65.2984 48.9333 65.2892 47.3111 66.3929C45.6565 67.5188 44.8833 69.4429 45.3667 71.429C45.5611 72.2299 45.5806 72.9299 44.8333 73.4207C44.0787 73.916 43.4417 73.5716 42.7889 73.1021C39.4019 70.6623 34.9009 71.8846 33.2269 75.6781C32.5778 77.1484 32.2074 77.3031 30.6695 76.9049C26.8111 75.9077 23.4954 76.8892 20.8778 79.8707C18.938 82.0808 18.237 84.7086 18.7676 87.6947C19.8667 87.6947 20.875 87.6586 21.8787 87.7058C22.7065 87.7447 23.2 88.2373 23.2482 89.0725C23.2963 89.9216 22.8083 90.4068 22.0185 90.5818C21.7065 90.6512 21.3704 90.617 21.0454 90.617C15.3815 90.6188 9.7176 90.6179 4.05371 90.6179C3.70557 90.6179 3.35834 90.6179 3.02686 90.6179C2.70371 92.9151 2.99445 93.9771 5.79538 93.9734C35.3195 93.9281 64.8445 93.9457 94.3695 93.9447C94.7602 93.9447 95.1556 93.9716 95.5398 93.9216C96.3769 93.8133 96.925 93.3244 97.0361 92.4883C97.1157 91.8938 97.0519 91.2799 97.0519 90.6179C96.5565 90.6179 96.1704 90.6179 95.7843 90.6179C73.5185 90.6179 51.2537 90.6179 28.988 90.616C28.5982 90.616 28.1954 90.6484 27.8213 90.567C27.0639 90.4012 26.6074 89.8818 26.6352 89.1096C26.6648 88.3012 27.1389 87.7873 27.9778 87.6994C28.3 87.666 28.6278 87.6883 28.9537 87.6883C45.9787 87.6883 63.0028 87.6883 80.0278 87.6883C80.4111 87.6883 80.7982 87.6883 81.2611 87.6883Z" fill="#25282B"/>
<path d="M57.7343 50.1354C56.7223 51.3224 56.1565 52.4641 56.7908 53.9974C57.2074 55.0067 57.3741 56.1243 57.6102 57.203C57.9065 58.5567 57.3454 59.2919 55.951 59.3002C51.9815 59.3243 48.0121 59.3243 44.0426 59.3002C42.6519 59.2919 42.0926 58.5511 42.3908 57.1983C42.6287 56.1206 42.7926 55.002 43.2111 53.9928C43.8491 52.4558 43.2658 51.3206 42.2797 50.1456C40.5667 51.1095 38.8463 52.077 37.1269 53.0456C35.513 53.9548 33.9065 54.878 32.2843 55.7715C30.8287 56.5733 29.7611 55.9613 29.7352 54.3141C29.7139 52.9483 29.7195 51.5808 29.7352 50.215C29.7537 48.553 30.3621 47.128 31.4361 45.8613C33.5176 43.4048 35.5834 40.9326 37.6065 38.428C37.8871 38.0798 38.051 37.4854 37.9954 37.04C36.3926 24.3308 39.7676 13.2317 48.6454 3.89742C49.6454 2.84556 50.3565 2.85112 51.363 3.89927C59.2176 12.078 62.788 21.8724 62.3454 33.1622C62.2936 34.4909 62.051 35.8122 61.988 37.1409C61.9676 37.5706 62.1232 38.1067 62.3908 38.4372C64.3787 40.8872 66.388 43.3215 68.4463 45.7122C69.7232 47.1946 70.3334 48.8622 70.276 50.8076C70.2408 52.0104 70.2945 53.2159 70.2621 54.4187C70.2204 55.9456 69.1361 56.565 67.7973 55.8169C64.45 53.9446 61.1186 52.0483 57.7343 50.1354ZM50.0676 18.5696C47.8889 18.5696 45.7093 18.59 43.5315 18.5567C42.9473 18.5474 42.6852 18.728 42.4954 19.2928C41.3658 22.64 40.7019 26.0696 40.5547 29.5993C40.2621 36.6243 41.825 43.2002 45.2889 49.328C45.6195 49.9132 45.9898 50.1391 46.6648 50.1261C48.9084 50.0845 51.1528 50.0928 53.3963 50.1224C53.9778 50.1298 54.3482 49.9835 54.6463 49.4465C60.0019 39.7882 60.9074 29.7215 57.4824 19.2382C57.3056 18.6965 57.0417 18.553 56.5074 18.5595C54.3602 18.5854 52.2139 18.5696 50.0676 18.5696ZM55.9889 15.603C54.4148 12.2724 52.4741 9.36871 49.9973 6.71871C47.5148 9.40668 45.55 12.2974 44.0204 15.603C48.038 15.603 51.925 15.603 55.9889 15.603ZM40.9806 47.503C40.2676 45.5187 39.5834 43.6132 38.8648 41.6132C38.6167 41.8863 38.3991 42.1085 38.2 42.3465C36.7815 44.0409 35.425 45.7928 33.9315 47.4178C32.6815 48.7789 32.5204 50.3178 32.7408 52.1539C35.5426 50.5724 38.2676 49.0345 40.9806 47.503ZM59.0176 47.4993C61.7278 49.0261 64.451 50.5604 67.2121 52.1159C67.5667 49.9928 67.3093 48.9539 66.1065 47.503C65.2565 46.478 64.4 45.4595 63.5454 44.4382C62.7639 43.5039 61.9806 42.5706 61.1473 41.5761C60.4176 43.6085 59.7324 45.5122 59.0176 47.4993ZM45.6436 56.3002C48.6037 56.3002 51.4306 56.3002 54.3547 56.3002C54.1121 55.2983 53.9287 54.3817 53.6454 53.4956C53.5797 53.2891 53.1797 53.065 52.9297 53.0604C50.9843 53.0243 49.038 53.0206 47.0935 53.0632C46.8287 53.0687 46.4158 53.3335 46.338 53.5669C46.0556 54.4206 45.8843 55.3104 45.6436 56.3002Z" fill="#25282B"/>
<path d="M49.9852 35.7855C46.5852 35.779 43.8463 33.0457 43.8445 29.6568C43.8417 26.2809 46.5945 23.5012 49.9649 23.4762C53.3621 23.4512 56.1834 26.2809 56.1537 29.6846C56.125 33.0864 53.3889 35.792 49.9852 35.7855ZM50.0389 32.8549C51.8297 32.8373 53.2519 31.3864 53.225 29.604C53.1991 27.8318 51.7139 26.3781 49.9593 26.4059C48.1917 26.4336 46.7537 27.9142 46.775 29.6836C46.7963 31.4744 48.2362 32.8725 50.0389 32.8549Z" fill="#25282B"/>
</g>
<defs>
<clipPath id="clip0_2973_162510">
<rect width="100" height="100" fill="white"/>
</clipPath>
</defs>
</svg>
