<svg width="100" height="100" viewBox="0 0 100 100" fill="none" xmlns="http://www.w3.org/2000/svg">
<path d="M11.5972 41.0072C11.5972 41.5294 11.5972 41.8887 11.5972 42.248C11.5972 49.298 11.5879 56.348 11.6194 63.398C11.6213 63.8461 11.8102 64.4489 12.1315 64.7146C14.8981 67.0026 15.7213 70.0804 14.4722 73.4989C14.2731 74.0452 14.2324 74.7276 14.3518 75.298C15.0491 78.6341 15.8167 81.9554 16.5565 85.2822C16.7361 86.0906 16.9018 86.9165 16.2018 87.5748C15.4805 88.2526 14.6667 88.2683 13.8629 87.7341C10.9148 85.772 7.97499 85.7794 5.02776 87.7285C4.30647 88.2054 3.54721 88.2637 2.85184 87.7313C2.16295 87.2044 2.01943 86.4896 2.2648 85.6396C3.28147 82.1165 4.27961 78.5878 5.24628 75.0507C5.36295 74.6248 5.37961 74.0859 5.22406 73.685C3.98517 70.5044 4.54258 66.647 7.61387 64.6526C7.85369 64.497 8.01573 64.0415 8.01665 63.7248C8.03887 55.8961 8.0435 48.0665 8.00276 40.2378C8.00091 39.885 7.62684 39.3674 7.2935 39.2128C5.61573 38.4322 3.89999 37.7304 2.18517 37.0313C0.987023 36.5433 0.152763 35.7767 0.1398 34.41C0.126837 33.0433 0.945356 32.2619 2.13887 31.7581C17.5611 25.248 32.9824 18.735 48.3963 12.2054C49.4268 11.7693 50.3815 11.7896 51.3981 12.2165C66.8324 18.698 82.2704 25.172 97.7139 31.6313C98.9426 32.1452 99.8463 32.8794 99.8583 34.297C99.8704 35.7165 98.9861 36.4804 97.7565 36.9952C92.2213 39.31 86.7028 41.6656 81.1602 43.9619C80.337 44.3026 80.0037 44.6933 80.0111 45.6396C80.062 51.9841 80.0092 58.3294 80.0509 64.6739C80.0676 67.2369 79.0704 69.1146 76.9102 70.5304C60.3713 81.3683 38.9741 81.3035 22.55 70.335C20.6324 69.0544 19.7092 67.298 19.7148 64.9961C19.7305 58.4656 19.7046 51.935 19.7407 45.4044C19.7454 44.6415 19.4991 44.3026 18.8148 44.0285C16.4528 43.0813 14.1157 42.0674 11.5972 41.0072ZM76.4759 46.0128C75.9833 46.2007 75.6083 46.3322 75.2435 46.4859C67.3583 49.8091 59.4694 53.123 51.5963 56.473C50.4222 56.972 49.3639 56.9841 48.1805 56.4785C40.3463 53.1294 32.4935 49.8248 24.6463 46.5081C24.2296 46.3322 23.8018 46.1804 23.2861 45.9822C23.2861 52.5507 23.2833 58.9322 23.2889 65.3137C23.2898 66.3582 23.9102 67.01 24.7472 67.5193C41.4685 77.697 58.1935 77.7193 74.9352 67.5609C76.0333 66.8952 76.5037 66.0165 76.4926 64.7239C76.4509 59.7887 76.4759 54.8526 76.4759 49.9165C76.4759 48.6628 76.4759 47.4091 76.4759 46.0128ZM5.1861 34.3563C5.51943 34.535 5.61202 34.5943 5.71295 34.6369C20.2129 40.7711 34.7111 46.9091 49.225 53.01C49.6555 53.1906 50.3111 53.1128 50.7639 52.923C63.1648 47.722 75.5528 42.4924 87.9417 37.2646C90.1842 36.3183 92.4222 35.3609 94.8167 34.3433C94.4528 34.1609 94.2704 34.0563 94.0778 33.9757C79.5935 27.9026 65.1102 21.8257 50.612 15.7841C50.1768 15.6026 49.5222 15.647 49.075 15.835C36.7796 20.9989 24.4981 26.1952 12.2148 31.3869C9.9398 32.348 7.66573 33.3091 5.1861 34.3563ZM6.75832 82.8683C8.7185 82.8683 10.5018 82.8683 12.3537 82.8683C11.9231 80.9581 11.4805 78.9915 11.0426 77.0498C10.1194 77.0498 9.32036 77.0498 8.4148 77.0498C7.88147 78.9248 7.32776 80.8683 6.75832 82.8683ZM11.6704 70.5878C11.2796 69.673 11.0083 68.7961 10.5472 68.0322C10.1741 67.4137 9.58054 67.4739 9.05925 68.0035C7.93887 69.1424 7.93239 71.9804 9.04813 73.1359C9.5611 73.6674 10.1518 73.7498 10.5342 73.1257C10.9991 72.3656 11.2768 71.4906 11.6704 70.5878Z" fill="#25282B"/>
<path d="M73.8417 59.3962C74.5907 63.6369 72.4815 66.0739 68.7481 67.5026C67.9194 67.8193 67.1259 68.2276 66.2926 68.5295C65.362 68.8665 64.4398 68.4656 64.0537 67.6313C63.6426 66.7434 63.9722 65.7684 64.9241 65.2943C66.2472 64.6351 67.5954 64.0267 68.9389 63.4091C69.8842 62.9749 70.3287 62.2795 70.2917 61.2147C70.2444 59.8452 70.2685 58.473 70.2842 57.1026C70.2991 55.7952 70.9787 54.9971 72.0509 54.986C73.1361 54.9739 73.8213 55.761 73.8398 57.0619C73.8509 57.8397 73.8417 58.6175 73.8417 59.3962Z" fill="#25282B"/>
<path d="M49.8889 21.5552C50.3778 21.7005 50.8528 21.795 51.2898 21.9783C59.3204 25.3394 67.3435 28.7163 75.375 32.0746C76.2389 32.4357 76.963 32.8922 77.1611 33.8802C77.4 35.0737 76.8593 35.9959 75.5287 36.5626C71.1315 38.4348 66.7278 40.2885 62.3241 42.1459C58.7065 43.6718 55.0759 45.17 51.4722 46.7283C50.4056 47.1894 49.4519 47.1718 48.3815 46.7144C40.512 43.3533 32.6278 40.0255 24.7389 36.7098C23.6769 36.2635 22.8213 35.7181 22.8019 34.4274C22.7815 33.0783 23.6639 32.5135 24.7657 32.0505C32.6889 28.7218 40.6019 25.3654 48.5204 22.0246C48.9565 21.8394 49.4195 21.7144 49.8889 21.5552ZM28.4639 34.3598C28.8685 34.5626 29.0241 34.6524 29.1889 34.7218C35.9028 37.5617 42.613 40.4107 49.3426 43.2117C49.7435 43.3783 50.3537 43.2941 50.7796 43.1172C57.3713 40.3681 63.9482 37.5848 70.5269 34.8052C70.8009 34.6894 71.0565 34.5283 71.4704 34.308C64.3426 31.3154 57.4222 28.3987 50.4833 25.5265C50.113 25.3728 49.5472 25.483 49.1454 25.6487C45.7583 27.045 42.3898 28.483 39.0148 29.908C35.5796 31.358 32.1435 32.808 28.4639 34.3598Z" fill="#25282B"/>
</svg>
