<svg width="100" height="100" viewBox="0 0 100 100" fill="none" xmlns="http://www.w3.org/2000/svg">
<path d="M15.8639 99.3342C14.012 98.9268 12.325 98.2231 11.0565 96.7305C8.88795 94.1786 8.57221 90.8953 10.225 87.9564C10.3018 87.8194 10.3759 87.6805 10.4963 87.462C6.68888 86.8277 4.32962 84.7842 4.09813 80.8388C3.93795 78.1073 5.64999 75.562 8.14721 74.5092C10.6139 73.4684 12.8 73.9434 15.0231 76.186C15.3944 75.7092 15.7222 75.1888 16.1444 74.762C18.7407 72.136 21.3759 69.5481 23.95 66.8999C24.337 66.5027 24.6222 65.8823 24.7009 65.3296C25.3842 60.5666 25.9491 55.786 26.6657 51.0277C27.6185 44.7092 33.1176 39.9981 39.5241 39.8888C41.5667 39.8546 42.9768 41.224 43.0509 43.2684C43.1129 44.9638 42.9805 46.712 43.3528 48.3407C44.1417 51.787 47.4148 53.8647 50.9296 53.4277C54.2704 53.012 56.7815 50.1416 56.9046 46.5666C56.9407 45.5083 56.9028 44.4471 56.9157 43.3879C56.9444 41.1731 58.3963 39.8055 60.6046 39.899C67.4796 40.1916 72.6889 45.1796 73.5 52.1397C74.0268 56.6638 74.6694 61.1749 75.2824 65.6888C75.3268 66.0138 75.4824 66.387 75.7102 66.6157C78.7861 69.7157 81.8833 72.7944 84.9768 75.8768C85.0204 75.9194 85.0879 75.937 85.1454 75.9666C87.5213 73.7971 89.8731 73.4008 92.3991 74.7453C94.9426 76.099 96.2898 78.8805 95.8157 81.7944C95.3713 84.5203 93.1759 86.7342 90.4083 87.249C90.1259 87.3018 89.8435 87.3601 89.4852 87.4305C89.6907 87.8268 89.8907 88.1786 90.0602 88.5444C92.1463 93.036 89.5185 98.1897 84.6472 99.1703C84.4611 99.2073 84.2815 99.2768 84.0991 99.3314C61.3555 99.3342 38.6102 99.3342 15.8639 99.3342ZM36.7092 84.1453C45.5963 84.1453 54.3768 84.1453 63.2602 84.1453C62.8324 82.4277 62.4185 80.7888 62.0157 79.1471C61.2389 75.9758 60.2074 72.8425 60.6074 69.4962C61.4148 62.7434 62.2148 55.9907 63.0139 49.237C63.2315 47.399 63.4361 45.5601 63.6611 43.599C62.4694 43.3953 61.3592 43.2064 60.1129 42.9934C60.1129 44.212 60.1129 45.2323 60.1129 46.2527C60.112 49.6805 58.7713 52.4462 56.0963 54.6064C51.5509 58.2777 44.2546 56.899 41.3491 51.837C40.2917 49.9944 39.8185 48.0508 39.8472 45.9536C39.8602 45.0046 39.8491 44.0564 39.8491 42.9583C38.5379 43.2073 37.4259 43.4194 36.3 43.6333C36.4407 44.8518 36.5602 45.9018 36.6842 46.9509C37.4259 53.2268 38.0898 59.5129 38.938 65.774C39.4879 69.8333 39.5879 73.8018 38.3092 77.761C37.6472 79.8212 37.2472 81.9657 36.7092 84.1453ZM46.5204 96.1231C46.9454 96.1231 47.2917 96.1231 47.6379 96.1231C59.2583 96.1231 70.8796 96.124 82.5 96.1212C82.9166 96.1212 83.3352 96.1101 83.75 96.0694C85.7805 95.8721 87.4389 94.1536 87.5685 92.1249C87.7416 89.4249 85.7852 87.3999 82.9268 87.3971C71.0166 87.3851 59.1074 87.3916 47.1972 87.3944C46.9824 87.3944 46.7676 87.4351 46.5194 87.4601C46.5204 90.3268 46.5204 93.1416 46.5204 96.1231ZM66.6713 45.4971C66.4268 47.5768 66.1676 49.5036 65.9842 51.4379C65.8491 52.8647 65.562 54.3397 65.7815 55.724C66.3583 59.3638 67.1926 62.962 67.887 66.5842C68.2666 68.5666 69.1129 70.2796 70.5454 71.7083C74.5481 75.6999 78.5398 79.7027 82.5453 83.6907C82.7602 83.9045 83.0648 84.1703 83.3287 84.1721C85.5111 84.186 87.7018 84.2471 89.8741 84.0842C91.5148 83.962 92.7287 82.312 92.7278 80.5934C92.7268 78.9157 91.5204 77.4888 89.8676 77.211C88.6074 76.999 87.6416 77.5879 87.4324 78.7907C87.2963 79.5712 87.0768 80.2221 86.2463 80.4833C85.3592 80.762 84.7916 80.2499 84.2305 79.6879C80.5546 76.0055 76.8518 72.349 73.2176 68.6268C72.7018 68.0981 72.3055 67.2851 72.1981 66.5527C71.487 61.6962 70.8916 56.8221 70.2139 51.9601C69.8648 49.4407 68.7991 47.2758 66.6713 45.4971ZM33.3037 45.4703C31.487 47.0379 30.3046 48.7953 29.9741 50.9471C29.1852 56.0796 28.5417 61.2351 27.7944 66.374C27.6972 67.0407 27.5139 67.8397 27.075 68.2897C23.2407 72.2166 19.3565 76.0953 15.4324 79.9333C15.0491 80.3083 14.2833 80.4851 13.7213 80.4379C12.9805 80.3768 12.6879 79.7129 12.5676 78.9786C12.3278 77.5147 11.3491 76.9138 9.92036 77.2944C9.73517 77.3434 9.54906 77.3971 9.37313 77.4731C7.93888 78.0934 7.06665 79.6342 7.29536 81.1342C7.54628 82.7823 8.71387 84.0333 10.3361 84.1221C12.3842 84.2342 14.4426 84.2046 16.4954 84.1749C16.8204 84.1703 17.2009 83.9008 17.4528 83.6508C21.4379 79.6925 25.4018 75.712 29.3815 71.7471C30.8389 70.2953 31.712 68.5657 32.0842 66.5453C32.4731 64.4342 32.9379 62.336 33.3537 60.2296C33.7074 58.4379 34.3602 56.6323 34.3074 54.8499C34.2167 51.7916 33.6787 48.7453 33.3037 45.4703ZM27.8741 87.4157C23.9879 87.4157 20.2 87.3351 16.4167 87.4453C14.0778 87.5129 12.375 89.4916 12.3815 91.7842C12.3889 94.3036 14.2722 96.1064 17.025 96.1138C25.5 96.136 33.9741 96.1231 42.4491 96.1184C42.7092 96.1184 42.9685 96.0592 43.2287 96.0277C43.2481 95.9212 43.2676 95.8157 43.287 95.7092C42.8722 95.5805 42.4648 95.4231 42.0426 95.3286C38.7583 94.5962 35.4694 93.8823 32.1842 93.1499C29.5713 92.5675 28.1509 90.9258 27.9389 88.2694C27.9194 88.0184 27.9009 87.7666 27.8741 87.4157ZM35.5592 65.7981C35.5648 65.787 35.5083 65.8657 35.4861 65.9536C35.4231 66.2018 35.3611 66.4508 35.3213 66.7027C34.8305 69.7508 33.4379 72.2962 31.2176 74.4518C28.2259 77.3546 25.3111 80.337 22.3657 83.287C22.1296 83.524 21.9129 83.7796 21.6759 84.0388C21.8 84.1166 21.8509 84.1749 21.9009 84.1749C25.5565 84.186 29.212 84.2064 32.8676 84.1703C33.1055 84.1675 33.4741 83.7601 33.5528 83.4777C33.9926 81.9064 34.3018 80.2971 34.7667 78.7333C36.0389 74.4527 36.8222 70.1518 35.5592 65.7981ZM64.4278 65.7055C64.387 65.711 64.3472 65.7166 64.3065 65.7221C64.2463 66.1546 64.1824 66.587 64.1259 67.0203C63.7796 69.6981 63.4944 72.3573 64.2583 75.037C65.0315 77.7481 65.6842 80.4962 66.3241 83.2434C66.4926 83.9684 66.7583 84.2314 67.5241 84.2221C70.7991 84.1796 74.0759 84.2055 77.3509 84.2008C77.6481 84.2008 77.9454 84.1592 78.3944 84.1258C78.0315 83.7434 77.8009 83.4888 77.5574 83.2453C74.5166 80.2008 71.4805 77.1508 68.4296 74.1166C66.6565 72.3527 65.4315 70.2897 64.8842 67.8397C64.7278 67.1296 64.5805 66.4175 64.4278 65.7055ZM43.2083 87.4675C39.1287 87.4675 35.137 87.4675 31.1509 87.4675C31.0704 89.1138 31.5268 89.7286 33.0222 90.0647C34.1167 90.311 35.212 90.5564 36.3083 90.7971C38.587 91.2981 40.8676 91.7962 43.2092 92.3092C43.2083 90.6508 43.2083 89.0879 43.2083 87.4675Z" fill="#25282B"/>
<path d="M61.7731 25.8739C62.1028 30.2729 60.9407 34.0479 57.5491 36.9007C55.3861 38.7192 52.8592 39.6442 50.0176 39.635C46.3657 39.6229 43.3463 38.2035 40.9639 35.4581C38.5954 32.7276 37.9379 29.4516 38.1907 25.8831C37.5787 25.8831 37.1046 25.8887 36.6305 25.8822C35.4092 25.8655 34.7907 25.2702 34.7509 24.0581C34.5629 18.3729 36.5157 13.647 41.2389 10.3377C42.6111 9.37664 43.3694 8.60719 43.4379 6.71182C43.5685 3.10534 46.7129 0.548859 50.1491 0.670156C53.6972 0.795156 56.6518 3.51553 56.5981 7.13034C56.5731 8.77849 57.2537 9.29793 58.3852 10.0692C63.4129 13.4961 65.4861 18.4063 65.2065 24.3933C65.1574 25.435 64.4685 26.0257 63.4259 25.9896C62.9194 25.9711 62.4157 25.9202 61.7731 25.8739ZM41.1379 25.6081C41.3861 27.3081 41.3879 29.0859 41.9305 30.6803C43.1574 34.2905 45.8963 36.234 49.6722 36.4072C52.9944 36.559 55.5944 35.072 57.375 32.2183C58.7842 29.96 58.6528 27.4442 58.6028 24.9461C58.5981 24.734 58.3092 24.4961 58.1065 24.3239C57.1815 23.5368 56.1898 22.8202 55.3241 21.9748C54.8111 21.4729 54.4583 21.5211 53.8389 21.7637C51.4296 22.7072 49.0065 23.6322 46.5379 24.4035C44.8676 24.9239 43.1139 25.1776 41.1379 25.6081ZM62.0055 22.5507C61.8102 18.1155 59.9444 14.7229 56.2657 12.4952C51.9481 9.88034 47.5111 9.98127 43.2981 12.7507C39.8398 15.0239 38.1028 18.3507 37.9685 22.6637C39.7546 22.4137 41.4055 22.2415 43.0342 21.9442C46.8722 21.2433 50.5324 20.0183 53.9574 18.1165C55.1537 17.4526 55.7583 17.6239 56.6259 18.6711C57.0546 19.1887 57.4954 19.7035 57.9805 20.1683C59.0963 21.2377 60.3305 22.1257 62.0055 22.5507ZM46.5204 7.64053C48.8852 7.64053 51.137 7.64053 53.4435 7.64053C53.5907 6.31367 53.0518 5.2109 51.8917 4.45256C50.687 3.6646 49.3898 3.64608 48.1657 4.39608C46.9491 5.14053 46.3778 6.26182 46.5204 7.64053Z" fill="#25282B"/>
</svg>
