<svg width="100" height="100" viewBox="0 0 100 100" fill="none" xmlns="http://www.w3.org/2000/svg">
<g clip-path="url(#clip0_2973_162455)">
<path d="M47.8518 99.9998C45.8963 99.5507 43.8926 99.2479 41.9926 98.6294C31.0324 95.0618 23.8518 83.885 25.1555 72.4294C26.1509 63.6859 30.6074 57.2137 38.2657 52.9377C38.8565 52.6081 39.0815 52.2831 39.0787 51.6035C39.0518 44.8683 39.063 38.1331 39.063 31.3572C38.8148 31.2627 38.575 31.1896 38.3509 31.0822C37.6259 30.734 37.4157 30.109 37.5361 29.3748C37.6546 28.6507 38.1268 28.2257 38.8574 28.1479C39.2759 28.1035 39.7028 28.1266 40.1259 28.1266C46.9602 28.1257 53.7944 28.122 60.6287 28.1294C62.0824 28.1313 62.9222 29.1461 62.3454 30.2905C62.1009 30.7757 61.513 31.0887 60.938 31.6081C60.938 37.5572 61.0093 43.7405 60.8935 49.9202C60.8593 51.7229 61.3222 52.7192 62.962 53.6942C71.913 59.0202 76.4556 69.359 74.5722 79.6174C72.7472 89.5563 64.7537 97.5887 54.7268 99.5498C53.8713 99.7174 53.0083 99.8507 52.1491 99.9998C50.7157 99.9998 49.2843 99.9998 47.8518 99.9998ZM42.187 31.2924C42.187 31.7313 42.187 32.085 42.187 32.4396C42.187 39.2424 42.1593 46.0452 42.212 52.847C42.2222 54.1164 41.738 54.7581 40.6296 55.309C33.0778 59.0637 28.8102 65.1961 28.1917 73.585C27.1546 87.685 39.9009 98.9952 53.8278 96.5164C63.0898 94.8683 70.5139 87.1896 71.662 78.0702C72.8926 68.297 67.9722 59.2313 59.2 55.2285C58.138 54.7442 57.788 54.0998 57.7944 52.9776C57.8315 46.11 57.813 39.2424 57.813 32.3748C57.813 32.0276 57.813 31.6794 57.813 31.2914C52.5769 31.2924 47.4472 31.2924 42.187 31.2924Z" fill="#25282B"/>
<path d="M54.5411 4.00015C55.2174 3.99985 55.891 4.11906 56.526 4.35159C56.8771 4.48016 57.2239 4.61792 57.5516 4.79464C60.328 6.2929 61.7295 9.60125 61.2324 13.2325C60.764 16.6509 59.1454 19.3617 56.6948 21.5778C54.9743 23.1339 53.0411 24.3345 50.9118 25.1545C50.4494 25.3326 49.8257 25.4101 49.3867 25.2336C46.1501 23.9293 43.2538 22.0685 41.1184 19.1282C39.1151 16.3691 38.2198 13.2484 38.8783 9.80941C39.4493 6.82873 41.1961 4.88962 44.0646 4.15355C44.4605 4.05094 44.8753 3.9999 45.2843 4.00056C45.3347 4.00064 45.3845 4.00073 45.4344 4.00081C45.9255 4.00165 46.4119 4.09702 46.8666 4.28253C47.9384 4.71978 49.0016 5.15337 50.0188 5.5687C50.7357 5.23039 51.4867 4.87568 52.2489 4.5157C52.9658 4.1771 53.7483 4.00051 54.5411 4.00015ZM58.6332 11.8213C58.6724 9.52369 57.6466 7.68352 55.9329 6.96328C54.3935 6.31664 52.3449 6.67439 51.0461 8.46391C50.4381 9.30129 49.4689 9.21106 48.7712 8.45045C48.3375 7.97715 47.8804 7.47298 47.3381 7.17302C44.843 5.79031 41.9278 7.35268 41.2655 10.4529C40.7111 13.0497 41.5258 15.3466 42.9913 17.3965C44.671 19.7464 46.9316 21.3158 49.5134 22.3867C49.7472 22.4841 50.1123 22.4817 50.322 22.3543C51.8494 21.4267 53.4642 20.6019 54.8393 19.4638C57.1533 17.5484 58.5714 15.0252 58.6332 11.8213Z" fill="#25282B"/>
<path d="M31.1648 74.9426C31.3111 73.6852 31.3806 72.4121 31.6204 71.1722C32.1926 68.2167 34.55 66.5658 37.4435 67.3639C39.4843 67.9269 41.438 68.8815 43.3444 69.8324C45.3185 70.8167 47.2056 71.9815 49.0991 73.1204C49.7315 73.501 50.2213 73.5315 50.8741 73.1491C53.3694 71.688 55.8528 70.1908 58.437 68.9019C59.9556 68.1445 61.6185 67.5028 63.2833 67.2528C65.9657 66.85 67.8972 68.563 68.4528 71.4204C70.263 80.7371 64.5518 90.1852 55.4454 92.9398C43.4185 96.5778 31.2259 87.5139 31.1648 74.9426ZM65.5426 76.2408C65.2481 76.4871 65.0037 76.6852 64.7648 76.8917C62.6009 78.7676 60.1028 79.6815 57.2278 79.4935C54.7731 79.3334 52.5352 78.4306 50.413 77.2935C47.2639 75.6065 44.2065 73.7473 41.0611 72.051C39.7565 71.3473 38.3593 70.7704 36.9435 70.3334C35.7315 69.9593 35.0287 70.4843 34.7518 71.7361C34.5704 72.5584 34.4352 73.4037 34.3991 74.2435C33.9574 84.5917 43.3417 92.4556 53.4574 90.2306C59.9426 88.8065 65.275 82.6769 65.5426 76.2408ZM53.2667 75.4167C58.4787 77.6297 62.2259 76.4991 64.7537 72.1213C65.2954 71.1834 64.8676 70.401 63.7657 70.3723C63.3824 70.3621 62.9806 70.425 62.6148 70.5398C59.263 71.5926 56.4917 73.7315 53.2667 75.4167Z" fill="#25282B"/>
<path d="M45.313 42.1739C45.313 40.6804 45.3009 39.1859 45.3167 37.6924C45.3287 36.5711 45.875 35.9628 46.838 35.9443C47.8407 35.9248 48.4278 36.5535 48.4324 37.7184C48.4444 40.7063 48.4454 43.6943 48.4315 46.6813C48.4269 47.8026 47.8722 48.4119 46.9093 48.4313C45.9083 48.4517 45.3269 47.8202 45.3157 46.6554C45.3019 45.161 45.313 43.6674 45.313 42.1739Z" fill="#25282B"/>
<path d="M43.7407 8.15285C44.6306 8.14915 45.2676 8.64267 45.288 9.5473C45.3352 11.6454 46.3555 13.1538 47.9611 14.3751C48.7194 14.9519 48.8935 15.8473 48.4417 16.5029C47.9657 17.1927 47.0611 17.3973 46.2926 16.8686C43.8361 15.1797 42.2861 12.9297 42.1972 9.85563C42.1657 8.7547 42.7454 8.15748 43.7407 8.15285Z" fill="#25282B"/>
<path fill-rule="evenodd" clip-rule="evenodd" d="M64.1023 5.50824C64.7271 4.40833 65.7038 3.58999 66.5485 2.66607C67.2173 1.93573 66.135 0.844613 65.4574 1.57495C64.5247 2.58687 63.46 3.5108 62.7737 4.7251C62.2809 5.59622 63.6096 6.37057 64.1023 5.50824Z" fill="#25282B"/>
<path fill-rule="evenodd" clip-rule="evenodd" d="M36.3311 9.70872C35.1076 8.60138 33.6257 7.84325 32.1972 7.0445C31.3319 6.55459 30.5732 7.89457 31.4384 8.38448C32.7445 9.11387 34.1245 9.78399 35.2385 10.799C35.9724 11.4673 37.065 10.3771 36.3311 9.70872Z" fill="#25282B"/>
<path fill-rule="evenodd" clip-rule="evenodd" d="M35.4369 25.8753C35.8845 24.8373 36.4684 23.7796 37.4482 23.1543C38.2855 22.6169 37.4012 21.3562 36.5711 21.8886C35.3744 22.6643 34.5919 23.9451 34.0437 25.2242C33.65 26.1393 35.0433 26.7904 35.4369 25.8753Z" fill="#25282B"/>
<path fill-rule="evenodd" clip-rule="evenodd" d="M67.4589 16.2926C66.018 15.859 64.5513 15.5096 63.0433 15.4145C62.0508 15.3489 62.0094 16.8918 62.9934 16.9548C64.3649 17.0448 65.6919 17.3697 67.004 17.7729C67.9597 18.0481 68.412 16.5762 67.4589 16.2926Z" fill="#25282B"/>
<path fill-rule="evenodd" clip-rule="evenodd" d="M54.5347 22.1917C54.9219 22.4205 55.3443 22.2533 55.5907 21.919C55.881 21.5142 56.0746 21.0302 56.1802 20.5375C56.2682 20.1239 56.0658 19.7103 55.6435 19.5872C55.2563 19.4816 54.7811 19.7103 54.6931 20.1239C54.6051 20.5375 54.4995 20.8014 54.2532 21.1358C54.0156 21.479 54.2004 21.9981 54.5347 22.1917Z" fill="#25282B"/>
<path fill-rule="evenodd" clip-rule="evenodd" d="M40.4581 2.61818C41.2852 2.61818 41.2852 1.3335 40.4581 1.3335C39.631 1.3423 39.631 2.61818 40.4581 2.61818Z" fill="#25282B"/>
<path fill-rule="evenodd" clip-rule="evenodd" d="M36.6196 5.18019C37.4467 5.18019 37.4467 3.89551 36.6196 3.89551C35.7924 3.89551 35.7924 5.18019 36.6196 5.18019Z" fill="#25282B"/>
<path fill-rule="evenodd" clip-rule="evenodd" d="M36.6196 17.2847C37.4467 17.2847 37.4467 16 36.6196 16C35.7924 16 35.7924 17.2847 36.6196 17.2847Z" fill="#25282B"/>
<path fill-rule="evenodd" clip-rule="evenodd" d="M35.2862 19.9517C36.1134 19.9517 36.1134 18.667 35.2862 18.667C34.4591 18.6758 34.4591 19.9517 35.2862 19.9517Z" fill="#25282B"/>
<path fill-rule="evenodd" clip-rule="evenodd" d="M63.9761 10.5953C64.0817 10.6217 64.2049 10.6129 64.3193 10.5778C64.2401 10.5514 64.1697 10.5162 64.0993 10.4722C64.0905 10.4722 64.0993 10.4722 64.0817 10.4722H64.0905C64.0729 10.4546 64.0465 10.4546 64.0289 10.437C64.0817 10.4546 64.1081 10.4634 64.1169 10.4722C64.2137 10.4722 64.3193 10.4722 64.4161 10.4722C64.4425 10.4634 64.4689 10.4546 64.4953 10.437C64.5745 10.3578 64.6448 10.2874 64.724 10.2082C64.7328 10.1906 64.7505 10.173 64.7593 10.1466C64.7241 10.3754 64.5305 10.5162 64.3105 10.5778C64.5217 10.6393 64.7593 10.6042 64.9353 10.4282C65.1728 10.1906 65.1992 9.75061 64.9353 9.52183C64.6801 9.30185 64.4161 9.16987 64.0729 9.23146C63.8001 9.28426 63.5537 9.53064 63.5185 9.81222C63.4745 10.1466 63.6065 10.4897 63.9761 10.5953Z" fill="#25282B"/>
<path fill-rule="evenodd" clip-rule="evenodd" d="M64.1308 13.063C64.9579 13.063 64.9579 11.7783 64.1308 11.7783C63.3036 11.7783 63.3036 13.063 64.1308 13.063Z" fill="#25282B"/>
<path fill-rule="evenodd" clip-rule="evenodd" d="M64.1308 20.7476C64.1836 20.7476 64.2451 20.7476 64.2979 20.7476C65.1251 20.7476 65.1251 19.4629 64.2979 19.4629C64.2451 19.4629 64.1836 19.4629 64.1308 19.4629C63.3036 19.4629 63.3036 20.7476 64.1308 20.7476Z" fill="#25282B"/>
</g>
<defs>
<clipPath id="clip0_2973_162455">
<rect width="100" height="100" fill="white"/>
</clipPath>
</defs>
</svg>
