<svg width="100" height="100" viewBox="0 0 100 100" fill="none" xmlns="http://www.w3.org/2000/svg">
<path d="M22.5805 1.49104C22.5805 3.80818 23.2257 6.44772 24.2942 8.68427C25.0805 10.276 25.5241 10.9007 26.895 12.2507C29.516 14.8499 32.0563 15.8976 36.3506 16.1193L38.7095 16.2402V22.2849V28.3296L37.6611 27.302C35.7458 25.4282 33.4071 24.1588 30.3829 23.3931C28.9918 23.0304 28.649 22.8692 28.7498 22.6274C28.8103 22.4663 28.9313 21.9424 28.9716 21.479C29.2942 18.8394 26.895 16.1797 24.1934 16.1797C21.6934 16.1797 19.3547 18.517 19.3547 21.0155C19.3547 22.6476 20.6047 24.6827 21.9757 25.2468C22.3184 25.3879 22.6208 25.6901 22.6813 25.9319C22.7216 26.1535 22.8628 26.8991 23.0039 27.5438C23.5483 30.3446 24.8991 32.843 26.9958 34.9184C29.516 37.4169 32.1369 38.4646 36.3506 38.6863L38.7095 38.8072V43.6027V48.3981L34.899 48.4586C31.4111 48.519 31.0281 48.5593 30.524 48.9422C29.2942 49.8489 29.1329 50.272 29.0724 52.8108C29.0321 54.1608 29.0926 55.4705 29.2135 55.8936C29.4958 56.8205 30.6047 57.8279 31.5522 58.0093L32.2579 58.1302V59.7219V61.3137H27.4192H22.5805V59.7219V58.1302L23.2862 58.0093C24.2337 57.8279 25.3426 56.8205 25.6249 55.8936C25.7458 55.4705 25.8063 54.1608 25.766 52.8108C25.7055 50.272 25.5442 49.8489 24.3144 48.9422C23.77 48.519 23.5483 48.519 14.516 48.519C5.48384 48.519 5.26207 48.519 4.71772 48.9422C3.48788 49.8489 3.32659 50.272 3.26611 52.8108C3.22579 54.1608 3.28627 55.4705 3.40724 55.8936C3.6895 56.8205 4.79836 57.8279 5.74594 58.0093L6.45158 58.1302V59.7219V61.3137H5.32255C4.69756 61.3137 3.81046 61.4145 3.34676 61.5555C2.23789 61.8779 0.564513 63.5503 0.241934 64.6585C0.0604835 65.2831 0 69.7965 0 82.7524V100H1.61289H3.22579V82.7725V65.5249L3.72982 65.0413C4.13304 64.6182 4.4153 64.5376 5.32255 64.5376H6.43142L6.4919 75.9823L6.55238 87.427L7.29835 88.9583C8.2056 90.7919 9.37495 91.9202 11.2499 92.8068C12.4798 93.3911 12.7822 93.4515 14.516 93.4515C16.2499 93.4515 16.5523 93.3911 17.7822 92.8068C19.6572 91.9202 20.8265 90.7919 21.7338 88.9583L22.4797 87.427L22.5402 75.9823L22.6007 64.5376H27.4192H32.2377L32.2982 75.9823L32.3587 87.427L33.1047 88.9583C34.0119 90.7919 35.1813 91.9404 37.0562 92.8068C38.2458 93.3709 38.6288 93.4314 40.1611 93.4515H41.8949L41.9756 95.7082C42.0361 98.1463 42.2175 98.5694 43.4272 99.4761C43.9715 99.8993 44.0522 99.8993 67.7416 99.8993C91.431 99.8993 91.5116 99.8993 92.0559 99.4761C93.1648 98.6702 93.4471 98.0657 93.4471 96.5948C93.4471 95.5672 93.3261 94.9627 92.943 94.1769L92.4592 93.109L93.0237 92.0613C97.439 84.1024 99.1527 79.2867 99.7978 73.0204C100.503 65.9682 99.193 58.4324 96.1487 52.0653C93.9914 47.5116 91.7132 44.4086 87.056 39.6333C84.9189 37.437 83.6689 36.0065 83.6689 35.7445C83.6689 35.1199 82.9229 33.2662 82.3584 32.5005L81.8544 31.8154L85.564 28.0677C87.7616 25.8715 89.4552 23.9774 89.7374 23.4334C90.3826 22.1842 90.4027 19.867 89.7777 18.6782L89.3342 17.8521L90.6043 16.6029L91.8745 15.3335L92.7011 15.7566C93.7495 16.3006 94.8382 16.3006 96.2696 15.7566C98.9712 14.7491 100.766 11.2432 99.6769 9.0671C99.2333 8.18054 92.0156 0.926865 91.0882 0.443283C88.8302 -0.725365 85.3221 1.00746 84.2939 3.78803C83.7495 5.21862 83.7495 6.30667 84.2939 7.35442L84.7173 8.18054L83.4673 9.42979L82.2173 10.6992L81.3705 10.3365C80.2213 9.83276 79.052 9.67158 78.0843 9.89321L77.2576 10.0746L76.8947 9.28874C76.1891 7.73726 74.2939 6.50816 72.5802 6.50816C70.0803 6.50816 67.7416 8.84546 67.7416 11.3439C67.7416 12.6738 68.1851 13.6208 69.3746 14.7894L70.5238 15.9178L64.1327 22.3051L57.7618 28.6722L56.915 27.6849C56.0279 26.6774 55.0803 26.0931 53.9312 25.9118L53.2457 25.7909L54.3545 24.5618C55.6247 23.1715 57.036 20.4513 57.5602 18.3961C57.7416 17.6708 57.9432 16.1596 58.0037 15.0111L58.1247 12.9559H56.4311C50.8062 12.9559 45.907 14.6685 42.9232 17.6506L41.9756 18.5775L41.8748 15.4141C41.774 11.9887 41.5119 10.6992 40.524 8.60367C38.8506 5.13802 35.7659 2.51864 31.774 1.16866C29.899 0.564178 27.9232 0.241791 25.262 0.120903L22.5805 7.62939e-06V1.49104ZM29.4353 3.90893C33.2055 4.77534 36.2095 6.99174 37.5804 9.95366C37.9635 10.7798 38.3466 11.7872 38.4272 12.1902L38.5482 12.9559H37.0764C31.6127 12.9357 27.6611 9.95366 26.2902 4.85594C26.149 4.27161 26.0079 3.68729 26.0079 3.54625C26.0079 3.26416 27.0966 3.38506 29.4353 3.90893ZM93.2253 6.891C96.5519 10.2156 96.814 10.538 96.693 11.0417C96.5116 11.7469 95.564 12.6939 94.8584 12.8753C94.3543 12.9962 94.0317 12.7342 90.7051 9.40964C88.7294 7.43502 87.0963 5.68205 87.0963 5.54101C87.0963 4.69475 88.4673 3.28431 89.314 3.28431C89.4753 3.28431 91.2495 4.91638 93.2253 6.891ZM73.6891 10.2357C74.0117 10.538 74.1931 10.9611 74.1931 11.3439C74.1931 11.7268 74.0117 12.1499 73.6891 12.4521C73.3867 12.7745 72.9633 12.9559 72.5802 12.9559C72.1972 12.9559 71.7738 12.7745 71.4714 12.4521C71.1488 12.1499 70.9674 11.7268 70.9674 11.3439C70.9674 10.9611 71.1488 10.538 71.4714 10.2357C71.7738 9.91336 72.1972 9.73202 72.5802 9.73202C72.9633 9.73202 73.3867 9.91336 73.6891 10.2357ZM88.4068 11.7469L89.6164 12.9559L88.3463 14.2253L87.0963 15.4745L85.8463 14.2253L84.5761 12.9559L85.7858 11.7469C86.4511 11.082 87.0358 10.538 87.0963 10.538C87.1568 10.538 87.7415 11.082 88.4068 11.7469ZM79.9996 13.238C80.302 13.3992 81.9955 14.9909 83.7697 16.7641L86.9955 20.0081V21.0155V22.023L83.1044 25.9118L79.1931 29.8207L78.3665 29.4983C77.8222 29.3169 76.8544 29.1961 75.7052 29.1759C74.0923 29.1759 73.7496 29.2565 72.5399 29.8207C70.6649 30.7072 69.4956 31.8356 68.5883 33.6692C67.8827 35.0997 67.8424 35.3214 67.8424 37.0139C67.8625 38.1624 67.9835 39.1497 68.1649 39.6937L68.4875 40.5198L66.4916 42.5146L64.5158 44.4892L60.0198 39.996L55.5441 35.5229L66.4311 24.6222C72.419 18.6178 77.6004 13.5402 77.923 13.3387C78.6488 12.8753 79.2536 12.8551 79.9996 13.238ZM54.6368 16.4215C54.6368 16.5626 54.4957 17.167 54.3545 17.7514C52.9836 22.8491 49.032 25.8312 43.5683 25.8513H42.0965L42.2175 25.0856C42.2982 24.6827 42.6812 23.6752 43.0643 22.8491C44.6772 19.4036 48.2457 17.1267 53.1852 16.4014C53.8102 16.3006 54.3949 16.22 54.4957 16.1999C54.5763 16.1999 54.6368 16.3006 54.6368 16.4215ZM25.3023 19.9073C26.3103 20.8946 25.6047 22.6274 24.1934 22.6274C23.3668 22.6274 22.5805 21.8416 22.5805 21.0155C22.5805 20.1894 23.3668 19.4036 24.1934 19.4036C24.5765 19.4036 24.9999 19.5849 25.3023 19.9073ZM29.4353 26.4759C33.2055 27.3423 36.2095 29.5587 37.5804 32.5207C37.9635 33.3468 38.3466 34.3542 38.4272 34.7572L38.5482 35.5229H37.0764C31.6127 35.5027 27.6611 32.5207 26.2902 27.4229C26.149 26.8386 26.0079 26.2543 26.0079 26.1132C26.0079 25.8312 27.0966 25.952 29.4353 26.4759ZM48.9917 28.3498C48.9917 28.3901 48.8505 28.7528 48.6893 29.1356C47.9836 30.8483 48.4473 32.5811 50.0199 34.1326L51.1691 35.2811L50.403 36.0266C49.9796 36.4296 49.3747 37.2355 49.0723 37.8199C48.286 39.2102 48.2457 41.3863 48.9715 42.7766C49.6167 44.0258 55.8061 50.2317 57.1368 50.9772C58.5279 51.7429 60.7053 51.7832 62.0964 51.0578C62.6408 50.7757 64.5359 49.0832 66.7537 46.887L70.4835 43.1594L71.0278 43.5825C72.2577 44.5497 73.8101 45.0735 75.6851 45.134C76.8141 45.1743 77.6004 45.2952 77.802 45.4564C81.6125 48.6399 83.5882 51.1787 85.2213 54.9466C87.7415 60.8301 87.681 67.4995 85.06 73.3427C84.7173 74.0883 84.4149 74.733 84.3745 74.7733C84.3342 74.8338 83.9915 74.5718 83.6286 74.189C82.1971 72.7786 79.0721 71.1868 77.681 71.1868C77.3584 71.1868 77.1165 70.9651 76.8343 70.401C76.3101 69.3935 75.0198 68.3055 74.0117 68.0032C73.4673 67.8219 69.6569 67.7614 60.8061 67.7614H48.3868V66.1495V64.5376H51.6126H54.8384V62.9257V61.3137H51.6126H48.3868V59.7219V58.1302L49.0925 58.0093C50.04 57.8279 51.1489 56.8205 51.4312 55.8936C51.5521 55.4705 51.6126 54.1608 51.5723 52.8108C51.5118 50.272 51.3505 49.8489 50.1207 48.9422C49.6167 48.5593 49.2336 48.519 45.7457 48.4586L41.9353 48.3981V38.7669V29.1356L44.3143 29.0147C45.6046 28.9543 47.0764 28.7729 47.5804 28.6117C48.5078 28.3095 48.9917 28.2087 48.9917 28.3498ZM54.3344 29.5789C54.657 29.8811 54.8384 30.3043 54.8384 30.6871C54.8384 31.0699 54.657 31.493 54.3344 31.7953C54.032 32.1177 53.6086 32.299 53.2255 32.299C52.8425 32.299 52.4191 32.1177 52.1166 31.7953C51.7941 31.493 51.6126 31.0699 51.6126 30.6871C51.6126 30.3043 51.7941 29.8811 52.1166 29.5789C52.4191 29.2565 52.8425 29.0752 53.2255 29.0752C53.6086 29.0752 54.032 29.2565 54.3344 29.5789ZM77.298 32.5408C79.0318 33.0647 80.6447 35.2811 80.6447 37.1348C80.6447 39.6333 78.306 41.9706 75.806 41.9706C74.5359 41.9706 73.5077 41.5072 72.4794 40.4594C70.423 38.4243 70.423 35.8453 72.4794 33.8102C73.8907 32.3796 75.4028 31.9968 77.298 32.5408ZM57.7618 42.3736L62.1972 46.8265L61.4513 47.5116C60.6045 48.2974 59.9392 48.519 59.1327 48.3176C58.7698 48.237 57.2578 46.887 55.1408 44.7713L51.7134 41.3661V40.3788C51.7134 39.5124 51.8142 39.2706 52.3989 38.6661C52.782 38.2631 53.1449 37.9408 53.2255 37.9408C53.286 37.9408 55.3223 39.9355 57.7618 42.3736ZM88.185 45.5974C92.2374 50.4131 95.0801 56.4578 96.2092 62.6839C96.7737 65.8473 96.8341 72.1338 96.31 75.0151C95.4632 79.6091 94.0922 83.4173 91.7132 87.709C89.7979 91.215 90.0197 90.9934 88.8302 90.6307C88.2455 90.4493 87.0358 90.3284 85.8261 90.3284H83.8302L84.1528 89.8852C86.3907 86.8225 86.9753 85.271 86.9955 82.3695C86.9955 80.9591 86.8745 79.9718 86.6124 79.1255L86.2495 77.9166L86.8947 76.8688C88.3261 74.5517 89.6971 70.401 90.1205 67.157C91.1487 59.2182 88.1245 50.7556 82.2173 45.0534L80.7052 43.6027L81.6528 42.5952C82.177 42.031 82.7213 41.3057 82.8624 40.9631L83.1245 40.3184L85.0197 42.2124C86.0681 43.24 87.4995 44.7713 88.185 45.5974ZM22.5805 53.2541V54.866H14.516H6.45158V53.2541V51.6422H14.516H22.5805V53.2541ZM48.3868 53.2541V54.866H40.3224H32.2579V53.2541V51.6422H40.3224H48.3868V53.2541ZM19.3547 59.7018V61.3137H14.516H9.67737V59.7018V58.0899H14.516H19.3547V59.7018ZM45.161 59.7018V61.3137H40.3224H35.4837V59.7018V58.0899H40.3224H45.161V59.7018ZM19.3547 75.3375C19.3547 83.2359 19.2942 86.3792 19.1128 86.9837C18.5886 88.7165 16.3709 90.3284 14.516 90.3284C12.6612 90.3284 10.4435 88.7165 9.9193 86.9837C9.73785 86.3792 9.67737 83.2359 9.67737 75.3375V64.5376H14.516H19.3547V75.3375ZM45.161 75.3375C45.161 83.2359 45.1006 86.3792 44.9191 86.9837C44.3949 88.7165 42.1772 90.3284 40.3224 90.3284C38.4675 90.3284 36.2498 88.7165 35.7256 86.9837C35.5442 86.3792 35.4837 83.2359 35.4837 75.3375V64.5376H40.3224H45.161V75.3375ZM73.0641 71.1666C73.1246 71.2472 72.7819 71.4487 72.3182 71.5898C71.0883 71.9524 69.7577 72.6577 68.7698 73.4838L67.9029 74.2091H58.1448H48.3868V72.5972V70.9853H60.665C67.4391 70.9853 73.0036 71.0659 73.0641 71.1666ZM79.1125 74.9748C80.9471 75.8211 82.1165 76.9897 83.0237 78.8031C83.7294 80.2539 83.7697 80.4352 83.7697 82.2688C83.7697 84.1024 83.7294 84.2837 83.0237 85.7344C82.1165 87.568 80.9471 88.6964 79.0721 89.5829C77.8423 90.1672 77.5399 90.2277 75.806 90.2277C74.0722 90.2277 73.7698 90.1672 72.5399 89.5829C70.6649 88.6964 69.4956 87.568 68.5883 85.7344C67.8827 84.2837 67.8424 84.1024 67.8424 82.2889C67.8424 80.536 67.9029 80.2337 68.4875 79.0046C69.294 77.292 70.4432 76.0427 71.9553 75.2569C73.5278 74.4106 74.4149 74.2091 76.2496 74.2897C77.4794 74.3502 78.1044 74.5114 79.1125 74.9748ZM65.5238 77.4935C65.5238 77.5338 65.3222 78.0979 65.0803 78.7628C64.4956 80.3949 64.4553 83.8807 64.9996 85.4926C65.4432 86.8023 66.5722 88.9381 67.0359 89.321C67.2174 89.462 67.4593 89.7643 67.5601 89.9657C67.7416 90.3083 67.3787 90.3284 57.2981 90.3284H46.8546L47.5602 88.8777L48.286 87.427L48.3465 82.43L48.4272 77.433H56.9755C61.673 77.433 65.5238 77.4733 65.5238 77.4935ZM88.8302 94.0762C89.6164 94.6403 90.1003 95.3456 90.2414 96.1112L90.3826 96.7761H67.7617H45.161V95.1642V93.5523L66.7133 93.5926C88.1447 93.653 88.2858 93.653 88.8302 94.0762Z" fill="#25282B"/>
<path d="M74.7019 36.026C74.3793 36.3282 74.1979 36.7513 74.1979 37.1342C74.1979 37.517 74.3793 37.9401 74.7019 38.2424C75.0043 38.5648 75.4277 38.7461 75.8108 38.7461C76.1938 38.7461 76.6172 38.5648 76.9196 38.2424C77.2422 37.9401 77.4237 37.517 77.4237 37.1342C77.4237 36.7513 77.2422 36.3282 76.9196 36.026C76.6172 35.7036 76.1938 35.5222 75.8108 35.5222C75.4277 35.5222 75.0043 35.7036 74.7019 36.026Z" fill="#25282B"/>
<path d="M74.1961 77.6949C73.2082 78.0173 71.5147 79.7501 71.2123 80.7777C70.6478 82.6717 71.051 84.1829 72.4824 85.5934C74.5187 87.6486 77.0994 87.6486 79.1356 85.5934C81.1114 83.6389 81.1719 81.1203 79.2969 79.0449C77.9864 77.5942 76.1115 77.0904 74.1961 77.6949ZM76.9179 81.1606C77.926 82.1479 77.2203 83.8807 75.809 83.8807C74.9824 83.8807 74.1961 83.0949 74.1961 82.2688C74.1961 81.4426 74.9824 80.6568 75.809 80.6568C76.1921 80.6568 76.6155 80.8382 76.9179 81.1606Z" fill="#25282B"/>
<path d="M45.162 0.321813C44.1741 0.644198 42.4805 2.37702 42.1781 3.40463C41.6136 5.29864 42.0168 6.80982 43.4483 8.22026C44.4765 9.26802 45.5047 9.73145 46.7749 9.73145C48.045 9.73145 49.0732 9.26802 50.1015 8.22026C52.0772 6.2658 52.1377 3.74716 50.2627 1.6718C48.9523 0.221067 47.0773 -0.28266 45.162 0.321813ZM47.8837 3.78746C48.8918 4.77477 48.1861 6.50759 46.7749 6.50759C45.9483 6.50759 45.162 5.72177 45.162 4.89566C45.162 4.06955 45.9483 3.28373 46.7749 3.28373C47.1579 3.28373 47.5813 3.46507 47.8837 3.78746Z" fill="#25282B"/>
<path d="M4.93898 3.46589C3.08415 3.94947 1.4511 5.27931 0.604327 7.01213C0.221264 7.83825 0.120459 8.34197 0.120459 9.73226C0.100297 11.3039 0.160781 11.5457 0.785777 12.7143C1.5519 14.1248 2.19706 14.7292 3.70915 15.5352C4.57608 15.9785 4.99946 16.0591 6.45107 16.0591C7.90267 16.0591 8.32606 15.9785 9.19299 15.5352C10.7051 14.7292 11.3502 14.1248 12.1164 12.7143C12.7414 11.5457 12.8018 11.3039 12.7817 9.73226C12.7817 8.28153 12.701 7.8584 12.2575 6.99198C11.4712 5.4808 10.8462 4.83603 9.49541 4.11066C8.18493 3.42559 6.18897 3.12336 4.93898 3.46589ZM7.72122 6.79049C9.79782 7.65691 10.3019 10.3569 8.68896 11.9688C6.43091 14.2457 2.72125 12.2106 3.30592 9.02704C3.66883 7.13303 5.88656 6.00468 7.72122 6.79049Z" fill="#25282B"/>
<path d="M8.16347 26.0323C6.30864 26.5159 4.67558 27.8457 3.82881 29.5785C3.44575 30.4047 3.34495 30.9084 3.34495 32.2987C3.32478 33.8703 3.38527 34.1121 4.01026 35.2807C4.77639 36.6912 5.42155 37.2956 6.93364 38.1016C7.80057 38.5449 8.22395 38.6255 9.67556 38.6255C11.1272 38.6255 11.5505 38.5449 12.4175 38.1016C13.9296 37.2956 14.5747 36.6912 15.3408 35.2807C15.9658 34.1121 16.0263 33.8703 16.0062 32.2987C16.0062 30.8479 15.9255 30.4248 15.482 29.5584C14.6957 28.0472 14.0707 27.4024 12.7199 26.6771C11.4094 25.992 9.41346 25.6898 8.16347 26.0323ZM10.9457 29.3569C13.0223 30.2233 13.5263 32.9233 11.9134 34.5352C9.6554 36.8121 5.94574 34.777 6.53041 31.5935C6.89331 29.6994 9.11104 28.5711 10.9457 29.3569Z" fill="#25282B"/>
<path d="M19.3587 35.7846C18.9757 35.9055 18.1894 36.4696 17.645 37.0338C16.2136 38.4442 15.8104 39.9554 16.3749 41.8494C16.6975 42.9576 18.3708 44.63 19.4797 44.9524C21.3749 45.5166 22.8869 45.1136 24.2982 43.683C26.274 41.7286 26.3345 39.2099 24.4595 37.1346C23.149 35.6838 21.2741 35.1801 19.3587 35.7846ZM22.0805 39.2502C23.0886 40.2375 22.3829 41.9703 20.9716 41.9703C20.145 41.9703 19.3587 41.1845 19.3587 40.3584C19.3587 39.5323 20.145 38.7465 20.9716 38.7465C21.3547 38.7465 21.7781 38.9278 22.0805 39.2502Z" fill="#25282B"/>
</svg>
