<svg width="100" height="100" viewBox="0 0 100 100" fill="none" xmlns="http://www.w3.org/2000/svg">
<g clip-path="url(#clip0_2973_162509)">
<path d="M49.0241 100C48.125 99.5668 47.1315 99.2603 46.3463 98.6751C44.55 97.3362 43.975 95.4029 44.137 93.2316C44.1944 92.4603 43.9991 92.0797 43.1778 91.7723C41.2639 91.0566 40.2657 89.5519 40.2194 87.4871C40.1602 84.8538 40.2676 82.2084 40.0676 79.5871C39.5926 73.3575 36.875 68.189 32.2157 64.0668C28.0102 60.3464 25.063 55.8547 23.5426 50.4418C19.0768 34.5418 29.7111 18.2936 46.0972 15.9769C60.9648 13.8742 74.75 23.8853 77.0667 38.7381C78.5954 48.5362 75.5268 56.9242 68.2093 63.6464C65.1324 66.4723 62.6852 69.676 61.2259 73.6047C60.2648 76.1927 59.8111 78.8723 59.7935 81.6279C59.7806 83.6131 59.8111 85.5983 59.7787 87.5834C59.7463 89.5251 58.587 91.1964 56.738 91.8158C55.9935 92.0649 55.8083 92.4177 55.8639 93.1344C56.0472 95.5353 55.35 97.5945 53.2694 98.9714C52.5805 99.427 51.7463 99.6631 50.9787 100C50.3259 100 49.675 100 49.0241 100ZM47.9935 80.3621C48.0157 80.1057 48.0407 79.9455 48.0407 79.7853C48.0426 70.6714 48.0491 61.5566 48.0204 52.4427C48.0194 52.0519 47.7778 51.5742 47.4963 51.2862C45.3824 49.1195 43.2176 47.0019 41.1028 44.8371C40.7333 44.4584 40.388 43.9584 40.2667 43.4584C40.0546 42.5844 40.4361 41.8464 41.2481 41.4251C42.1398 40.9621 42.9555 41.1705 43.6509 41.8621C45.5204 43.7214 47.3824 45.589 49.2491 47.4501C49.4917 47.6918 49.75 47.9177 50.1222 48.264C50.4389 47.8769 50.6648 47.5519 50.9389 47.276C52.7268 45.4732 54.5278 43.6834 56.3204 41.8853C56.9222 41.2816 57.6843 40.9316 58.4343 41.3251C58.975 41.6084 59.4907 42.1955 59.7139 42.7668C60.025 43.5621 59.5268 44.2492 58.9389 44.8325C56.812 46.9408 54.713 49.0769 52.5731 51.1723C52.1157 51.6195 51.9435 52.0723 51.9444 52.7057C51.963 61.5918 51.9565 70.4788 51.9583 79.3649C51.9583 79.6797 51.9861 79.9945 52.0028 80.3399C53.3213 80.3399 54.5704 80.3399 55.7565 80.3399C56.0954 78.4445 56.312 76.5982 56.7648 74.8112C58.2176 69.0779 61.4463 64.4825 65.7972 60.5214C71.6463 55.1955 74.1963 48.4307 73.3685 40.5936C71.9546 27.2047 59.8259 17.9584 46.4741 19.8908C32 21.9816 22.8713 37.1732 27.8065 50.9492C29.2435 54.9594 31.6157 58.3112 34.8102 61.1205C39.2713 65.0436 42.1796 69.9168 43.4685 75.7214C43.8046 77.2353 43.9555 78.7899 44.1972 80.3621C45.4472 80.3621 46.675 80.3621 47.9935 80.3621ZM44.1343 84.3779C44.1343 85.4232 44.0657 86.4288 44.175 87.414C44.2093 87.7177 44.7259 88.2001 45.0287 88.2057C48.3398 88.2631 51.6528 88.2631 54.9639 88.2057C55.2694 88.2001 55.7907 87.7195 55.825 87.4158C55.9361 86.4307 55.8667 85.4251 55.8667 84.3779C51.9241 84.3779 48.0787 84.3779 44.1343 84.3779ZM48.0491 92.2103C48.1222 93.5714 47.6333 94.9816 49.0731 95.8242C49.787 96.2427 50.5305 96.1695 51.175 95.6594C52.3602 94.7214 51.8593 93.4307 51.9472 92.2103C50.6102 92.2103 49.387 92.2103 48.0491 92.2103Z" fill="#25282B"/>
<path d="M50.587 -5.06365e-05C51.6417 0.571246 52.0185 1.43976 51.9796 2.64347C51.9065 4.91291 51.9648 7.18699 51.9556 9.45921C51.95 10.8944 51.2148 11.737 49.9991 11.737C48.7833 11.737 48.0519 10.8953 48.0463 9.45736C48.038 7.18513 48.0963 4.91199 48.0222 2.64162C47.9833 1.43699 48.3556 0.567542 49.4148 -0.000976562C49.8056 -5.06365e-05 50.1963 -5.06365e-05 50.587 -5.06365e-05Z" fill="#25282B"/>
<path d="M76.7472 26.2822C77.1167 25.7887 77.3843 25.1303 77.8722 24.8294C80.1074 23.4525 82.3926 22.1544 84.6861 20.8738C85.688 20.3146 86.7731 20.6331 87.3194 21.534C87.8898 22.4738 87.6426 23.6248 86.6259 24.2313C84.3713 25.5775 82.1037 26.9072 79.7981 28.1637C78.4222 28.9137 76.9019 27.9377 76.7472 26.2822Z" fill="#25282B"/>
<path d="M23.2584 26.3464C23.0602 27.9038 21.5982 28.9093 20.3232 28.2251C17.9241 26.9381 15.5787 25.5473 13.2491 24.1362C12.3269 23.5779 12.1417 22.4658 12.663 21.5668C13.1778 20.6797 14.2472 20.2936 15.1935 20.8149C17.55 22.114 19.8889 23.451 22.1787 24.8631C22.6611 25.1603 22.9046 25.8418 23.2584 26.3464Z" fill="#25282B"/>
<path d="M85.3917 65.6593C85.2185 65.5908 84.8102 65.4797 84.4537 65.2769C82.3389 64.0751 80.2306 62.8612 78.1306 61.6325C76.9528 60.9436 76.5972 59.8695 77.1695 58.8529C77.738 57.8427 78.8787 57.5668 80.0315 58.2205C82.2324 59.4677 84.4259 60.7297 86.6019 62.0205C87.4852 62.5445 87.7778 63.3705 87.5222 64.2668C87.2778 65.1223 86.538 65.6695 85.3917 65.6593Z" fill="#25282B"/>
<path d="M23.2556 59.9548C22.8954 60.4557 22.6417 61.1279 22.1565 61.427C19.8935 62.8224 17.5806 64.139 15.2574 65.4316C14.2796 65.9751 13.162 65.6011 12.6472 64.6816C12.125 63.7492 12.375 62.64 13.3491 62.0594C15.6046 60.7131 17.8722 59.3826 20.175 58.1196C21.5472 57.3668 23.0796 58.314 23.2556 59.9548Z" fill="#25282B"/>
<path d="M12.7472 41.1983C13.4306 41.1983 14.1148 41.1668 14.7954 41.2057C15.8426 41.265 16.5722 42.0011 16.6324 42.9955C16.6954 44.0501 16.0417 44.9853 14.9824 45.0538C13.4935 45.1501 11.9898 45.1446 10.5 45.052C9.50834 44.9909 8.79259 44.0325 8.8213 43.0853C8.85185 42.0788 9.64074 41.265 10.6982 41.2048C11.3796 41.1668 12.0639 41.1983 12.7472 41.1983Z" fill="#25282B"/>
<path d="M30.7213 79.0592C29.0306 79.0981 28.0019 77.6194 28.6306 76.3249C29.2676 75.0129 30.0278 73.7536 30.8259 72.5305C31.3852 71.674 32.4741 71.5212 33.3426 72.0295C34.1648 72.511 34.5907 73.5147 34.1509 74.3869C33.4657 75.7481 32.6954 77.0749 31.8509 78.3425C31.5824 78.7453 30.962 78.9147 30.7213 79.0592Z" fill="#25282B"/>
<path d="M71.5472 77.1138C71.487 78.0536 71.0435 78.6712 70.1704 78.9564C69.3231 79.2332 68.5537 78.9971 68.0944 78.2953C67.2768 77.0471 66.5315 75.7434 65.8537 74.4138C65.4296 73.5814 65.7972 72.5999 66.5481 72.0934C67.3074 71.5814 68.4426 71.5657 68.9491 72.2999C69.8843 73.6573 70.6518 75.1314 71.4704 76.5684C71.5593 76.7231 71.5268 76.949 71.5472 77.1138Z" fill="#25282B"/>
<path d="M87.2491 45.103C86.5991 45.103 85.9463 45.1354 85.2981 45.0955C84.1102 45.0243 83.338 44.1983 83.3639 43.0807C83.388 42.0048 84.1583 41.2289 85.3139 41.2002C86.6139 41.1668 87.9157 41.1668 89.2157 41.2011C90.3352 41.2307 91.1546 42.0576 91.1796 43.0965C91.2037 44.1224 90.4009 45.0048 89.2972 45.0881C88.6185 45.1391 87.9324 45.0974 87.2491 45.0974C87.2491 45.1002 87.2491 45.1011 87.2491 45.103Z" fill="#25282B"/>
<path d="M32.1685 14.6714C31.687 14.3307 31.0648 14.0872 30.7528 13.6307C29.9861 12.5075 29.3278 11.3038 28.6907 10.0983C28.1648 9.10197 28.5176 7.99641 29.4333 7.47789C30.363 6.95197 31.4454 7.2066 32.0611 8.18623C32.7695 9.31308 33.4509 10.4622 34.0546 11.6483C34.7657 13.0464 33.8009 14.552 32.1685 14.6714Z" fill="#25282B"/>
<path d="M71.5398 9.40641C71.4852 9.56474 71.4065 9.95363 71.2241 10.2851C70.6454 11.3388 70.0444 12.3805 69.4204 13.4073C68.762 14.4916 67.6454 14.8212 66.6759 14.2564C65.7009 13.6888 65.4241 12.5657 66.0324 11.4629C66.6435 10.3536 67.275 9.25363 67.9417 8.17585C68.4389 7.37122 69.1991 7.06104 70.1259 7.29437C70.9824 7.51196 71.538 8.28326 71.5398 9.40641Z" fill="#25282B"/>
</g>
<defs>
<clipPath id="clip0_2973_162509">
<rect width="100" height="100" fill="white"/>
</clipPath>
</defs>
</svg>
