<svg width="100" height="100" viewBox="0 0 100 100" fill="none" xmlns="http://www.w3.org/2000/svg">
<path d="M28.5169 0.197548C26.9697 0.666748 25.8926 1.93749 25.7164 3.54059C25.6576 4.00979 25.4813 8.19347 25.3051 12.8268L25.0113 21.2724L29.1436 38.9064C31.435 48.6032 33.2367 56.5796 33.178 56.6578C33.0996 56.7164 32.5513 56.8337 31.9246 56.9119C31.3175 56.9901 30.4949 57.1074 30.1228 57.1661L29.4374 57.3029L24.933 46.3941C22.4654 40.4118 20.2523 35.2506 20.0369 34.9182C19.4102 33.9799 18.6856 33.5693 17.5497 33.4911C16.5705 33.4129 16.0417 33.6084 9.16763 36.4431C5.13327 38.1244 1.6081 39.6493 1.33392 39.8644C1.05974 40.0599 0.687642 40.49 0.472215 40.8419C-0.330741 42.2299 -0.350325 42.1713 6.30833 58.2022C9.71599 66.3937 12.497 73.1775 12.497 73.2752C12.497 73.373 12.0074 73.5098 11.4002 73.588C8.0905 73.979 4.62408 76.0709 2.6069 78.8861C0.0413605 82.4833 -0.683258 86.882 0.668058 90.8702C1.41226 93.0793 2.19563 94.3305 3.95822 96.1096C5.7208 97.8691 6.93503 98.6315 9.26556 99.4526L10.8323 100H50.0009H89.1694L90.7362 99.4722C95.0251 97.9864 98.1586 94.7802 99.4903 90.5183C100.078 88.6219 100.117 85.0052 99.5687 83.187C98.9224 80.9975 97.7277 79.0034 96.1218 77.4198C93.7913 75.1129 91.1474 73.8226 88.1706 73.5294C87.3872 73.4512 86.7018 73.3534 86.643 73.2948C86.5843 73.2361 86.643 72.3173 86.7606 71.2616C86.9172 69.7953 86.8976 68.7396 86.7214 67.0388L86.4864 64.771L89.5611 57.3616C91.2649 53.2952 93.2429 48.4859 93.9871 46.6873C95.7106 42.4645 96.7877 40.5486 99.0007 37.7139C100.391 35.9153 100.411 36.2867 98.5503 28.1931C97.5123 23.7552 96.7485 20.8814 96.5527 20.6468C96.0631 20.1189 95.4168 19.9234 94.8097 20.158C93.948 20.4708 82.9612 27.372 82.2757 28.0171C81.9036 28.369 81.5903 28.8773 81.5511 29.2097C80.6307 35.1528 80.474 35.7198 77.3797 43.1879C76.0088 46.4723 74.8925 49.1897 74.8729 49.2093C74.8533 49.2484 74.1091 48.9551 73.1886 48.5641C72.2878 48.1927 70.9756 47.7039 70.2706 47.528C68.7822 47.1174 68.8605 47.6257 69.3697 42.5818C69.546 40.6659 69.7222 37.2838 69.7222 34.9573L69.7418 30.7932L70.6035 29.5811C74.207 24.4981 74.8925 17.8707 72.4249 11.9471C70.8581 8.13483 67.7638 3.91203 64.5324 1.13595C63.044 -0.15435 62.3977 -0.291199 61.536 0.451698C60.9681 0.959999 60.9289 1.21414 61.1639 3.42329C61.3597 5.20233 61.0856 6.51218 60.0868 8.50627C59.1859 10.3244 57.5212 12.5922 55.1124 15.3292C52.586 18.203 51.8614 19.8452 51.8614 22.7973C51.8614 25.1237 52.6447 27.372 54.2311 29.4443L54.8382 30.2654L54.4269 33.2565C53.8002 37.9876 53.6239 40.4509 53.6239 45.1038V49.4243L52.7818 49.913C52.3118 50.1867 51.3913 50.8319 50.7059 51.3206C50.04 51.8289 49.4721 52.2199 49.4329 52.1808C49.4133 52.1417 47.6116 44.4391 45.4181 35.0942C43.2443 25.7298 41.2859 17.6947 41.0704 17.206C40.8354 16.7172 38.8966 13.0614 36.7423 9.09277C32.61 1.44875 32.0225 0.608093 30.5928 0.217094C29.7115 -0.0175018 29.2611 -0.0370483 28.5169 0.197548ZM31.6504 6.76633C32.6296 8.58447 33.4521 10.1289 33.4521 10.2071C33.4521 10.2853 33.08 10.5981 32.6296 10.8914C31.9246 11.3606 31.6308 11.4388 30.3382 11.4388H28.8498L28.9282 7.62653C28.9869 3.95113 29.1044 3.22779 29.6136 3.38419C29.7311 3.42329 30.6516 4.92863 31.6504 6.76633ZM66.7258 8.50627C68.6255 11.2433 70.016 14.645 70.486 17.6361C70.9756 20.8227 69.7614 25.2019 67.5484 28.1344L67.1763 28.6036L62.2214 28.3104L57.2666 28.0171L56.7966 27.4502C56.542 27.1374 56.0916 26.3945 55.8174 25.808C55.3669 24.8891 55.2886 24.4786 55.2886 22.9732C55.2886 20.6468 55.7195 19.7475 58.3046 16.7172C61.6927 12.7682 63.984 8.95592 64.317 6.68813L64.4345 5.82793L65.1199 6.49263C65.4724 6.84453 66.1971 7.74383 66.7258 8.50627ZM36.6052 15.8375C37.3494 17.1864 37.9369 18.4181 37.9565 18.5745C37.9565 19.7279 36.1156 22.0153 34.7055 22.6018C33.0017 23.3251 30.3578 22.6995 29.0065 21.2724L28.3602 20.6077L28.4973 17.7338L28.6148 14.86H30.162C31.8071 14.86 33.4326 14.4104 34.3922 13.7066C34.686 13.4915 34.9993 13.3351 35.0972 13.3547C35.1951 13.3938 35.8806 14.5081 36.6052 15.8375ZM42.9309 39.1215C44.9285 47.6844 46.5736 54.8201 46.5736 54.9765C46.5736 55.1329 46.1036 55.9735 45.5161 56.8337C44.9481 57.6939 44.4193 58.5346 44.3802 58.6714C44.3214 58.8278 44.2431 58.906 44.1843 58.8474C44.1256 58.7887 43.0289 54.1749 41.7167 48.6032C39.817 40.49 39.2491 38.359 38.8966 37.9876C38.0153 37.0492 36.1939 37.6943 36.1939 38.9651C36.1939 39.317 37.134 43.618 38.2699 48.5446C39.4253 53.4516 40.3262 57.518 40.2675 57.5766C40.1891 57.6548 36.9773 56.9315 36.8206 56.7946C36.7227 56.6969 29.5353 25.9448 29.6136 25.8666C29.6528 25.8275 30.1816 25.9253 30.8278 26.1012C31.4545 26.2576 32.2183 26.3945 32.5121 26.3945C33.1192 26.3945 33.08 26.3358 33.883 29.8157C34.3922 32.0444 34.8035 32.6505 35.861 32.6505C36.5856 32.6505 37.3102 32.1031 37.4669 31.4188C37.5453 31.1647 37.3102 29.8353 36.9969 28.4668C36.664 27.0787 36.3898 25.8471 36.3898 25.7102C36.3898 25.5734 36.6248 25.3583 36.9381 25.241C37.2319 25.1237 37.8782 24.6741 38.3482 24.2635C38.8378 23.8334 39.2491 23.5206 39.2491 23.5402C39.2687 23.5402 40.9333 30.5586 42.9309 39.1215ZM90.462 29.0533C88.954 32.6896 88.9148 33.5302 90.2466 33.9799C91.0299 34.2535 91.9308 33.9408 92.2833 33.2565C92.5183 32.8264 93.9676 29.3465 94.5943 27.763C94.7901 27.2938 94.7901 27.2938 94.9468 27.6652C95.0251 27.8803 95.456 29.6593 95.9064 31.6143L96.7289 35.1919L96.0631 36.013C95.0447 37.2838 93.7326 39.3756 92.7142 41.3893C91.8133 43.1879 91.8133 43.1879 90.7949 43.5007C89.4436 43.8917 88.386 43.8721 86.8585 43.4029C85.3505 42.9337 83.7446 41.6043 83.0004 40.2358L82.5499 39.3952L83.255 37.2447C83.9012 35.2115 84.3909 33.061 84.665 31.0865L84.8021 30.2067L88.151 28.1149C89.992 26.9614 91.5391 26.0621 91.5783 26.1012C91.6174 26.1403 91.1083 27.4697 90.462 29.0533ZM64.5128 31.8098L66.295 31.9271L66.4125 33.0415C66.4712 33.667 66.4517 34.7423 66.4125 35.4656L66.295 36.7559L63.6315 36.7364C60.8701 36.7168 57.4233 36.3845 57.4625 36.1108C57.4625 36.0326 57.5996 34.9378 57.7366 33.6866L57.9912 31.4188L60.3609 31.5557C61.6535 31.6143 63.5336 31.7316 64.5128 31.8098ZM17.961 38.2613C18.2939 39.0824 18.5485 39.7666 18.5093 39.8057C18.4898 39.8253 17.0405 40.4313 15.2779 41.1547C11.7723 42.6014 11.2044 43.051 11.4002 44.0872C11.5373 44.7714 12.3403 45.5534 12.9082 45.5534C13.1432 45.5534 14.7883 44.9474 16.5901 44.2045L19.8802 42.8751L20.4873 44.3413C20.8203 45.1624 21.0553 45.8662 21.0161 45.9444C20.977 46.0226 20.5069 46.2377 19.9977 46.4332C17.5693 47.3325 17.0013 47.8212 17.0013 48.8965C17.0013 49.4243 18.0393 50.4409 18.5681 50.4409C18.8031 50.4409 19.7431 50.1281 20.6636 49.7566C21.5841 49.3657 22.3674 49.092 22.4066 49.1115C22.5437 49.2484 23.6796 52.044 23.6208 52.1026C23.5817 52.1417 22.152 52.7478 20.4286 53.4516C18.7052 54.1749 17.1189 54.9374 16.923 55.1329C16.3159 55.7194 16.3942 56.8337 17.0797 57.4007C17.3734 57.6548 17.8239 57.8699 18.0589 57.8699C18.3135 57.8699 19.9194 57.3029 21.6037 56.5991C23.2879 55.8953 24.7763 55.3479 24.8742 55.3675C25.0897 55.4457 26.206 57.9481 26.206 58.3586C26.206 58.4955 25.9318 58.7105 25.5988 58.8474C25.2659 58.9842 24.4434 59.4534 23.7971 59.8835C20.1936 62.21 17.6085 65.4944 16.1201 69.6389C15.7871 70.6164 15.4346 71.3398 15.3954 71.242C15.3367 71.1443 12.6145 64.6537 9.36348 56.7946C4.62408 45.397 3.48819 42.5036 3.70362 42.3668C4.01697 42.1713 17.0405 36.7755 17.2168 36.7559C17.2951 36.7559 17.628 37.4402 17.961 38.2613ZM63.5728 40.0794L66.1579 40.099V40.9201C66.1579 41.3697 66.0208 42.7969 65.8641 44.0872C65.7075 45.3775 65.5704 46.4918 65.5704 46.57C65.5704 46.6678 64.9241 46.7264 64.1603 46.7264C62.0452 46.7264 60.0672 47.0588 57.4037 47.8212L56.9533 47.9385V44.4586C56.9533 42.5232 57.012 40.6464 57.0708 40.2749L57.1883 39.5711L59.0684 39.8253C60.1259 39.9621 62.1431 40.0794 63.5728 40.0794ZM83.5487 45.573C84.8805 46.4136 87.2697 47.1174 88.7973 47.1174C89.4828 47.1174 90.0507 47.1956 90.0507 47.3129C90.0507 47.5475 85.1351 59.473 84.9392 59.7076C84.8609 59.8053 84.5279 59.3557 84.2146 58.7301C83.02 56.3841 80.8461 53.7057 78.6331 51.8876L77.693 51.1056L79.2989 47.2543L80.8853 43.4029L81.747 44.1849C82.217 44.615 83.02 45.2406 83.5487 45.573ZM68.9389 50.6168C72.4053 51.5161 75.3429 53.1779 77.7909 55.6021C80.5523 58.3195 82.3933 61.7799 83.2158 65.7876C83.5683 67.4884 83.5096 71.3593 83.0983 73.1188C82.4912 75.6799 82.4912 75.7776 83.1375 76.4228L83.7054 76.9897L86.1534 76.892C88.386 76.7942 88.6994 76.8138 89.9724 77.2634C93.4192 78.456 95.8085 81.0952 96.631 84.5751C97.7865 89.5212 94.8489 94.6238 89.8549 96.3051C88.8169 96.657 87.3089 96.6765 50.0988 96.6765C18.0393 96.6765 11.2827 96.6374 10.6365 96.4028C7.32671 95.2885 4.89826 93.0011 3.87988 90.01C2.03896 84.7119 5.03535 78.847 10.4014 77.2048C11.5177 76.8529 12.0465 76.8138 13.7308 76.9115C14.8275 76.9702 16.0613 77.0679 16.453 77.1461C17.0797 77.2439 17.2559 77.1852 17.7456 76.6965C18.2352 76.2273 18.3135 75.9536 18.4114 74.6828C18.8423 69.1893 22.1716 64.2432 27.0873 61.7994C32.1987 59.2579 37.7803 59.5316 42.7351 62.5619C44.341 63.5394 44.9285 63.6958 45.5748 63.3439C45.7707 63.2461 46.4169 62.1709 47.024 60.9588C49.8246 55.2697 54.7598 51.4966 60.831 50.3431C62.9069 49.9521 66.9413 50.089 68.9389 50.6168Z" fill="#25282B"/>
<path d="M65.4701 14.8989C65 15.329 64.9805 15.4268 64.9217 17.9096L64.8825 20.4902L63.9621 22.3279C62.9045 24.4002 62.8066 25.0258 63.5116 25.7101C64.6084 26.8244 65.8813 26.0815 67.076 23.6378C68.0748 21.6241 68.349 20.1774 68.2706 17.6359C68.2119 15.4854 68.1923 15.3877 67.6635 14.938C66.9781 14.3515 66.1359 14.332 65.4701 14.8989Z" fill="#25282B"/>
<path d="M59.9881 53.5688C55.9342 54.3899 52.1936 58.0457 51.8998 61.4865C51.8215 62.4054 51.8606 62.5422 52.3502 62.9137C52.644 63.1483 53.1336 63.3438 53.4274 63.3438C54.0149 63.3438 54.9941 62.6791 54.9941 62.2881C54.9941 62.1512 55.3075 61.4083 55.6992 60.6459C56.8155 58.3976 58.4214 57.2833 61.2023 56.7945C62.8866 56.5013 63.4154 56.0907 63.4154 55.1328C63.4154 54.3117 63.2391 53.9793 62.6124 53.6665C62.0249 53.3537 61.2219 53.3342 59.9881 53.5688Z" fill="#25282B"/>
<path d="M28.324 65.6897C26.6985 66.5304 24.9555 68.2312 24.2505 69.6583C23.5258 71.1637 23.2125 73.1578 23.565 74.0375C24.2505 75.6993 26.3851 75.2692 26.6985 73.3924C27.0902 71.0464 27.9911 69.6779 29.7536 68.7395C30.3412 68.4267 31.007 67.9966 31.2616 67.7816C32.2408 66.8823 31.4575 65.0837 30.0866 65.1032C29.7341 65.1228 28.9507 65.3769 28.324 65.6897Z" fill="#25282B"/>
<path d="M48.1576 73.8226C43.5748 75.0543 40.363 79.5703 40.7547 84.2232C41.0289 87.6053 42.4977 89.228 44.1232 87.9572C44.5932 87.5858 44.6324 87.4294 44.5541 86.6278C44.4953 86.1391 44.3582 85.3376 44.2211 84.8488C43.4378 81.9163 45.357 78.3191 48.2947 77.2243C49.1955 76.8724 49.7243 76.8138 51.0756 76.8724C53.5628 76.9897 55.0708 77.9281 56.618 80.2741C57.5384 81.6817 58.0085 81.7599 59.7515 80.8802C61.2986 80.0786 62.552 79.9418 64.0208 80.3914C64.9609 80.6651 66.1751 81.6817 66.7626 82.6592C67.3502 83.6367 67.6831 83.8713 68.5056 83.8713C69.4457 83.8713 70.0724 83.2262 70.0724 82.2878C70.0724 80.8802 67.8789 78.4169 65.803 77.4785C64.2754 76.7747 61.4553 76.6378 59.9277 77.1657L58.9093 77.5176L57.6755 76.3446C55.1687 73.9008 51.4673 72.9233 48.1576 73.8226Z" fill="#25282B"/>
</svg>
