<svg width="100" height="100" viewBox="0 0 100 100" fill="none" xmlns="http://www.w3.org/2000/svg">
<path d="M27.1319 100C26.4184 99.7713 25.6812 99.5926 24.9964 99.3056C20.6511 97.4852 18.7587 92.6102 21.0118 88.6334C23.0446 85.0472 25.2968 81.5704 27.46 78.0491C31.1797 71.9926 34.9181 65.9454 38.6082 59.8732C38.9462 59.3167 39.1428 58.6038 39.1478 57.9612C39.1912 52.9158 39.1685 47.8704 39.1735 42.8251C39.1754 40.9167 39.8909 40.2538 41.9375 40.2482C43.7361 40.2436 45.5357 40.2473 47.4054 40.2473C47.4054 38.7297 47.4054 37.2853 47.4054 35.7769C46.1385 35.7769 44.9002 35.8288 43.6689 35.7686C35.5951 35.3704 29.1904 29.4047 28.7911 21.8149C28.7012 20.1131 28.9858 18.3908 29.1439 16.6816C29.2517 15.514 30.0254 14.9084 31.2222 14.7001C38.0222 13.5186 43.8685 14.9723 48.3788 20.1455C48.4391 20.2149 48.5409 20.2538 48.6901 20.3501C49.6496 18.314 50.9333 16.5297 52.7665 15.1307C56.9605 11.9279 61.7327 11.2834 66.8725 12.3584C67.7115 12.5344 68.1848 13.127 68.3844 13.9362C70.8036 23.7862 63.6054 32.3593 52.8683 31.8195C52.5234 31.8019 52.1775 31.788 51.7368 31.7686C51.7368 34.5806 51.7368 37.3529 51.7368 40.2473C53.4859 40.2473 55.243 40.2454 57.0001 40.2482C59.1831 40.2519 59.8501 40.8769 59.8511 42.9362C59.8541 47.9815 59.8363 53.0269 59.8738 58.0723C59.8778 58.6547 60.0586 59.3019 60.367 59.8056C66.0918 69.1667 71.8571 78.5084 77.5997 87.8621C79.8874 91.5889 79.2431 95.7509 75.8376 98.212C74.7002 99.0333 73.204 99.4167 71.8709 100C56.9586 100 42.0452 100 27.1319 100ZM47.4923 76.5574C42.7578 76.5574 38.1862 76.5473 33.6147 76.5843C33.3409 76.5861 32.9773 76.9195 32.8122 77.1852C30.1806 81.4259 27.547 85.6658 24.9707 89.9361C23.1237 92.9991 25.0537 96.0852 28.806 96.0889C42.6016 96.1037 56.3973 96.1028 70.1939 96.0898C74.0015 96.0861 75.9048 92.9861 74.0134 89.8685C71.443 85.6324 68.8193 81.425 66.2479 77.1898C65.9435 76.6889 65.5947 76.5436 65.0116 76.5473C61.199 76.5686 57.3855 76.5584 53.5729 76.5584C52.9592 76.5584 52.3455 76.5584 51.6389 76.5584C51.6389 78.451 51.6508 80.2334 51.631 82.0148C51.6251 82.4972 51.5895 82.9973 51.4492 83.4574C51.1992 84.2787 50.2327 84.8306 49.3512 84.7408C48.3007 84.6343 47.5279 83.9037 47.5042 82.8315C47.4607 80.7871 47.4923 78.7426 47.4923 76.5574ZM47.4182 72.6148C47.4182 63.1075 47.4182 53.6871 47.4182 44.2306C46.0347 44.2306 44.7105 44.2306 43.3339 44.2306C43.3339 44.663 43.3339 45.0195 43.3339 45.376C43.3339 49.8343 43.3665 54.2936 43.3033 58.751C43.2914 59.5547 43.0473 60.438 42.6322 61.1399C40.5451 64.6621 38.3641 68.1362 36.2196 71.6287C36.0368 71.9269 35.8748 72.2361 35.6613 72.6148C39.6261 72.6148 43.4643 72.6148 47.4182 72.6148ZM63.3504 72.6037C63.1409 72.2287 62.9798 71.9176 62.796 71.6176C60.6535 68.1287 58.4765 64.6584 56.3913 61.1399C55.9763 60.4389 55.7292 59.5565 55.7174 58.7538C55.6541 54.2686 55.6867 49.7815 55.6867 45.2954C55.6867 44.9482 55.6867 44.601 55.6867 44.2362C54.2736 44.2362 52.9849 44.2362 51.7022 44.2362C51.7022 53.7306 51.7022 63.1445 51.7022 72.6047C55.5889 72.6037 59.4123 72.6037 63.3504 72.6037ZM33.0741 18.4427C31.4939 26.7325 38.5944 33.2112 47.2324 31.688C48.8393 23.1288 41.3604 16.901 33.0741 18.4427ZM64.4898 15.7927C63.805 15.7927 63.1538 15.7899 62.5025 15.7927C56.0029 15.8269 51.3444 20.5047 51.7061 26.5871C51.7625 27.526 52.053 27.926 53.1519 27.9547C60.5982 28.1501 65.6411 22.8843 64.4898 15.7927Z" fill="#25282B"/>
<path d="M52.3021 0C54.5572 0.318518 56.8193 0.598148 59.0645 0.971295C60.3552 1.18518 61.628 1.51759 62.89 1.85648C64.2666 2.22592 64.901 3.225 64.5591 4.35555C64.235 5.4287 63.1242 5.86296 61.6794 5.59722C58.6969 5.04907 55.7243 4.30833 52.7102 4.08148C42.7222 3.32777 33.5762 5.71388 25.3018 11.0398C24.7415 11.4 24.8749 11.7222 25.0211 12.1833C25.8957 14.9407 24.948 17.7287 22.5585 19.525C20.2875 21.2315 17.0886 21.4509 14.4679 20.0796C11.1593 18.3481 9.85185 14.2657 11.5951 11.1111C13.4312 7.78703 17.6737 6.38888 21.1601 8.02499C21.8598 8.3537 22.3005 8.29166 22.9083 7.88888C28.8653 3.93981 35.4746 1.50278 42.6798 0.481481C44.0099 0.292592 45.3489 0.159259 46.684 0C48.5567 0 50.4294 0 52.3021 0ZM18.0452 11.2685C16.3099 11.2842 14.9748 12.5685 14.9926 14.2046C15.0104 15.8333 16.385 17.0981 18.1174 17.0787C19.8418 17.0602 21.2086 15.7472 21.1809 14.137C21.1532 12.5065 19.7816 11.2518 18.0452 11.2685Z" fill="#25282B"/>
<path d="M83.8549 20.5251C81.6363 21.3223 79.4958 21.2844 77.4136 20.2205C74.4075 18.6835 72.9726 15.3196 74.0072 12.1992C75.0014 9.20384 78.2754 7.14273 81.5187 7.46958C85.1179 7.83254 87.793 10.3224 88.132 13.5751C88.2713 14.9103 88.0855 16.1872 87.3928 17.3473C87.0755 17.8788 87.1941 18.2186 87.5183 18.6464C90.0462 21.9751 92.0404 25.5686 93.4516 29.4353C95.5446 35.1677 96.3421 41.0566 95.8648 47.1075C95.4557 52.2871 94.0751 57.2186 91.8022 61.9417C91.2696 63.0491 90.4671 63.5575 89.5095 63.4158C87.9452 63.1834 87.3651 61.9427 87.9798 60.3593C88.9127 57.9529 90.0135 55.5732 90.6262 53.0918C93.5069 41.4408 91.2913 30.652 84.0575 20.7872C84.0002 20.7066 83.9369 20.6307 83.8549 20.5251ZM80.8892 11.3381C79.1806 11.3575 77.8139 12.6807 77.8327 14.2983C77.8504 15.9186 79.2438 17.2029 80.9624 17.1844C82.6789 17.1659 84.0427 15.8492 84.0219 14.2298C84.0012 12.6168 82.5949 11.3187 80.8892 11.3381Z" fill="#25282B"/>
<path d="M15.1642 66.9842C17.3018 66.2111 19.3879 66.2139 21.4148 67.2046C24.6453 68.7842 26.1009 72.2324 24.9299 75.4991C23.8181 78.6 20.3218 80.5379 16.8729 79.9648C13.2698 79.3657 10.7143 76.4935 10.8674 73.0648C10.9099 72.1166 11.1856 71.1296 11.5948 70.2611C11.8863 69.6417 11.7964 69.2731 11.4287 68.7879C8.92853 65.4824 6.97876 61.9056 5.55868 58.0796C3.8698 53.5278 3.05748 48.8306 3.00016 44.0167C2.98534 42.75 3.82731 41.8621 5.00033 41.8167C6.19213 41.7704 7.11711 42.6528 7.14478 43.9843C7.24558 48.8713 8.13894 53.6074 10.0353 58.1722C11.326 61.2778 13.0168 64.1722 15.1642 66.9842ZM14.9972 73.2546C15.0002 74.8815 16.3699 76.1731 18.0904 76.1694C19.803 76.1666 21.1855 74.8583 21.1825 73.2435C21.1796 71.6361 19.7793 70.3176 18.0785 70.3213C16.3689 70.325 14.9943 71.6324 14.9972 73.2546Z" fill="#25282B"/>
<path d="M7.96402 35.6269C7.98577 36.6639 7.05486 37.5546 5.93124 37.5713C4.80862 37.588 3.853 36.7315 3.83225 35.688C3.8115 34.6509 4.74339 33.7621 5.86503 33.7472C6.98963 33.7333 7.94228 34.5861 7.96402 35.6269Z" fill="#25282B"/>
<path d="M81.3898 69.2153C81.372 68.1569 82.2733 67.2653 83.387 67.2393C84.4879 67.2134 85.4445 68.0884 85.4672 69.1421C85.4899 70.2004 84.5877 71.0856 83.466 71.1041C82.3325 71.1227 81.4076 70.2819 81.3898 69.2153Z" fill="#25282B"/>
<path d="M60.6077 80.8744C61.6967 80.854 62.682 81.7494 62.7027 82.7781C62.7235 83.7984 61.7639 84.7299 60.6739 84.7484C59.5918 84.7669 58.5937 83.8605 58.5719 82.8401C58.5512 81.8216 59.5098 80.8957 60.6077 80.8744Z" fill="#25282B"/>
<path d="M35.1415 89.7103C34.01 89.7056 33.1077 88.8482 33.1127 87.7816C33.1176 86.7167 34.0268 85.8704 35.1613 85.876C36.2859 85.8806 37.2079 86.7501 37.203 87.801C37.198 88.8473 36.2612 89.7149 35.1415 89.7103Z" fill="#25282B"/>
<path d="M43.7278 91.0299C43.7199 89.965 44.6271 89.0854 45.7438 89.0743C46.8477 89.0641 47.7924 89.9465 47.8013 90.9993C47.8102 92.0512 46.8842 92.9456 45.7754 92.9558C44.6627 92.965 43.7357 92.0937 43.7278 91.0299Z" fill="#25282B"/>
</svg>
