<svg width="100" height="100" viewBox="0 0 100 100" fill="none" xmlns="http://www.w3.org/2000/svg">
<path d="M4.90963 98.7038C4.52907 98.7038 4.14852 98.7038 3.76796 98.7038C2.87722 98.1279 2.72537 97.3399 2.905 96.3242C3.61148 92.3334 4.22259 88.3251 4.93 84.3343C5.48185 81.2195 5.8513 78.0371 6.7763 75.0316C9.71241 65.489 18.4652 59.1816 28.4606 59.1334C30.0346 59.126 31.6096 59.1325 33.2587 59.1325C33.2587 58.4603 33.1939 57.8871 33.2735 57.3344C33.4059 56.4075 33.0309 55.9816 32.192 55.5631C26.4115 52.6769 22.8633 48.0186 21.5069 41.7093C21.3791 41.1168 21.23 40.8862 20.5837 40.8223C17.8661 40.5538 15.6633 38.5121 15.2031 35.939C14.7013 33.1343 16.0374 30.5279 18.6244 29.2612C18.8115 29.1695 18.9911 29.0603 19.1985 28.9464C19.0217 28.5806 18.8661 28.2714 18.7207 27.9566C16.9976 24.2297 16.0652 20.3519 16.7217 16.2371C17.5633 10.9566 20.2485 6.89639 25.442 5.24083C28.4624 4.27787 31.4837 3.36028 34.443 2.21213C35.7457 1.70657 37.2004 1.58991 38.5865 1.29639C42.0744 1.29639 45.5624 1.29639 49.0504 1.29639C49.2263 1.35472 49.3976 1.44083 49.5772 1.46676C58.5133 2.74176 64.7874 10.9816 63.5161 19.8779C63.2439 21.7816 62.693 23.6464 62.2596 25.526C62.0143 26.5899 61.7448 27.6473 61.542 28.476C62.7439 29.1343 63.9281 29.5381 64.7883 30.3056C66.7235 32.0316 67.1652 34.2843 66.3846 36.7297C65.5846 39.2362 63.7411 40.5214 61.1911 40.8177C60.5911 40.8871 60.3004 41.0177 60.2319 41.6714C60.1633 42.3251 59.9522 42.9695 59.7513 43.6019C57.992 49.1519 54.4726 53.1825 49.2522 55.7492C48.9531 55.8964 48.5439 56.1899 48.5161 56.451C48.4226 57.3158 48.4809 58.1973 48.4809 59.1668C62.5689 58.2482 72.0235 63.9612 75.867 77.7269C75.8439 77.8056 75.8763 77.7464 75.8763 77.6871C75.8791 76.7677 75.8782 75.8492 75.8772 74.9297C75.8763 73.5371 76.0522 73.2742 77.3976 72.7168C77.3976 71.8195 77.3578 70.8992 77.4096 69.9853C77.4541 69.2121 77.2356 68.6168 76.7235 68.014C75.492 66.5649 74.5282 64.8862 74.4837 62.976C74.4069 59.6603 74.3689 56.3186 74.6957 53.0251C74.9856 50.1056 76.6633 47.9825 79.6772 47.2251C80.4013 47.0427 81.1578 46.9871 81.9633 46.864C81.9633 46.4723 81.9633 46.0973 81.9633 45.7223C81.9633 31.6482 81.9707 17.5751 81.9467 3.50102C81.9448 2.57416 82.1356 1.83157 82.9143 1.29639C83.2948 1.29639 83.6754 1.29639 84.0559 1.29639C84.83 1.83342 85.0254 2.57324 85.0235 3.50102C84.9995 17.7269 85.0069 31.9529 85.0069 46.1788C85.0069 46.5538 85.0069 46.9288 85.0069 47.1408C86.7559 47.1408 88.4393 46.9732 90.0772 47.1751C93.5846 47.6084 97.3967 50.0075 97.1957 55.176C97.142 56.5677 97.1763 57.964 97.205 59.3575C97.2809 63.101 96.0022 66.2288 93.0846 68.6482C92.8522 68.8408 92.6532 69.2084 92.6383 69.5038C92.5856 70.5769 92.617 71.6538 92.617 72.7658C93.8902 73.0168 94.1569 73.8705 94.1522 75.0177C94.1244 82.1779 94.1245 89.339 94.1559 96.4992C94.1596 97.4279 93.9569 98.164 93.1874 98.7038C92.8069 98.7038 92.4263 98.7038 92.0457 98.7038C91.2717 98.1658 91.0726 97.4279 91.0772 96.4992C91.1096 89.9705 91.0948 83.4408 91.0948 76.9121C91.0948 76.5788 91.0948 76.2464 91.0948 75.9232C86.9689 75.9232 82.9874 75.9232 78.918 75.9232C78.918 76.3112 78.918 76.6519 78.918 76.9927C78.9161 83.4584 78.9059 89.9242 78.9226 96.3899C78.9254 97.3214 78.7624 98.1297 77.9661 98.7047C77.5856 98.7047 77.205 98.7047 76.8244 98.7047C76.443 97.8242 75.8735 96.9769 75.7106 96.0575C74.7596 90.6668 73.8485 85.2677 73.0291 79.8556C71.8402 72.0029 67.7346 66.4464 60.3356 63.4306C58.455 62.664 56.4782 62.2705 54.3874 62.1982C53.8078 65.6251 53.242 68.9908 52.6689 72.3556C52.3939 73.9695 51.4541 74.4343 50.0309 73.6519C49.0143 73.0927 48.0124 72.5066 47.1198 71.9982C46.3374 73.4038 45.5957 74.7381 44.9143 75.9621C45.2106 76.876 45.668 77.801 45.7994 78.7695C46.6022 84.6649 47.3235 90.5723 48.093 96.4723C48.2281 97.5112 47.9467 98.2742 46.9522 98.7047C46.6985 98.7047 46.4448 98.7047 46.1911 98.7047C45.817 98.1945 45.3402 97.7279 45.0985 97.1612C44.8846 96.6584 44.9328 96.0436 44.8615 95.4788C44.1902 90.114 43.53 84.7473 42.8393 79.3853C42.6633 78.0186 41.9763 77.376 40.8707 77.3862C39.7698 77.3964 39.1078 78.0955 38.9402 79.4269C38.2078 85.2306 37.4596 91.0316 36.7596 96.839C36.6541 97.7158 36.3004 98.3158 35.5356 98.7047C35.2819 98.7047 35.0281 98.7047 34.7744 98.7047C33.9689 98.2418 33.5356 97.626 33.6633 96.6195C34.318 91.4705 34.8985 86.3112 35.5874 81.1668C35.8272 79.3769 35.7837 77.4714 36.9615 76.1371C36.1717 74.7084 35.4356 73.3779 34.6819 72.0149C33.7263 72.5482 32.6717 73.188 31.5717 73.7371C30.3124 74.3668 29.6522 74.1131 29.3013 72.751C28.8837 71.1316 28.6069 69.4742 28.3143 67.8251C27.9846 65.9649 27.7069 64.0945 27.4031 62.2084C27.1226 62.2084 26.9346 62.1964 26.7485 62.2103C17.8272 62.8566 10.2837 69.8566 8.89018 78.7214C7.93741 84.7853 6.94389 90.8427 5.90315 96.8918C5.80037 97.5334 5.25407 98.101 4.90963 98.7038ZM58.8485 26.5908C59.3559 24.5918 59.8328 22.8612 60.2328 21.1121C62.1069 12.9186 57.0439 5.51305 48.7143 4.45842C46.3726 4.16213 43.9661 4.41861 41.593 4.32879C37.9124 4.18805 34.505 5.01861 31.3281 6.88805C30.8106 7.19268 30.1504 7.33157 29.5411 7.39083C25.9717 7.73898 23.092 9.30194 21.23 12.376C18.2226 17.3408 19.693 22.2242 21.6504 27.1936C21.7883 27.0084 21.8365 26.9686 21.8513 26.9195C21.9235 26.6769 21.9865 26.4316 22.0541 26.1881C23.3198 21.6112 25.5781 17.5973 28.8791 14.1797C29.8485 13.1751 30.7615 13.2205 31.5791 14.314C33.4828 16.8612 36.0198 18.0621 39.1911 18.0464C44.1976 18.0205 49.205 18.0584 54.2115 18.0223C55.1467 18.0158 55.717 18.364 56.043 19.1964C56.4467 20.2269 56.8494 21.2584 57.242 22.2936C57.7531 23.6436 58.2541 25.0001 58.8485 26.5908ZM24.2893 31.7705C24.2893 34.5593 24.0439 37.3288 24.3356 40.0408C25.1893 47.9816 32.1124 54.2621 40.0652 54.5529C48.3411 54.8556 55.7448 49.2918 57.1633 41.3334C57.7069 38.2853 57.455 35.0945 57.5606 31.9686C57.5624 31.9186 57.4967 31.8658 57.4383 31.7788C57.2467 31.764 57.0291 31.7306 56.8124 31.7334C56.5726 31.7371 56.3328 31.7732 56.0846 31.7955C56.0846 32.0584 56.0846 32.2473 56.0846 32.4362C56.0754 36.0899 53.2754 39.1121 49.6967 39.3316C46.0374 39.5556 42.8689 36.9103 42.4244 33.2575C42.2633 31.9362 41.8606 31.626 40.5078 31.7621C39.7393 31.839 39.3365 32.0649 39.292 33.0214C39.1337 36.3899 36.293 39.1362 32.9383 39.3325C29.5189 39.5334 26.4846 37.2306 25.8152 33.8927C25.6754 33.1955 25.6494 32.4751 25.5717 31.7705C25.092 31.7705 24.6596 31.7705 24.2893 31.7705ZM89.5652 72.8103C89.5652 71.5019 89.6004 70.2723 89.5541 69.0464C89.5152 68.0149 89.8457 67.2862 90.6985 66.6177C93.0124 64.8056 94.3828 62.5001 94.1606 59.4084C94.0494 57.863 94.1263 56.3038 94.1448 54.751C94.167 52.9418 93.3226 51.6621 91.7578 50.851C90.0624 49.9723 88.2596 49.8158 86.3976 50.1881C84.642 50.5381 83.8606 51.2019 83.6985 52.9936C83.5078 55.101 83.5152 57.2288 83.5096 59.3473C83.5078 60.1519 84.0643 60.5668 84.8698 60.6575C86.0004 60.7853 86.5976 61.4047 86.5198 62.3223C86.4467 63.1825 85.7522 63.6982 84.6689 63.6973C82.6189 63.6945 80.5856 61.9408 80.5106 59.7482C80.3995 56.5131 79.9939 53.2205 81.3568 50.0936C79.2967 50.0723 77.8624 51.3251 77.6263 53.7445C77.3865 56.1945 77.4624 58.6751 77.3911 61.1418C77.3282 63.3251 78.1643 65.1705 79.605 66.7334C80.2143 67.3945 80.4846 68.0649 80.455 68.9445C80.4115 70.2269 80.4439 71.5131 80.4439 72.8121C83.5346 72.8103 86.4791 72.8103 89.5652 72.8103ZM56.3226 28.5992C55.4819 26.3455 54.6152 24.1103 53.8244 21.8482C53.6031 21.2158 53.292 21.064 52.6624 21.0677C48.0022 21.0936 43.342 21.0992 38.6819 21.0751C35.6393 21.0593 32.9902 19.9927 30.743 17.9362C30.543 17.7538 30.3309 17.5853 30.0902 17.3806C27.2865 20.6945 25.4828 24.3964 24.643 28.6306C25.8115 28.7381 26.7244 28.8001 27.6235 27.7353C29.7587 25.2084 33.6152 24.8482 36.342 26.7492C37.2133 27.3566 37.9744 28.1223 38.83 28.8538C39.942 28.8538 41.2902 28.7862 42.6254 28.8871C43.1633 28.9279 43.4356 28.8834 43.7763 28.4362C46.4744 24.9001 51.4189 24.6788 54.3457 27.989C54.917 28.6343 55.4633 28.8251 56.3226 28.5992ZM32.5124 36.2945C34.6041 36.2844 36.305 34.5695 36.2967 32.4797C36.2883 30.3927 34.5754 28.6955 32.4791 28.6955C30.3939 28.6955 28.6819 30.4223 28.6967 32.5103C28.7115 34.6056 30.4254 36.3047 32.5124 36.2945ZM49.2281 36.2945C51.3207 36.2973 53.0337 34.5955 53.0393 32.5066C53.0448 30.4186 51.3439 28.7084 49.2485 28.6955C47.1633 28.6816 45.4374 30.3973 45.4393 32.4825C45.4402 34.5797 47.142 36.2918 49.2281 36.2945ZM36.3031 57.0806C36.3031 57.7418 36.2809 58.2779 36.3096 58.8112C36.3346 59.2714 36.2467 59.8853 36.5013 60.1603C37.892 61.6612 39.3735 63.0779 40.8874 64.5881C42.3726 63.0973 43.8013 61.6705 45.2161 60.2306C45.3346 60.1103 45.4189 59.9019 45.4226 59.7316C45.443 58.8816 45.4319 58.0306 45.4319 57.0779C42.3809 57.7621 39.4022 57.7603 36.3031 57.0806ZM38.3513 66.4242C36.9457 65.0066 35.6161 63.6612 34.2781 62.3242C34.1985 62.2445 34.0559 62.188 33.942 62.1871C32.8217 62.1769 31.7004 62.1806 30.492 62.1806C30.9448 64.9038 31.3707 67.4705 31.818 70.1612C34.0578 68.8797 36.1606 67.6769 38.3513 66.4242ZM51.2448 62.176C50.7902 62.176 50.5022 62.2177 50.23 62.1695C48.3374 61.8325 46.9013 62.4834 45.742 64.014C45.0911 64.8732 44.2383 65.5797 43.4263 66.4066C45.6828 67.6945 47.7911 68.8982 49.9994 70.1584C50.4189 67.4658 50.8226 64.8825 51.2448 62.176ZM44.0744 70.339C43.118 69.7871 42.1448 69.214 41.1569 68.6677C41.017 68.5908 40.7661 68.5769 40.6309 68.651C39.6152 69.2047 38.6143 69.788 37.6374 70.3455C38.4781 73.4186 39.2939 74.3899 40.9374 74.3492C42.5467 74.3084 43.4133 73.2177 44.0744 70.339ZM21.0744 37.7612C21.0744 35.9677 21.08 34.1714 21.0707 32.376C21.068 31.8297 20.7828 31.6853 20.2559 31.8103C18.8226 32.1519 17.7596 33.6168 17.9281 35.0677C18.1189 36.7019 19.3744 37.8029 21.0744 37.7612ZM60.6957 37.7547C62.3828 37.7362 63.6467 36.4723 63.7032 34.8362C63.7541 33.3482 62.3846 31.6631 60.6957 31.7918C60.6957 33.7769 60.6957 35.7658 60.6957 37.7547Z" fill="#25282B"/>
<path d="M40.9041 50.0031C39.2476 49.954 37.8865 49.4466 36.7504 48.3901C35.9976 47.6901 35.9124 46.7938 36.5096 46.1262C37.0837 45.4845 37.9272 45.4568 38.7143 46.054C40.2809 47.241 41.4661 47.2475 42.9939 46.0771C43.7911 45.466 44.6032 45.4743 45.2022 46.0984C45.7995 46.7225 45.78 47.5456 45.0726 48.3003C43.9208 49.5308 42.4152 49.9253 40.9041 50.0031Z" fill="#25282B"/>
</svg>
