<svg width="100" height="100" viewBox="0 0 100 100" fill="none" xmlns="http://www.w3.org/2000/svg">
<path d="M0.00551423 34.3348C1.53728 32.7055 3.03485 31.0411 4.61403 29.4629C5.42678 28.6511 6.43582 28.752 7.31584 29.6239C8.55757 30.8541 9.77173 32.1137 10.9749 33.3836C11.8913 34.3495 11.9552 35.4799 11.1888 36.3314C10.4323 37.1716 9.31738 37.1682 8.31606 36.3212C8.19917 36.2226 8.08448 36.1217 7.87274 35.9391C7.87274 38.853 7.87274 41.6376 7.87274 44.5843C8.11866 44.2906 8.30393 44.0934 8.46273 43.8768C10.6937 40.8428 13.2278 38.1239 16.2726 35.938C24.249 30.2112 34.3097 31.4096 40.7742 38.8949C41.7634 40.04 42.6213 41.3122 43.4694 42.5752C44.2733 43.7736 44.0693 44.9823 43.0558 45.641C42.0402 46.302 40.9749 45.9766 40.1853 44.7101C38.2698 41.6353 35.9153 39.0276 32.5827 37.5956C27.1846 35.2758 22.1945 36.2634 17.6577 39.8893C12.1306 44.3076 8.42744 50.1127 6.10168 56.8145C5.11579 59.6569 4.60631 62.6808 3.9656 65.6411C3.71968 66.7771 4.55007 67.9245 5.50949 68.0708C6.50419 68.2227 7.27173 67.5084 7.45589 66.1796C8.54654 58.3009 11.6343 51.3972 17.0137 45.6433C18.1109 44.4698 19.3472 43.3949 20.6518 42.4732C25.3694 39.1387 31.0311 39.7793 35.0133 44.0219C37.4118 46.5775 38.8553 49.7124 40.0563 52.9834C42.0832 58.5039 43.1959 64.2794 44.5126 69.996C45.7775 75.4881 46.8968 81.0289 49.2193 86.1877C49.9118 87.7251 50.729 89.2353 51.6928 90.6049C55.4257 95.91 61.0675 97.3249 66.7876 94.4122C70.6132 92.4644 73.4826 89.3714 75.9705 85.8872C80.2107 79.9473 82.6886 73.267 83.766 66.0073C84.0307 64.2238 84.345 62.4483 84.6438 60.6705C84.8699 59.3259 84.3395 58.2805 83.2952 58.0458C82.3214 57.827 81.4193 58.641 81.1591 60.0027C80.4643 63.6399 79.9857 67.3361 79.0461 70.9042C77.2883 77.5788 74.0858 83.4677 69.0097 88.1185C67.7868 89.2387 66.3774 90.2194 64.9118 90.9712C61.1502 92.902 57.6467 92.0698 54.9471 88.7591C53.0117 86.385 51.7711 83.6004 50.987 80.6638C49.4475 74.903 48.0955 69.0878 46.6718 63.2941C46.5053 62.6139 46.3421 61.9313 46.2296 61.2397C46.0421 60.0844 46.6476 59.1354 47.6919 58.8757C48.6954 58.6252 49.6824 59.2408 49.9934 60.3735C50.2757 61.4018 50.461 62.4585 50.7643 63.4789C50.8392 63.7295 51.2087 64.0628 51.4425 64.064C59.7067 64.0878 67.9709 64.0765 76.2363 64.0674C76.2958 64.0674 76.3565 64.0266 76.5086 63.9721C76.7744 62.4166 77.0578 60.8145 77.3181 59.2091C77.8739 55.7816 80.6286 53.5617 83.7341 54.0515C86.9343 54.556 88.9932 57.4868 88.5587 60.9154C88.4297 61.9358 88.3073 62.9563 88.1749 64.0356C89.8071 64.0356 91.3907 64.0356 93.0978 64.0356C92.8783 63.7295 92.6908 63.4903 92.5243 63.2352C91.9685 62.3814 92.0633 61.3712 92.7559 60.6728C93.4738 59.9483 94.5633 59.8315 95.3187 60.5606C96.7656 61.9551 98.175 63.3962 99.5214 64.8916C100.266 65.7193 100.115 66.7647 99.2535 67.674C98.0735 68.92 96.8748 70.149 95.6672 71.3667C94.753 72.2896 93.6039 72.3679 92.7945 71.6003C91.9597 70.8078 91.9608 69.7069 92.7956 68.6536C92.8915 68.5323 92.9787 68.4019 93.1893 68.1094C91.2925 68.1094 89.5523 68.0855 87.8154 68.1422C87.618 68.149 87.317 68.5889 87.2618 68.8701C86.4612 72.9495 85.2702 76.8928 83.508 80.6457C80.3915 87.2829 75.9573 92.8374 70.1423 97.114C64.1399 101.528 55.0805 101.15 49.3516 94.0823C46.3741 90.4088 44.6515 86.0834 43.3878 81.5697C42.2199 77.4008 41.2759 73.1649 40.2823 68.9461C40.1279 68.2908 39.8919 68.0901 39.2534 68.0924C30.1103 68.1105 20.9671 68.1105 11.8229 68.0924C11.2484 68.0912 11.0311 68.3554 10.7135 68.8078C10.0794 69.7103 9.34385 70.5742 8.50795 71.276C8.03044 71.6774 7.79334 71.9767 7.79555 72.6196C7.81871 79.6446 7.8154 86.6707 7.79775 93.6957C7.79665 94.2138 7.73048 94.7864 7.50993 95.2388C7.09859 96.08 6.33106 96.3555 5.44332 96.1764C4.57653 96.0029 4.10124 95.3997 3.93913 94.5392C3.87848 94.2161 3.90715 93.8725 3.90715 93.5381C3.90605 86.6129 3.89722 79.6876 3.92038 72.7636C3.92259 72.1139 3.76599 71.7636 3.16277 71.4733C1.42259 70.6366 0.572343 69.0425 0.00110302 67.2522C0.00110302 66.5164 0.00110302 65.7805 0.00110302 65.0436C0.0573448 64.8576 0.141156 64.6751 0.165417 64.4846C0.728937 60.2182 1.92986 56.1467 3.65461 52.2283C3.82113 51.8496 3.89391 51.395 3.89502 50.9755C3.91156 46.2294 3.90604 41.4822 3.90163 36.7362C3.90163 36.5015 3.85311 36.2668 3.81893 35.9629C2.13498 37.4255 1.07742 37.2804 0 35.5355C0.0055139 35.1375 0.00551423 34.7362 0.00551423 34.3348ZM28.7031 64.0402C32.2188 64.0402 35.6187 64.0402 39.0285 64.0402C39.0428 63.8916 39.0781 63.7907 39.0582 63.7012C38.9369 63.1479 38.809 62.5957 38.6723 62.0458C37.7217 58.2238 36.6575 54.4403 34.9173 50.904C34.4641 49.9834 33.9358 49.0922 33.358 48.2476C30.2967 43.7816 25.8811 43.1274 21.7821 46.5832C17.328 50.3383 14.4773 55.2159 12.6643 60.776C12.3214 61.827 12.0776 62.912 11.7733 64.0402C16.2109 64.0402 20.4566 64.0402 24.8048 64.0402C24.8048 63.3633 24.7806 62.734 24.8103 62.1093C24.8633 60.9608 25.676 60.1161 26.7148 60.0912C27.7856 60.0662 28.6447 60.9347 28.6976 62.1309C28.7252 62.7284 28.7031 63.3281 28.7031 64.0402ZM51.7766 68.1672C52.9136 73.1116 53.8575 77.9677 55.8525 82.4926C56.4877 83.9337 57.3467 85.3124 58.3139 86.546C59.4619 88.0097 61.1502 88.326 62.8176 87.5335C63.8399 87.0471 64.8456 86.4507 65.719 85.7251C69.6924 82.4258 72.2982 78.1071 74.1685 73.2942C74.8093 71.6445 75.2713 69.9223 75.8371 68.166C72.242 68.166 68.8708 68.166 65.5073 68.166C65.1621 70.6717 64.7133 71.335 63.4131 71.3089C62.1626 71.284 61.7358 70.623 61.4171 68.1672C58.2543 68.1672 55.0827 68.1672 51.7766 68.1672Z" fill="#25282B"/>
<path d="M85.6722 13.4143C84.383 15.1807 83.1589 16.8576 81.9348 18.5345C81.7595 18.7748 81.5908 19.022 81.4 19.2499C80.6038 20.2 79.5065 20.3656 78.6331 19.6773C77.7718 18.9982 77.6141 17.8168 78.3199 16.8179C79.5043 15.141 80.7295 13.4936 81.937 11.8326C82.3462 11.2703 82.752 10.7068 83.2251 10.0548C82.2855 8.76118 81.3393 7.45619 80.3909 6.15346C79.7679 5.29631 79.1382 4.44484 78.5195 3.58429C77.6307 2.34845 77.6913 1.1387 78.6695 0.409667C79.6697 -0.336369 80.7328 -0.059723 81.6647 1.20899C82.977 2.99585 84.2793 4.79064 85.6722 6.70108C86.604 5.42557 87.4939 4.20787 88.3828 2.99018C88.8515 2.34845 89.3157 1.70332 89.791 1.06613C90.6314 -0.0597234 91.7099 -0.30689 92.6572 0.398329C93.6287 1.12282 93.739 2.31671 92.8987 3.48678C91.5081 5.4233 90.1219 7.36549 88.6717 9.25438C88.1909 9.88137 88.2394 10.2827 88.6938 10.8802C90.1153 12.7499 91.4838 14.6648 92.859 16.5719C93.7235 17.7703 93.6574 18.9109 92.7079 19.6717C91.7463 20.4426 90.6082 20.1694 89.7039 18.9358C88.374 17.1263 87.0539 15.3088 85.6722 13.4143Z" fill="#25282B"/>
<path d="M44.7677 20.1164C41.9975 20.0109 39.975 19.0245 38.397 17.1062C37.6305 16.1742 37.6857 14.9769 38.4907 14.2309C39.3211 13.4599 40.436 13.5052 41.2686 14.4327C42.0979 15.3556 43.0408 16.0007 44.2869 16.0676C45.3963 16.1266 46.2421 15.5381 46.5322 14.5381C46.7902 13.6481 46.4076 12.8238 45.3632 12.2751C44.0917 11.6061 42.7695 11.0404 41.4947 10.3782C39.3145 9.24557 38.3826 7.39409 38.6638 4.86686C38.9098 2.65143 40.522 0.769333 42.6967 0.228514C45.2948 -0.417748 47.5092 0.446203 49.4358 2.20585C50.2309 2.93148 50.2662 4.12083 49.6321 4.92355C48.9594 5.77503 47.8897 5.86573 46.9214 5.24895C46.2135 4.7977 45.4757 4.32831 44.6872 4.09475C43.6363 3.78409 42.7232 4.38613 42.5644 5.3011C42.4453 5.99045 42.5919 6.52787 43.2988 6.8476C44.6067 7.43717 45.9245 8.02107 47.1773 8.72176C49.3387 9.93151 50.6786 11.7762 50.5 14.3896C50.3191 17.037 48.8833 18.8488 46.4461 19.7502C45.8143 19.9815 45.1228 20.0415 44.7677 20.1164Z" fill="#25282B"/>
<path d="M12.3799 11.4214C13.1056 9.27971 13.7198 7.37947 14.3936 5.50191C14.8987 4.09374 16.276 3.60281 17.3678 4.4044C18.1927 5.00984 18.3779 5.86359 18.0625 6.80917C16.3014 12.0836 14.5326 17.3546 12.7449 22.6188C12.3391 23.8149 11.3356 24.3557 10.3067 24.0315C9.23259 23.6925 8.71429 22.5972 9.04843 21.3637C9.09144 21.2027 9.13114 21.036 9.20833 20.8909C10.4026 18.6414 10.2306 16.4623 9.21826 14.1448C8.25002 11.9282 7.59717 9.56769 6.81199 7.26722C6.2573 5.64363 6.63003 4.55746 7.87507 4.13456C9.03299 3.74113 9.95822 4.38172 10.5085 5.9713C11.1051 7.69807 11.6951 9.4271 12.3799 11.4214Z" fill="#25282B"/>
<path d="M62.2539 14.0249C62.2539 12.755 62.2341 11.4852 62.2594 10.2153C62.2958 8.43639 63.639 7.61439 65.2193 8.34115C65.4961 8.46814 65.8942 8.46814 66.1897 8.3729C70.0076 7.1484 73.7041 9.72551 73.9434 13.8434C74.0228 15.2085 73.9919 16.5838 73.9566 17.9523C73.9224 19.2505 73.0942 20.1008 71.9705 20.0861C70.8302 20.0702 70.0892 19.2312 70.0682 17.8922C70.0506 16.7233 70.0781 15.5532 70.0594 14.3843C70.0362 12.9636 69.208 12.0305 68.038 12.0679C66.8944 12.1042 66.1743 12.9908 66.1611 14.4024C66.15 15.5385 66.1754 16.6745 66.1533 17.8106C66.1269 19.1995 65.3571 20.0782 64.2014 20.085C63.0259 20.0918 62.2738 19.2358 62.2583 17.8333C62.2418 16.5645 62.2539 15.2947 62.2539 14.0249Z" fill="#25282B"/>
<path d="M28.0258 8.04281C26.7609 8.04281 25.495 8.06095 24.2312 8.03827C22.9961 8.01673 22.1193 7.16752 22.116 6.03826C22.1127 4.91354 22.995 4.04052 24.2246 4.03032C26.7224 4.00877 29.2201 4.00877 31.7179 4.03032C32.9928 4.04165 33.8044 4.85118 33.8044 6.03146C33.8055 7.21628 33.0005 8.0122 31.7235 8.03714C30.4917 8.06095 29.2587 8.04281 28.0258 8.04281Z" fill="#25282B"/>
<path d="M27.9601 16.0742C26.7272 16.0742 25.4943 16.0867 24.2625 16.0708C23.0131 16.0549 22.1408 15.242 22.1165 14.1082C22.0922 12.954 23.002 12.0753 24.2934 12.0663C26.7581 12.0493 29.2239 12.0481 31.6886 12.0674C32.98 12.0776 33.7905 12.861 33.806 14.0391C33.8214 15.267 32.9998 16.0561 31.6578 16.072C30.4248 16.0856 29.193 16.0742 27.9601 16.0742Z" fill="#25282B"/>
<path d="M54.4502 14.5186C54.4502 13.3848 54.4292 12.2499 54.4557 11.1161C54.4844 9.93016 55.2387 9.10929 56.2918 9.05713C57.3637 9.00385 58.2967 9.82585 58.3243 11.0299C58.3783 13.3962 58.3805 15.7669 58.3221 18.1331C58.2923 19.3395 57.3659 20.14 56.2775 20.0833C55.2188 20.0288 54.4833 19.2216 54.4557 18.0198C54.4292 16.8542 54.4502 15.6864 54.4502 14.5186Z" fill="#25282B"/>
<path d="M54.455 2.05586C54.4374 0.91753 55.3009 0.00822829 56.3915 0.0161648C57.4248 0.0241014 58.3115 0.920931 58.3335 1.97989C58.3556 3.07627 57.4414 4.02526 56.3684 4.01959C55.3119 4.01392 54.4727 3.15224 54.455 2.05586Z" fill="#25282B"/>
<path d="M47.6314 52.1308C47.6446 53.2249 46.715 54.1841 45.6563 54.1671C44.6241 54.1512 43.7551 53.2487 43.7419 52.1807C43.7286 51.0843 44.5425 50.209 45.6067 50.1739C46.7149 50.1387 47.617 51.0106 47.6314 52.1308Z" fill="#25282B"/>
<path d="M28.7037 51.0691C28.7037 51.7017 28.7214 52.3355 28.6993 52.9682C28.6552 54.2131 27.8899 55.0237 26.7783 55.0362C25.6281 55.0498 24.8308 54.2165 24.8065 52.9217C24.7823 51.6564 24.7812 50.3888 24.8076 49.1235C24.833 47.9262 25.6656 47.0441 26.7265 47.0271C27.8237 47.0101 28.664 47.9115 28.7004 49.17C28.7192 49.8026 28.7037 50.4364 28.7037 51.0691Z" fill="#25282B"/>
<path d="M65.4056 80.4163C65.4056 81.0489 65.4254 81.6827 65.4012 82.3142C65.3549 83.5535 64.584 84.363 63.4702 84.3709C62.3564 84.38 61.5414 83.5716 61.5117 82.3483C61.4786 81.0172 61.4753 79.6827 61.515 78.3516C61.5492 77.2099 62.3917 76.3834 63.436 76.3732C64.477 76.3618 65.3284 77.1827 65.3934 78.3176C65.4331 79.0149 65.4012 79.7167 65.4012 80.4151C65.4023 80.4163 65.4045 80.4163 65.4056 80.4163Z" fill="#25282B"/>
</svg>
