<svg width="100" height="100" viewBox="0 0 100 100" fill="none" xmlns="http://www.w3.org/2000/svg">
<path d="M47.6207 0.227005C41.8262 1.81045 37.4951 8.02692 34.0738 19.6779C33.7771 20.6944 33.52 21.5546 33.4805 21.5937C33.4607 21.6132 32.3334 21.3786 30.9886 21.0659C21.3574 18.7982 14.7323 18.8178 10.2034 21.1832C8.46308 22.0824 6.68318 23.92 5.83279 25.6793C5.21972 26.9696 5.19994 27.0868 5.19994 29.6477C5.19994 31.7785 5.27905 32.5214 5.61525 33.5574L6.03056 34.8477L5.37793 35.5905C3.61781 37.604 3.65737 41.1228 5.47681 43.1754C6.62386 44.446 8.02799 45.1302 9.76833 45.2475C10.5594 45.2866 11.4691 45.2475 11.7855 45.1302C12.3195 44.9543 12.4184 44.9934 12.7942 45.5017C13.0315 45.8144 14.0796 46.9483 15.1278 48.0234L17.0263 49.9783L14.9696 52.0896C4.96262 62.333 2.25323 71.4427 7.65224 76.7795C9.47168 78.578 12.7348 79.9073 16.0573 80.22C17.2439 80.3178 17.3625 80.2982 17.8372 79.8291C18.47 79.2035 18.4898 78.4411 17.8965 77.8547C17.5603 77.5223 17.1252 77.3659 16.0968 77.2682C13.2688 76.9945 10.4803 75.7434 9.25414 74.2186C8.3642 73.1239 8.02799 71.9901 8.02799 70.2111C8.02799 66.0082 11.5087 59.8895 17.4021 53.7903L19.1029 52.0309L20.0522 52.852C22.5836 55.0414 26.4795 58.1301 28.4177 59.4985L30.5733 61.0233L30.7117 62.3917C30.9491 64.8548 31.7995 70.5435 32.2939 72.948C32.551 74.2382 32.7092 75.3524 32.6301 75.4306C32.551 75.4893 31.4633 75.7825 30.2173 76.0562C28.2594 76.4863 27.0135 76.7013 23.3351 77.2682C21.9903 77.4832 21.5156 78.6171 22.366 79.614C22.7616 80.0637 22.9791 80.1418 23.7504 80.1223C25.0359 80.0637 28.9318 79.3795 31.3446 78.793C32.4719 78.4998 33.4409 78.3043 33.4607 78.3434C33.5002 78.3825 33.8958 79.6531 34.3506 81.1388C37.0205 89.9553 40.2638 95.5462 44.2587 98.1657C49.1633 101.391 54.4041 100.336 58.7154 95.2139L59.8427 93.9041L61.405 93.865C62.6707 93.8454 63.1849 93.7477 64.0748 93.3176C66.2305 92.2816 67.4566 90.3462 67.4764 88.0004C67.4962 86.2606 67.1798 85.4004 66.0723 84.0516L65.1823 82.9764L65.835 80.6892C66.1909 79.4381 66.5074 78.3825 66.5271 78.3629C66.5667 78.3238 67.8917 78.5975 69.5134 78.9689C78.7886 81.1388 85.3545 81.0802 89.8437 78.7539C93.6211 76.799 95.5592 72.987 94.9461 68.7841C94.6495 66.8683 94.0166 64.8353 93.4826 64.1706C92.6916 63.1932 90.9314 63.721 90.9314 64.933C90.9314 65.2067 91.0501 65.7345 91.2083 66.0864C91.3665 66.4578 91.6434 67.4352 91.8214 68.2563C92.8696 72.8698 90.5953 75.9584 85.2951 77.0727C81.4189 77.8938 74.0422 77.2486 67.9708 75.587L67.2589 75.3915L67.7137 73.1825C68.2675 70.5826 69.1179 64.9917 69.2959 62.7436L69.4343 61.1406L72.3415 58.9902C73.9434 57.8173 76.4352 55.8429 77.8789 54.6309C79.3226 53.4189 80.6081 52.3437 80.7465 52.2459C81.1223 51.9723 84.9985 56.1361 87.3914 59.3812C88.3605 60.691 88.6571 60.9255 89.3691 60.9255C89.9228 60.9255 90.7337 60.0654 90.7337 59.4985C90.7337 58.6774 88.4396 55.6474 84.9391 51.8941L83.179 49.9978L85.3149 47.6911C92.1576 40.3017 95.0845 34.9845 95.0845 29.9214C95.0845 26.8914 94.2341 24.8778 92.1576 22.9816C90.793 21.7305 88.9736 20.7922 86.8575 20.2644C86.0071 20.0493 85.2556 19.7952 85.1765 19.717C85.0974 19.6388 84.9391 19.2283 84.8007 18.7982C84.425 17.6839 82.5857 15.9246 81.3596 15.514C78.0569 14.3998 74.5762 16.0223 73.5083 19.1501C73.2314 19.9711 73.0534 20.1862 72.5986 20.3035C70.5616 20.8117 66.5667 21.6523 66.5271 21.5937C66.5074 21.5741 66.27 20.7922 66.0327 19.8734C65.3405 17.4103 63.6595 12.9923 63.2442 12.5622C62.8091 12.1126 61.8203 12.0735 61.3457 12.4449C60.6139 13.0509 60.6535 13.481 61.6819 16.2373C62.6707 18.9351 63.7386 22.3952 63.62 22.4929C63.5804 22.5125 62.4334 22.923 61.0688 23.3922C58.0825 24.3891 55.3929 25.4448 52.4462 26.735C51.2201 27.2628 50.1521 27.6928 50.0532 27.6928C49.9544 27.6928 48.6293 27.165 47.1263 26.5004C44.1796 25.2493 40.1452 23.7245 37.7918 22.9816C36.1107 22.4538 36.1107 22.9816 37.6731 18.2509C40.1452 10.8028 43.7841 5.25101 47.3834 3.51118C48.3129 3.06156 48.7678 2.96381 49.9939 2.96381C51.2794 2.96381 51.6749 3.06156 52.7626 3.58937C54.2459 4.31268 55.9269 5.85702 57.4497 7.89008C58.4187 9.18028 58.577 9.31712 59.19 9.31712C60.0602 9.31712 60.6733 8.75021 60.6733 7.92917C60.6733 6.65851 57.3113 2.82697 54.9974 1.43903C54.3645 1.0676 53.4153 0.598434 52.8615 0.422493C51.4969 -0.0466766 48.9853 -0.144417 47.6207 0.227005ZM80.8454 18.5636C82.6648 19.7561 82.7439 22.3561 81.0036 23.6463C80.707 23.8613 80.0346 24.0764 79.5006 24.135C77.0285 24.3696 75.2684 21.7305 76.5143 19.6779C77.2263 18.5441 77.9382 18.1531 79.283 18.1336C79.9159 18.114 80.3905 18.2509 80.8454 18.5636ZM22.1089 22.6102C25.5303 22.9034 32.1752 24.1154 32.6301 24.5455C32.7092 24.6042 32.551 25.7184 32.2939 27.0087C31.7995 29.4131 30.9491 35.1018 30.7117 37.5649L30.5733 38.9333L28.4177 40.4581C26.4795 41.8265 22.5638 44.9347 20.0719 47.0851L19.1424 47.8866L18.5294 47.3197C18.1932 47.0069 17.2043 45.9904 16.3539 45.052L14.8114 43.3513L15.4442 42.1393C15.998 41.0641 16.0771 40.7318 16.0771 39.3438C16.0771 37.5063 15.6024 36.3138 14.3961 35.1213C13.2095 33.9484 11.9833 33.4597 10.243 33.4597H8.75973L8.48285 32.7755C8.34442 32.4041 8.18621 31.2507 8.12688 30.2146C7.98844 27.7515 8.34442 26.6177 9.64967 25.3275C10.7374 24.2523 11.5878 23.7831 13.5061 23.2162C15.8793 22.4929 18.5887 22.317 22.1089 22.6102ZM86.9761 23.3531C89.2109 24.0764 90.8128 25.3275 91.5445 26.9696C92.2763 28.553 92.1972 30.9184 91.3468 33.4206C90.002 37.2717 86.3037 42.6085 82.1704 46.6159L80.9047 47.867L78.4524 45.7753C77.1076 44.622 74.5169 42.5889 72.7172 41.2401L69.4343 38.816L69.2959 37.213C69.1179 35.004 68.2873 29.4131 67.7335 26.7545L67.2787 24.5651L68.0895 24.35C69.2959 24.0177 72.9941 23.1967 73.2512 23.1967C73.3698 23.1967 73.5874 23.4703 73.7456 23.8027C74.1609 24.8388 75.7628 26.2463 77.0285 26.7154C78.5711 27.2823 80.5092 27.1846 81.9529 26.4613C83.1197 25.8748 84.4843 24.4478 84.8007 23.4703C85.0578 22.7275 85.0974 22.7275 86.9761 23.3531ZM42.6766 27.8492C43.4874 28.162 44.6938 28.6703 45.3464 28.944L46.533 29.4718L44.4565 30.547C41.8064 31.9349 38.7608 33.6747 36.2492 35.2191C35.1615 35.8837 34.1529 36.4897 34.0144 36.5679C33.8364 36.6852 33.7969 36.5288 33.876 35.9619C34.4495 31.7199 34.6671 30.371 35.1021 28.1816C35.3592 26.7936 35.6361 25.5816 35.6757 25.5034C35.7745 25.3666 39.8683 26.735 42.6766 27.8492ZM64.7275 26.9305C65.1032 28.6898 65.9338 33.7529 66.1118 35.4928L66.2503 36.7634L65.6965 36.392C63.9364 35.2386 58.4385 32.0522 56.2829 30.9184C54.8787 30.1951 53.7515 29.55 53.7515 29.4522C53.7515 29.1981 64.1342 25.2493 64.3715 25.4252C64.3913 25.4448 64.5693 26.129 64.7275 26.9305ZM52.0111 32.0131C56.1642 34.0657 61.227 36.9785 64.9648 39.422L66.5865 40.4972L66.7447 41.9634C66.9425 43.8791 66.9425 56.097 66.7447 57.9932L66.5865 59.4594L65.2614 60.3195C61.2666 62.9586 56.2038 65.8713 52.0111 67.9435L50.0137 68.9405L47.3834 67.4939C42.6568 64.933 37.1194 61.7661 34.7462 60.2413L33.4409 59.4007L33.3025 57.3677C33.1245 54.8655 33.164 43.9573 33.342 41.9634L33.4805 40.4972L35.3592 39.2656C38.2466 37.3694 42.2019 35.0627 46.2364 32.9319C48.2536 31.8763 49.9148 31.0161 49.9544 31.0161C49.9741 31.0161 50.9036 31.4657 52.0111 32.0131ZM11.6471 36.7439C13.1501 37.7409 13.5852 39.2852 12.8139 40.7709C11.39 43.5468 7.03916 42.4716 7.03916 39.3438C7.03916 38.0145 7.83023 36.9003 9.05638 36.4311C9.78811 36.1574 10.9945 36.3138 11.6471 36.7439ZM30.2173 49.9783V57.2113L28.5759 55.9993C26.5191 54.4354 23.4735 51.9527 22.2671 50.8384L21.3376 49.9783L22.2671 49.1182C23.6713 47.8279 29.8811 42.8235 30.158 42.7649C30.1975 42.7453 30.2173 46.0099 30.2173 49.9783ZM73.9236 45.9122C75.5057 47.1633 77.2461 48.6099 77.78 49.0986L78.7689 49.9783L77.78 50.858C76.7121 51.8354 71.4317 56.0775 70.4627 56.7617L69.8694 57.1722V49.9783V42.7844L70.4627 43.1949C70.7989 43.4295 72.3415 44.6415 73.9236 45.9122ZM36.2492 64.7375C38.7608 66.2819 41.8064 68.0217 44.4565 69.4096L46.533 70.4848L45.3464 71.0126C42.0042 72.4592 35.8141 74.6682 35.6757 74.4532C35.6361 74.375 35.3592 73.163 35.1021 71.775C34.6671 69.5856 34.4495 68.2367 33.876 63.9947C33.7969 63.4278 33.8364 63.2714 34.0144 63.3887C34.1529 63.4669 35.1615 64.0729 36.2492 64.7375ZM66.1118 64.5811C65.9536 66.0668 64.9648 72.0096 64.6286 73.5735L64.411 74.5705L62.1565 73.8276C59.1505 72.8307 53.7515 70.6803 53.7515 70.5044C53.7515 70.4066 54.8787 69.7615 56.2829 69.0382C58.6363 67.8067 63.8573 64.7766 65.4197 63.7405C65.7954 63.4864 66.1316 63.2714 66.1712 63.2714C66.2107 63.2714 66.1712 63.8578 66.1118 64.5811ZM52.4462 73.2216C55.3929 74.5118 58.0825 75.5675 61.0688 76.5644C62.4334 77.0336 63.5804 77.4441 63.62 77.4637C63.6398 77.5028 63.4024 78.4802 63.0465 79.6531L62.4136 81.8035L60.9106 81.8817C59.1307 81.9599 58.1616 82.3704 57.0542 83.4651C54.7996 85.6937 54.6612 89.1147 56.718 91.656L57.3113 92.3597L55.828 93.7282C52.2287 97.0514 50.0532 97.7356 47.2845 96.4063C43.8038 94.7056 40.1254 89.0756 37.6731 81.7057C37.0798 79.9073 36.5458 78.2065 36.4865 77.9329C36.3678 77.4441 36.4272 77.405 38.6817 76.6817C41.0747 75.8998 46.1573 73.9254 48.4118 72.8893C49.1237 72.557 49.8159 72.2833 49.9741 72.2833C50.1126 72.2637 51.2201 72.6938 52.4462 73.2216ZM63.1849 85.3809C63.8573 85.7914 64.6286 87.1403 64.6286 87.9222C64.6088 88.7042 63.9364 89.9553 63.2442 90.444C60.9106 92.0861 57.5881 89.7207 58.4978 87.0425C59.1505 85.0681 61.3852 84.2862 63.1849 85.3809Z" fill="#25282B"/>
<path d="M48.2097 39.5576C42.6129 40.4764 38.618 45.9305 39.4684 51.4823C39.9431 54.571 41.9603 57.5228 44.6697 59.1062C46.8253 60.3769 49.9896 60.8265 52.5407 60.2401C56.2192 59.3799 59.4032 56.2717 60.3525 52.5966C60.9853 50.1334 60.6491 47.2989 59.423 44.9921C58.6319 43.4869 56.5554 41.4343 55.0128 40.6328C53.0549 39.6358 50.3653 39.2057 48.2097 39.5576ZM52.4221 42.7636C55.8039 43.8583 57.8606 46.8688 57.6629 50.4267C57.5047 53.3199 56.0412 55.4702 53.3911 56.7604C51.9672 57.4642 51.7892 57.5033 49.9896 57.5033C48.269 57.5033 47.9921 57.4446 46.8253 56.8777C41.9207 54.4928 40.8132 48.3936 44.5906 44.6207C46.7067 42.529 49.594 41.8448 52.4221 42.7636Z" fill="#25282B"/>
</svg>
