<svg width="100" height="100" viewBox="0 0 100 100" fill="none" xmlns="http://www.w3.org/2000/svg">
<path d="M46.7897 0.198601C45.676 0.804367 45.4611 1.85957 46.1059 3.4033C47.3368 6.27579 47.669 9.89085 46.907 12.2944C46.2817 14.268 45.2461 15.6554 42.3153 18.4106C39.6971 20.8728 37.9581 22.8269 36.8248 24.5269C36.5318 24.9959 36.2387 25.3672 36.1605 25.3672C36.1019 25.3672 35.8284 24.7223 35.5743 23.9407C34.9296 21.9084 33.4251 18.8992 32.0573 16.8669C30.6505 14.7565 27.9346 11.6104 27.0944 11.0828C26.1956 10.5357 25.2773 10.5943 24.6325 11.2392C24.105 11.7863 24.105 11.8254 23.8705 15.7922C23.4602 22.7292 22.6395 26.0902 19.8845 32.3042C16.9928 38.8113 16.4848 41.078 16.6606 46.9207C16.7778 51.0047 17.0709 52.8611 18.1847 56.2026C18.5168 57.2187 18.7513 58.059 18.7122 58.098C18.6731 58.1371 17.9893 58.0003 17.1882 57.7854C15.4492 57.336 12.6747 57.2969 11.1311 57.7072C9.15765 58.2348 7.61407 59.1532 6.03141 60.7165C3.68673 63.0614 2.72932 65.3477 2.72932 68.611C2.72932 71.8743 3.68673 74.1801 5.99233 76.5446C6.77389 77.3457 7.3796 78.0101 7.36006 78.0297C7.34052 78.0492 6.83251 78.2837 6.24634 78.5768C3.37411 79.9447 1.06851 82.9149 0.286949 86.1587C-1.11986 92.1381 2.78794 98.2935 8.90364 99.7395C11.5219 100.345 11.7368 100.306 31.7056 94.952L50.0137 90.0473L58.3763 92.2749C62.968 93.506 71.2134 95.7141 76.6844 97.1797C87.6653 100.13 88.6618 100.306 91.1237 99.7395C93.3902 99.2119 94.8556 98.3521 96.6141 96.5935C97.7669 95.4601 98.3726 94.6589 98.8416 93.6819C100.952 89.2852 100.131 84.2046 96.7704 80.7849C95.8326 79.8274 93.7224 78.3228 93.312 78.3228C92.5305 78.3032 92.6868 77.932 94.035 76.5641C96.3406 74.1801 97.298 71.8743 97.298 68.611C97.298 65.3477 96.3406 63.0614 93.9959 60.7165C92.4132 59.1532 90.8697 58.2348 88.8962 57.7072C87.3526 57.2969 84.5781 57.336 82.8391 57.7854C82.038 58.0003 81.3542 58.1567 81.3346 58.1176C81.2956 58.0785 81.53 57.2383 81.8622 56.2612C82.5265 54.1899 83.1518 51.2978 83.3472 49.2851C83.4644 47.9368 83.4448 47.8782 82.8782 47.2333C82.0967 46.3736 80.9634 46.3149 80.1818 47.0966C79.7324 47.5265 79.6152 47.9368 79.3026 50.0277C78.8923 52.6852 78.0912 55.4991 77.0361 57.9222L76.3522 59.5245L72.8938 60.4429C70.9985 60.951 68.8688 61.5177 68.1458 61.7131L66.8172 62.0844L66.8367 59.7981C66.8367 56.867 66.6413 55.9681 65.2541 52.6266C64.0426 49.7346 63.4956 47.6046 63.476 45.7482C63.4565 43.7746 63.2025 42.739 62.6358 42.2309C62.0106 41.7033 60.975 41.6447 60.2716 42.0941C59.5487 42.5631 57.7706 44.8494 56.9695 46.3149L56.2466 47.6046L54.5467 45.846C53.6088 44.8885 52.7491 43.8723 52.6123 43.5792C52.2411 42.778 52.3193 41.1952 52.7687 39.9055C53.1008 38.948 53.1204 38.6354 52.964 38.0492C52.5342 36.6227 51.2837 36.3491 49.4666 37.2675C47.1219 38.4595 44.8358 40.5308 43.683 42.5631C43.2141 43.3838 43.175 43.4034 43.175 42.8953C43.175 42.1137 42.7061 41.3125 42.1004 41.0389C40.7717 40.4331 40.0878 40.863 38.388 43.4229C34.5779 49.1483 33.1906 53.3496 33.1906 59.1923V62.0648L30.7091 61.4004C29.3414 61.0292 27.2117 60.4625 25.9612 60.1303L23.6946 59.5245L22.8935 57.6486C21.1937 53.6232 20.5098 50.2426 20.5098 45.8655C20.5098 41.332 20.9983 39.417 23.636 33.5157C26.0784 28.0052 26.9772 24.6637 27.6415 18.6451L27.7783 17.4922L28.8529 19.1337C31.0022 22.4361 32.3113 25.6994 33.0538 29.6271C33.2883 30.8972 33.6009 32.1088 33.7572 32.3432C34.1675 33.0076 35.1836 33.2617 36.0042 32.9295C36.5708 32.695 36.8444 32.3042 37.7822 30.565C39.8534 26.6178 41.9831 23.9016 45.168 21.1073C49.0562 17.6876 50.678 14.8933 51.186 10.8093C51.3618 9.38278 51.3423 8.40575 51.0688 6.64707L50.9711 5.98268L51.9089 6.62753C53.2962 7.58503 55.934 10.2035 57.0281 11.6691C59.8418 15.5186 61.1118 19.4072 61.2876 24.82C61.4049 28.396 61.2095 30.5846 60.4865 33.5743C59.9981 35.6261 60.0567 36.3687 60.8187 36.9353C61.0532 37.1307 61.6003 37.2871 62.0497 37.2871C62.7726 37.2871 62.9485 37.1698 63.7496 36.3296C65.8011 34.1215 68.3803 29.5098 69.5526 25.9534C70.1193 24.2143 70.725 21.459 71.0571 19.075L71.2134 17.9417L72.3467 19.8567C73.8903 22.4556 75.8246 26.4419 76.6648 28.7868C77.0556 29.8616 77.5245 31.1122 77.6808 31.5812C78.3256 33.3203 80.5922 33.4571 81.276 31.7961C81.5886 31.0731 81.4128 30.2915 80.3968 27.5362C78.5796 22.651 75.8442 17.6876 71.7996 11.884C69.5526 8.69885 69.0055 8.32758 67.6183 9.05059C66.6609 9.53911 66.5241 10.2035 66.9149 12.7633C67.501 16.6715 67.1493 20.7751 65.8793 24.4878L65.3518 26.0511L65.2345 23.8039C64.6484 13.7208 59.1384 5.53324 49.7792 0.823906C48.0207 -0.0554276 47.454 -0.172676 46.7897 0.198601ZM49.4079 45.8655C49.662 46.354 50.5998 47.4678 51.4791 48.3472C53.6284 50.4576 54.6053 52.3726 54.9961 55.3428C55.1719 56.6325 55.934 57.4141 57.0086 57.4141C57.7902 57.4141 58.7867 56.7497 58.8257 56.2026C58.8257 56.0658 58.8648 55.0301 58.9039 53.8968C58.943 52.4507 59.0797 51.4346 59.3924 50.4771L59.8222 49.1093L60.467 51.0634C60.8187 52.1381 61.4244 53.7014 61.7957 54.5221C62.7531 56.5739 62.9289 57.336 62.9289 59.4464C62.9289 60.8728 62.6749 62.866 62.4404 63.2177C62.4209 63.2373 59.6268 63.9994 56.2075 64.9178L50.0137 66.5788L43.8198 64.9178C40.4005 63.9994 37.6064 63.2373 37.5869 63.2177C37.3329 62.8074 37.0984 60.7165 37.0984 59.0165C37.0984 55.8313 37.5282 53.6623 38.7201 50.8093C39.0523 50.0081 39.3844 49.4415 39.4626 49.5392C39.5408 49.6173 39.7166 50.0472 39.8534 50.4771C40.2246 51.63 41.1625 53.4473 42.0613 54.737C43.3509 56.5934 44.4841 56.9256 45.6369 55.7727C46.3794 55.0301 46.4185 54.7761 46.0082 53.1738C45.6174 51.6691 45.6174 48.4058 46.0277 47.0379C46.4185 45.7092 47.1023 44.3609 47.7862 43.5597L48.3138 42.9148L48.6459 43.97C48.8218 44.5367 49.1735 45.3965 49.4079 45.8655ZM23.2452 63.4522C27.6024 64.6051 33.5814 66.2075 36.5318 66.9891C39.4821 67.7707 41.9636 68.4742 42.0613 68.5524C42.1394 68.611 39.8925 69.2949 37.0593 70.057L31.901 71.4249L24.7107 69.5099C20.7638 68.4351 17.3249 67.5753 17.0709 67.5753C16.8169 67.5753 16.3285 67.8294 15.9767 68.142C15.4492 68.611 15.332 68.8455 15.332 69.5294C15.332 70.9168 15.8791 71.2295 20.2753 72.3628C22.3269 72.8904 24.0268 73.379 24.0268 73.4376C24.0268 73.4962 21.7212 74.1606 18.9076 74.9227L13.7688 76.2905L12.362 75.8606C9.84151 75.0986 8.39563 73.9652 7.2819 71.8352C6.77389 70.8777 6.73481 70.6237 6.73481 68.6501C6.73481 66.6765 6.77389 66.4224 7.2819 65.4649C8.70825 62.7683 10.9748 61.3418 13.8665 61.3418C15.1366 61.3223 16.4457 61.6154 23.2452 63.4522ZM89.2479 61.9867C90.7133 62.7292 91.8466 63.843 92.6282 65.2695C93.273 66.4615 93.2925 66.5788 93.2925 68.6501C93.2925 70.7214 93.273 70.8387 92.6282 72.0306C91.8466 73.4767 90.5961 74.6687 89.2284 75.294C88.6618 75.548 84.6172 76.74 80.2014 77.9124C75.8051 79.0849 62.3037 82.6999 50.209 85.9437C38.1144 89.1875 26.7818 92.2163 25.0233 92.7048C23.2452 93.1738 21.7798 93.5255 21.7407 93.4865C21.7017 93.4474 21.8384 92.8612 22.0729 92.1968C23.5188 87.8978 21.9948 82.6804 18.4777 79.9056C17.9893 79.5148 17.8134 79.2803 17.9893 79.2217C18.1456 79.163 28.1495 76.4664 40.2442 73.2422C72.249 64.6638 76.4694 63.5304 80.6898 62.3775C84.2459 61.4004 84.6172 61.3418 86.3562 61.3809C87.9388 61.4395 88.3687 61.5177 89.2479 61.9867ZM14.5504 82.016C16.0354 82.739 17.4226 84.185 18.126 85.7092C18.849 87.2529 18.8685 89.7737 18.1847 91.5128C17.5399 93.1152 15.7618 94.8934 14.1596 95.5187C12.5184 96.1831 10.1346 96.1831 8.49332 95.5187C6.89112 94.8934 5.11308 93.1152 4.48783 91.5128C3.84304 89.891 3.8235 87.4874 4.46829 85.9046C5.24985 83.9115 7.26236 82.1137 9.35304 81.5079C10.8575 81.078 13.1045 81.3125 14.5504 82.016ZM91.9248 82.016C93.4879 82.7781 94.9533 84.3609 95.559 85.9046C96.2038 87.4874 96.1843 89.891 95.5395 91.5128C94.9142 93.1152 93.1362 94.8934 91.534 95.5187C89.9123 96.1636 87.509 96.1831 85.9263 95.5383C84.3436 94.9129 82.8001 93.4669 82.0185 91.845C81.4323 90.653 81.3737 90.3795 81.3737 88.6794C81.3737 87.0771 81.4519 86.6667 81.9013 85.7092C82.8391 83.6965 84.6953 82.0942 86.7274 81.5079C88.2319 81.078 90.4789 81.3125 91.9248 82.016ZM78.6187 83.5597C77.2901 86.2173 77.0361 89.5001 77.9349 92.1772C78.1693 92.8612 78.3256 93.4474 78.2866 93.4865C78.2475 93.5255 76.2545 93.0175 73.8317 92.3726C71.4284 91.7278 66.993 90.5358 63.984 89.7346C60.975 88.9335 58.3373 88.2104 58.1419 88.1323C57.8683 88.015 58.9625 87.6438 61.952 86.8426C64.2576 86.2368 68.986 84.9471 72.4835 83.9896C75.981 83.0517 78.9313 82.27 79.0486 82.2505C79.1853 82.231 78.99 82.8367 78.6187 83.5597Z" fill="#25282B"/>
<path d="M70.7232 70.7213C64.4317 72.4214 59.0194 73.9455 58.6677 74.1019C57.3 74.7467 57.4367 76.779 58.8826 77.4629C59.5079 77.7755 59.7423 77.7169 71.6025 74.5513C85.0258 70.9558 84.6936 71.0926 84.6936 69.5098C84.6936 68.8454 84.5764 68.6109 84.0488 68.1419C83.5994 67.7511 83.2282 67.5752 82.7788 67.5948C82.4466 67.6143 77.0148 69.0213 70.7232 70.7213Z" fill="#25282B"/>
<path d="M40.4445 78.8313C36.7321 79.8279 32.8243 80.8831 31.7497 81.1762C29.405 81.821 28.9165 82.2118 28.9165 83.482C28.9165 84.205 29.0142 84.42 29.5222 84.8498C29.8739 85.143 30.3624 85.3579 30.6946 85.3579C31.0072 85.3579 35.2471 84.3027 40.1123 82.9935C48.2015 80.844 48.983 80.59 49.4911 80.0623C50.1945 79.3003 50.1945 78.3818 49.5106 77.5611C49.0807 77.0335 48.8853 76.9554 48.1038 76.9749C47.5958 76.9944 44.1569 77.8152 40.4445 78.8313Z" fill="#25282B"/>
<path d="M80.3819 37.9709C79.2096 38.5767 78.9556 40.0813 79.8934 41.0193C81.2416 42.3481 83.5472 41.117 83.1369 39.2801C82.8829 38.0491 81.4956 37.4042 80.3819 37.9709Z" fill="#25282B"/>
</svg>
