<svg width="100" height="100" viewBox="0 0 100 100" fill="none" xmlns="http://www.w3.org/2000/svg">
<g clip-path="url(#clip0_3009_176484)">
<path d="M100.104 11.4388C100.104 37.1425 100.104 62.8462 100.104 88.5499C100.071 88.6054 100.017 88.6591 100.008 88.7184C99.3861 92.9054 95.9222 95.9564 91.0824 95.9508C63.6861 95.9212 36.2898 95.9388 8.89257 95.9249C8.02034 95.9249 7.11849 95.8629 6.28238 95.6378C2.20738 94.5425 -0.0981734 91.4073 -0.0990993 87.0286C-0.102803 62.3388 -0.103729 37.6499 -0.0990993 12.9601C-0.0981734 7.66656 3.40923 4.06749 8.6972 4.06286C36.224 4.03971 63.7509 4.05175 91.2777 4.0536C93.6481 4.0536 95.7648 4.74897 97.5185 6.40175C98.9759 7.77582 99.6787 9.53601 100.104 11.4388ZM50.0028 91.7314C63.5685 91.7314 77.1342 91.7314 90.7 91.7295C91.1889 91.7295 91.6796 91.7304 92.1657 91.6906C93.9713 91.5434 95.4953 90.1795 95.8092 88.4036C95.9055 87.8619 95.937 87.3017 95.937 86.7499C95.9426 62.2601 95.9426 37.7703 95.9379 13.2805C95.9379 12.761 95.9166 12.2342 95.8296 11.723C95.5537 10.1027 94.6222 8.98416 93.0592 8.50082C92.3916 8.29434 91.649 8.26471 90.9407 8.26471C63.6463 8.2536 36.3518 8.25545 9.05831 8.2573C8.63516 8.2573 8.20923 8.26101 7.78794 8.29897C6.03609 8.45638 4.51942 9.80638 4.20368 11.5351C4.09349 12.1397 4.06664 12.7666 4.06664 13.3832C4.06016 33.6666 4.06109 53.9499 4.06109 74.2323C4.06109 78.4712 4.00923 82.7119 4.09812 86.949C4.11942 87.974 4.41201 89.1017 4.92405 89.9832C5.77035 91.4425 7.28886 91.7443 8.91572 91.7416C22.6102 91.723 36.3065 91.7314 50.0028 91.7314Z" fill="#25282B"/>
<path d="M49.9935 20.7814C62.875 20.7814 75.7555 20.7805 88.637 20.7833C89.0926 20.7833 89.5537 20.7777 90.0028 20.8434C90.9657 20.9832 91.6426 21.7462 91.7065 22.7008C91.7713 23.6795 91.2361 24.5129 90.2953 24.7879C89.8972 24.9045 89.462 24.937 89.0435 24.937C63.0203 24.9434 36.9972 24.9434 10.9741 24.9416C9.22775 24.9416 8.26387 24.1703 8.28887 22.8129C8.30738 21.8157 8.99257 20.9953 9.98516 20.8453C10.4333 20.7777 10.8953 20.7833 11.3509 20.7833C24.2315 20.7805 37.112 20.7814 49.9935 20.7814Z" fill="#25282B"/>
<path d="M31.274 43.7657C31.2703 45.9324 31.1842 48.05 30.0564 50.0148C28.337 53.0092 24.5962 54.7231 21.199 53.9833C17.5675 53.1926 14.7703 50.1426 14.6064 46.574C14.4888 44.0166 14.2 41.424 15.0064 38.9092C16.1611 35.3092 19.7944 33.0342 23.8064 33.375C27.3907 33.6805 30.5972 36.7416 31.0564 40.3574C31.1981 41.4851 31.2046 42.6296 31.274 43.7657ZM18.6972 43.6351C18.699 43.6351 18.7009 43.6351 18.7027 43.6351C18.7027 44.45 18.6574 45.2676 18.7111 46.0787C18.8546 48.2435 20.6074 49.9222 22.7407 49.9851C24.8425 50.0472 26.7379 48.5351 26.9287 46.4092C27.0851 44.6666 27.0888 42.8889 26.9416 41.1453C26.7564 38.95 24.874 37.412 22.7361 37.4768C20.5657 37.5426 18.8185 39.2639 18.7018 41.4842C18.6648 42.2 18.6972 42.9185 18.6972 43.6351Z" fill="#25282B"/>
<path d="M68.849 43.6862C68.8463 45.8843 68.775 48.0371 67.6259 50.0316C65.9046 53.0177 62.149 54.7279 58.7583 53.9797C55.1602 53.1862 52.362 50.1621 52.1889 46.6538C52.0629 44.0964 51.774 41.5038 52.562 38.9871C53.7083 35.3242 57.35 33.0251 61.4 33.3779C64.9842 33.6899 68.1731 36.7501 68.6342 40.376C68.774 41.4705 68.7815 42.5825 68.849 43.6862ZM64.6676 43.7705C64.625 42.8723 64.6444 41.9538 64.525 41.0538C64.2435 38.9344 62.4222 37.4168 60.3203 37.4779C58.225 37.539 56.4361 39.1668 56.3083 41.2862C56.2102 42.9094 56.2111 44.5482 56.3074 46.1714C56.4333 48.2899 58.2194 49.9214 60.3139 49.9862C62.4157 50.051 64.2407 48.5343 64.5259 46.4168C64.6407 45.5492 64.6231 44.6631 64.6676 43.7705Z" fill="#25282B"/>
<path d="M52.15 72.911C52.0491 70.7489 52.1093 68.6323 53.2528 66.6637C54.9917 63.6693 58.5148 62.0489 62.1139 62.71C65.3944 63.3119 68.2491 66.2249 68.6185 69.5452C68.9139 72.198 69.0935 74.8878 68.3676 77.5054C67.4056 80.9712 63.788 83.8925 59.1046 83.2813C55.5398 82.8156 52.3917 79.4591 52.1593 75.648C52.1028 74.7387 52.15 73.823 52.15 72.911ZM56.2778 72.9202C56.2778 73.7026 56.238 74.4869 56.2852 75.2656C56.4194 77.4508 58.1407 79.123 60.2778 79.1878C62.4824 79.2545 64.3167 77.7943 64.512 75.5795C64.6657 73.8369 64.663 72.06 64.5102 70.3174C64.3213 68.1749 62.4324 66.6397 60.3537 66.7036C58.1574 66.7712 56.412 68.4563 56.2824 70.673C56.2389 71.4193 56.2759 72.1712 56.2778 72.9202Z" fill="#25282B"/>
<path d="M20.7463 79.2082C20.7463 74.9776 20.7463 70.911 20.7463 66.6795C20.1046 66.6795 19.4991 66.698 18.8954 66.6758C17.5185 66.6258 16.637 65.8221 16.6213 64.6276C16.6056 63.4072 17.5296 62.5554 18.9509 62.5258C20.125 62.5017 21.2991 62.5082 22.4731 62.523C24.125 62.5434 24.9389 63.3443 24.9435 64.998C24.9565 69.4665 24.9481 73.9341 24.9481 78.4026C24.9481 78.6267 24.9481 78.8508 24.9481 79.2082C25.588 79.2082 26.162 79.1869 26.7343 79.2119C28.2028 79.2767 29.075 80.06 29.0833 81.2924C29.0917 82.5285 28.2241 83.373 26.7648 83.3961C24.1565 83.4369 21.5472 83.4378 18.9389 83.3952C17.5074 83.3721 16.6018 82.4832 16.6222 81.2776C16.6426 80.0684 17.5454 79.273 18.9981 79.211C19.5509 79.1878 20.1028 79.2082 20.7463 79.2082Z" fill="#25282B"/>
<path d="M39.5342 79.2064C39.5342 74.9841 39.5342 70.9175 39.5342 66.6795C38.9009 66.6795 38.2962 66.6971 37.6935 66.6758C36.312 66.6267 35.4333 65.8314 35.412 64.636C35.3907 63.4147 36.3129 62.5573 37.7324 62.5258C38.8731 62.5008 40.0157 62.5138 41.1564 62.5221C42.9314 62.5351 43.7314 63.3212 43.7351 65.0878C43.7435 69.3934 43.7379 73.698 43.7379 78.0036C43.7379 78.3573 43.7379 78.711 43.7379 79.2082C44.3388 79.2082 44.8786 79.1953 45.4185 79.211C46.9583 79.2564 47.8611 80.024 47.874 81.286C47.887 82.5536 46.9888 83.3851 45.4666 83.4027C42.8907 83.4323 40.3138 83.4397 37.7388 83.398C36.3074 83.3749 35.399 82.4925 35.4138 81.2888C35.4286 80.0758 36.3277 79.2841 37.7805 79.211C38.0407 79.198 38.3018 79.2073 38.5629 79.2073C38.8527 79.2054 39.1416 79.2064 39.5342 79.2064Z" fill="#25282B"/>
<path d="M81.3148 79.1405C82.1991 79.1997 82.9815 79.196 83.7435 79.3173C84.8074 79.4868 85.4305 80.2507 85.4509 81.2618C85.4722 82.3164 84.8416 83.1701 83.7389 83.2905C82.5139 83.4238 81.2694 83.396 80.0333 83.4081C78.4361 83.4229 76.837 83.4433 75.2407 83.3942C74.0342 83.3571 73.2898 82.7534 73.0741 81.7905C72.8657 80.8618 73.2018 79.9581 74.0333 79.5525C74.4824 79.334 75.025 79.2757 75.5333 79.2183C76.0129 79.1646 76.5037 79.2062 77.0713 79.2062C77.0713 75.0451 77.0713 70.9562 77.0713 66.6784C76.4953 66.6784 75.8935 66.6951 75.2926 66.6747C73.8741 66.6275 72.9555 65.7775 72.9861 64.5599C73.0148 63.3747 73.9166 62.5572 75.287 62.5257C76.4602 62.4988 77.6352 62.509 78.8092 62.522C80.5102 62.5405 81.3083 63.3423 81.312 65.0646C81.3213 69.3701 81.3148 73.6747 81.3148 77.9803C81.3148 78.3359 81.3148 78.6914 81.3148 79.1405Z" fill="#25282B"/>
<path d="M39.5175 49.997C39.5175 45.7442 39.5175 41.6507 39.5175 37.4664C38.8481 37.4664 38.2351 37.4896 37.624 37.4618C36.2796 37.3998 35.3851 36.5313 35.412 35.3461C35.4388 34.1785 36.287 33.3646 37.6009 33.3211C38.7731 33.2822 39.9481 33.3007 41.1212 33.31C42.9935 33.3248 43.7333 34.059 43.7351 35.922C43.7416 40.2248 43.737 44.5285 43.737 48.8313C43.737 49.1831 43.737 49.5359 43.737 49.9961C44.4222 49.9961 45.0324 49.9757 45.6407 49.9998C47 50.0544 47.8787 50.8868 47.8749 52.0877C47.8712 53.3016 47.0194 54.1276 45.6305 54.1433C42.9592 54.1729 40.287 54.1757 37.6148 54.1405C36.2703 54.1229 35.3777 53.2201 35.4064 52.035C35.4342 50.8877 36.3111 50.0637 37.6083 50.0016C38.2231 49.9729 38.8388 49.997 39.5175 49.997Z" fill="#25282B"/>
<path d="M77.075 37.464C76.3805 37.464 75.7611 37.4927 75.1454 37.4584C73.8593 37.3871 72.9852 36.5316 72.9843 35.3872C72.9833 34.2316 73.8454 33.3705 75.1361 33.3242C76.3407 33.2807 77.5481 33.2983 78.7537 33.3103C80.5574 33.3279 81.3083 34.0779 81.312 35.8797C81.3194 40.1825 81.3148 44.4862 81.3148 48.789C81.3148 49.1446 81.3148 49.5001 81.3148 49.9946C81.9343 49.9946 82.5065 49.9844 83.0787 49.9964C84.5231 50.0288 85.4352 50.8205 85.4537 52.0455C85.4731 53.2955 84.5991 54.1307 83.1528 54.1455C80.5463 54.1723 77.9389 54.1705 75.3324 54.1473C73.8935 54.1344 72.9833 53.2983 72.9843 52.077C72.9852 50.8603 73.913 50.0353 75.3398 49.9973C75.8917 49.9825 76.4454 49.9946 77.075 49.9946C77.075 45.826 77.075 41.7094 77.075 37.464Z" fill="#25282B"/>
<path d="M13.3824 16.5981C12.9583 16.575 12.5315 16.5833 12.1139 16.5231C11.1481 16.3842 10.4806 15.6574 10.3843 14.6861C10.2907 13.7444 10.825 12.7454 11.7639 12.6074C12.8704 12.4444 14.0352 12.4426 15.1426 12.5991C16.0981 12.7333 16.6185 13.6824 16.5509 14.6629C16.4861 15.6176 15.8093 16.3787 14.8454 16.5176C14.3648 16.587 13.8713 16.5741 13.3824 16.5981Z" fill="#25282B"/>
<path d="M23.8935 16.6001C23.4379 16.5751 22.9787 16.5843 22.5296 16.5186C21.5657 16.3769 20.8879 15.6195 20.8222 14.6649C20.7518 13.6436 21.3055 12.7195 22.3231 12.5677C23.337 12.4167 24.4037 12.4149 25.4213 12.5445C26.4296 12.6732 27.0537 13.6177 27.0065 14.589C26.9555 15.6214 26.2241 16.414 25.1629 16.5334C24.7454 16.5806 24.3176 16.5408 23.8944 16.5408C23.8944 16.5612 23.8935 16.5806 23.8935 16.6001Z" fill="#25282B"/>
<path d="M86.4889 16.5973C86.0657 16.576 85.6398 16.5834 85.2213 16.5279C84.2055 16.3936 83.5009 15.6242 83.4472 14.6316C83.3917 13.6121 83.9592 12.701 84.9824 12.5575C85.9981 12.4149 87.0648 12.4149 88.0805 12.5547C89.0907 12.6936 89.6954 13.6445 89.6305 14.6214C89.563 15.6556 88.8296 16.4251 87.7583 16.5371C87.3398 16.5816 86.912 16.5445 86.4889 16.5445C86.4889 16.5621 86.4889 16.5797 86.4889 16.5973Z" fill="#25282B"/>
</g>
<defs>
<clipPath id="clip0_3009_176484">
<rect width="100" height="100" fill="white"/>
</clipPath>
</defs>
</svg>
