<svg width="24" height="24" viewBox="0 0 24 24" fill="none" xmlns="http://www.w3.org/2000/svg">
<path fill-rule="evenodd" clip-rule="evenodd" d="M20.9616 2.17606C20.6573 2.06074 20.3318 2 20 2H3.71429C2.99441 2 2.30402 2.28597 1.795 2.795C1.28597 3.30402 1 3.99441 1 4.71429V18.2857C1 19.0056 1.28597 19.696 1.795 20.205C2.04839 20.4584 2.34672 20.6565 2.67126 20.7916C2.72638 20.5308 2.8552 20.2825 3.05772 20.08L8.41453 14.7232L6.80314 13.6497C6.6728 13.5629 6.51646 13.5239 6.36063 13.5392C6.2048 13.5546 6.05907 13.6233 5.94814 13.7339L2.35714 16.9286V4.71429C2.35714 4.35435 2.50013 4.00915 2.75464 3.75464C3.00915 3.50013 3.35435 3.35714 3.71429 3.35714H19.7806L20.9616 2.17606ZM21.3571 5.81106L22.7029 4.46535C22.7104 4.54777 22.7143 4.63083 22.7143 4.71429V18.2857C22.7143 19.0056 22.4283 19.696 21.9193 20.205C21.4103 20.714 20.7199 21 20 21H6.1682L16.26 10.9082L21.3571 13.5357V5.81106ZM8.60278 7.9375C8.60278 8.5044 8.37758 9.04808 7.97672 9.44894C7.57586 9.8498 7.03218 10.075 6.46528 10.075C5.89838 10.075 5.3547 9.8498 4.95384 9.44894C4.55298 9.04808 4.32778 8.5044 4.32778 7.9375C4.32778 7.3706 4.55298 6.82692 4.95384 6.42606C5.3547 6.0252 5.89838 5.8 6.46528 5.8C7.03218 5.8 7.57586 6.0252 7.97672 6.42606C8.37758 6.82692 8.60278 7.3706 8.60278 7.9375Z" fill="#25282B"/>
<path fill-rule="evenodd" clip-rule="evenodd" d="M21.6881 1.42614C21.3042 1.0422 20.5454 1.17852 19.9933 1.73061L1.99953 19.7243C1.44744 20.2764 1.31112 21.0352 1.69506 21.4192C2.079 21.8031 2.8378 21.6668 3.38989 21.1147L21.3836 3.12097C21.9357 2.56888 22.072 1.81008 21.6881 1.42614Z" fill="#25282B" stroke="#25282B" stroke-linecap="round"/>
</svg>
