<svg width="45" height="45" viewBox="0 0 45 45" fill="none" xmlns="http://www.w3.org/2000/svg">
<path fill-rule="evenodd" clip-rule="evenodd" d="M45 22.5C45 34.9264 34.9264 45 22.5 45C10.0736 45 0 34.9264 0 22.5C0 10.0736 10.0736 0 22.5 0C34.9264 0 45 10.0736 45 22.5ZM21.651 8.13525C19.9503 8.31545 18.2497 9.13198 17.039 10.3427C15.9747 11.4126 15.3158 12.6402 15.023 14.11C14.871 14.8815 14.8935 16.1204 15.0793 16.9144C15.4003 18.3109 16.0479 19.4653 17.0897 20.4902C18.1371 21.5207 19.466 22.2134 21.0372 22.5512C21.7749 22.7089 23.2953 22.692 24.0668 22.5231C25.6435 22.1683 26.8993 21.4926 27.958 20.4283C29.0166 19.364 29.6868 18.1138 29.9627 16.6666C30.0809 16.064 30.0978 14.8308 29.9908 14.2339C29.4897 11.3901 27.3047 9.07567 24.4384 8.34924C23.5825 8.12962 22.4788 8.04515 21.651 8.13525ZM23.4304 11.9138C25.041 12.3418 26.1053 13.6145 26.1954 15.2194C26.2348 15.9007 26.1447 16.3062 25.8125 16.9876C25.4126 17.7985 24.6074 18.4855 23.6782 18.7952C23.1714 18.9698 22.169 19.0092 21.6228 18.8853C20.8401 18.6995 20.0235 18.187 19.5449 17.5788C18.1202 15.76 18.7453 13.1808 20.857 12.1729C21.0878 12.0659 21.4145 11.942 21.589 11.8969C22.0621 11.7843 22.9631 11.7899 23.4304 11.9138ZM13.8962 23.3448C14.0989 23.0745 14.5269 22.7648 14.8028 22.686C15.3997 22.5114 16.1036 22.6916 16.8976 23.2209C20.2144 25.4228 24.7926 25.4228 28.0982 23.2209C28.7965 22.7535 29.2582 22.5959 29.8101 22.6353C30.4971 22.686 31.094 23.1365 31.3361 23.7953C31.6346 24.595 31.5332 25.0286 30.8913 25.6649C30.1705 26.3857 28.8922 27.1628 27.7209 27.602C26.8424 27.9287 24.8602 28.3679 24.2577 28.3679C24.1619 28.3679 24.0662 28.3904 24.0493 28.4186C24.0324 28.4467 25.322 29.7194 26.9213 31.2455C29.4497 33.6725 29.8439 34.0723 29.9846 34.3595C30.407 35.193 29.9621 36.2347 28.9823 36.7134C28.65 36.8767 28.5543 36.8992 28.1545 36.8992C27.7772 36.8992 27.6589 36.8711 27.4224 36.7472C27.231 36.6515 26.5102 35.9926 25.2262 34.7481C24.7435 34.2834 24.2631 33.8199 23.8627 33.4336C23.3896 32.9771 23.0282 32.6284 22.9062 32.5125L22.5007 32.1296L20.2426 34.3201C17.6522 36.826 17.5565 36.8992 16.8639 36.8936C16.3401 36.8936 15.9347 36.7247 15.518 36.3361C15.1125 35.9532 14.8929 35.4914 14.8929 35.0128C14.8929 34.8983 14.8918 34.8043 14.9053 34.7125C14.9719 34.2577 15.3956 33.8552 18.0802 31.2736C19.6738 29.7419 20.9803 28.4636 20.9803 28.4411C20.9803 28.4186 20.9071 28.3904 20.8226 28.3792C19.6738 28.2665 18.0183 27.8949 17.1398 27.5514C15.7545 27.0164 14.082 25.8733 13.6766 25.1806C13.4738 24.8315 13.4457 24.4654 13.5921 23.9868C13.6597 23.7672 13.7948 23.48 13.8962 23.3448Z" fill="#00B2B5"/>
</svg>
