<svg width="42" height="40" viewBox="0 0 42 40" fill="none" xmlns="http://www.w3.org/2000/svg">
<path d="M0.715506 9.52681C0.317767 9.91571 0.397315 10.119 1.58169 11.7011L2.66884 13.1507L3.08426 14.4146C5.12599 20.7254 8.12228 25.2507 11.9406 27.8228C14.4066 29.4756 17.0493 30.333 20.1605 30.4832C23.5811 30.6511 27.2226 29.5552 30.4752 27.3632L31.4563 26.7091L31.7745 27.0096C32.2783 27.4958 32.6318 27.6372 33.3301 27.646C34.1609 27.646 34.5852 27.425 35.5221 26.5058C35.9551 26.0727 36.5031 25.6308 36.8655 25.4364C37.8643 24.8795 38.2885 24.3404 38.3858 23.536C38.4211 23.2002 38.3946 23.0234 38.2355 22.7052C37.882 21.9716 37.0953 21.6799 36.0347 21.8921L35.6458 21.9628L35.8226 21.7153C36.6799 20.4956 38.0499 17.2695 38.9426 14.3969L39.3227 13.1595L40.4098 11.7011C41.603 10.119 41.6826 9.91571 41.2848 9.52681C41.0816 9.31468 40.781 9.25281 40.4982 9.35888C40.4275 9.38539 39.8618 10.0748 39.252 10.8968C38.1825 12.3287 38.1118 12.3994 37.1307 13.0976C35.7961 14.0522 34.32 14.9449 32.7732 15.7315C32.075 16.0851 31.4828 16.3768 31.4474 16.3768C31.4121 16.3768 31.2707 16.1735 31.1204 15.926C30.4133 14.7239 29.2289 14.1671 27.9385 14.4323C26.7895 14.6621 25.6405 15.3868 22.2022 18.0738L20.7085 19.2316L19.4534 19.1256C18.0569 19.0107 16.0594 18.6306 14.8662 18.2594L14.0795 18.0119L14.0707 16.9513C14.0618 15.9437 14.0442 15.8553 13.7702 15.2808C13.0896 13.8489 11.3661 12.7529 9.77511 12.7529C8.75867 12.7529 7.96319 13.0711 6.99094 13.8577L6.51365 14.2466L5.47069 13.5219C4.89618 13.1153 4.29515 12.691 4.13606 12.5761C3.97696 12.4524 3.34942 11.6923 2.73955 10.888C2.12969 10.0748 1.57285 9.38539 1.50214 9.35888C1.21931 9.25281 0.918795 9.31468 0.715506 9.52681ZM10.9948 14.4764C11.7284 14.8477 12.4267 15.5548 12.5858 16.0851C12.6477 16.2795 12.6919 16.6684 12.6919 16.9513C12.6919 17.4551 12.6919 17.4551 12.4532 17.3932C11.8875 17.2518 8.00738 15.2719 7.8748 15.051C7.82177 14.9626 8.36093 14.556 8.82053 14.3439C9.07686 14.229 9.40389 14.1671 9.78395 14.1671C10.2789 14.1671 10.4645 14.2113 10.9948 14.4764ZM36.0082 15.8111C35.2039 16.9513 32.6849 19.7089 32.5788 19.5852C32.4992 19.4968 31.854 17.7733 31.8894 17.7467C31.9071 17.7379 32.5169 17.4286 33.2417 17.0662C33.9753 16.6949 34.9475 16.1735 35.4072 15.8995C35.8668 15.6343 36.2557 15.4045 36.2733 15.4045C36.291 15.4045 36.1673 15.5901 36.0082 15.8111ZM29.3792 16.0144C29.7946 16.306 30.0421 16.801 30.6431 18.5069C31.2795 20.3188 31.6596 21.1673 32.3313 22.2544C33.4096 23.9957 34.1609 24.4906 34.921 23.9691C35.9551 23.2709 36.9981 23.0057 36.9981 23.4388C36.9981 23.6421 36.7241 23.8808 35.9817 24.3138C35.6458 24.5083 35.1243 24.9149 34.8326 25.2154C34.0637 26.0109 33.6748 26.276 33.2859 26.276C32.8528 26.276 32.7025 26.0993 32.0485 24.8265C31.2088 23.1737 30.7492 22.5992 29.4676 21.6092C28.2479 20.6547 27.638 19.7885 27.4082 18.6836C27.2668 18.0296 27.0635 17.7909 26.6392 17.7909C26.3387 17.7909 25.9498 18.1356 25.9498 18.4008C25.9498 18.498 25.8791 18.5953 25.7996 18.6218C25.4725 18.719 24.2793 18.94 23.7755 18.993L23.254 19.0549L23.5192 18.8339C23.9434 18.4803 26.1177 16.8806 26.6657 16.5182C27.8324 15.7492 28.7693 15.5724 29.3792 16.0144ZM8.48467 19.3289C10.2347 20.7342 12.2411 21.9274 14.0707 22.661C14.8662 22.9704 16.519 23.4477 16.8195 23.4477C17.1112 23.4477 17.4647 23.0676 17.4647 22.7582C17.4647 22.3163 17.2261 22.1395 16.3599 21.9097C14.0442 21.291 12.1173 20.3099 9.90769 18.6306C8.95312 17.9058 7.30913 16.4121 7.74222 16.6684C11.2246 18.6836 14.1149 19.8238 17.1112 20.3541C17.9243 20.5044 18.711 20.5663 20.0986 20.5928C22.1669 20.6458 23.2805 20.5574 25.0659 20.2127C25.6758 20.0978 26.1973 20.0006 26.2238 20.0006C26.2592 20.0006 26.4359 20.2658 26.6215 20.5928C26.816 20.9198 27.2579 21.4766 27.6115 21.839C27.965 22.2014 28.2479 22.5108 28.2302 22.5196C28.2125 22.5373 27.8678 22.6522 27.4524 22.7759C26.3829 23.1118 24.898 23.3504 23.4043 23.4211C22.2199 23.4742 22.0962 23.4919 21.9106 23.6775C21.6277 23.9603 21.6454 24.3669 21.9371 24.6586L22.1669 24.8884L23.3954 24.8353C25.5432 24.7381 27.3817 24.3846 28.8489 23.7924L29.5295 23.5184L29.8211 23.8542C30.2012 24.2962 30.7492 25.2861 30.6962 25.4275C30.6078 25.6485 28.7163 26.8329 27.4966 27.425C24.1202 29.0779 21.0797 29.4756 17.6503 28.742C15.37 28.247 13.2045 27.1776 11.3837 25.6396C10.986 25.2949 10.6413 24.9856 10.6148 24.9502C10.5883 24.9149 11.0655 25.1358 11.6577 25.4452C14.3624 26.8329 16.9344 27.5223 20.0191 27.6637L21.2477 27.7167L21.4775 27.4869C21.778 27.1864 21.7868 26.7887 21.4863 26.497C21.3007 26.3025 21.1946 26.276 20.6201 26.276C19.639 26.276 18.163 26.1169 16.9521 25.8694C14.2033 25.3215 11.9494 24.2431 8.87357 22.0158C7.73338 21.1938 7.62732 21.0966 7.2119 20.416C6.4341 19.1609 5.27624 16.7568 5.2674 16.3944C5.2674 16.3591 5.79772 16.8452 6.44294 17.4816C7.08816 18.1091 8.00738 18.9488 8.48467 19.3289ZM36.0524 18.2064C35.6104 19.2847 34.0637 22.0335 33.9046 22.0335C33.8781 22.0335 33.719 21.8125 33.5599 21.5474L33.2682 21.0701L34.4084 19.8503C35.0271 19.1786 35.6723 18.4627 35.8402 18.2505C36.0082 18.0473 36.1584 17.8793 36.1673 17.8793C36.185 17.8793 36.1319 18.0296 36.0524 18.2064Z" fill="#25282B"/>
</svg>
