<svg width="41" height="41" viewBox="0 0 41 41" fill="none" xmlns="http://www.w3.org/2000/svg">
<path d="M19.5095 0.758423C17.0611 1.13509 15.2405 2.06892 13.6476 3.76392C12.5646 4.92532 11.827 6.25935 11.4111 7.8288C11.1207 8.95096 11.0658 10.8421 11.3012 11.9957C11.5131 13.0158 11.8505 13.9418 12.29 14.7187C12.4862 15.0561 12.6431 15.3622 12.6431 15.3857C12.6431 15.4171 12.3449 16.1861 11.9761 17.0964C11.6073 18.0067 11.3091 18.862 11.3091 18.9954C11.3091 19.3643 11.5994 19.5997 12.0153 19.5526C12.0781 19.5448 12.8628 19.2152 13.7653 18.8228L15.3896 18.1087L16.1587 18.5089C16.9826 18.9405 17.7831 19.2309 18.7012 19.4349C19.5408 19.6311 21.5733 19.6311 22.4522 19.4349C26.0148 18.658 28.7692 16.037 29.7266 12.5058C29.9228 11.7917 29.9385 11.619 29.9385 10.1673C29.9385 8.71554 29.9228 8.5429 29.7266 7.8288C28.7849 4.36031 26.0619 1.72364 22.6091 0.938911C21.9578 0.789812 20.0274 0.679951 19.5095 0.758423ZM21.8793 2.08461C25.0104 2.59468 27.5294 4.839 28.471 7.97005C28.6672 8.62922 28.6829 8.77047 28.6829 10.1673C28.6829 11.5719 28.6672 11.6975 28.471 12.3645C28.0394 13.7692 27.3724 14.9149 26.415 15.8879C23.6999 18.658 19.4859 19.1524 16.1901 17.0886C15.9076 16.9081 15.6015 16.7747 15.4838 16.7825C15.3661 16.7825 14.7933 17.0022 14.2126 17.2534C13.6319 17.5123 13.1453 17.7007 13.1296 17.6693C13.1218 17.6379 13.3101 17.1435 13.5455 16.5706C13.781 15.9978 13.9771 15.4249 13.9771 15.2994C13.9771 15.1738 13.8516 14.8756 13.6946 14.6324C13.2866 13.9967 12.9178 13.1728 12.6666 12.3645C12.4705 11.6975 12.4548 11.5719 12.4548 10.1673C12.4548 8.76263 12.4705 8.63707 12.6666 7.97005C13.1139 6.51831 13.7731 5.404 14.7697 4.4074C16.6609 2.50836 19.2662 1.66086 21.8793 2.08461Z" fill="#25282B"/>
<path d="M15.7741 9.57108C15.5857 9.75942 15.5465 9.86928 15.5465 10.1675C15.5465 10.4657 15.5857 10.5755 15.7741 10.7639C16.2214 11.2033 17.0218 11.0071 17.1787 10.4186C17.3357 9.83789 16.959 9.34351 16.3626 9.34351C16.0723 9.34351 15.9624 9.3906 15.7741 9.57108Z" fill="#25282B"/>
<path d="M20.0509 9.48454C19.3996 10.0103 19.7213 10.9834 20.5453 10.9912C20.8043 10.9912 20.9377 10.9363 21.1339 10.7636C21.3536 10.5675 21.3928 10.4811 21.3928 10.1672C21.3928 9.85336 21.3536 9.76704 21.1339 9.57086C20.8357 9.30405 20.3256 9.25697 20.0509 9.48454Z" fill="#25282B"/>
<path d="M24.2176 9.51615C23.9743 9.73588 23.8723 10.089 23.9586 10.4186C24.1156 11.0071 24.916 11.2033 25.3633 10.7639C25.5516 10.5755 25.5908 10.4657 25.5908 10.1675C25.5908 9.86928 25.5516 9.75942 25.3633 9.57108C25.0651 9.27289 24.5315 9.24935 24.2176 9.51615Z" fill="#25282B"/>
<path d="M8.61734 21.2634C7.51088 21.5694 6.52213 22.2129 5.85511 23.0604C4.05024 25.3283 4.42691 28.6633 6.68692 30.4525L7.05574 30.7429L6.3181 31.0332C4.58385 31.7238 3.06149 32.9244 1.95502 34.486C1.46065 35.1844 0.762241 36.6126 0.589601 37.2796C0.283558 38.4803 0.777935 39.7123 1.82162 40.3558C2.42586 40.7324 2.40232 40.7324 9.94353 40.7324C16.8256 40.7324 17.0375 40.7246 17.5318 40.5755C18.2224 40.3636 18.8031 39.8378 19.1248 39.1473C19.4387 38.4646 19.4387 37.5778 19.1248 36.7696C18.3322 34.7607 17.0296 33.1049 15.3424 31.9749C14.7225 31.559 13.6867 31.0411 13.0981 30.8527L12.7999 30.7507L13.1766 30.4525C14.5263 29.3853 15.2169 27.8551 15.1384 26.0659C15.0756 24.6769 14.6205 23.6411 13.6239 22.6445C12.5881 21.6087 11.5915 21.1849 10.0926 21.1457C9.34714 21.1221 9.0411 21.1457 8.61734 21.2634ZM10.9558 22.4875C12.6744 22.9427 13.8985 24.5278 13.8985 26.3327C13.8985 27.8943 13.0746 29.2126 11.6621 29.9111C10.5556 30.4604 9.34714 30.4604 8.22498 29.9111C6.80463 29.2283 5.97282 27.9022 5.97282 26.3327C5.97282 24.8653 6.77324 23.5234 8.06804 22.825C8.8763 22.3777 10.0299 22.2521 10.9558 22.4875ZM11.5208 31.7473C14.5577 32.328 17.0453 34.4939 18.0184 37.4287C18.2773 38.2213 17.9948 38.9903 17.32 39.3199C16.9904 39.4769 16.8648 39.4769 9.93568 39.4769C2.91239 39.4769 2.881 39.4769 2.53572 39.3121C1.71961 38.9119 1.55481 38.08 2.06489 36.8637C3.17135 34.2192 5.49414 32.3045 8.29561 31.7552C9.0411 31.6061 10.7518 31.5982 11.5208 31.7473Z" fill="#25282B"/>
<path d="M29.8834 21.2634C28.7769 21.5694 27.7882 22.2129 27.1212 23.0604C25.3163 25.3283 25.693 28.6633 27.953 30.4525L28.3218 30.7429L27.5842 31.0332C25.8499 31.7238 24.3275 32.9244 23.2211 34.486C22.7267 35.1844 22.0283 36.6126 21.8557 37.2796C21.5496 38.4803 22.044 39.7123 23.0877 40.3558C23.6919 40.7324 23.6684 40.7324 31.2096 40.7324C38.0916 40.7324 38.3035 40.7246 38.7979 40.5755C39.4884 40.3636 40.0691 39.8378 40.3909 39.1473C40.7048 38.4646 40.7048 37.5778 40.3909 36.7696C39.5983 34.7607 38.2957 33.1049 36.6085 31.9749C35.9886 31.559 34.9527 31.0411 34.3642 30.8527L34.066 30.7507L34.4427 30.4525C35.7924 29.3853 36.4829 27.8551 36.4045 26.0659C36.3417 24.6769 35.8865 23.6411 34.8899 22.6445C33.8541 21.6087 32.8575 21.1849 31.3587 21.1457C30.6132 21.1221 30.3071 21.1457 29.8834 21.2634ZM32.2219 22.4875C33.9404 22.9427 35.1646 24.5278 35.1646 26.3327C35.1646 27.8943 34.3406 29.2126 32.9281 29.9111C31.8217 30.4604 30.6132 30.4604 29.491 29.9111C28.0707 29.2283 27.2389 27.9022 27.2389 26.3327C27.2389 24.8653 28.0393 23.5234 29.3341 22.825C30.1424 22.3777 31.2959 22.2521 32.2219 22.4875ZM32.7869 31.7473C35.8238 32.328 38.3114 34.4939 39.2844 37.4287C39.5434 38.2213 39.2609 38.9903 38.586 39.3199C38.2564 39.4769 38.1309 39.4769 31.2017 39.4769C24.1784 39.4769 24.1471 39.4769 23.8018 39.3121C22.9857 38.9119 22.8209 38.08 23.3309 36.8637C24.4374 34.2192 26.7602 32.3045 29.5617 31.7552C30.3071 31.6061 32.0179 31.5982 32.7869 31.7473Z" fill="#25282B"/>
</svg>
