<svg width="41" height="41" viewBox="0 0 41 41" fill="none" xmlns="http://www.w3.org/2000/svg">
<path d="M20.2153 0.0751863C20.1293 0.114248 19.9887 0.223619 19.9028 0.317366C19.7543 0.481423 19.7465 0.598607 19.7465 2.58292V4.6766L19.934 4.87972C20.0356 4.98909 20.2153 5.09846 20.3403 5.1219C20.6293 5.1844 21.0668 4.98128 21.184 4.72348C21.3246 4.4188 21.3012 0.684542 21.1605 0.403301C20.9887 0.0673742 20.5824 -0.0732465 20.2153 0.0751863Z" fill="#25282B"/>
<path d="M12.2312 0.926491C11.6062 1.41085 12.075 2.44207 12.8562 2.29364C13.1609 2.23114 13.4577 1.84834 13.4577 1.51241C13.4577 0.934303 12.6921 0.567127 12.2312 0.926491Z" fill="#25282B"/>
<path d="M27.9495 0.871866C27.1839 1.31716 27.5589 2.47338 28.4104 2.31713C29.2542 2.16089 29.2229 0.942177 28.3714 0.817181C28.2307 0.801556 28.0354 0.824993 27.9495 0.871866Z" fill="#25282B"/>
<path d="M25.9184 2.92649C25.5903 3.07492 23.7154 4.99673 23.6529 5.25454C23.5279 5.7389 23.9263 6.21545 24.4419 6.19982C24.6997 6.19201 24.8325 6.09045 25.7778 5.14517C26.9653 3.97333 27.1137 3.73896 26.9419 3.33272C26.8325 3.07492 26.4809 2.81712 26.2544 2.81712C26.1997 2.82493 26.0513 2.8718 25.9184 2.92649Z" fill="#25282B"/>
<path d="M14.5358 3.09824C14.2623 3.23886 14.1608 3.43417 14.1608 3.80134C14.1608 4.06696 14.2389 4.16852 15.0826 5.02006C16.0201 5.97315 16.2779 6.17627 16.5982 6.17627C17.0357 6.17627 17.4029 5.64504 17.2779 5.20755C17.231 5.05912 16.8638 4.62163 16.3326 4.08259C15.1998 2.94981 15.0045 2.84044 14.5358 3.09824Z" fill="#25282B"/>
<path d="M11.4344 8.8011C11.1063 9.07452 11.0907 9.5667 11.3954 9.87137C11.6532 10.1292 11.9891 10.1761 13.3172 10.1448C14.2468 10.1214 14.4109 10.0979 14.5984 9.95731C15.0046 9.66044 15.0359 9.15265 14.6687 8.78547C14.4812 8.59798 14.4578 8.59798 13.075 8.59798C11.6766 8.59798 11.6688 8.59798 11.4344 8.8011Z" fill="#25282B"/>
<path d="M19.3951 8.74658C18.4654 9.04344 17.6139 9.78561 17.2076 10.645C16.8873 11.3246 16.7936 11.8637 16.8327 12.7777C16.8873 13.762 17.0592 14.2698 17.6451 15.0589C17.7936 15.262 17.8404 15.2386 16.9108 15.4261C15.4968 15.6995 14.3796 16.5354 13.739 17.7932C13.4031 18.465 13.3093 18.9806 13.0984 21.4024C12.989 22.6758 12.8875 23.793 12.864 23.8867L12.8328 24.0664H9.03602C4.99709 24.0664 4.91115 24.0742 4.71585 24.4492C4.63772 24.5898 0.590977 38.6753 0.512855 39.0816C0.450357 39.3862 0.622226 39.7534 0.887843 39.8862C1.21596 40.0581 39.7616 40.0581 40.0897 39.894C40.3085 39.7768 40.4882 39.48 40.4882 39.2378C40.4882 39.0347 39.1679 34.4645 39.0351 34.2145C38.9726 34.0895 38.8554 33.9567 38.7773 33.9098C38.5273 33.7848 38.1054 33.8161 37.8867 33.988C37.5195 34.277 37.5429 34.4958 38.1289 36.5504L38.6679 38.441H20.4888H2.30967L4.12993 32.0662C5.1299 28.5585 5.96581 25.6757 5.98143 25.6601C5.99706 25.6367 7.20796 25.6367 8.66104 25.6445L11.3094 25.6679L10.6063 26.0976C9.37976 26.8476 8.98915 27.3944 8.98915 28.3631C8.98915 28.9413 9.06727 29.1678 9.4032 29.6678L9.64538 30.0193L9.4032 30.3631C8.2548 31.9568 8.62197 34.0583 10.2313 35.1286C10.7235 35.4567 11.4891 35.691 12.0516 35.6988C12.6531 35.7067 13.1765 35.527 16.5748 34.1052C18.3873 33.3552 19.9107 32.738 19.9654 32.738C20.0201 32.738 21.7622 33.3708 23.8481 34.152C25.9261 34.9254 27.8167 35.6129 28.0589 35.6754C29.5979 36.0738 31.2072 35.277 31.9181 33.777C32.1994 33.1677 32.2931 32.2224 32.1369 31.5896C32.0119 31.1052 31.6837 30.4412 31.4572 30.2303L31.2853 30.0662L31.5431 29.699C31.9025 29.1991 31.9884 28.9569 31.9884 28.3631C31.9884 27.3944 31.5978 26.8476 30.3713 26.0976L29.6682 25.6679L32.3165 25.6445C33.7696 25.6367 34.9805 25.6367 34.9961 25.6523C35.0118 25.6679 35.2149 26.3632 35.4571 27.1991C35.8242 28.496 35.918 28.7459 36.1211 28.9256C36.2461 29.0506 36.4414 29.1444 36.5508 29.1444C36.9883 29.1444 37.3633 28.7772 37.3633 28.3397C37.3633 28.1444 36.3789 24.6601 36.2617 24.4414C36.0664 24.0742 35.9727 24.0664 31.9415 24.0664H28.1448L28.1135 23.8867C28.0901 23.793 28.0042 22.8321 27.9104 21.7618C27.6917 19.1525 27.6292 18.7384 27.3323 18.0432C26.7308 16.637 25.5746 15.7151 24.0512 15.4182C23.1371 15.2386 23.184 15.262 23.3324 15.0589C23.9027 14.2855 24.0824 13.7699 24.1371 12.8168C24.1605 12.4027 24.1371 11.8637 24.0902 11.6059C23.8324 10.2465 22.809 9.10594 21.4809 8.72314C20.9185 8.55908 19.9419 8.56689 19.3951 8.74658ZM21.4106 10.3637C22.2231 10.7699 22.5981 11.4574 22.5981 12.5355C22.5903 13.5511 22.2231 14.1995 21.4184 14.6058C21.0435 14.7933 20.8247 14.8479 20.4888 14.8479C20.1529 14.8479 19.9341 14.7933 19.5591 14.6058C19.0513 14.348 18.7935 14.0823 18.5435 13.5199C18.3404 13.0824 18.3248 12.0746 18.5045 11.5512C18.7857 10.7231 19.5826 10.1606 20.4888 10.1606C20.8872 10.1606 21.0981 10.2075 21.4106 10.3637ZM22.145 16.6838C23.1137 16.8323 24.098 17.0276 24.3402 17.1135C24.8246 17.2932 25.4105 17.7697 25.6839 18.215C26.0355 18.7619 26.1136 19.215 26.3792 22.1602C26.6683 25.3164 26.6917 25.4179 27.2229 25.9101C27.3636 26.0429 28.012 26.4804 28.6526 26.8788C30.2932 27.8866 30.3244 27.91 30.4025 28.1522C30.5432 28.535 30.2385 28.9881 29.8479 28.9881C29.5901 28.9881 25.7074 27.1601 25.2933 26.8476C25.1527 26.7382 24.9652 26.496 24.8715 26.3085C24.7152 25.9882 24.7074 25.8554 24.7074 23.3086C24.7074 21.8477 24.684 20.5431 24.6605 20.4025C24.5355 19.7775 23.8168 19.5509 23.3715 20.004L23.1371 20.2306L23.1606 23.3399L23.184 26.4491L23.3949 26.9023C23.5278 27.1835 23.7934 27.5429 24.098 27.8397C24.5668 28.3006 24.7152 28.3866 27.1292 29.5272C28.5276 30.1912 29.7854 30.8162 29.926 30.9178C30.3635 31.2459 30.5978 31.6755 30.6291 32.2302C30.6838 33.0896 30.34 33.6911 29.5901 34.0348C28.9182 34.3551 28.8088 34.3239 25.4261 33.0739L22.3247 31.9177L23.4574 31.8787C24.0824 31.8474 24.6527 31.8005 24.723 31.7693C24.934 31.6755 25.098 31.363 25.098 31.0584C25.098 30.8474 25.0355 30.7146 24.8636 30.5428L24.6293 30.3084L23.0512 30.3318L21.4653 30.3553L17.0123 32.2302C12.739 34.027 12.5359 34.1052 12.0516 34.1052C11.6453 34.1052 11.4734 34.0661 11.1844 33.8942C10.1141 33.2692 9.98912 31.8083 10.9344 31.0193C11.0985 30.8865 12.3953 30.2225 13.8093 29.5506C16.2624 28.3866 16.4108 28.3006 16.8795 27.8397C17.1842 27.5429 17.4498 27.1835 17.5826 26.9023L17.7936 26.4491L17.817 23.3399L17.8404 20.2306L17.6061 20.004C17.2936 19.6837 16.9108 19.6837 16.567 19.9962L16.3092 20.2228L16.2702 23.1836L16.2311 26.1523L16.0202 26.4726C15.903 26.6444 15.653 26.8866 15.4577 26.996C14.6921 27.4413 11.3406 28.9881 11.1297 28.9881C10.7313 28.9881 10.4422 28.535 10.575 28.1366C10.6453 27.9491 10.9266 27.7382 12.075 27.0272C12.8562 26.5507 13.614 26.0429 13.7546 25.9101C14.2859 25.4257 14.3015 25.332 14.5905 22.1524C14.9186 18.6525 14.989 18.3635 15.7858 17.6447C16.403 17.0901 16.653 17.0119 18.9654 16.6526C19.7388 16.5276 20.3716 16.426 20.3794 16.4182C20.3794 16.4182 21.1763 16.5354 22.145 16.6838Z" fill="#25282B"/>
<path d="M26.0277 8.82486C25.5824 9.27016 25.809 9.98889 26.4339 10.1139C26.8636 10.1998 29.0276 10.1608 29.3167 10.0592C29.5042 9.9967 29.6292 9.87952 29.7229 9.69202C29.887 9.3561 29.8323 9.05923 29.5745 8.79362L29.3713 8.59831H27.8167H26.2543L26.0277 8.82486Z" fill="#25282B"/>
<path d="M37.1913 31.0663C36.9257 31.2069 36.8163 31.4022 36.8163 31.7225C36.8163 32.0506 36.9335 32.2459 37.2225 32.3944C37.7225 32.6522 38.3006 32.3084 38.3006 31.7459C38.3006 31.3944 38.1912 31.2069 37.91 31.0585C37.6288 30.91 37.4647 30.9178 37.1913 31.0663Z" fill="#25282B"/>
</svg>
