<svg width="40" height="40" viewBox="0 0 40 40" fill="none" xmlns="http://www.w3.org/2000/svg">
<path d="M19.5531 2.02257C19.4078 2.19757 19.3925 2.31424 19.3925 3.29861C19.3925 3.94756 19.4307 4.45069 19.4766 4.56006C19.6756 4.9611 20.3337 4.9611 20.5326 4.56006C20.5785 4.45069 20.6168 3.94756 20.6168 3.29861C20.6168 2.31424 20.6015 2.19757 20.4561 2.02257C20.3337 1.87674 20.2342 1.83299 20.0046 1.83299C19.7751 1.83299 19.6756 1.87674 19.5531 2.02257Z" fill="#25282B"/>
<path d="M27.5435 3.79489C27.3139 3.88969 27.1915 4.0501 26.6405 4.99801C26.3497 5.48655 26.1278 5.95322 26.1278 6.06988C26.1278 6.47822 26.7706 6.72613 27.092 6.43447C27.1838 6.36155 27.4976 5.86572 27.8036 5.34072C28.3775 4.36364 28.4082 4.2251 28.1786 3.93344C28.0562 3.78031 27.7501 3.71469 27.5435 3.79489Z" fill="#25282B"/>
<path d="M11.8558 3.98435C11.7487 4.07914 11.6645 4.23226 11.6645 4.31976C11.6645 4.49476 12.5904 6.12809 12.8582 6.41975C13.2026 6.79892 13.8836 6.57288 13.8836 6.07705C13.8836 5.83642 12.8582 4.06456 12.6363 3.91143C12.3915 3.75102 12.0701 3.77289 11.8558 3.98435Z" fill="#25282B"/>
<path d="M18.8869 5.47931C17.0198 5.66889 15.2828 6.2741 13.6452 7.30951C12.6505 7.94388 11.166 9.36575 10.4926 10.3355C8.72495 12.873 8.14339 15.8918 8.84738 18.7865C9.2912 20.624 10.0947 22.1188 11.472 23.6719C12.9718 25.3636 13.5458 26.6688 13.7294 28.7907L13.7983 29.6073L13.5305 30.0886C13.3085 30.5042 13.2703 30.6427 13.2703 31.0729C13.2703 31.7365 13.4769 32.2615 13.8977 32.6698C14.2804 33.0344 14.6859 33.2459 15.1297 33.3188L15.4511 33.3771L15.497 33.9167C15.5965 35.0688 16.0021 35.9365 16.8285 36.7313C17.6855 37.5625 18.7951 38 20.0271 38C21.2437 38 22.3074 37.5698 23.1797 36.7313C23.9985 35.9365 24.3887 35.1198 24.5035 33.9459L24.5571 33.3771L24.8938 33.3188C25.5289 33.2167 26.1717 32.7281 26.5237 32.0938C26.6538 31.8532 26.7073 31.6125 26.7303 31.1969C26.7532 30.6573 26.7379 30.5917 26.4701 30.0813L26.1946 29.5417L26.2788 28.6886C26.4931 26.625 27.1511 25.2032 28.605 23.6355C30.0283 22.1042 30.9848 20.2157 31.3445 18.2032C31.5434 17.073 31.5052 15.0824 31.268 14.047C30.9389 12.6616 30.3191 11.3053 29.4621 10.1095C28.9111 9.33658 27.7021 8.14805 26.891 7.57201C24.5571 5.93139 21.7335 5.19493 18.8869 5.47931ZM22.3609 6.89388C25.8579 7.73242 28.6663 10.197 29.7528 13.3834C30.1278 14.4772 30.2196 15.0532 30.2196 16.4168C30.2196 17.8313 30.1508 18.298 29.7528 19.4792C29.309 20.799 28.6739 21.849 27.5873 23.0376C26.8374 23.8542 26.4778 24.3574 26.0569 25.1448C25.5289 26.1584 25.2075 27.223 25.0851 28.3532L25.0315 28.8855H19.9582H14.8772V28.6011C14.8772 28.448 14.8237 28.0396 14.7624 27.6969C14.4487 25.9761 13.6911 24.4959 12.3444 22.9792C11.2807 21.7761 10.6839 20.7845 10.2095 19.4136C9.51311 17.4376 9.51311 15.3522 10.2018 13.3543C10.4696 12.5741 11.166 11.3199 11.694 10.6564C12.6811 9.40221 14.1426 8.23555 15.5276 7.59388C17.0963 6.86472 18.2441 6.63868 20.1954 6.67514C21.3662 6.69701 21.6876 6.73347 22.3609 6.89388ZM25.0239 30.1688C25.4294 30.4532 25.5519 30.6865 25.5519 31.1459C25.5519 31.6344 25.3988 31.8896 24.978 32.1011C24.7254 32.2323 24.4423 32.2396 20.0577 32.2396C15.4511 32.2396 15.3899 32.2396 15.1068 32.0865C14.2421 31.6198 14.3339 30.4167 15.2598 30.0594C15.3823 30.0157 17.1269 29.9938 20.1342 30.0011C24.7254 30.0157 24.8173 30.0157 25.0239 30.1688ZM23.2792 33.9896C23.2486 34.4708 23.195 34.6604 22.9655 35.1125C21.7488 37.4604 18.2594 37.4604 17.0428 35.1125C16.8132 34.6604 16.7596 34.4708 16.729 33.9896L16.6908 33.4063H20.0041H23.3175L23.2792 33.9896Z" fill="#25282B"/>
<path d="M17.8016 8.23554C17.5797 8.31574 17.2736 8.47616 17.1129 8.59283C16.9522 8.71679 16.7073 8.84074 16.5619 8.86991C16.2406 8.93553 15.6207 9.24178 15.4447 9.42407C15.3759 9.49699 15.2075 9.76678 15.0698 10.0147C14.8479 10.4376 14.802 10.4741 14.5188 10.5251C13.4399 10.7001 12.6441 11.7064 12.7589 12.7491C12.7971 13.1136 12.7895 13.1428 12.5982 13.2376C12.2691 13.4053 11.8406 13.872 11.6493 14.2657C11.4044 14.7907 11.4121 15.4688 11.6799 15.9209C11.8712 16.249 11.8712 16.2563 11.7335 16.424C11.5575 16.6355 11.3585 17.2334 11.3585 17.547C11.3585 17.948 11.5728 18.4876 11.8559 18.8084C12.1084 19.0855 12.1314 19.1511 12.1544 19.6397C12.1697 20.1792 12.315 20.5438 12.6364 20.9084C12.866 21.1563 13.4169 21.5063 13.6618 21.5574C13.8378 21.5938 13.8837 21.6449 13.8837 21.8053C13.8837 22.7313 14.8938 23.5626 16.0263 23.5626C16.3477 23.5626 16.3859 23.5844 16.5237 23.8251C16.7073 24.1532 17.1818 24.5615 17.5873 24.7365C18.2454 25.0209 19.332 24.8678 19.837 24.423L20.0054 24.2698L20.1814 24.4157C21.1302 25.2469 22.8749 24.9771 23.4871 23.9053C23.6248 23.6573 23.6401 23.6501 24.1681 23.6209C25.2241 23.5553 26.0199 22.899 26.1883 21.9584C26.2342 21.6886 26.2801 21.6449 26.7392 21.4261C27.535 21.0469 27.9635 20.398 27.9635 19.5594C27.9635 19.2313 28.0018 19.1292 28.2314 18.8667C28.7823 18.2178 28.8971 17.3209 28.5068 16.6209L28.2926 16.2199L28.4456 15.9428C28.6293 15.5928 28.6981 14.9438 28.5834 14.5574C28.4609 14.1199 28.086 13.6022 27.7034 13.347L27.3667 13.1209V12.5959C27.3667 12.0053 27.2366 11.648 26.8463 11.1886C26.5556 10.8459 25.9128 10.5105 25.5455 10.5105C25.3236 10.5105 25.2853 10.4741 25.0634 10.0366C24.9257 9.76678 24.6884 9.46053 24.5048 9.3147C24.214 9.07407 23.6478 8.83345 23.3723 8.83345C23.3034 8.83345 23.1657 8.74595 23.0586 8.64387C22.4158 7.98762 21.1455 7.94387 20.3421 8.54908C20.0589 8.76053 20.0589 8.76053 19.8982 8.62199C19.4238 8.19179 18.452 8.01679 17.8016 8.23554ZM19.003 9.32928C19.5003 9.58449 19.5463 9.75949 19.5463 11.5678C19.5463 13.0626 19.5386 13.1793 19.4009 13.2595C19.003 13.5001 18.4444 13.4199 17.9623 13.0626C17.6179 12.8074 17.1818 12.9095 17.0287 13.2886C16.8757 13.6897 17.3348 14.1636 18.123 14.4188C18.3984 14.5063 18.6433 14.5282 19.0565 14.4991L19.6228 14.4626V15.2793V16.1032L19.0336 16.0668C18.5515 16.0449 18.3525 16.0668 18.0082 16.1907C17.0899 16.5188 16.7303 17.1022 17.2047 17.4886C17.4802 17.7147 17.7098 17.7001 18.0541 17.4376C18.4137 17.1605 18.7964 17.0949 19.2019 17.2261L19.508 17.3282L19.5309 18.2688C19.5463 19.1438 19.5386 19.2022 19.4162 19.1511C19.0642 19.0126 18.5821 18.8959 18.3602 18.8959C18.0082 18.8959 17.7098 19.1438 17.7098 19.4355C17.7098 19.8074 17.8858 19.9751 18.3296 20.0334C18.827 20.099 19.1637 20.3105 19.3779 20.7188C19.5386 21.0251 19.5539 21.1199 19.5309 22.1261L19.508 23.2126L19.2249 23.4605C18.98 23.6646 18.8805 23.7084 18.5821 23.7084C17.9546 23.7084 17.5567 23.3292 17.5567 22.7313C17.5567 22.5417 17.5031 22.4105 17.3654 22.2865C17.1435 22.0678 16.9905 22.0605 16.6155 22.2501C16.0646 22.5344 15.3988 22.3959 15.1081 21.9365C14.8938 21.6084 14.9167 21.5428 15.284 21.3678C15.9498 21.0469 16.34 20.5219 16.363 19.9094C16.3706 19.4647 16.1946 19.2605 15.7891 19.2605C15.4524 19.2605 15.1846 19.5157 15.1846 19.8438C15.1846 20.3105 14.4347 20.5657 13.7613 20.3178C13.5776 20.2522 13.3634 20.1136 13.3022 20.0188C13.1797 19.8511 13.1797 19.7709 13.3175 18.9105C13.3634 18.6115 13.3557 18.597 12.9731 18.2542C12.7053 18.0209 12.5676 17.8313 12.5293 17.6563L12.4834 17.4011L12.7359 17.6053C13.3481 18.1011 14.2204 18.3126 14.5495 18.0501C15.0009 17.6928 14.7561 17.1022 14.1286 17.022C13.6848 16.9636 13.371 16.672 13.3098 16.2418C13.2716 16.0376 13.1874 15.8553 13.0649 15.7459C12.5217 15.2647 12.5293 14.5793 13.0879 14.1636C13.5241 13.8355 14.3428 14.1126 14.3428 14.5866C14.3428 15.0095 14.7637 15.3084 15.1769 15.1699C15.9804 14.9001 15.3606 13.3178 14.3122 12.9897C14.1592 12.9459 13.9985 12.8439 13.9602 12.7709C13.6848 12.2824 14.1975 11.5386 14.8096 11.5314C14.955 11.5314 15.0621 11.6043 15.1922 11.7866C15.506 12.2314 16.2253 12.6178 16.7532 12.6251C17.6026 12.6324 18.0924 12.0491 17.6026 11.6116C17.4343 11.4584 17.3654 11.4439 16.9828 11.4949C16.4548 11.5532 16.2253 11.4366 16.1105 11.0501C15.9115 10.3647 16.34 9.9272 17.22 9.9272C17.419 9.9272 17.5185 9.87615 17.6868 9.6647C18.0541 9.21262 18.5362 9.08866 19.003 9.32928ZM21.9796 9.30012C22.0944 9.35845 22.3087 9.51886 22.4464 9.6647C22.6453 9.86157 22.7754 9.9272 22.9667 9.9272C23.3417 9.9272 23.8238 10.1387 23.9385 10.3574C24.1681 10.7949 24.1605 10.9262 23.862 11.2397C23.5942 11.5241 23.5636 11.5314 23.1045 11.5314C22.7295 11.5314 22.5994 11.5605 22.4923 11.6772C22.2857 11.8959 22.3087 12.2532 22.5459 12.4428C23.1121 12.9022 24.3441 12.6105 24.8797 11.8959C25.0404 11.6772 25.1476 11.6043 25.3083 11.6043C25.6679 11.6043 25.974 11.8084 26.1423 12.1584C26.3489 12.6178 26.2418 12.9313 25.8363 13.048C25.1858 13.2376 24.5966 13.9886 24.5966 14.6449C24.5966 15.0313 24.7956 15.2501 25.1552 15.2501C25.5225 15.2501 25.6756 15.1115 25.7521 14.7032C25.8439 14.2511 25.997 14.0834 26.3413 14.0834C26.6856 14.0834 27.2366 14.3897 27.3896 14.6668C27.5886 15.0313 27.535 15.2938 27.1983 15.6438C26.9841 15.8626 26.8693 16.0595 26.8387 16.249C26.7469 16.8105 26.4178 17.1459 25.951 17.1459C25.645 17.1459 25.3618 17.4084 25.3618 17.7001C25.3618 18.072 25.5761 18.2397 26.0735 18.2397C26.5173 18.2397 26.9535 18.072 27.3361 17.773C27.5656 17.5834 27.5809 17.5834 27.5809 17.722C27.5809 17.9772 27.4126 18.2251 27.1142 18.4147C26.7392 18.6553 26.6933 18.8303 26.8616 19.2969C26.9611 19.5886 26.9764 19.7417 26.9229 19.924C26.7928 20.3542 26.1423 20.6459 25.5455 20.5438C25.1935 20.4782 24.9945 20.274 24.9333 19.9167C24.8644 19.5376 24.5813 19.3042 24.2523 19.3626C23.3723 19.523 23.7243 20.9157 24.7803 21.4553C25.1629 21.6449 25.2088 21.7761 25.0098 22.1042C24.742 22.5344 24.1451 22.6657 23.7166 22.3959C23.4182 22.2063 23.0509 22.2063 22.8749 22.3959C22.7984 22.4761 22.7066 22.7313 22.676 22.9573C22.5994 23.5115 22.3163 23.7886 21.7883 23.8323C21.3292 23.8688 20.9619 23.6719 20.8012 23.3073C20.6711 23.0157 20.6482 21.4188 20.7706 21.0105C20.9083 20.5438 21.4822 20.1355 22.0026 20.1355C22.4846 20.1355 22.7219 19.5157 22.3699 19.1803C22.2321 19.049 22.1403 19.0272 21.7347 19.0563C21.4822 19.0709 21.1532 19.1438 21.0078 19.2094C20.8624 19.2751 20.7323 19.3334 20.717 19.3334C20.7094 19.3334 20.6941 18.9251 20.6941 18.4292C20.6941 17.5688 20.7017 17.5105 20.8624 17.4084C20.9619 17.3355 21.1991 17.2917 21.4287 17.2917C21.7424 17.2917 21.8801 17.3355 22.1327 17.5105C22.6377 17.8605 23.1427 17.7584 23.2575 17.2772C23.2958 17.124 23.2575 17.0292 23.0356 16.7959C22.6224 16.3584 22.0944 16.1688 21.3292 16.1688H20.6941V15.3959V14.623H21.3292C21.8648 14.6303 22.0179 14.6011 22.3928 14.4261C22.9591 14.1636 23.3264 13.7699 23.2575 13.5074C23.1351 13.0188 22.6606 12.9022 22.1862 13.2522C21.9337 13.4345 21.8266 13.4636 21.421 13.4636C20.6711 13.4636 20.6941 13.5293 20.6941 11.6116C20.6941 9.74491 20.74 9.56261 21.2297 9.32928C21.5511 9.16887 21.7118 9.16887 21.9796 9.30012Z" fill="#25282B"/>
<path d="M6.34384 9.20499C5.99184 9.39457 5.89236 9.75186 6.11427 10.0508C6.29027 10.2914 8.12677 11.2612 8.39459 11.2612C8.66242 11.2612 8.9838 10.9623 8.9838 10.7071C8.9838 10.4227 8.78485 10.255 7.80538 9.7227C6.75705 9.15395 6.5734 9.08832 6.34384 9.20499Z" fill="#25282B"/>
<path d="M32.1721 9.72999C31.1696 10.2842 30.9783 10.481 31.0702 10.831C31.1314 11.0789 31.3686 11.2612 31.6288 11.2612C31.8813 11.2612 33.7254 10.2769 33.8938 10.0508C34.0545 9.83207 34.0392 9.51853 33.8555 9.34353C33.5724 9.07374 33.2204 9.15395 32.1721 9.72999Z" fill="#25282B"/>
<path d="M4.43222 16.5406C3.99606 16.65 3.85067 17.2115 4.17971 17.5104C4.33275 17.6417 4.44753 17.6562 5.58004 17.6562C6.71254 17.6562 6.82732 17.6417 6.98036 17.5104C7.20993 17.3063 7.20993 16.8542 6.98802 16.6646C6.85028 16.5406 6.68959 16.526 5.70247 16.5115C5.0903 16.5042 4.5164 16.5188 4.43222 16.5406Z" fill="#25282B"/>
<path d="M33.2805 16.5406C32.8443 16.65 32.6989 17.2115 33.028 17.5104C33.181 17.6417 33.2958 17.6562 34.4283 17.6562C35.5608 17.6562 35.6756 17.6417 35.8286 17.5104C36.0582 17.3063 36.0582 16.8542 35.8363 16.6646C35.6985 16.5406 35.5379 16.526 34.5507 16.5115C33.9386 16.5042 33.3647 16.5188 33.2805 16.5406Z" fill="#25282B"/>
<path d="M7.18941 23.4972C6.68437 23.767 6.20994 24.0659 6.14107 24.1534C5.98803 24.3284 5.96507 24.5982 6.07985 24.8024C6.17933 24.9847 6.57724 25.1013 6.79915 25.0211C7.11288 24.9118 8.63565 24.0659 8.79634 23.9274C8.98764 23.7451 8.98764 23.3295 8.79634 23.1253C8.55147 22.8628 8.19948 22.943 7.18941 23.4972Z" fill="#25282B"/>
<path d="M31.187 23.1688C30.9651 23.4313 30.9881 23.6792 31.2406 23.9198C31.5161 24.175 33.2531 25.0938 33.4674 25.0938C33.5592 25.0938 33.7199 25.0063 33.8347 24.9042C33.9954 24.751 34.0183 24.6708 33.9877 24.4594C33.9647 24.3208 33.9035 24.1604 33.8576 24.1094C33.8117 24.051 33.3373 23.774 32.8093 23.4969C31.715 22.9136 31.4472 22.8552 31.187 23.1688Z" fill="#25282B"/>
</svg>
