<svg width="40" height="40" viewBox="0 0 40 40" fill="none" xmlns="http://www.w3.org/2000/svg">
<g clip-path="url(#clip0_3009_179727)">
<path d="M40 3.03895C39.8267 3.72303 39.3826 4.21858 38.8963 4.70266C35.8511 7.7334 32.8196 10.7778 29.7752 13.8093C29.5548 14.029 29.4781 14.1975 29.6259 14.5045C30.0678 15.4212 30.0052 16.3504 29.567 17.2519C28.907 18.6108 27.963 19.7482 26.7493 20.6401C25.9956 21.1938 25.1881 21.6741 24.4052 22.1875C24.2896 22.2634 24.1741 22.3397 23.9719 22.4727C24.9922 22.6715 25.9296 22.8023 26.8374 23.0441C28.0026 23.3549 29.1696 23.6904 30.2893 24.133C31.7741 24.7197 32.4944 26.2949 32.1541 27.9308C31.5956 30.6167 31.0433 33.3038 30.4893 35.9904C30.4844 36.0145 30.4919 36.0408 30.4963 36.1108C30.8544 36.2049 31.223 36.3164 31.5981 36.3975C32.6052 36.6152 33.3 37.1845 33.6774 38.1534C33.7174 38.2556 33.9252 38.3501 34.0559 38.3512C35.7352 38.3645 37.4144 38.3693 39.0937 38.3527C39.4752 38.3489 39.7778 38.436 40.0004 38.7504C40.0004 38.9067 40.0004 39.063 40.0004 39.2193C39.7807 39.539 39.477 39.6171 39.0959 39.6167C26.3656 39.6086 13.6352 39.6086 0.904815 39.6167C0.522963 39.6171 0.221481 39.5356 0.00037037 39.2189C0.00037037 39.0627 0.00037037 38.9064 0.00037037 38.7501C0.329259 38.2115 0.902222 38.4064 1.3837 38.3452C1.23444 38.0008 1.09852 37.7075 0.978889 37.4071C0.648519 36.5801 0.325556 35.7501 0 34.9212C0 34.6345 0 34.3482 0 34.0615C0.231111 33.2627 0.795556 32.7671 1.4737 32.3319C2.88593 31.4252 4.30815 30.5267 5.65407 29.5275C6.9163 28.5901 8.08148 27.5219 9.29704 26.5212C11.0152 25.1067 12.7207 23.676 14.47 22.3012C15.4481 21.5323 16.5907 20.9852 17.4867 20.0941C17.7685 19.8134 18.1537 19.863 18.3863 20.1364C18.6019 20.3897 18.5915 20.7627 18.3126 21.0115C17.8274 21.4445 17.3093 21.8401 16.8237 22.2727C16.68 22.4008 16.5407 22.5864 16.4989 22.7682C16.2841 23.7093 16.3719 24.6293 16.7804 25.5112C17.1015 26.2045 17.6137 26.6841 18.3307 26.9671C19.3515 27.3701 20.403 27.4934 21.4974 27.5167C23.5778 27.5608 25.6567 27.6882 27.7352 27.7971C28.3011 27.8267 28.4874 28.0693 28.43 28.6438C28.3522 29.4204 28.2544 30.1952 28.1656 30.9712C28.1511 31.0967 28.1407 31.2227 28.1244 31.389C28.77 31.389 29.3796 31.3982 29.9885 31.3778C30.0678 31.3752 30.1907 31.2297 30.2111 31.1327C30.4763 29.8864 30.7437 28.6397 30.9748 27.3867C31.1511 26.4308 30.5307 25.5197 29.537 25.1564C27.9819 24.5875 26.3867 24.1804 24.7552 23.9015C23.1548 23.6282 21.5593 23.3278 19.9611 23.0423C19.5937 22.9767 19.357 22.7134 19.3789 22.3786C19.4022 22.0249 19.6919 21.7682 20.0781 21.8023C20.583 21.8467 21.0889 21.9027 21.5878 21.9923C21.9941 22.0652 22.337 22.006 22.6893 21.7745C23.7322 21.0882 24.8119 20.4567 25.8441 19.7556C26.917 19.0267 27.7211 18.036 28.35 16.909C28.6544 16.363 28.8111 15.7812 28.5089 15.1052C28.3037 15.3034 28.1244 15.4808 27.9407 15.6527C27.5763 15.9941 27.22 16.0264 26.9504 15.7456C26.6837 15.4682 26.7256 15.1015 27.0715 14.7549C30.7626 11.0619 34.4544 7.36969 38.1459 3.6771C38.2656 3.55747 38.3907 3.44155 38.4974 3.31118C38.8422 2.89043 38.83 2.33562 38.4763 1.95858C38.1085 1.56636 37.547 1.52525 37.0959 1.85488C36.9915 1.93118 36.8919 2.02932 36.7737 2.06858C36.4841 2.16525 36.2267 2.08821 36.0556 1.82895C35.8622 1.53599 35.9241 1.26229 36.1607 1.01636C37.2419 -0.108824 39.2626 0.331176 39.8441 1.82006C39.9004 1.96414 39.9481 2.11192 40 2.25784C40 2.51784 40 2.77858 40 3.03895ZM26.2104 38.3445C25.9181 37.6986 26.0022 37.1019 26.1767 36.5034C26.2419 36.2793 26.3026 36.0504 26.3307 35.8197C26.5437 34.0638 26.7489 32.3071 26.9544 30.5504C27.0141 30.0393 27.0678 29.5278 27.1344 28.9208C25.2211 28.8634 23.3652 28.7878 21.5085 28.7597C20.5407 28.7449 19.5881 28.6919 18.6574 28.4004C18.5148 28.3556 18.3193 28.379 18.1796 28.4412C16.21 29.3193 14.2481 30.2149 12.2793 31.0952C9.74778 32.2271 7.28407 33.483 4.99481 35.0586C4.87963 35.1378 4.73333 35.3127 4.74926 35.4208C4.89407 36.3949 5.07185 37.3645 5.24148 38.3445C12.2289 38.3445 19.1878 38.3445 26.2104 38.3445ZM15.1304 23.3467C14.9122 23.509 14.7633 23.6112 14.6244 23.7252C13.7593 24.4338 12.8915 25.1393 12.0341 25.8567C10.4281 27.2001 8.82704 28.5493 7.23111 29.9045C7.13259 29.9882 7.01518 30.1727 7.04556 30.2638C7.22963 30.8156 7.45407 31.3538 7.65667 31.8745C10.7485 30.4541 13.8137 29.0464 16.9037 27.6267C15.58 26.5093 15.1104 25.0741 15.1304 23.3467ZM3.96667 38.3238C3.8937 37.9049 3.82444 37.5089 3.75556 37.1127C3.68667 36.716 3.61519 36.3197 3.54963 35.9227C3.31593 34.5034 3.19407 34.7171 4.41185 33.9401C5.13185 33.4804 5.85222 33.0212 6.57852 32.5578C6.3537 31.983 6.14259 31.4434 5.92074 30.876C4.46815 31.8475 3.05 32.7871 1.64259 33.7423C1.29889 33.9756 1.15296 34.3364 1.29889 34.7352C1.62852 35.6371 1.96593 36.5375 2.34667 37.4186C2.62 38.0523 3.26333 38.3871 3.96667 38.3238ZM32.3567 38.3586C32.1837 37.953 31.8774 37.7656 31.513 37.6671C30.9367 37.5115 30.3541 37.3797 29.7759 37.2312C29.1856 37.0793 29.0367 36.8375 29.1593 36.2364C29.2711 35.6893 29.3919 35.1445 29.5037 34.5975C29.6348 33.9575 29.7604 33.3164 29.8896 32.6693C29.2152 32.6693 28.5978 32.6693 28.0548 32.6693C27.79 34.2304 27.5293 35.7515 27.2756 37.2734C27.1807 37.8419 27.5881 38.3486 28.1711 38.3541C29.5489 38.3678 30.9267 38.3586 32.3567 38.3586Z" fill="#25282B"/>
<path d="M21.7252 6.82234C21.2252 6.64086 20.7559 6.54567 20.3674 6.31456C19.5237 5.81271 19.1907 4.81567 19.4848 3.86641C19.6078 3.46938 19.7607 3.08197 19.8959 2.68863C20.1904 1.8316 20.7963 1.32604 21.6793 1.19308C22.5448 1.06271 23.2648 1.36345 23.8074 2.06197C23.8467 2.11271 23.8859 2.16308 23.9356 2.22678C25.5552 1.53271 27.0911 1.64715 28.4789 2.76419C29.8844 3.89567 30.0463 5.4716 29.893 7.21308C30.0393 7.10049 30.12 7.05123 30.1852 6.98641C30.9967 6.17789 31.8078 5.369 32.6148 4.55641C33.523 3.6416 34.027 2.54456 34.0893 1.25123C34.0937 1.16012 34.0963 1.06863 34.1089 0.978634C34.1615 0.600486 34.4159 0.368634 34.7556 0.38456C35.0944 0.400856 35.3374 0.655671 35.3418 1.03715C35.3515 1.85382 35.19 2.63937 34.8774 3.39382C34.5544 4.17345 34.0867 4.8553 33.4904 5.45123C30.8763 8.06493 28.2633 10.6797 25.6489 13.2931C25.2937 13.6483 24.9359 13.7027 24.6581 13.4516C24.3815 13.2016 24.3785 12.826 24.6593 12.5183C24.7996 12.3646 24.9456 12.2146 25.1015 12.0775C25.247 11.9497 25.4096 11.8412 25.5648 11.7242C25.5496 11.6749 25.5344 11.626 25.5193 11.5768C25.0967 11.349 24.6737 11.1216 24.227 10.8809C24.0096 11.5409 23.8533 12.189 23.587 12.7886C22.9867 14.1401 22.3359 15.4694 21.697 16.8038C21.553 17.1046 21.2815 17.2897 20.9656 17.1627C20.7707 17.0842 20.5741 16.8575 20.51 16.6553C20.46 16.4975 20.5793 16.2557 20.6796 16.0846C21.4793 14.7227 22.1244 13.2923 22.6215 11.7946C22.6707 11.6464 22.7004 11.4909 22.7622 11.3486C23.1159 10.5327 23.1741 9.80938 22.503 9.05234C21.9556 8.43604 21.8067 7.58271 21.7252 6.82234ZM28.6726 5.45456C28.5115 5.58863 28.4341 5.65567 28.3537 5.71938C27.5196 6.37975 26.5756 6.7316 25.5063 6.72012C25.1552 6.71641 24.9452 6.52752 24.9093 6.17789C24.8741 5.83308 25.0278 5.59715 25.3715 5.51308C25.5089 5.47938 25.6541 5.47715 25.7959 5.46308C26.7504 5.36826 27.5178 4.94752 28.0918 4.1816C27.297 3.09975 25.8181 2.75234 24.5715 3.32493C24.3426 3.43012 24.2252 3.57086 24.143 3.8216C23.8748 4.64049 23.7433 5.53086 23.0493 6.15308C23.0056 6.19197 22.9667 6.26234 22.9656 6.31901C22.9504 7.10308 23.1637 7.81789 23.6137 8.52086C23.7193 8.269 23.7963 8.07789 23.8789 7.889C24.0641 7.4653 24.3885 7.30382 24.74 7.45715C25.0759 7.60345 25.1911 7.93604 25.0352 8.34937C24.8841 8.74938 24.7207 9.14419 24.557 9.55567C25.1441 10.0449 25.8089 10.3175 26.5344 10.4464C26.6263 10.4627 26.7622 10.3986 26.8348 10.3279C27.4122 9.76493 27.9811 9.19271 28.5474 8.61826C28.6063 8.55863 28.6659 8.46604 28.6663 8.38826C28.6752 7.44197 28.6726 6.49567 28.6726 5.45456ZM21.9015 2.41345C21.5641 2.43567 21.2533 2.63493 21.0981 3.04123C20.9596 3.40419 20.8311 3.7716 20.7081 4.14012C20.5204 4.70308 20.7326 5.18863 21.2422 5.38234C21.7567 5.57789 22.28 5.34271 22.5022 4.79271C22.6574 4.40863 22.7944 4.01604 22.9152 3.62012C23.1089 2.98604 22.6548 2.4016 21.9015 2.41345Z" fill="#25282B"/>
<path d="M19.6255 19.3097C19.2793 19.3164 18.9978 19.0527 18.9889 18.7134C18.9796 18.3575 19.3422 17.9708 19.6922 17.963C20.0389 17.9556 20.313 18.2171 20.3211 18.5638C20.3304 18.939 19.9911 19.3027 19.6255 19.3097Z" fill="#25282B"/>
</g>
<defs>
<clipPath id="clip0_3009_179727">
<rect width="40" height="40" fill="white"/>
</clipPath>
</defs>
</svg>
