<svg width="41" height="40" viewBox="0 0 41 40" fill="none" xmlns="http://www.w3.org/2000/svg">
<path d="M40.5433 4.57561C40.5433 14.8571 40.5433 25.1386 40.5433 35.4201C40.5303 35.4423 40.5085 35.4638 40.5051 35.4875C40.2563 37.1623 38.8707 38.3826 36.9348 38.3804C25.9763 38.3686 15.0177 38.3756 4.05886 38.3701C3.70997 38.3701 3.34923 38.3452 3.01478 38.2552C1.38478 37.8171 0.462562 36.563 0.462191 34.8115C0.46071 24.9356 0.460339 15.0601 0.462191 5.18413C0.462562 3.06672 1.86552 1.62709 3.98071 1.62524C14.9914 1.61598 26.0022 1.6208 37.0129 1.62154C37.9611 1.62154 38.8077 1.89969 39.5092 2.5608C40.0922 3.11043 40.3733 3.8145 40.5433 4.57561ZM20.5029 36.6926C25.9292 36.6926 31.3555 36.6926 36.7818 36.6919C36.9774 36.6919 37.1737 36.6923 37.3681 36.6764C38.0903 36.6175 38.7 36.0719 38.8255 35.3615C38.864 35.1449 38.8766 34.9208 38.8766 34.7001C38.8789 24.9041 38.8789 15.1082 38.877 5.31228C38.877 5.1045 38.8685 4.89376 38.8337 4.68932C38.7233 4.04117 38.3507 3.59376 37.7255 3.40043C37.4585 3.31783 37.1614 3.30598 36.8781 3.30598C25.9603 3.30154 15.0426 3.30228 4.12515 3.30302C3.95589 3.30302 3.78552 3.3045 3.61701 3.31969C2.91627 3.38265 2.3096 3.92265 2.1833 4.61413C2.13923 4.85598 2.12849 5.10672 2.12849 5.35339C2.12589 13.4667 2.12627 21.5801 2.12627 29.693C2.12627 31.3886 2.10552 33.0849 2.14108 34.7797C2.1496 35.1897 2.26664 35.6408 2.47145 35.9934C2.80997 36.5771 3.41738 36.6978 4.06812 36.6967C9.54589 36.6893 15.0244 36.6926 20.5029 36.6926Z" fill="#25282B"/>
<path d="M20.4992 8.31256C25.6518 8.31256 30.8041 8.31219 35.9566 8.3133C36.1389 8.3133 36.3233 8.31108 36.5029 8.33737C36.8881 8.3933 37.1589 8.69848 37.1844 9.08034C37.2104 9.47182 36.9963 9.80515 36.62 9.91515C36.4607 9.96182 36.2866 9.97478 36.1192 9.97478C25.71 9.97737 15.3007 9.97737 4.89146 9.97663C4.19295 9.97663 3.80739 9.66811 3.81739 9.12515C3.8248 8.72626 4.09887 8.39811 4.49591 8.33811C4.67517 8.31108 4.85998 8.3133 5.0422 8.3133C10.1944 8.31219 15.3466 8.31256 20.4992 8.31256Z" fill="#25282B"/>
<path d="M13.0114 17.5062C13.01 18.3729 12.9755 19.2199 12.5244 20.0058C11.8366 21.2036 10.3403 21.8891 8.98144 21.5932C7.52885 21.2769 6.40996 20.0569 6.3444 18.6295C6.29737 17.6066 6.18181 16.5695 6.50441 15.5636C6.96626 14.1236 8.41959 13.2136 10.0244 13.3499C11.4581 13.4721 12.7407 14.6966 12.9244 16.1428C12.9811 16.594 12.9837 17.0517 13.0114 17.5062ZM7.9807 17.454C7.98144 17.454 7.98218 17.454 7.98292 17.454C7.98292 17.7799 7.96478 18.1069 7.98626 18.4314C8.04366 19.2973 8.74478 19.9688 9.59811 19.994C10.4388 20.0188 11.197 19.414 11.2733 18.5636C11.3359 17.8666 11.3374 17.1554 11.2785 16.458C11.2044 15.5799 10.4514 14.9647 9.59626 14.9906C8.72811 15.0169 8.02922 15.7054 7.98255 16.5936C7.96774 16.8799 7.9807 17.1673 7.9807 17.454Z" fill="#25282B"/>
<path d="M28.0415 17.4745C28.0404 18.3537 28.0118 19.2149 27.5522 20.0126C26.8637 21.2071 25.3615 21.8911 24.0052 21.5919C22.5659 21.2745 21.4466 20.0649 21.3774 18.6615C21.327 17.6386 21.2115 16.6015 21.5266 15.5949C21.9852 14.1297 23.4418 13.21 25.0618 13.3511C26.4955 13.476 27.7711 14.7 27.9555 16.1504C28.0115 16.5882 28.0144 17.033 28.0415 17.4745ZM26.3689 17.5082C26.3518 17.1489 26.3596 16.7815 26.3118 16.4215C26.1992 15.5737 25.4707 14.9667 24.63 14.9911C23.7918 15.0156 23.0763 15.6667 23.0252 16.5145C22.9859 17.1637 22.9863 17.8193 23.0248 18.4686C23.0752 19.316 23.7896 19.9686 24.6274 19.9945C25.4681 20.0204 26.1981 19.4137 26.3122 18.5667C26.3581 18.2197 26.3511 17.8652 26.3689 17.5082Z" fill="#25282B"/>
<path d="M21.3618 29.1644C21.3215 28.2996 21.3455 27.4529 21.8029 26.6655C22.4985 25.4677 23.9078 24.8196 25.3474 25.084C26.6596 25.3248 27.8015 26.4899 27.9492 27.8181C28.0674 28.8792 28.1392 29.9551 27.8489 31.0022C27.4641 32.3885 26.017 33.557 24.1437 33.3125C22.7178 33.1262 21.4585 31.7836 21.3655 30.2592C21.3429 29.8955 21.3618 29.5292 21.3618 29.1644ZM23.0129 29.1681C23.0129 29.4811 22.997 29.7948 23.0159 30.1062C23.0696 30.9803 23.7581 31.6492 24.6129 31.6751C25.4948 31.7018 26.2285 31.1177 26.3067 30.2318C26.3681 29.5348 26.367 28.824 26.3059 28.127C26.2304 27.2699 25.4748 26.6559 24.6433 26.6814C23.7648 26.7085 23.0667 27.3825 23.0148 28.2692C22.9974 28.5677 23.0122 28.8685 23.0129 29.1681Z" fill="#25282B"/>
<path d="M8.80035 31.6833C8.80035 29.991 8.80035 28.3644 8.80035 26.6718C8.54368 26.6718 8.30146 26.6792 8.05998 26.6703C7.50924 26.6503 7.15664 26.3288 7.15035 25.851C7.14405 25.3629 7.51368 25.0222 8.0822 25.0103C8.55183 25.0007 9.02146 25.0033 9.49109 25.0092C10.1518 25.0173 10.4774 25.3377 10.4792 25.9992C10.4844 27.7866 10.4811 29.5736 10.4811 31.361C10.4811 31.4507 10.4811 31.5403 10.4811 31.6833C10.737 31.6833 10.9666 31.6748 11.1955 31.6848C11.7829 31.7107 12.1318 32.024 12.1352 32.517C12.1385 33.0114 11.7915 33.3492 11.2078 33.3585C10.1644 33.3748 9.12072 33.3751 8.07738 33.3581C7.50479 33.3488 7.14257 32.9933 7.15072 32.511C7.15887 32.0273 7.51998 31.7092 8.10109 31.6844C8.3222 31.6751 8.54294 31.6833 8.80035 31.6833Z" fill="#25282B"/>
<path d="M16.3155 31.6824C16.3155 29.9936 16.3155 28.3669 16.3155 26.6717C16.0622 26.6717 15.8204 26.6787 15.5792 26.6702C15.0266 26.6506 14.6752 26.3324 14.6666 25.8543C14.6581 25.3658 15.027 25.0228 15.5948 25.0102C16.0511 25.0002 16.5081 25.0054 16.9644 25.0087C17.6744 25.0139 17.9944 25.3284 17.9959 26.035C17.9992 27.7573 17.997 29.4791 17.997 31.2013C17.997 31.3428 17.997 31.4843 17.997 31.6832C18.2374 31.6832 18.4533 31.678 18.6692 31.6843C19.2852 31.7024 19.6463 32.0095 19.6515 32.5143C19.6566 33.0213 19.2974 33.3539 18.6885 33.361C17.6581 33.3728 16.6274 33.3758 15.5974 33.3591C15.0248 33.3499 14.6615 32.9969 14.6674 32.5154C14.6733 32.0302 15.0329 31.7136 15.6141 31.6843C15.7181 31.6791 15.8226 31.6828 15.927 31.6828C16.0429 31.6821 16.1585 31.6824 16.3155 31.6824Z" fill="#25282B"/>
<path d="M33.0278 31.6566C33.3815 31.6803 33.6944 31.6788 33.9992 31.7273C34.4248 31.7951 34.6741 32.1007 34.6822 32.5051C34.6907 32.927 34.4385 33.2684 33.9974 33.3166C33.5074 33.3699 33.0096 33.3588 32.5152 33.3636C31.8763 33.3695 31.2366 33.3777 30.5981 33.3581C30.1155 33.3432 29.8178 33.1018 29.7315 32.7166C29.6481 32.3451 29.7826 31.9836 30.1152 31.8214C30.2948 31.734 30.5118 31.7107 30.7152 31.6877C30.907 31.6662 31.1033 31.6829 31.3304 31.6829C31.3304 30.0184 31.3304 28.3829 31.3304 26.6718C31.1 26.6718 30.8592 26.6784 30.6189 26.6703C30.0515 26.6514 29.6841 26.3114 29.6963 25.8244C29.7078 25.3503 30.0685 25.0233 30.6166 25.0107C31.0859 24.9999 31.5559 25.004 32.0255 25.0092C32.7059 25.0166 33.0252 25.3373 33.0266 26.0262C33.0304 27.7484 33.0278 29.4703 33.0278 31.1925C33.0278 31.3347 33.0278 31.477 33.0278 31.6566Z" fill="#25282B"/>
<path d="M16.3089 19.9987C16.3089 18.2976 16.3089 16.6602 16.3089 14.9865C16.0411 14.9865 15.7959 14.9957 15.5515 14.9846C15.0137 14.9598 14.6559 14.6124 14.6666 14.1383C14.6774 13.6713 15.0166 13.3457 15.5422 13.3283C16.0111 13.3128 16.4811 13.3202 16.9503 13.3239C17.6992 13.3298 17.9952 13.6235 17.9959 14.3687C17.9985 16.0898 17.9966 17.8113 17.9966 19.5324C17.9966 19.6731 17.9966 19.8143 17.9966 19.9983C18.2707 19.9983 18.5148 19.9902 18.7581 19.9998C19.3018 20.0217 19.6533 20.3546 19.6518 20.835C19.6503 21.3206 19.3096 21.6509 18.7541 21.6572C17.6855 21.6691 16.6166 21.6702 15.5478 21.6561C15.01 21.6491 14.6529 21.288 14.6644 20.8139C14.6755 20.355 15.0263 20.0254 15.5452 20.0006C15.7911 19.9891 16.0374 19.9987 16.3089 19.9987Z" fill="#25282B"/>
<path d="M31.3318 14.9854C31.054 14.9854 30.8063 14.9969 30.56 14.9832C30.0455 14.9547 29.6959 14.6124 29.6955 14.1547C29.6952 13.6924 30.04 13.348 30.5563 13.3295C31.0381 13.3121 31.5211 13.3191 32.0033 13.3239C32.7248 13.331 33.0252 13.631 33.0266 14.3517C33.0296 16.0728 33.0277 17.7943 33.0277 19.5154C33.0277 19.6576 33.0277 19.7999 33.0277 19.9976C33.2755 19.9976 33.5044 19.9936 33.7333 19.9984C34.3111 20.0113 34.6759 20.328 34.6833 20.818C34.6911 21.318 34.3415 21.6521 33.7629 21.658C32.7203 21.6687 31.6774 21.668 30.6348 21.6587C30.0592 21.6536 29.6952 21.3191 29.6955 20.8306C29.6959 20.3439 30.067 20.0139 30.6377 19.9987C30.8585 19.9928 31.08 19.9976 31.3318 19.9976C31.3318 18.3302 31.3318 16.6836 31.3318 14.9854Z" fill="#25282B"/>
<path d="M5.85478 6.63954C5.68515 6.63028 5.51441 6.63362 5.34738 6.60954C4.96108 6.55399 4.69404 6.26325 4.65552 5.87473C4.61812 5.49806 4.83182 5.09843 5.20738 5.04325C5.64997 4.97806 6.11589 4.97732 6.55886 5.03991C6.94108 5.09362 7.14923 5.47325 7.12219 5.86547C7.09626 6.24732 6.82552 6.55177 6.43997 6.60732C6.24775 6.6351 6.05034 6.62991 5.85478 6.63954Z" fill="#25282B"/>
<path d="M10.0592 6.64023C9.877 6.63023 9.69329 6.63393 9.51366 6.60764C9.12811 6.55097 8.857 6.24801 8.8307 5.86615C8.80255 5.45764 9.02403 5.08801 9.43107 5.02727C9.83663 4.96689 10.2633 4.96615 10.6703 5.01801C11.0737 5.06949 11.3233 5.44727 11.3044 5.83578C11.284 6.24875 10.9914 6.56578 10.567 6.61356C10.4 6.63245 10.2288 6.61652 10.0596 6.61652C10.0596 6.62467 10.0592 6.63245 10.0592 6.64023Z" fill="#25282B"/>
<path d="M35.0974 6.63882C34.9281 6.63031 34.7577 6.63327 34.5903 6.61105C34.184 6.55734 33.9022 6.24957 33.8807 5.85253C33.8585 5.44475 34.0855 5.08031 34.4948 5.0229C34.9011 4.96586 35.3277 4.96586 35.734 5.02179C36.1381 5.07734 36.38 5.45771 36.354 5.84845C36.327 6.26216 36.0337 6.56994 35.6051 6.61475C35.4377 6.63253 35.2666 6.61771 35.0974 6.61771C35.0974 6.62475 35.0974 6.63179 35.0974 6.63882Z" fill="#25282B"/>
</svg>
