<svg width="40" height="40" viewBox="0 0 40 40" fill="none" xmlns="http://www.w3.org/2000/svg">
<path d="M16.7307 0.0908012C14.5039 0.724178 12.8395 3.21077 11.5247 7.87116C11.4107 8.27777 11.3119 8.62183 11.2967 8.63747C11.2891 8.64529 10.8559 8.55145 10.3391 8.42634C6.63787 7.51929 4.09186 7.52711 2.35145 8.47326C1.68265 8.83296 0.998647 9.56799 0.671846 10.2717C0.436245 10.7878 0.428645 10.8347 0.428645 11.8591C0.428645 12.7114 0.459045 13.0085 0.588245 13.423L0.747846 13.9391L0.497045 14.2362C-0.179358 15.0416 -0.164158 16.4491 0.535045 17.2701C0.975847 17.7784 1.51545 18.0521 2.18425 18.099C2.48825 18.1147 2.83786 18.099 2.95946 18.0521C3.16466 17.9817 3.20266 17.9974 3.34706 18.2007C3.43826 18.3258 3.84106 18.7793 4.24386 19.2094L4.97346 19.9913L4.18306 20.8358C0.337444 24.9332 -0.70376 28.5771 1.37105 30.7118C2.07025 31.4312 3.32426 31.9629 4.60106 32.088C5.05707 32.1271 5.10267 32.1193 5.28507 31.9316C5.52827 31.6814 5.53587 31.3764 5.30787 31.1419C5.17867 31.0089 5.01147 30.9464 4.61626 30.9073C3.52946 30.7978 2.45785 30.2974 1.98665 29.6874C1.64465 29.2496 1.51545 28.796 1.51545 28.0845C1.51545 26.4033 2.85306 23.9558 5.11787 21.5161L5.77147 20.8124L6.13627 21.1408C7.10907 22.0166 8.60628 23.252 9.35108 23.7994L10.1795 24.4093L10.2327 24.9567C10.3239 25.9419 10.6507 28.2174 10.8407 29.1792C10.9395 29.6953 11.0003 30.141 10.9699 30.1723C10.9395 30.1957 10.5215 30.313 10.0427 30.4225C9.29028 30.5945 8.81148 30.6805 7.39788 30.9073C6.88107 30.9933 6.69867 31.4468 7.02547 31.8456C7.17747 32.0255 7.26107 32.0567 7.55748 32.0489C8.05148 32.0255 9.54869 31.7518 10.4759 31.5172C10.9091 31.3999 11.2815 31.3217 11.2891 31.3373C11.3043 31.353 11.4563 31.8613 11.6311 32.4555C12.6571 35.9821 13.9035 38.2185 15.4387 39.2663C17.3235 40.5565 19.3375 40.1342 20.9943 38.0855L21.4275 37.5616L22.0279 37.546C22.5143 37.5382 22.7119 37.4991 23.0539 37.3271C23.8823 36.9126 24.3535 36.1385 24.3611 35.2002C24.3687 34.5042 24.2471 34.1602 23.8215 33.6206L23.4795 33.1906L23.7303 32.2757C23.8671 31.7752 23.9887 31.353 23.9963 31.3452C24.0115 31.3295 24.5208 31.439 25.144 31.5876C28.7084 32.4555 31.2316 32.4321 32.9568 31.5016C34.4084 30.7196 35.1532 29.1948 34.9176 27.5136C34.8036 26.7473 34.5604 25.9341 34.3552 25.6682C34.0512 25.2773 33.3748 25.4884 33.3748 25.9732C33.3748 26.0827 33.4204 26.2938 33.4812 26.4346C33.542 26.5831 33.6484 26.9741 33.7168 27.3025C34.1196 29.1479 33.2456 30.3834 31.2088 30.8291C29.7192 31.1575 26.8844 30.8995 24.5511 30.2348L24.2775 30.1566L24.4524 29.273C24.6652 28.233 24.992 25.9967 25.0604 25.0974L25.1136 24.4562L26.2308 23.5961C26.8464 23.1269 27.804 22.3372 28.3588 21.8524C28.9136 21.3675 29.4076 20.9375 29.4608 20.8984C29.6052 20.7889 31.0948 22.4544 32.0144 23.7525C32.3868 24.2764 32.5008 24.3702 32.7744 24.3702C32.9872 24.3702 33.2988 24.0262 33.2988 23.7994C33.2988 23.471 32.4172 22.259 31.072 20.7576L30.3956 19.9991L31.2164 19.0764C33.846 16.1207 34.9708 13.9938 34.9708 11.9686C34.9708 10.7565 34.644 9.95114 33.846 9.19265C33.3216 8.69221 32.6224 8.31687 31.8092 8.10575C31.4824 8.01973 31.1936 7.91808 31.1632 7.8868C31.1328 7.85552 31.072 7.69131 31.0188 7.51929C30.8744 7.07358 30.1676 6.36982 29.6964 6.20562C28.4272 5.75991 27.0896 6.40892 26.6792 7.66003C26.5728 7.98845 26.5044 8.07447 26.3296 8.12139C25.5468 8.32469 24.0115 8.66093 23.9963 8.63747C23.9887 8.62965 23.8975 8.31687 23.8063 7.94936C23.5403 6.9641 22.8943 5.19691 22.7347 5.02488C22.5675 4.84503 22.1875 4.82939 22.0051 4.97796C21.7239 5.22036 21.7391 5.3924 22.1343 6.49494C22.5143 7.57402 22.9247 8.95807 22.8791 8.99716C22.8639 9.00498 22.4231 9.16919 21.8987 9.35686C20.7511 9.75565 19.7175 10.1779 18.5851 10.694C18.1139 10.9051 17.7035 11.0771 17.6655 11.0771C17.6275 11.0771 17.1183 10.866 16.5407 10.6002C15.4083 10.0997 13.8579 9.48979 12.9535 9.19265C12.3075 8.98153 12.3075 9.19265 12.9079 7.30034C13.8579 4.32113 15.2563 2.1004 16.6395 1.40447C16.9967 1.22462 17.1715 1.18553 17.6427 1.18553C18.1367 1.18553 18.2887 1.22462 18.7067 1.43575C19.2767 1.72507 19.9227 2.3428 20.5079 3.15603C20.8803 3.67211 20.9411 3.72685 21.1767 3.72685C21.5111 3.72685 21.7467 3.50008 21.7467 3.17167C21.7467 2.6634 20.4547 1.13079 19.5655 0.575607C19.3223 0.42704 18.9575 0.239372 18.7447 0.168995C18.2203 -0.0186691 17.2551 -0.057766 16.7307 0.0908012ZM29.4988 7.42545C30.198 7.90244 30.2284 8.94243 29.5596 9.45851C29.4456 9.54453 29.1872 9.63054 28.982 9.654C28.032 9.74783 27.3556 8.6922 27.8344 7.87116C28.108 7.41763 28.3816 7.26124 28.8984 7.25343C29.1416 7.24561 29.324 7.30034 29.4988 7.42545ZM6.92667 9.04408C8.24148 9.16137 10.7951 9.64618 10.9699 9.81821C11.0003 9.84167 10.9395 10.2874 10.8407 10.8035C10.6507 11.7653 10.3239 14.0407 10.2327 15.026L10.1795 15.5733L9.35108 16.1832C8.60628 16.7306 7.10147 17.9739 6.14387 18.834L5.78667 19.1546L5.55107 18.9279C5.42187 18.8028 5.04186 18.3962 4.71506 18.0208L4.12226 17.3405L4.36546 16.8557C4.57826 16.4256 4.60866 16.2927 4.60866 15.7375C4.60866 15.0025 4.42626 14.5255 3.96266 14.0485C3.50666 13.5794 3.03546 13.3839 2.36665 13.3839H1.79665L1.69025 13.1102C1.63705 12.9616 1.57625 12.5003 1.55345 12.0858C1.50025 11.1006 1.63705 10.6471 2.13865 10.131C2.55665 9.70092 2.88346 9.51325 3.62066 9.28648C4.53266 8.99716 5.57387 8.92679 6.92667 9.04408ZM31.8548 9.34122C32.7136 9.63054 33.3292 10.131 33.6104 10.7878C33.8916 11.4212 33.8612 12.3673 33.5344 13.3682C33.0176 14.9087 31.5964 17.0434 30.008 18.6464L29.5216 19.1468L28.5792 18.3101C28.0624 17.8488 27.0668 17.0356 26.3752 16.496L25.1136 15.5264L25.0604 14.8852C24.992 14.0016 24.6728 11.7653 24.4599 10.7018L24.2851 9.82603L24.5968 9.74001C25.0604 9.60708 26.4816 9.27867 26.5804 9.27867C26.626 9.27867 26.7096 9.38814 26.7704 9.52107C26.93 9.9355 27.5456 10.4985 28.032 10.6862C28.6248 10.9129 29.3696 10.8738 29.9244 10.5845C30.3728 10.3499 30.8972 9.77911 31.0188 9.38814C31.1176 9.091 31.1328 9.091 31.8548 9.34122ZM14.8307 11.1397C15.1423 11.2648 15.6059 11.4681 15.8567 11.5776L16.3127 11.7887L15.5147 12.2188C14.4963 12.774 13.3259 13.4699 12.3607 14.0876C11.9427 14.3535 11.5551 14.5959 11.5019 14.6272C11.4335 14.6741 11.4183 14.6115 11.4487 14.3848C11.6691 12.6879 11.7527 12.1484 11.9199 11.2726C12.0187 10.7174 12.1251 10.2326 12.1403 10.2014C12.1783 10.1466 13.7515 10.694 14.8307 11.1397ZM23.3047 10.7722C23.4491 11.4759 23.7683 13.5012 23.8367 14.1971L23.8899 14.7054L23.6771 14.5568C23.0007 14.0954 20.8879 12.8209 20.0595 12.3673C19.5199 12.078 19.0867 11.82 19.0867 11.7809C19.0867 11.6792 23.0767 10.0997 23.1679 10.1701C23.1755 10.1779 23.2439 10.4516 23.3047 10.7722ZM18.4179 12.8052C20.0139 13.6263 21.9595 14.7914 23.3959 15.7688L24.0191 16.1989L24.0799 16.7853C24.1559 17.5516 24.1559 22.4388 24.0799 23.1973L24.0191 23.7838L23.5099 24.1278C21.9747 25.1834 20.0291 26.3485 18.4179 27.1774L17.6503 27.5762L16.6395 26.9976C14.8231 25.9732 12.6951 24.7065 11.7831 24.0965L11.2815 23.7603L11.2283 22.9471C11.1599 21.9462 11.1751 17.5829 11.2435 16.7853L11.2967 16.1989L12.0187 15.7063C13.1283 14.9478 14.6483 14.0251 16.1987 13.1728C16.9739 12.7505 17.6123 12.4064 17.6275 12.4064C17.6351 12.4064 17.9923 12.5863 18.4179 12.8052ZM2.90626 14.6975C3.48386 15.0963 3.65106 15.7141 3.35466 16.3084C2.80746 17.4187 1.13545 16.9886 1.13545 15.7375C1.13545 15.2058 1.43945 14.7601 1.91065 14.5724C2.19185 14.463 2.65545 14.5255 2.90626 14.6975ZM10.0427 19.9913V22.8845L9.41188 22.3997C8.62148 21.7742 7.45108 20.7811 6.98747 20.3354L6.63027 19.9913L6.98747 19.6473C7.52708 19.1312 9.91349 17.1294 10.0199 17.1059C10.0351 17.0981 10.0427 18.404 10.0427 19.9913ZM26.8388 18.3649C27.4468 18.8653 28.1156 19.444 28.3208 19.6394L28.7008 19.9913L28.3208 20.3432C27.9104 20.7342 25.8812 22.431 25.5088 22.7047L25.2808 22.8689V19.9913V17.1138L25.5088 17.278C25.638 17.3718 26.2308 17.8566 26.8388 18.3649ZM12.3607 25.895C13.3259 26.5127 14.4963 27.2087 15.5147 27.7639L16.3127 28.1939L15.8567 28.4051C14.5723 28.9837 12.1935 29.8673 12.1403 29.7813C12.1251 29.75 12.0187 29.2652 11.9199 28.71C11.7527 27.8342 11.6691 27.2947 11.4487 25.5979C11.4183 25.3711 11.4335 25.3085 11.5019 25.3555C11.5551 25.3867 11.9427 25.6291 12.3607 25.895ZM23.8367 25.8325C23.7759 26.4267 23.3959 28.8038 23.2667 29.4294L23.1831 29.8282L22.3167 29.5311C21.1615 29.1323 19.0867 28.2721 19.0867 28.2017C19.0867 28.1627 19.5199 27.9046 20.0595 27.6153C20.9639 27.1227 22.9703 25.9106 23.5707 25.4962C23.7151 25.3946 23.8443 25.3085 23.8595 25.3085C23.8747 25.3085 23.8595 25.5431 23.8367 25.8325ZM18.5851 29.2887C19.7175 29.8047 20.7511 30.227 21.8987 30.6258C22.4231 30.8134 22.8639 30.9777 22.8791 30.9855C22.8867 31.0011 22.7955 31.3921 22.6587 31.8613L22.4155 32.7214L21.8379 32.7527C21.1539 32.7839 20.7815 32.9482 20.3559 33.386C19.4895 34.2775 19.4363 35.6459 20.2267 36.6624L20.4547 36.9439L19.8847 37.4913C18.5015 38.8206 17.6655 39.0942 16.6015 38.5625C15.2639 37.8822 13.8503 35.6302 12.9079 32.6823C12.6799 31.9629 12.4747 31.2826 12.4519 31.1731C12.4063 30.9777 12.4291 30.962 13.2955 30.6727C14.2151 30.3599 16.1683 29.5702 17.0347 29.1557C17.3083 29.0228 17.5743 28.9133 17.6351 28.9133C17.6883 28.9055 18.1139 29.0775 18.5851 29.2887ZM22.7119 34.1524C22.9703 34.3166 23.2667 34.8561 23.2667 35.1689C23.2591 35.4817 23.0007 35.9821 22.7347 36.1776C21.8379 36.8344 20.5611 35.8883 20.9107 34.817C21.1615 34.0272 22.0203 33.7145 22.7119 34.1524Z" fill="#25282B"/>
<path d="M16.9567 15.8231C14.8059 16.1907 13.2707 18.3723 13.5975 20.593C13.7799 21.8285 14.5551 23.0092 15.5963 23.6426C16.4247 24.1509 17.6407 24.3307 18.6211 24.0961C20.0347 23.7521 21.2583 22.5088 21.6231 21.0387C21.8663 20.0535 21.7371 18.9196 21.2659 17.9969C20.9619 17.3949 20.1639 16.5738 19.5711 16.2532C18.8187 15.8544 17.7851 15.6824 16.9567 15.8231ZM18.5755 17.1055C19.8751 17.5434 20.6655 18.7476 20.5895 20.1708C20.5287 21.328 19.9663 22.1882 18.9479 22.7043C18.4007 22.9858 18.3323 23.0014 17.6407 23.0014C16.9795 23.0014 16.8731 22.9779 16.4247 22.7512C14.5399 21.7972 14.1143 19.3575 15.5659 17.8484C16.3791 17.0117 17.4887 16.738 18.5755 17.1055Z" fill="#25282B"/>
</svg>
