<svg width="40" height="40" viewBox="0 0 40 40" fill="none" xmlns="http://www.w3.org/2000/svg">
<path d="M10.9046 40C10.4872 39.7656 10.3257 39.4156 10.3527 38.9341C10.3842 38.3759 10.352 37.8144 10.3627 37.2548C10.3875 35.9459 11.3949 34.9356 12.7068 34.9256C14.3731 34.9126 16.0398 34.9219 17.7064 34.9215C17.8472 34.9215 17.9879 34.9215 18.1494 34.9215C18.1494 34.2059 18.1494 33.5222 18.1494 32.8385C17.3079 32.7263 16.4668 32.6515 15.6401 32.4978C12.0183 31.8252 8.90495 30.167 6.28717 27.5822C5.13087 26.4404 5.38828 24.64 6.80124 23.8315C6.86828 23.7933 6.93532 23.7556 7.02606 23.7041C6.84606 23.4352 6.6631 23.1841 6.5031 22.92C3.42124 17.8344 3.27569 12.6704 6.1005 7.43185C6.33717 6.99296 6.63717 6.84 7.00865 6.92222C7.56643 7.04593 7.74976 7.58185 7.4905 8.15296C7.02976 9.16815 6.53384 10.177 6.19384 11.2341C5.89976 12.1493 5.80199 13.1278 5.60939 14.1193C6.91161 14.2363 8.09939 14.3711 9.29161 14.443C10.6494 14.5248 11.5768 15.1256 11.992 16.4563C12.1583 16.9893 12.3594 17.5119 12.5579 18.0341C12.7235 18.4696 12.8779 18.5456 13.3309 18.4622C13.7016 18.3937 14.0727 18.3263 14.4446 18.2626C14.8642 18.1907 15.1483 17.973 15.2975 17.5596C15.4827 17.0467 15.6949 16.543 15.9031 16.0385C16.2794 15.1248 16.9812 14.6696 17.952 14.6052C18.7572 14.5519 19.562 14.4796 20.3683 14.4567C21.7727 14.4167 22.7175 15.4763 22.4716 16.8578C22.2735 17.97 22.002 19.07 21.7372 20.1693C21.5401 20.9863 21.0242 21.5389 20.2294 21.8285C19.7775 21.993 19.3324 22.1756 18.8779 22.3322C18.6316 22.4174 18.5794 22.5437 18.6964 22.7719C19.2994 23.9493 19.0264 23.9048 20.4372 23.7959C21.7346 23.6959 23.0294 23.5593 24.3268 23.4585C25.2161 23.3896 25.9931 23.6711 26.6401 24.2937C26.8931 24.537 27.1479 24.7781 27.439 25.0556C29.2861 23.52 30.619 21.6348 31.4283 19.3893C32.3712 16.7719 32.4842 14.1111 31.7638 11.3711C31.5201 11.4874 31.3087 11.5774 31.1068 11.6859C30.1283 12.2115 29.222 12.0737 28.3938 11.373C27.609 10.7089 26.839 10.0263 26.069 9.34482C25.1894 8.5663 25.1794 8.56074 24.3642 9.4137C23.8887 9.91148 23.3157 10.1944 22.6261 10.1544C21.3531 10.08 20.0816 9.98148 18.8105 9.88148C18.1887 9.83259 17.562 9.79482 16.9494 9.6863C16.1538 9.54519 15.4972 9.12519 14.992 8.49222C14.2764 7.59556 14.349 6.54963 15.1779 5.75889C15.5924 5.3637 16.0064 4.96482 16.4498 4.6037C17.0401 4.12296 17.4175 3.53 17.582 2.78815C17.6653 2.41259 17.7846 2.04519 17.922 1.55111C17.079 1.71333 16.3057 1.78037 15.5901 2.01963C14.5105 2.38037 13.4709 2.86111 12.4149 3.29296C12.3312 3.32704 12.2572 3.38407 12.1749 3.42296C11.7564 3.62185 11.3379 3.50926 11.1198 3.14185C10.8931 2.76 10.9879 2.28 11.419 2.07148C12.4227 1.5863 13.4227 1.06481 14.4779 0.721852C15.4831 0.395185 16.5561 0.277407 17.5987 0.0666667C17.6857 0.0488889 17.7709 0.0225926 17.8568 0C18.5598 0 19.2631 0 19.9661 0C20.0668 0.0218519 20.1668 0.0551852 20.2687 0.0637037C22.2242 0.231111 24.0746 0.766296 25.8053 1.68926C26.4909 2.05481 27.1438 2.48185 27.8238 2.88815C27.8512 2.8437 27.8861 2.79074 27.9175 2.73593C28.7616 1.2563 30.5657 1.00667 31.7375 2.23037C35.8124 6.48556 37.5279 11.5619 36.722 17.3848C35.9698 22.8196 33.149 27.0163 28.5687 30.0237C26.9127 31.1107 25.0983 31.8444 23.1783 32.3248C23.0624 32.3537 22.8761 32.4574 22.8738 32.5304C22.8516 33.3185 22.8601 34.1078 22.8601 34.9219C23.0498 34.9219 23.1912 34.9219 23.3324 34.9219C24.9987 34.9222 26.6649 34.9122 28.3309 34.9259C29.6427 34.9367 30.6475 35.9507 30.6675 37.2593C30.6761 37.8189 30.6449 38.38 30.6768 38.9381C30.7042 39.4204 30.5461 39.7707 30.1224 40C23.7168 40 17.3109 40 10.9046 40ZM26.162 26.0304C25.9409 25.8041 25.7772 25.6367 25.6138 25.4693C25.2516 25.0967 24.8105 24.9615 24.299 25.02C23.9372 25.0615 23.5738 25.0941 23.2109 25.1219C21.9787 25.2159 20.7472 25.3267 19.5131 25.3893C18.762 25.4274 18.1824 25.0637 17.7987 24.4241C17.5787 24.0574 17.3853 23.6711 17.2149 23.2781C16.8024 22.3263 17.2209 21.3196 18.1824 20.9319C18.652 20.7422 19.1257 20.5593 19.6064 20.4C19.9642 20.2815 20.1772 20.0589 20.2575 19.6963C20.4798 18.6937 20.7124 17.6933 20.9238 16.6885C21.0261 16.203 20.8457 15.9948 20.352 16.0189C19.572 16.057 18.7935 16.1196 18.0138 16.1656C17.6598 16.1863 17.4401 16.3637 17.3149 16.6904C17.1101 17.2241 16.8994 17.7559 16.6801 18.2841C16.3453 19.09 15.7394 19.5767 14.8898 19.7567C14.4575 19.8481 14.0231 19.9315 13.5872 20.0041C12.3572 20.2096 11.5253 19.7285 11.0827 18.5548C10.8672 17.9833 10.6472 17.4126 10.4627 16.8307C10.2983 16.3119 9.9468 16.073 9.43161 16.027C8.26495 15.923 7.09828 15.8196 5.93161 15.7196C5.86161 15.7137 5.78902 15.7378 5.6705 15.7544C6.25606 20.8637 8.7105 24.6889 13.3779 26.8685C17.7283 28.8993 22.012 28.4707 26.162 26.0304ZM35.3531 14.6956C35.3401 13.0593 35.0672 11.3056 34.4924 9.60333C33.6842 7.20963 32.3901 5.11296 30.6142 3.31593C30.2601 2.95741 29.7901 2.93259 29.4675 3.23963C29.1416 3.54963 29.1479 4.00852 29.4846 4.38963C29.5364 4.44815 29.5924 4.50259 29.6453 4.56C33.1479 8.35037 34.4624 12.8 33.4672 17.8533C31.8964 25.8285 23.9957 31.0185 16.0364 29.3896C13.1553 28.8 10.6642 27.4826 8.55606 25.4341C8.14828 25.0378 7.67643 25.017 7.34902 25.357C7.02384 25.6948 7.06754 26.1722 7.47606 26.5581C11.4524 30.31 16.1572 31.8515 21.5587 31.0148C29.5287 29.7807 35.3468 22.9144 35.3531 14.6956ZM31.2309 9.88741C31.2161 9.81 31.2153 9.75667 31.1961 9.71111C29.279 5.12741 24.9005 1.91926 19.7861 1.59815C19.6883 1.59185 19.5212 1.72926 19.4868 1.83296C19.3183 2.33778 19.1705 2.85111 19.0398 3.36741C18.8153 4.25296 18.3675 4.99333 17.6783 5.59444C17.2172 5.99667 16.769 6.41333 16.3198 6.82889C15.9961 7.12815 15.9564 7.33296 16.3027 7.59926C16.6405 7.85926 17.0512 8.13148 17.4557 8.17926C19.0316 8.36444 20.6187 8.45222 22.1994 8.59926C22.7557 8.65111 23.1557 8.49407 23.5112 8.03741C24.0605 7.33185 24.8316 7.03778 25.699 7.29704C26.129 7.42556 26.5353 7.71074 26.8898 8.00148C27.7449 8.70259 28.5594 9.45333 29.3994 10.1733C29.6157 10.3589 29.8601 10.5374 30.1768 10.3911C30.529 10.2278 30.8775 10.0567 31.2309 9.88741ZM11.9238 38.4137C17.669 38.4137 23.3742 38.4137 29.1083 38.4137C29.1083 38.1196 29.1083 37.8485 29.1083 37.5774C29.1079 36.7174 28.8779 36.4844 28.0253 36.4844C23.0142 36.4841 18.0031 36.4844 12.992 36.4844C12.9009 36.4844 12.8094 36.4815 12.7187 36.4867C12.2498 36.5133 11.9442 36.8111 11.9261 37.2811C11.9127 37.6444 11.9238 38.0089 11.9238 38.4137ZM21.2657 34.9026C21.2657 34.1415 21.2657 33.41 21.2657 32.6715C20.7449 32.7189 20.2561 32.763 19.7538 32.8085C19.7538 33.517 19.7538 34.2 19.7538 34.9026C20.2624 34.9026 20.7516 34.9026 21.2657 34.9026Z" fill="#25282B"/>
<path d="M8.24122 4.90244C8.2427 4.46911 8.57344 4.13688 9.00603 4.13429C9.43122 4.1317 9.78455 4.47022 9.79492 4.88985C9.80529 5.31392 9.42418 5.69651 8.99973 5.68837C8.5827 5.68022 8.23973 5.3254 8.24122 4.90244Z" fill="#25282B"/>
</svg>
