<svg width="40" height="40" viewBox="0 0 40 40" fill="none" xmlns="http://www.w3.org/2000/svg">
<path d="M9.56766 39.9998C9.39729 39.9472 9.22729 39.8931 9.05618 39.8428C6.7984 39.1791 5.75396 36.548 6.9384 34.5183C9.90099 29.442 12.8428 24.3535 15.838 19.2969C16.3825 18.3776 16.7254 17.4791 16.6066 16.4087C16.5595 15.9843 16.6143 15.5494 16.5888 15.1217C16.5817 15.0017 16.4814 14.838 16.3766 14.7802C15.3199 14.1976 14.8351 13.1754 15.1128 12.0706C15.3799 11.0083 16.3132 10.315 17.4925 10.3135C19.484 10.3106 21.4758 10.3113 23.4673 10.3131C24.7021 10.3143 25.6373 11.0031 25.9006 12.0998C26.1725 13.2324 25.664 14.2424 24.531 14.8209C24.4966 14.8383 24.464 14.8594 24.4117 14.8898C24.4117 15.8565 24.4032 16.832 24.4203 17.8072C24.4228 17.9613 24.5247 18.1228 24.6073 18.2654C27.7258 23.6269 30.848 28.9865 33.9677 34.3476C34.9225 35.9883 34.6966 37.8054 33.3999 39.0165C32.8421 39.5372 32.1591 39.8002 31.4425 40.0002C24.151 39.9998 16.8595 39.9998 9.56766 39.9998ZM18.1614 15.008C18.1614 15.9909 18.1795 16.9391 18.1506 17.8857C18.1417 18.1831 18.0691 18.5124 17.9217 18.7665C14.724 24.2787 11.5088 29.7809 8.31025 35.2928C8.14655 35.5746 8.03914 35.9231 8.0184 36.248C7.94137 37.4613 8.89618 38.4335 10.1521 38.4343C17.0521 38.4391 23.9525 38.4365 30.8525 38.4365C30.8914 38.4365 30.9306 38.4357 30.9695 38.4339C31.9391 38.3913 32.7247 37.7343 32.9506 36.7898C33.101 36.1613 32.9043 35.6168 32.5928 35.0828C29.4284 29.6565 26.2651 24.2294 23.1166 18.7935C22.9566 18.5176 22.8736 18.1643 22.8599 17.8428C22.8247 17.0109 22.8488 16.1769 22.8469 15.3435C22.8465 15.2324 22.8325 15.1213 22.8243 15.0072C21.2651 15.008 19.7428 15.008 18.1614 15.008ZM20.5162 11.875C19.5158 11.875 18.5151 11.8724 17.5147 11.8761C16.954 11.878 16.5965 12.1909 16.6017 12.6639C16.6069 13.1357 16.9614 13.4361 17.5303 13.4368C19.5184 13.4391 21.5062 13.4394 23.4943 13.4365C24.0547 13.4357 24.4132 13.1206 24.4084 12.6483C24.4036 12.1772 24.0477 11.8776 23.4791 11.8761C22.4914 11.8728 21.5036 11.875 20.5162 11.875Z" fill="#25282B"/>
<path d="M24.4895 -0.000117911C24.9903 0.203215 25.5377 0.334327 25.9836 0.622475C27.3851 1.5284 27.9021 3.31359 27.2717 4.84988C26.6658 6.32618 25.0543 7.25062 23.5351 6.99322C21.8266 6.70359 20.5877 5.36062 20.511 3.7147C20.4325 2.03544 21.4943 0.569141 23.1069 0.128401C23.2558 0.0876599 23.404 0.0424747 23.5521 -0.000488281C23.8647 -0.000117911 24.1769 -0.000117911 24.4895 -0.000117911ZM24.0232 5.46729C25.1003 5.46581 25.978 4.58025 25.9721 3.5021C25.9662 2.44136 25.0969 1.57099 24.0366 1.56322C22.9566 1.55544 22.0714 2.43025 22.0684 3.5084C22.0651 4.58692 22.9455 5.46914 24.0232 5.46729Z" fill="#25282B"/>
<path d="M13.4747 6.19693C13.4799 4.80804 14.6243 3.67137 16.0162 3.67285C17.4069 3.67433 18.5484 4.81433 18.551 6.2047C18.5536 7.611 17.398 8.75878 15.9891 8.74878C14.6021 8.73878 13.4695 7.58952 13.4747 6.19693ZM16.9865 6.21878C16.9917 5.69285 16.5573 5.24693 16.0299 5.23693C15.5025 5.22693 15.0536 5.65508 15.0384 6.18285C15.0228 6.72433 15.4721 7.18656 16.0136 7.18545C16.5399 7.18433 16.9817 6.74582 16.9865 6.21878Z" fill="#25282B"/>
<path d="M29.0929 35.3126C28.1295 33.6578 27.2036 32.0667 26.2947 30.5056C25.651 30.5997 25.041 30.7393 24.4262 30.7682C23.0303 30.8341 21.7021 30.4245 20.3591 30.1167C19.4484 29.9078 18.5303 29.716 17.6054 29.59C17.1117 29.5226 16.5929 29.5782 16.0925 29.6382C15.4343 29.7171 14.948 30.0108 14.6047 30.6571C13.8366 32.1026 12.9725 33.4971 12.1484 34.913C12.0843 35.023 12.0269 35.1371 11.944 35.2912C12.1029 35.2997 12.2254 35.3119 12.3477 35.3123C13.7795 35.3137 15.211 35.313 16.6429 35.313C16.7469 35.313 16.8514 35.31 16.9551 35.3145C17.4295 35.3352 17.764 35.6545 17.7677 36.0878C17.771 36.5215 17.4384 36.8686 16.9673 36.8708C15.1843 36.8789 13.4006 36.8949 11.6184 36.8649C10.4884 36.8456 9.90248 35.7034 10.4817 34.6819C11.238 33.3471 12.0206 32.0274 12.7921 30.7012C13.0536 30.2515 13.3366 29.813 13.5706 29.3497C13.7843 28.9267 14.1166 28.6823 14.5362 28.4956C15.9295 27.8756 17.3717 27.8826 18.8232 28.173C20.1988 28.4478 21.5588 28.7993 22.9325 29.0845C24.051 29.3167 25.1521 29.2949 26.2003 28.7397C26.6129 28.5212 27.0073 28.6408 27.2443 29.0441C28.364 30.9497 29.4925 32.8508 30.5736 34.7782C31.1358 35.7812 30.448 36.8649 29.2851 36.8726C27.5673 36.8841 25.8491 36.8782 24.131 36.8745C23.5954 36.8734 23.2458 36.5593 23.2429 36.0986C23.2403 35.6371 23.5903 35.3163 24.1225 35.3152C25.7484 35.31 27.3747 35.3126 29.0929 35.3126Z" fill="#25282B"/>
<path d="M21.2832 36.1101C21.2732 36.5413 20.8973 36.8924 20.468 36.8713C20.0521 36.8509 19.7173 36.492 19.7265 36.0761C19.7362 35.6442 20.1106 35.2946 20.541 35.3153C20.9573 35.3353 21.2928 35.695 21.2832 36.1101Z" fill="#25282B"/>
</svg>
