<svg width="41" height="40" viewBox="0 0 41 40" fill="none" xmlns="http://www.w3.org/2000/svg">
<path d="M0.5 38.9849C1.93704 37.1049 3.36926 35.2212 4.81926 33.3509C4.95148 33.1801 5.18704 33.0035 5.38815 32.9857C7.82815 32.7709 10.0852 31.9123 12.37 31.1116C15.0222 30.1823 17.3607 30.8179 19.3404 32.8012C19.3989 32.8598 19.4644 32.9109 19.527 32.9653C19.5593 32.9416 19.5915 32.9179 19.6237 32.8942C19.3011 32.4179 19.0111 31.9153 18.65 31.4705C17.6963 30.2957 16.5174 29.4861 14.9504 29.4086C13.9981 29.3616 13.0941 29.6049 12.2193 29.9579C10.5637 30.6261 8.88111 31.1986 7.10333 31.4438C6.67815 31.5023 6.25333 31.5653 5.82704 31.6124C5.33741 31.6661 4.94963 31.3801 4.88778 30.9368C4.83 30.5235 5.12778 30.1546 5.6037 30.0731C6.4363 29.9309 7.28963 29.8675 8.1 29.6457C9.32518 29.3105 10.5263 28.8846 11.7274 28.4664C12.7778 28.1009 13.8352 27.7853 14.9607 27.8427C16.8796 27.9405 18.4052 28.8298 19.653 30.2431C19.9444 30.5735 20.2033 30.9327 20.4989 31.3064C20.7726 30.9609 21.0278 30.6061 21.3163 30.2805C22.8493 28.5509 24.7207 27.5938 27.08 27.9049C27.8196 28.0023 28.5437 28.2494 29.2615 28.4723C30.513 28.8612 31.7515 29.2916 33 29.6905C33.5104 29.8538 33.7922 30.232 33.6793 30.6635C33.5578 31.1264 33.1367 31.3642 32.5963 31.1946C31.1848 30.7516 29.7722 30.3068 28.3807 29.8057C25.4948 28.7668 23.3837 29.8479 21.8415 32.1609C21.6804 32.4027 21.5507 32.6653 21.4544 32.942C21.9322 32.5538 22.3852 32.1294 22.8926 31.7846C24.6278 30.6064 26.5163 30.4312 28.4863 31.0546C29.3896 31.3405 30.2652 31.7123 31.1607 32.0238C32.5422 32.5042 33.9681 32.7909 35.4211 32.942C35.7685 32.9783 36.0274 33.1294 36.2389 33.4057C37.5756 35.1523 38.9193 36.8935 40.2593 38.6375C40.3452 38.7494 40.4207 38.869 40.5011 38.9849C40.5011 39.3231 40.5011 39.6612 40.5011 39.9998C27.1667 40.0001 13.8333 40.0001 0.5 40.0001C0.5 39.6616 0.5 39.3231 0.5 38.9849ZM19.6663 38.4379C19.8619 36.9175 19.7848 35.509 18.6533 34.3705C18.4519 34.1675 18.2763 33.9383 18.0693 33.7416C16.9474 32.6746 15.6404 32.0705 14.0685 32.3309C13.3193 32.4549 12.5719 32.6701 11.8641 32.9479C10.0396 33.6642 8.17519 34.1994 6.22926 34.4516C6.05074 34.4749 5.83926 34.5927 5.72778 34.7338C4.84963 35.8472 3.99148 36.9768 3.12852 38.1024C3.06111 38.1905 3.00407 38.2868 2.92926 38.3983C3.00222 38.4116 3.03741 38.4249 3.07222 38.4235C5.32481 38.3361 7.57185 38.1735 9.74185 37.5175C10.9589 37.1498 12.1415 36.6694 13.3463 36.2605C14.2219 35.9635 15.1037 35.8968 15.9611 36.3416C16.7222 36.7364 17.217 37.3705 17.5811 38.1301C17.6415 38.2561 17.7926 38.4183 17.9089 38.4242C18.4926 38.4542 19.0778 38.4379 19.6663 38.4379ZM38.0863 38.4086C37.9863 38.2668 37.9178 38.1612 37.8415 38.0616C37.1685 37.1838 36.4567 36.3327 35.833 35.4216C35.3796 34.759 34.8685 34.3994 34.0304 34.3109C32.197 34.1175 30.4715 33.4757 28.7652 32.7957C27.0933 32.1294 25.4296 31.9775 23.8359 33.0194C22.7881 33.7042 22.0193 34.6435 21.4522 35.7531C21.3878 35.8794 21.2959 36.0135 21.293 36.1457C21.2778 36.8968 21.2856 37.6483 21.2856 38.4386C21.7696 38.4386 22.2252 38.4023 22.6722 38.4486C23.1274 38.4961 23.3519 38.3372 23.5496 37.9209C24.0478 36.8727 24.86 36.182 26.0537 36.0457C26.883 35.9512 27.6541 36.2101 28.397 36.529C31.47 37.8468 34.6952 38.3716 38.0863 38.4086ZM15.9319 38.4257C15.5815 37.8364 15.0989 37.4901 14.5793 37.6061C13.76 37.7886 12.9637 38.0749 12.1574 38.3175C12.1685 38.3535 12.18 38.3894 12.1915 38.4257C13.4237 38.4257 14.6559 38.4257 15.9319 38.4257ZM28.8052 38.4238C28.8133 38.3927 28.8215 38.362 28.8296 38.3309C28.0937 38.0909 27.3681 37.8098 26.6189 37.6235C25.9656 37.4609 25.3578 37.8231 25.1044 38.4238C26.3419 38.4238 27.5733 38.4238 28.8052 38.4238Z" fill="#25282B"/>
<path d="M32.453 -0.000117911C33.0026 0.412104 33.0585 0.587289 32.88 1.25766C31.7978 5.32655 30.7145 9.39507 29.6408 13.4658C29.5341 13.8699 29.3341 14.1747 28.92 14.3647C29.2652 14.7388 29.2185 15.1436 29.1141 15.5762C28.7448 17.104 28.4396 18.6495 27.7908 20.0954C27.1608 21.4991 26.3222 22.7306 24.9615 23.531C24.1145 24.0291 23.1937 24.2869 22.2159 24.3169C21.8711 24.3277 21.7667 24.4506 21.7356 24.7943C21.6071 26.2062 21.4411 27.6147 21.2882 29.0243C21.2259 29.5954 20.8982 29.9106 20.4208 29.8614C19.9496 29.8128 19.6767 29.4225 19.7356 28.8614C19.8982 27.3095 20.0663 25.7584 20.2348 24.1825C19.9996 24.0751 19.7593 23.9817 19.5348 23.8599C18.1826 23.1247 17.5337 21.9069 17.2278 20.461C17.0759 19.7425 17.1767 19.5314 17.7956 19.1977C17.7885 19.1762 17.7882 19.1443 17.7733 19.1343C16.823 18.4847 17.0593 17.5462 17.2708 16.6951C17.6015 15.3625 18.0404 14.0562 18.4596 12.7469C18.6208 12.244 18.8615 12.1132 19.4041 12.1095C19.7789 12.1069 20.1537 12.1091 20.557 12.1091C20.4396 11.3862 20.3337 10.7062 20.2178 10.028C20.1571 9.67285 20.1563 9.34062 20.3593 9.01507C21.9008 6.54359 23.7063 4.30766 26.083 2.58099C27.7645 1.35951 29.5837 0.438771 31.6511 0.0698821C31.7126 0.058771 31.7693 0.0235858 31.8285 -0.000488281C32.0363 -0.000117911 32.2448 -0.000117911 32.453 -0.000117911ZM30.4552 4.19396C28.2204 6.84692 26.4245 9.75766 25.01 12.9032C23.5937 16.0528 22.5959 19.3269 22.0371 22.7632C23.4019 22.7169 24.4822 22.2221 25.3033 21.2169C26.5993 19.6299 27.0189 17.6969 27.4619 15.7317C27.267 15.7199 27.1133 15.711 26.9596 15.7014C26.8037 15.6917 26.6471 15.6888 26.4922 15.6699C26.0108 15.611 25.7363 15.401 25.6756 15.0206C25.6089 14.6028 25.8233 14.3303 26.1715 14.1343C26.7267 13.8217 27.29 13.5206 27.8259 13.1773C27.9993 13.0662 28.1659 12.8562 28.2193 12.6595C28.783 10.5769 29.3226 8.48766 29.87 6.40062C30.063 5.66507 30.26 4.92988 30.4552 4.19396ZM29.8593 2.29099C28.8711 2.62951 27.9896 3.1421 27.1563 3.74062C24.9778 5.30581 23.2837 7.31359 21.8685 9.57099C21.8019 9.67692 21.7815 9.83988 21.8008 9.96729C21.9311 10.8414 22.0908 11.7114 22.2145 12.5862C22.3185 13.3228 22.0059 13.6662 21.2708 13.6714C20.8415 13.6743 20.4111 13.6584 19.983 13.6817C19.8767 13.6877 19.7208 13.7906 19.6826 13.8865C19.2233 15.0503 18.8845 16.2473 18.7089 17.4895C18.6741 17.7343 18.7385 17.9014 18.9159 18.0721C19.3567 18.4958 19.7789 18.9388 20.2045 19.378C20.4571 19.6388 20.5871 19.938 20.4285 20.2991C20.273 20.6528 19.983 20.7865 19.6119 20.7817C19.3974 20.7791 19.183 20.7814 18.9315 20.7814C19.2326 21.6025 19.6663 22.228 20.4708 22.5728C21.7833 14.9495 24.9208 8.20877 29.8593 2.29099Z" fill="#25282B"/>
<path d="M34.553 30.8363C34.5545 30.4037 34.8811 30.0782 35.3167 30.0752C35.7604 30.0719 36.1211 30.4219 36.1167 30.8519C36.1126 31.2608 35.7574 31.6156 35.3434 31.6248C34.9174 31.6341 34.5515 31.2689 34.553 30.8363Z" fill="#25282B"/>
</svg>
