<svg width="40" height="40" viewBox="0 0 40 40" fill="none" xmlns="http://www.w3.org/2000/svg">
<g clip-path="url(#clip0_3009_179792)">
<path d="M-0.413107 13.7341C0.21683 13.0824 0.832707 12.4167 1.48215 11.7854C1.81639 11.4606 2.23136 11.501 2.59326 11.8498C3.10393 12.3418 3.60325 12.8457 4.09804 13.3536C4.47491 13.74 4.50121 14.1922 4.18602 14.5328C3.87491 14.8688 3.4164 14.8675 3.0046 14.5287C2.95653 14.4892 2.90937 14.4489 2.82229 14.3758C2.82229 15.5414 2.82229 16.6552 2.82229 17.8339C2.92343 17.7165 2.99962 17.6376 3.06492 17.5509C3.98239 16.3373 5.02457 15.2498 6.27674 14.3754C9.55703 12.0847 13.6945 12.564 16.353 15.5582C16.7598 16.0162 17.1126 16.5251 17.4614 17.0303C17.792 17.5097 17.7081 17.9931 17.2913 18.2566C16.8736 18.521 16.4355 18.3908 16.1108 17.8843C15.3231 16.6543 14.3548 15.6112 12.9843 15.0384C10.7643 14.1105 8.71213 14.5056 6.84636 15.9559C4.57332 17.7233 3.05041 20.0453 2.09394 22.726C1.6885 23.863 1.47897 25.0725 1.21548 26.2567C1.11434 26.7111 1.45584 27.17 1.8504 27.2286C2.25947 27.2893 2.57512 27.0036 2.65086 26.4721C3.09939 23.3206 4.36924 20.5591 6.5815 18.2575C7.03275 17.7881 7.54115 17.3582 8.07766 16.9895C10.0178 15.6557 12.3462 15.9119 13.9838 17.609C14.9702 18.6312 15.5639 19.8852 16.0578 21.1936C16.8913 23.4018 17.3489 25.712 17.8904 27.9986C18.4106 30.1955 18.8709 32.4118 19.826 34.4753C20.1109 35.0903 20.4469 35.6944 20.8433 36.2422C22.3784 38.3642 24.6986 38.9302 27.051 37.7651C28.6243 36.986 29.8043 35.7488 30.8275 34.3551C32.5713 31.9792 33.5903 29.307 34.0334 26.4032C34.1422 25.6898 34.2715 24.9796 34.3944 24.2684C34.4874 23.7306 34.2692 23.3124 33.8398 23.2185C33.4393 23.131 33.0683 23.4566 32.9613 24.0013C32.6756 25.4562 32.4787 26.9347 32.0923 28.3619C31.3694 31.0318 30.0524 33.3873 27.9649 35.2477C27.4619 35.6957 26.8823 36.088 26.2796 36.3887C24.7327 37.1611 23.2918 36.8282 22.1816 35.5039C21.3857 34.5542 20.8755 33.4404 20.553 32.2658C19.9199 29.9615 19.3639 27.6354 18.7784 25.3179C18.7099 25.0458 18.6428 24.7728 18.5966 24.4961C18.5195 24.034 18.7684 23.6544 19.1979 23.5505C19.6106 23.4503 20.0165 23.6966 20.1444 24.1496C20.2605 24.561 20.3367 24.9836 20.4614 25.3918C20.4923 25.492 20.6442 25.6254 20.7403 25.6258C24.139 25.6353 27.5377 25.6308 30.9368 25.6272C30.9613 25.6272 30.9862 25.6109 31.0488 25.5891C31.1581 24.9669 31.2747 24.326 31.3817 23.6839C31.6103 22.3129 32.7431 21.4249 34.0203 21.6208C35.3364 21.8226 36.1831 22.995 36.0044 24.3664C35.9513 24.7746 35.901 25.1827 35.8466 25.6145C36.5178 25.6145 37.169 25.6145 37.8711 25.6145C37.7808 25.492 37.7037 25.3963 37.6352 25.2943C37.4067 24.9528 37.4457 24.5487 37.7305 24.2693C38.0257 23.9796 38.4738 23.9328 38.7845 24.2244C39.3795 24.7823 39.9591 25.3587 40.5128 25.9569C40.8189 26.288 40.7568 26.7061 40.4026 27.0698C39.9173 27.5682 39.4244 28.0599 38.9278 28.5469C38.5518 28.9161 38.0792 28.9474 37.7464 28.6404C37.403 28.3233 37.4035 27.883 37.7468 27.4617C37.7863 27.4131 37.8221 27.361 37.9087 27.244C37.1287 27.244 36.413 27.2344 35.6987 27.2571C35.6175 27.2598 35.4937 27.4358 35.4711 27.5483C35.1418 29.18 34.652 30.7574 33.9273 32.2585C32.6456 34.9134 30.822 37.1352 28.4306 38.8459C25.9621 40.6114 22.2365 40.4604 19.8805 37.6332C18.656 36.1638 17.9476 34.4336 17.4278 32.6281C16.9476 30.9606 16.5594 29.2662 16.1507 27.5787C16.0872 27.3165 15.9902 27.2363 15.7276 27.2372C11.9675 27.2444 8.20736 27.2444 4.44679 27.2372C4.21051 27.2367 4.12117 27.3424 3.99055 27.5233C3.72978 27.8843 3.42728 28.2299 3.08352 28.5106C2.88714 28.6712 2.78964 28.7909 2.79054 29.0481C2.80007 31.8581 2.79871 34.6685 2.79145 37.4785C2.791 37.6858 2.76379 37.9148 2.67308 38.0958C2.50392 38.4323 2.18827 38.5425 1.82319 38.4708C1.46672 38.4014 1.27126 38.1602 1.20459 37.8159C1.17965 37.6867 1.19144 37.5493 1.19144 37.4155C1.19099 34.6454 1.18736 31.8753 1.19688 29.1057C1.19779 28.8458 1.13339 28.7057 0.885315 28.5896C0.169664 28.2549 -0.179999 27.6172 -0.414921 26.9011C-0.414921 26.6068 -0.414921 26.3124 -0.414921 26.0177C-0.391792 25.9433 -0.357324 25.8703 -0.347347 25.7941C-0.115599 24.0875 0.378282 22.4589 1.08758 20.8915C1.15607 20.7401 1.186 20.5582 1.18645 20.3904C1.19325 18.492 1.19099 16.5931 1.18917 14.6947C1.18917 14.6008 1.16922 14.5069 1.15516 14.3854C0.462636 14.9704 0.0277124 14.9124 -0.415375 14.2144C-0.413107 14.0552 -0.413107 13.8947 -0.413107 13.7341ZM11.3888 25.6163C12.8346 25.6163 14.2328 25.6163 15.6351 25.6163C15.641 25.5569 15.6555 25.5165 15.6473 25.4807C15.5974 25.2594 15.5448 25.0385 15.4886 24.8186C15.0977 23.2897 14.66 21.7764 13.9444 20.3618C13.758 19.9936 13.5407 19.6371 13.3031 19.2992C12.0441 17.5128 10.2282 17.2512 8.54251 18.6335C6.71075 20.1355 5.53841 22.0866 4.79283 24.3106C4.65178 24.731 4.55156 25.165 4.42638 25.6163C6.25134 25.6163 7.99739 25.6163 9.78561 25.6163C9.78561 25.3455 9.77563 25.0938 9.78787 24.844C9.80964 24.3845 10.1439 24.0467 10.5711 24.0367C11.0115 24.0267 11.3648 24.3741 11.3865 24.8526C11.3979 25.0916 11.3888 25.3315 11.3888 25.6163ZM20.8778 27.2671C21.3453 29.2449 21.7335 31.1873 22.554 32.9973C22.8152 33.5737 23.1685 34.1252 23.5662 34.6186C24.0383 35.2041 24.7327 35.3307 25.4184 35.0136C25.8388 34.8191 26.2524 34.5805 26.6116 34.2903C28.2456 32.9705 29.3173 31.2431 30.0864 29.3179C30.3499 28.658 30.54 27.9691 30.7726 27.2666C29.2941 27.2666 27.9077 27.2666 26.5245 27.2666C26.3826 28.2689 26.198 28.5342 25.6633 28.5238C25.149 28.5138 24.9735 28.2494 24.8424 27.2671C23.5417 27.2671 22.2374 27.2671 20.8778 27.2671Z" fill="#25282B"/>
<path d="M34.8167 5.36572C34.2865 6.0723 33.7831 6.74305 33.2797 7.41381C33.2076 7.50995 33.1382 7.60882 33.0598 7.69998C32.7323 8.08002 32.2811 8.14624 31.9219 7.87095C31.5677 7.5993 31.5028 7.12673 31.7931 6.72718C32.2802 6.05643 32.784 5.39747 33.2806 4.73306C33.4489 4.50812 33.6158 4.28272 33.8103 4.02195C33.4239 3.50448 33.0348 2.98248 32.6448 2.46139C32.3885 2.11853 32.1296 1.77794 31.8752 1.43372C31.5096 0.939383 31.5346 0.455479 31.9368 0.163867C32.3482 -0.134548 32.7854 -0.0238893 33.1686 0.483597C33.7083 1.19834 34.2439 1.91626 34.8167 2.68044C35.1999 2.17023 35.5659 1.68315 35.9314 1.19607C36.1242 0.939383 36.3151 0.681331 36.5106 0.426454C36.8562 -0.0238894 37.2997 -0.122756 37.6893 0.159332C38.0888 0.44913 38.1342 0.926685 37.7886 1.39472C37.2167 2.16932 36.6466 2.9462 36.0503 3.70176C35.8525 3.95256 35.8725 4.1131 36.0593 4.35211C36.6439 5.09996 37.2067 5.86595 37.7723 6.62877C38.1278 7.10814 38.1006 7.56437 37.7101 7.86869C37.3147 8.17708 36.8466 8.06778 36.4747 7.57435C35.9278 6.85054 35.3849 6.12355 34.8167 5.36572Z" fill="#25282B"/>
<path d="M17.9956 8.04706C16.8564 8.00488 16.0247 7.61032 15.3757 6.84296C15.0605 6.47017 15.0832 5.99126 15.4142 5.69284C15.7557 5.38445 16.2142 5.40259 16.5566 5.77357C16.8977 6.14273 17.2854 6.40078 17.7979 6.42754C18.2542 6.45112 18.602 6.21575 18.7213 5.81575C18.8274 5.45973 18.67 5.13003 18.2405 4.91052C17.7176 4.64295 17.1739 4.41664 16.6496 4.15179C15.753 3.69872 15.3698 2.95813 15.4854 1.94724C15.5866 1.06106 16.2496 0.308222 17.1439 0.0918941C18.2124 -0.166611 19.1231 0.17897 19.9154 0.88283C20.2424 1.17308 20.2569 1.64882 19.9961 1.96991C19.7195 2.3105 19.2796 2.34679 18.8814 2.10007C18.5902 1.91957 18.2868 1.73182 17.9625 1.63839C17.5303 1.51413 17.1548 1.75495 17.0895 2.12093C17.0405 2.39667 17.1009 2.61164 17.3916 2.73953C17.9294 2.97536 18.4714 3.20892 18.9866 3.4892C19.8755 3.9731 20.4265 4.71098 20.353 5.75633C20.2787 6.8153 19.6882 7.54002 18.6859 7.90057C18.426 7.99309 18.1417 8.01712 17.9956 8.04706Z" fill="#25282B"/>
<path d="M4.67475 4.56868C4.97317 3.71198 5.22578 2.95189 5.50288 2.20086C5.71059 1.63759 6.27703 1.44122 6.72602 1.76186C7.06525 2.00404 7.14144 2.34553 7.01173 2.72377C6.28746 4.83353 5.56002 6.94194 4.82487 9.04763C4.65797 9.52609 4.24527 9.74242 3.82214 9.61271C3.38041 9.47711 3.16726 9.03901 3.30468 8.54558C3.32236 8.48118 3.33869 8.41451 3.37044 8.35646C3.8616 7.45668 3.79085 6.58502 3.37452 5.65803C2.97633 4.7714 2.70785 3.82718 2.38494 2.90699C2.15682 2.25755 2.31011 1.82308 2.82213 1.65392C3.29833 1.49655 3.67883 1.75279 3.90513 2.38862C4.15049 3.07933 4.39312 3.77094 4.67475 4.56868Z" fill="#25282B"/>
<path d="M25.1853 5.60975C25.1853 5.10181 25.1771 4.59387 25.1875 4.08593C25.2025 3.37436 25.7549 3.04556 26.4048 3.33627C26.5186 3.38706 26.6823 3.38706 26.8039 3.34896C28.3739 2.85916 29.8941 3.89001 29.9926 5.53719C30.0252 6.08322 30.0125 6.63334 29.998 7.18074C29.9839 7.70002 29.6433 8.04015 29.1812 8.03426C28.7123 8.02791 28.4075 7.69231 28.3989 7.1567C28.3916 6.68912 28.403 6.22109 28.3953 5.75352C28.3857 5.18526 28.0451 4.81201 27.564 4.82698C27.0937 4.84149 26.7975 5.19614 26.7921 5.76077C26.7875 6.2152 26.798 6.66962 26.7889 7.12405C26.778 7.67961 26.4615 8.03108 25.9862 8.0338C25.5027 8.03653 25.1934 7.69412 25.1871 7.13312C25.1803 6.62563 25.1853 6.11769 25.1853 5.60975Z" fill="#25282B"/>
<path d="M11.1077 3.21693C10.5875 3.21693 10.0669 3.22419 9.54713 3.21512C9.03919 3.2065 8.67864 2.86682 8.67728 2.41511C8.67592 1.96522 9.03874 1.61601 9.54441 1.61193C10.5716 1.60331 11.5988 1.60331 12.6261 1.61193C13.1503 1.61647 13.4841 1.94028 13.4841 2.41239C13.4846 2.88632 13.1535 3.20469 12.6283 3.21466C12.1218 3.22419 11.6147 3.21693 11.1077 3.21693Z" fill="#25282B"/>
<path d="M11.0807 6.42969C10.5736 6.42969 10.0666 6.43468 9.56002 6.42833C9.04618 6.42198 8.68745 6.09681 8.67747 5.64329C8.66749 5.18161 9.04165 4.83013 9.57272 4.8265C10.5863 4.8197 11.6004 4.81925 12.614 4.82696C13.1451 4.83104 13.4784 5.14442 13.4848 5.61563C13.4911 6.10679 13.1532 6.42243 12.6013 6.42878C12.0943 6.43423 11.5877 6.42969 11.0807 6.42969Z" fill="#25282B"/>
<path d="M21.9782 5.80765C21.9782 5.35413 21.9696 4.90016 21.9805 4.44664C21.9923 3.97226 22.3025 3.64391 22.7356 3.62305C23.1764 3.60173 23.5601 3.93053 23.5714 4.41217C23.5936 5.35866 23.5946 6.30697 23.5705 7.25346C23.5583 7.736 23.1773 8.05619 22.7297 8.03351C22.2943 8.01174 21.9918 7.68884 21.9805 7.20811C21.9696 6.74189 21.9782 6.27477 21.9782 5.80765Z" fill="#25282B"/>
<path d="M21.9806 0.822247C21.9733 0.366915 22.3284 0.00319365 22.777 0.00636828C23.2019 0.00954291 23.5665 0.368276 23.5756 0.791862C23.5847 1.23041 23.2087 1.61001 22.7674 1.60774C22.333 1.60547 21.9878 1.2608 21.9806 0.822247Z" fill="#25282B"/>
<path d="M19.1749 20.8525C19.1804 21.2902 18.7981 21.6738 18.3627 21.667C17.9382 21.6607 17.5808 21.2997 17.5754 20.8725C17.5699 20.4339 17.9046 20.0838 18.3423 20.0697C18.7981 20.0557 19.169 20.4044 19.1749 20.8525Z" fill="#25282B"/>
<path d="M11.3868 20.4274C11.3868 20.6805 11.3941 20.934 11.385 21.1871C11.3669 21.685 11.0522 22.0093 10.595 22.0143C10.122 22.0197 9.79409 21.6864 9.78412 21.1685C9.77414 20.6624 9.77369 20.1553 9.78457 19.6492C9.795 19.1703 10.1374 18.8174 10.5737 18.8106C11.0249 18.8038 11.3705 19.1644 11.3855 19.6678C11.3932 19.9209 11.3868 20.1744 11.3868 20.4274Z" fill="#25282B"/>
<path d="M26.4816 32.1666C26.4816 32.4197 26.4898 32.6732 26.4798 32.9258C26.4608 33.4215 26.1438 33.7453 25.6857 33.7485C25.2277 33.7521 24.8925 33.4287 24.8803 32.9394C24.8667 32.407 24.8653 31.8732 24.8816 31.3408C24.8957 30.8841 25.2422 30.5534 25.6717 30.5494C26.0998 30.5448 26.4499 30.8732 26.4766 31.3271C26.493 31.6061 26.4798 31.8868 26.4798 32.1662C26.4803 32.1666 26.4812 32.1666 26.4816 32.1666Z" fill="#25282B"/>
</g>
<defs>
<clipPath id="clip0_3009_179792">
<rect width="40" height="40" fill="white"/>
</clipPath>
</defs>
</svg>
