<svg width="40" height="40" viewBox="0 0 40 40" fill="none" xmlns="http://www.w3.org/2000/svg">
<path d="M39.7504 11.5319C39.5574 11.6622 39.3796 11.8463 39.1667 11.9082C38.9419 11.9737 38.6833 11.923 38.5204 11.923C38.1648 13.0282 37.8226 14.0915 37.4637 15.2074C37.5737 15.2826 37.7678 15.4067 37.9526 15.5437C38.2448 15.7608 38.3178 16.0867 38.1441 16.3567C37.9704 16.6271 37.643 16.6926 37.3252 16.516C37.2237 16.4597 37.1296 16.39 37.0319 16.3274C36.9448 16.2719 36.8574 16.2178 36.8148 16.1911C35.9544 16.9522 35.1096 17.6997 34.22 18.4867C34.2781 18.6126 34.3867 18.8274 34.4781 19.0493C34.6074 19.3626 34.5026 19.6748 34.2341 19.816C33.9485 19.966 33.6233 19.8608 33.4415 19.5537C33.3826 19.4541 33.3378 19.3456 33.2852 19.2423C33.233 19.1397 33.1793 19.0378 33.1574 18.9956C32.0574 19.2108 30.9896 19.4193 29.8867 19.6352C29.8259 20.033 30.2156 20.7682 29.3826 20.826C28.63 20.8782 28.8185 20.1485 28.6848 19.6641C27.7733 19.8337 26.9767 20.2108 26.2582 20.7797C26.9178 21.5804 27.0115 21.836 26.6822 22.0934C26.0444 22.5919 25.7963 21.9015 25.4133 21.6356C24.9178 22.0304 24.327 23.1152 24.1511 23.976C24.3589 24.0167 24.5696 24.0526 24.7774 24.1004C25.1374 24.183 25.3393 24.4511 25.2841 24.7619C25.2248 25.0948 24.9367 25.2837 24.5589 25.2348C24.3689 25.2104 24.1789 25.183 24.0248 25.1619C23.8604 26.2385 23.7 27.2897 23.5322 28.3871C23.6748 28.453 23.9011 28.5445 24.1156 28.6589C24.4244 28.8237 24.5348 29.1182 24.4141 29.406C24.287 29.7085 23.9815 29.8326 23.6407 29.7089C23.4248 29.6308 23.2148 29.5367 23.0741 29.4793C22.3444 30.386 21.6441 31.256 20.9033 32.1763C20.9333 32.2197 21.0185 32.3448 21.1067 32.4682C21.4307 32.923 21.4396 33.26 21.133 33.4885C20.8263 33.7171 20.4919 33.6037 20.1711 33.163C20.0815 33.0397 19.9893 32.9185 19.9489 32.8641C18.8559 33.273 17.8107 33.6637 16.7007 34.0789C16.7093 34.1908 16.7281 34.4048 16.7419 34.6189C16.7663 35.0104 16.5633 35.2789 16.2237 35.3093C15.87 35.3408 15.6437 35.1397 15.5874 34.7371C15.5574 34.5223 15.5348 34.306 15.5107 34.1074C14.9133 34.0382 14.3393 33.96 13.7626 33.9171C13.6741 33.9104 13.5319 34.0474 13.4848 34.15C13.1126 34.9597 12.7774 35.7867 12.393 36.5904C11.6315 38.1819 10.0196 39.0482 8.21704 38.8656C6.61037 38.703 5.17815 37.4526 4.78407 35.816C4.67667 35.37 4.67778 34.8952 4.65519 34.4323C4.63481 34.0193 4.65852 33.6041 4.64889 33.1904C4.62519 32.1734 3.84704 31.4008 2.8737 31.4193C1.91296 31.4378 1.17074 32.2093 1.16667 33.2145C1.16 34.8445 1.16148 36.4748 1.16741 38.1048C1.16852 38.4219 1.13296 38.7156 0.802593 38.8471C0.478889 38.976 0.228519 38.8352 0.0366667 38.5663C0.0307407 38.5582 0.0125926 38.5593 0 38.556C0 36.6145 0 34.6734 0 32.7319C0.115185 32.4178 0.197778 32.0871 0.351111 31.793C0.956296 30.6319 2.2763 30.043 3.56815 30.3326C4.82111 30.6134 5.75778 31.7471 5.80778 33.0715C5.83074 33.6789 5.80704 34.2878 5.81963 34.896C5.84704 36.2271 6.75889 37.34 8.07148 37.6578C9.32111 37.9604 10.6393 37.373 11.2719 36.2297C11.3404 36.1056 11.4019 35.9767 11.4589 35.8471C11.7859 35.1034 12.1111 34.3585 12.4481 33.5874C11.9067 33.3223 11.3807 33.0652 10.8285 32.7948C10.7004 32.9697 10.5767 33.1485 10.4422 33.3197C10.2048 33.6222 9.86333 33.6878 9.59445 33.4908C9.32778 33.2948 9.29185 32.9567 9.50926 32.6293C9.62296 32.4578 9.7463 32.2926 9.82926 32.1752C9.10037 31.2741 8.39111 30.3978 7.64963 29.4811C7.51556 29.5363 7.30593 29.6304 7.09074 29.7093C6.75407 29.8326 6.43296 29.7056 6.31222 29.4119C6.18741 29.1082 6.3137 28.8037 6.64296 28.6415C6.83926 28.5452 7.04296 28.4645 7.24704 28.3752C7.12815 27.8237 6.98296 27.2904 6.90481 26.7474C6.8263 26.1997 6.81444 25.6426 6.77 25.0456C6.55815 25.026 6.33111 25.0074 6.10519 24.9834C5.74444 24.9448 5.50815 24.6993 5.5237 24.3837C5.53926 24.0652 5.79519 23.8311 6.15296 23.8263C6.37 23.8234 6.58704 23.8448 6.81741 23.856C6.96852 22.786 7.1163 21.7415 7.27 20.6526C7.06963 20.6 6.84741 20.5504 6.63074 20.4834C6.26889 20.3715 6.09963 20.1023 6.17963 19.7867C6.26222 19.46 6.51778 19.3074 6.89667 19.3648C7.01111 19.3822 7.12296 19.4182 7.23667 19.4419C7.33741 19.463 7.43889 19.4793 7.5437 19.4985C7.89481 18.4848 8.2437 17.4785 8.59963 16.4522C8.39259 16.3552 8.17815 16.2667 7.97556 16.1571C7.66556 15.9897 7.56 15.6997 7.68556 15.4063C7.81407 15.106 8.12519 14.9811 8.46185 15.1082C8.6763 15.1893 8.88407 15.2889 9.08667 15.3767C9.63148 14.4315 10.1589 13.5163 10.7 12.5771C10.5222 12.4478 10.3296 12.3204 10.1511 12.1756C9.87333 11.95 9.8237 11.6093 10.017 11.3515C10.1996 11.1082 10.5248 11.0534 10.8156 11.2319C11.0107 11.3519 11.1944 11.4915 11.3793 11.62C12.0893 10.8011 12.7815 10.003 13.4993 9.17521C13.3607 9.02966 13.207 8.87706 13.0633 8.71558C12.81 8.43077 12.8074 8.07484 13.0496 7.85003C13.2815 7.63484 13.6244 7.64818 13.8841 7.90003C14.0404 8.05151 14.1752 8.22447 14.317 8.38484C15.1937 7.69373 16.0226 7.04003 16.8841 6.36077C16.7826 6.20225 16.6704 6.0341 16.5656 5.86114C16.35 5.50447 16.4033 5.15929 16.6978 4.97558C16.9937 4.79077 17.3104 4.88892 17.5515 5.24262C17.6596 5.40151 17.7637 5.56336 17.87 5.72447C18.8296 5.22929 19.7667 4.74558 20.7415 4.24262C20.6648 4.04521 20.573 3.83595 20.5019 3.61966C20.3874 3.27262 20.523 2.95632 20.8193 2.84632C21.127 2.73225 21.4259 2.86558 21.5804 3.19781C21.6726 3.39558 21.7496 3.6004 21.8348 3.80484C22.8626 3.5004 23.873 3.20151 24.9226 2.89077C24.89 2.68521 24.8489 2.46077 24.82 2.23484C24.7737 1.87151 24.9537 1.59929 25.2737 1.53336C25.5789 1.47077 25.8563 1.66595 25.95 2.02151C26.0056 2.23188 26.0448 2.44669 26.093 2.66818C27.1607 2.56781 28.2104 2.46929 29.3144 2.36521C29.3144 2.14929 29.3052 1.93336 29.3167 1.71855C29.337 1.33151 29.5426 1.11336 29.8767 1.10521C30.2256 1.09669 30.4452 1.32299 30.473 1.72521C30.48 1.82818 30.4811 1.93262 30.4756 2.03558C30.463 2.25632 30.4752 2.41151 30.7681 2.47262C31.0904 2.54003 31.2063 2.8241 31.1348 3.14262C31.0607 3.47225 30.8137 3.58632 30.4959 3.58781C29.863 3.59077 29.2289 3.57595 28.597 3.60595C18.9411 4.06595 10.4411 11.3282 8.46667 20.7941C8.11111 22.4978 7.90667 24.216 7.98889 25.9571C8.14889 29.3478 10.8267 32.2997 14.1774 32.8019C18.1937 33.4041 21.8504 30.8448 22.6263 26.856C22.7585 26.1756 22.7381 25.4663 22.8093 24.7726C23.1804 21.1526 26.1726 18.4171 29.8107 18.3648C33.463 18.3123 36.3778 15.9615 37.1381 12.4552C37.8122 9.34855 36.2981 6.05077 33.4763 4.48077C33.3748 4.4241 33.27 4.37299 33.1678 4.31743C32.7963 4.11595 32.6693 3.84632 32.797 3.53299C32.9285 3.21114 33.2304 3.11225 33.6433 3.25484C33.6781 3.26669 33.7141 3.27558 33.7737 3.29299C33.8956 3.09669 34.0107 2.89706 34.1396 2.70669C34.3419 2.40818 34.6696 2.32484 34.9452 2.49114C35.2196 2.65669 35.2989 2.98373 35.1304 3.30447C35.0285 3.49855 34.9085 3.68373 34.8285 3.81892C35.627 4.64743 36.4107 5.4604 37.2385 6.31929C37.3556 6.25706 37.5537 6.14225 37.76 6.04447C38.0874 5.88929 38.41 5.98151 38.5656 6.26225C38.7248 6.54966 38.6333 6.86077 38.3189 7.05855C38.1252 7.1804 37.9211 7.28632 37.7326 7.39299C37.9093 7.96299 38.1085 8.49632 38.2352 9.04595C38.3593 9.58373 38.4093 10.1389 38.4974 10.7248C38.9122 10.8141 39.4611 10.616 39.7493 11.1445C39.7504 11.273 39.7504 11.4023 39.7504 11.5319Z" fill="#25282B"/>
<path d="M8.71484 25.0701C8.94188 15.3938 15.6515 7.0934 25.0834 4.88452C26.8645 4.46748 28.676 4.21859 30.5082 4.37748C33.9782 4.67822 36.5845 7.62155 36.5085 11.0993C36.4304 14.6812 33.5515 17.5312 29.9574 17.5853C25.97 17.6453 22.8778 20.2312 22.1089 24.1482C22.0045 24.6804 21.6348 24.9312 21.2463 24.7267C20.9474 24.5697 20.8967 24.3093 20.9519 23.999C21.423 21.3434 22.8011 19.286 25.0585 17.8275C26.5045 16.893 28.1048 16.4423 29.8278 16.4204C32.6278 16.3853 34.7948 14.5486 35.2878 11.8012C35.8167 8.85266 33.5648 5.81266 30.5845 5.55896C27.94 5.3334 25.3608 5.78785 22.9115 6.76785C15.9252 9.56303 11.6748 14.6797 10.2052 22.0667C9.91484 23.5253 9.75632 25.0186 10.013 26.5034C10.4285 28.9064 12.4993 30.7575 14.9063 30.9367C17.3956 31.1219 19.6956 29.6327 20.5074 27.3097C20.5545 27.1756 20.5926 27.0378 20.6478 26.9071C20.7752 26.6034 21.0078 26.4693 21.3304 26.5408C21.6352 26.6082 21.8211 26.8945 21.74 27.2286C21.6582 27.5653 21.5378 27.8967 21.3978 28.2141C20.263 30.7875 17.3685 32.4453 14.6589 32.0827C11.6282 31.6775 9.31595 29.5097 8.84707 26.6119C8.76447 26.1049 8.7567 25.5849 8.71484 25.0701Z" fill="#25282B"/>
<path d="M18.2337 15.2383C18.84 15.2365 19.3111 15.4957 19.62 16.0113C19.9374 16.5413 19.9211 17.0861 19.6385 17.6365C19.53 17.8476 19.44 18.0791 19.3967 18.3113C19.1507 19.6294 18.2296 20.5376 16.8952 20.7813C16.7878 20.8009 16.6407 20.942 16.62 21.048C16.3381 22.4898 15.4318 23.3591 13.9678 23.5817C13.8218 23.6039 13.6763 23.6772 13.5478 23.755C12.8011 24.2072 11.9067 24.0583 11.3966 23.3883C10.8863 22.718 10.9755 21.8142 11.61 21.2168C12.0559 20.7972 12.5785 20.5465 13.1848 20.4435C13.3026 20.4235 13.4644 20.2642 13.4874 20.1461C13.7511 18.7802 14.6159 17.9217 16.0029 17.648C16.1166 17.6254 16.2629 17.4505 16.2829 17.3283C16.3881 16.6913 16.6696 16.155 17.1204 15.7028C17.4255 15.3961 17.7963 15.2354 18.2337 15.2383ZM12.2355 22.3387C12.2474 22.7713 12.5929 22.9298 12.9166 22.7776C13.2359 22.6276 13.5704 22.4798 13.9137 22.4191C14.7444 22.272 15.347 21.6902 15.4541 20.858C15.5759 19.9105 15.7318 19.7524 16.6752 19.6194C17.5622 19.4942 18.1255 18.9017 18.2615 18.0187C18.3089 17.7117 18.4389 17.4083 18.5796 17.128C18.7004 16.888 18.7396 16.682 18.5226 16.505C18.3092 16.3309 18.0952 16.3768 17.9011 16.5668C17.577 16.8835 17.4633 17.2861 17.4055 17.7176C17.3044 18.475 17.12 18.6609 16.37 18.7783C15.2422 18.955 14.7529 19.4591 14.6048 20.5965C14.5222 21.2313 14.2844 21.4746 13.6459 21.5605C13.2055 21.6198 12.7711 21.695 12.4455 22.0324C12.3437 22.1372 12.2774 22.2761 12.2355 22.3387Z" fill="#25282B"/>
<path d="M22.13 8.40906C23.0403 8.39165 23.7296 8.99869 23.804 9.8835C23.8737 10.7109 23.2448 11.4439 22.3689 11.5554C21.6992 11.6409 21.5752 11.765 21.4833 12.4424C21.36 13.3505 20.6637 13.9339 19.7722 13.8761C18.9259 13.8213 18.3118 13.1228 18.3207 12.2242C18.3415 10.1568 20.0466 8.44869 22.13 8.40906ZM19.487 12.1487C19.4681 12.4361 19.5296 12.6816 19.8703 12.7072C20.1807 12.7305 20.3266 12.5283 20.3259 12.2494C20.3229 11.3187 21.154 10.4183 22.1655 10.4065C22.4481 10.4031 22.6522 10.2557 22.6303 9.95387C22.6081 9.65165 22.3892 9.56795 22.1044 9.57202C20.7433 9.59202 19.5211 10.7902 19.487 12.1487Z" fill="#25282B"/>
<path d="M26.8881 8.48682C27.0796 8.57645 27.4874 8.67793 27.7756 8.92126C28.49 9.52385 28.8978 10.329 29.0478 11.2546C29.1126 11.6531 28.9352 11.9324 28.6059 11.9939C28.2744 12.0557 28.0018 11.8672 27.9185 11.4742C27.7922 10.8783 27.5563 10.3435 27.1337 9.89978C26.873 9.62571 26.5819 9.59348 26.3496 9.80089C26.1126 10.0127 26.1144 10.292 26.3541 10.5909C27.1107 11.5331 27.1078 12.4383 26.3452 13.4005C26.1111 13.6961 26.1119 13.989 26.3633 14.1857C26.6385 14.4009 26.8963 14.3364 27.1174 14.0942C27.2567 13.9416 27.37 13.7653 27.5122 13.6161C27.7259 13.392 27.9826 13.3494 28.2493 13.5168C28.5033 13.6768 28.5652 13.9257 28.4789 14.1968C28.2111 15.0383 27.1504 15.6294 26.297 15.4246C25.1004 15.1372 24.6093 13.719 25.3707 12.7483C25.8811 12.0976 25.8756 11.8942 25.37 11.2264C24.95 10.672 24.877 10.0616 25.1859 9.43867C25.4867 8.82978 26.0063 8.53015 26.8881 8.48682Z" fill="#25282B"/>
<path d="M34.2511 11.1152C34.25 12.1885 33.4 13.0307 32.3237 13.0252C31.2508 13.0196 30.4141 12.167 30.4234 11.0885C30.4322 10.0356 31.2763 9.19814 32.3311 9.19629C33.4045 9.19444 34.2522 10.0415 34.2511 11.1152ZM33.0841 11.1337C33.0948 10.7011 32.7697 10.3637 32.3404 10.3618C31.9267 10.36 31.6004 10.6759 31.5897 11.0885C31.5782 11.5226 31.9019 11.8578 32.3337 11.8593C32.7508 11.8611 33.0737 11.5485 33.0841 11.1337Z" fill="#25282B"/>
<path d="M14.3322 25.4131C15.2782 25.4087 16.0411 26.1616 16.0415 27.0998C16.0415 28.0224 15.2959 28.7764 14.3722 28.7883C13.42 28.8001 12.6596 28.0635 12.6519 27.1201C12.6433 26.1705 13.3845 25.4175 14.3322 25.4131ZM14.8719 27.0935C14.8678 26.812 14.6396 26.5861 14.3541 26.5809C14.0459 26.5753 13.8133 26.8038 13.8174 27.1079C13.8215 27.4113 14.0604 27.6335 14.3685 27.6201C14.6522 27.6083 14.8756 27.3742 14.8719 27.0935Z" fill="#25282B"/>
<path d="M18.7037 25.2356C18.7141 25.54 18.4663 25.8074 18.1581 25.8252C17.8274 25.8441 17.5548 25.5963 17.5463 25.2689C17.5381 24.9593 17.7781 24.6941 18.0859 24.6722C18.3992 24.6496 18.6929 24.9178 18.7037 25.2356Z" fill="#25282B"/>
<path d="M29.3489 7.95448C29.3426 8.26781 29.0952 8.51115 28.7796 8.51374C28.4541 8.5167 28.183 8.24633 28.1919 7.92781C28.2004 7.62744 28.4685 7.36226 28.7678 7.35892C29.0882 7.35522 29.3556 7.62929 29.3489 7.95448Z" fill="#25282B"/>
<path d="M22.6429 18.1324C22.3344 18.1399 22.0696 17.8958 22.0518 17.5876C22.0333 17.2654 22.2933 16.9824 22.6159 16.9743C22.9359 16.9662 23.2129 17.2399 23.2096 17.561C23.2067 17.8673 22.9511 18.125 22.6429 18.1324Z" fill="#25282B"/>
<path d="M15.4215 15.4107C15.0981 15.3899 14.8615 15.1074 14.8896 14.7755C14.9159 14.4655 15.1859 14.2322 15.4948 14.2533C15.8018 14.274 16.0452 14.5422 16.0348 14.8485C16.024 15.1725 15.7415 15.4314 15.4215 15.4107Z" fill="#25282B"/>
</svg>
