<svg width="41" height="40" viewBox="0 0 41 40" fill="none" xmlns="http://www.w3.org/2000/svg">
<path d="M36.8711 -0.000117911C37.6989 0.196549 38.4766 0.492475 39.1111 1.09173C39.967 1.90025 40.4455 2.88988 40.4496 4.06544C40.4644 8.33618 40.467 12.6069 40.45 16.8777C40.4429 18.6736 39.2092 20.2584 37.4937 20.7669C37.3703 20.8036 37.2459 20.8358 37.1029 20.8754C37.1029 22.254 37.1096 23.6199 37.0959 24.9858C37.0937 25.1962 37.0452 25.4358 36.9355 25.6091C36.67 26.0291 36.1618 26.0428 35.7185 25.6654C34.5996 24.7128 33.4855 23.7543 32.3692 22.7991C31.7074 22.2325 31.0466 21.6643 30.3792 21.1047C30.2866 21.0269 30.1596 20.9477 30.0463 20.9447C29.4774 20.9284 28.9081 20.9373 28.2937 20.9373C28.2937 21.1051 28.2937 21.2436 28.2937 21.3821C28.2937 24.4551 28.2944 27.528 28.2933 30.601C28.2926 33.2469 26.5392 34.9988 23.8918 34.9991C19.6552 34.9999 15.4185 34.9958 11.1822 35.0095C10.9626 35.0103 10.6992 35.1073 10.5311 35.2488C8.79997 36.7058 7.08516 38.1817 5.3633 39.6503C5.21664 39.7754 5.05553 39.8832 4.90108 39.9991C4.74516 39.9991 4.58923 39.9991 4.4333 39.9991C4.01293 39.7688 3.86405 39.4188 3.88108 38.9384C3.91034 38.1073 3.88923 37.2747 3.88923 36.4425C3.88923 35.9399 3.88923 35.4369 3.88923 34.9358C3.73664 34.894 3.62293 34.868 3.51256 34.8321C2.09145 34.3706 1.14775 33.4306 0.698119 31.9999C0.636638 31.8043 0.58923 31.6043 0.535156 31.4062C0.535156 26.8228 0.535156 22.2395 0.535156 17.6562C0.554786 17.6236 0.584786 17.5932 0.592564 17.558C1.06923 15.3321 2.63071 14.0636 4.90071 14.0625C7.35516 14.0614 9.8096 14.0621 12.2644 14.0621C12.4018 14.0621 12.5392 14.0621 12.6996 14.0621C12.6996 13.8554 12.6996 13.701 12.6996 13.5469C12.6996 10.4369 12.6915 7.32729 12.7029 4.21729C12.7089 2.58655 13.4252 1.33507 14.8418 0.533215C15.2829 0.283586 15.8026 0.173586 16.2863 -0.000488281C18.6255 -0.000488281 20.9648 -0.000488281 23.304 -0.000488281C23.3448 0.0291413 23.3844 0.0602525 23.4263 0.0880302C23.7722 0.31766 23.9163 0.642845 23.8211 0.981364C23.7192 1.3421 23.4248 1.55951 22.9952 1.56025C21.0329 1.56433 19.0711 1.56173 17.1089 1.56247C15.3055 1.56284 14.2596 2.61322 14.2592 4.42396C14.2589 8.47285 14.2585 12.5217 14.2592 16.5706C14.2596 18.3006 15.3274 19.3743 17.0496 19.3747C21.4285 19.3758 25.8074 19.3788 30.1863 19.3688C30.5892 19.368 30.9044 19.4817 31.2081 19.7462C32.5029 20.8728 33.8126 21.9821 35.117 23.0973C35.234 23.1973 35.3555 23.2921 35.517 23.4236C35.5281 23.271 35.5429 23.1625 35.5433 23.0543C35.5452 22.1169 35.54 21.1795 35.5463 20.2421C35.55 19.6947 35.8329 19.4088 36.3815 19.374C37.8648 19.2791 38.8944 18.2069 38.8966 16.7265C38.9026 12.5606 38.9022 8.39433 38.897 4.2284C38.8952 2.67692 37.7881 1.56877 36.2433 1.56433C34.2163 1.5584 32.1892 1.5647 30.1622 1.56062C29.7326 1.55988 29.4377 1.3421 29.3359 0.981364C29.2403 0.643215 29.3848 0.31766 29.7311 0.0884006C29.7729 0.0606228 29.8126 0.0295117 29.8533 0.000252459C32.1926 -0.000117911 34.5318 -0.000117911 36.8711 -0.000117911ZM15.7496 20.8914C15.7748 20.9662 15.8111 21.0862 15.8555 21.2036C16.7715 23.6347 17.6896 26.0651 18.6037 28.4969C18.8026 29.0262 18.6403 29.4558 18.1918 29.6306C17.7511 29.8025 17.3496 29.5795 17.1429 29.0428C16.9752 28.6065 16.827 28.1614 16.6389 27.734C16.5926 27.6284 16.4255 27.5114 16.3129 27.5099C15.0529 27.494 13.7926 27.5051 12.5326 27.4947C12.3252 27.4928 12.2355 27.5717 12.1711 27.7543C12.0196 28.1828 11.8544 28.6066 11.6896 29.0303C11.4789 29.5728 11.0877 29.7977 10.647 29.6347C10.184 29.4636 10.0255 29.0273 10.2352 28.4725C10.6578 27.3547 11.0863 26.2391 11.5111 25.1221C12.2259 23.2428 12.9396 21.3632 13.6692 19.4432C12.7018 18.3873 12.6381 17.028 12.7044 15.6247C12.5585 15.6247 12.4692 15.6247 12.38 15.6247C9.83367 15.6247 7.28738 15.6203 4.74108 15.6265C3.20219 15.6303 2.09738 16.7465 2.09553 18.298C2.09145 22.4503 2.09182 26.6025 2.09553 30.7547C2.09701 32.2665 3.11108 33.3384 4.6159 33.4362C5.16182 33.4717 5.4433 33.7588 5.44701 34.3091C5.45293 35.2462 5.44812 36.1836 5.44997 37.1206C5.45034 37.2284 5.46516 37.3366 5.47701 37.4891C5.63997 37.3565 5.76108 37.2614 5.87812 37.1614C7.18219 36.0458 8.49071 34.9358 9.78516 33.8091C10.0885 33.5451 10.4029 33.4303 10.8066 33.431C15.1848 33.4414 19.5629 33.438 23.9411 33.4369C25.6685 33.4366 26.7337 32.3684 26.7344 30.6365C26.7355 27.5517 26.7348 24.4669 26.7348 21.3817C26.7348 21.2432 26.7348 21.1047 26.7348 20.8914C23.0466 20.8914 19.4044 20.8914 15.7496 20.8914ZM14.4274 21.8384C13.8892 23.2558 13.3885 24.5758 12.8792 25.9173C13.9363 25.9173 14.9281 25.9173 15.9633 25.9173C15.4559 24.5706 14.9611 23.2558 14.4274 21.8384Z" fill="#25282B"/>
<path d="M26.8125 0C26.8744 0.0433333 26.937 0.0855556 26.9977 0.13037C27.2992 0.351852 27.4325 0.643333 27.3151 1.00815C27.1996 1.3663 26.9359 1.56333 26.5592 1.55519C26.1999 1.54778 25.9499 1.35 25.8414 1.00815C25.7255 0.642963 25.8577 0.351852 26.1592 0.13037C26.2199 0.0855556 26.2829 0.0437037 26.3448 0.00037037C26.5003 0 26.6566 0 26.8125 0Z" fill="#25282B"/>
<path d="M25.5718 13.4474C24.4914 11.913 23.9477 10.2719 23.9148 8.4037C23.7203 8.4037 23.5451 8.40445 23.3696 8.4037C22.694 8.40074 22.0181 8.41593 21.3437 8.38778C20.8622 8.36778 20.5548 8.01296 20.5777 7.57778C20.6 7.15556 20.9126 6.85111 21.3837 6.84704C22.6826 6.83556 23.9818 6.84185 25.2807 6.84148C25.4348 6.84148 25.5889 6.84148 25.7985 6.84148C25.7985 6.23111 25.7974 5.65185 25.7992 5.07259C25.7996 4.92963 25.7911 4.78296 25.8192 4.64482C25.8989 4.25222 26.2503 4.00408 26.6522 4.03889C27.0463 4.07296 27.3418 4.36926 27.3518 4.79222C27.3677 5.45482 27.3559 6.11815 27.3559 6.84148C27.5163 6.84148 27.6533 6.84148 27.7903 6.84148C29.0503 6.84148 30.3107 6.83889 31.5707 6.84445C31.75 6.84519 31.9444 6.8463 32.1055 6.91185C32.44 7.04704 32.5996 7.32519 32.5744 7.68852C32.5489 8.05333 32.2814 8.35074 31.8959 8.37593C31.3526 8.41185 30.8059 8.39852 30.2607 8.4037C29.937 8.40667 29.6133 8.40408 29.2496 8.40408C29.204 10.24 28.6814 11.9011 27.6129 13.4037C28.4663 14.2544 29.4692 14.8211 30.6092 15.1485C30.9448 15.2448 31.2948 15.2896 31.6363 15.367C32.1159 15.4759 32.3596 15.8204 32.2855 16.2711C32.2174 16.6881 31.8703 16.95 31.3985 16.893C29.687 16.6856 28.1896 15.9881 26.8826 14.8696C26.7855 14.7867 26.6896 14.7026 26.5744 14.6033C25.7474 15.3707 24.8381 15.9963 23.7889 16.3696C23.1574 16.5941 22.4963 16.7496 21.837 16.8763C21.2926 16.9811 20.9214 16.6993 20.8651 16.2363C20.8066 15.7552 21.0914 15.42 21.6685 15.3344C23.0848 15.1248 24.3137 14.5274 25.3781 13.5759C25.4263 13.5326 25.487 13.503 25.5718 13.4474ZM26.5822 12.1419C27.2966 10.9585 27.6677 9.75815 27.6685 8.43445C26.9196 8.43445 26.2148 8.43445 25.4796 8.43445C25.5066 9.76741 25.8507 10.9685 26.5822 12.1419Z" fill="#25282B"/>
</svg>
