<svg width="24" height="24" viewBox="0 0 24 24" fill="none" xmlns="http://www.w3.org/2000/svg">
<path fill-rule="evenodd" clip-rule="evenodd" d="M8.3879 2.00934C7.09921 2.14319 6.03319 2.52234 5.05361 3.19537C1.3893 5.71283 0.876885 11.0183 3.98759 14.2327C5.8453 16.1523 8.58279 16.8209 11.1095 15.9719C11.5506 15.8237 12.2331 15.4995 12.5689 15.2786C12.6882 15.2002 12.794 15.136 12.804 15.136C12.8141 15.136 12.8224 15.1944 12.8224 15.2658C12.8224 15.433 12.9193 15.7677 13.0398 16.0166C13.1677 16.2809 18.2495 21.5278 18.5773 21.734C18.8907 21.9312 19.1409 22.0003 19.5407 22C20.0935 21.9996 20.506 21.8268 20.8729 21.4417C21.244 21.0523 21.4011 20.6496 21.4014 20.0868C21.4017 19.6757 21.3346 19.4185 21.1428 19.0962C20.9422 18.7592 15.839 13.5342 15.582 13.4027C15.3399 13.2788 15.0145 13.1792 14.8519 13.1792C14.7824 13.1792 14.7256 13.1707 14.7256 13.1603C14.7256 13.15 14.788 13.0412 14.8643 12.9185C15.0791 12.5733 15.3944 11.8716 15.5386 11.418C15.917 10.2275 15.9918 8.9425 15.7529 7.73733C15.4753 6.33671 14.8272 5.09815 13.847 4.09544C12.7851 3.00908 11.4988 2.33409 10.0056 2.07959C9.67915 2.02394 8.66946 1.9801 8.3879 2.00934ZM9.6404 4.26071C11.3193 4.48672 12.8264 5.74391 13.4447 7.4341C13.6613 8.02596 13.715 8.37064 13.7152 9.16766C13.7154 9.96385 13.6715 10.2472 13.4506 10.877C12.9836 12.2081 11.8779 13.3449 10.5833 13.8251C9.97079 14.0523 9.69517 14.0973 8.9208 14.0972C8.28779 14.097 8.15248 14.0854 7.83597 14.0044C6.71198 13.7165 5.78254 13.1075 5.11862 12.224C4.42521 11.3012 4.10235 10.3302 4.10235 9.16766C4.10235 7.7922 4.56784 6.63646 5.51342 5.66427C6.62957 4.51662 8.02256 4.04288 9.6404 4.26071Z" fill="#25282B"/>
</svg>
