<svg width="41" height="41" viewBox="0 0 41 41" fill="none" xmlns="http://www.w3.org/2000/svg">
<path d="M25.0272 0.838451C23.1747 1.06106 21.7675 1.51424 19.5732 2.6114L17.8877 3.4621L17.5379 3.31104C15.9398 2.63525 14.0556 2.66705 12.537 3.41439C10.9628 4.17764 9.80208 5.58487 9.31711 7.31012C9.1263 8.00181 9.11834 9.5283 9.30916 10.2359L9.44431 10.7368L9.21375 11.0707C8.51411 12.0963 7.88602 13.7182 7.64751 15.1016C7.3613 16.8109 7.70316 19.848 8.45846 22.3762C9.30121 25.1986 9.32506 26.1765 8.60952 27.8461L8.3233 28.514L5.32598 31.2887C0.269492 35.9715 0.508005 35.7012 0.500055 36.7268C0.500055 37.5775 0.698816 37.8876 2.1299 39.3107C3.47352 40.6305 3.77564 40.8133 4.59454 40.8213C5.53269 40.8213 5.48499 40.861 9.30916 36.7506C12.9902 32.7834 12.8948 32.8708 14.0953 32.4574C14.4769 32.3222 14.9063 32.2507 15.4469 32.2189C16.3851 32.1632 16.9734 32.2666 18.5873 32.7516C20.7976 33.4194 22.8408 33.7454 24.7887 33.7374C26.029 33.7374 26.2675 33.7136 26.9353 33.5307C29.2489 32.9026 31.0854 31.7737 33.1764 29.6906C34.5041 28.3709 35.4025 27.2737 36.5156 25.5962C37.5412 24.0538 38.1613 22.9725 38.9484 21.3506C39.6481 19.8957 40.0536 18.7826 40.308 17.6139C40.5385 16.5247 40.5624 14.5132 40.3398 13.5115C39.8071 11.0707 38.5032 8.88431 36.0306 6.28451C33.1526 3.26334 30.3779 1.49834 27.6986 0.98951C27.0625 0.870251 25.5201 0.782795 25.0272 0.838451ZM27.2215 2.26158C29.71 2.69886 31.8646 4.02658 34.687 6.86489C37.0562 9.24208 38.384 11.2694 38.9484 13.4002C39.187 14.2986 39.2426 16.0795 39.0597 17.0494C38.6702 19.1483 37.3345 21.9787 35.3548 24.9204C32.9061 28.5537 30.1552 31.0025 27.4362 31.9804C26.8399 32.195 25.7348 32.4335 25.3134 32.4335C25.0908 32.4335 24.2719 31.6465 16.9654 24.332L8.86393 16.2305L8.91958 15.6819C9.01499 14.712 9.50792 13.1696 9.95314 12.4541L10.136 12.1599L10.5256 12.621C11.2729 13.5115 12.227 14.1634 13.3003 14.5212C13.8727 14.7199 14.0476 14.7358 15.1289 14.7438C16.1704 14.7438 16.393 14.7199 16.878 14.5609C18.5555 13.9965 19.8515 12.8834 20.5431 11.3887C20.9248 10.5857 21.0599 10.0212 21.1076 9.05922C21.1871 7.44528 20.6624 5.99034 19.5573 4.76597L19.1439 4.30485L20.4318 3.66881C22.1332 2.83401 23.5564 2.34108 24.7489 2.19798C25.3611 2.11847 26.5855 2.15027 27.2215 2.26158ZM16.0829 4.2492C17.7843 4.60696 19.2313 5.99034 19.6606 7.66789C19.8117 8.27212 19.8117 9.36929 19.6606 9.95762C19.2313 11.6113 17.8559 12.9629 16.2022 13.3604C15.59 13.5115 14.5088 13.4876 13.9363 13.3207C11.4399 12.5892 10.0088 10.1325 10.6369 7.67584C10.8595 6.80129 11.2252 6.16525 11.8692 5.52127C12.9982 4.38435 14.5326 3.92323 16.0829 4.2492ZM11.4955 20.7702L13.984 23.2587L12.5291 24.6103C11.7261 25.3576 10.931 26.097 10.7482 26.256L10.4222 26.5502V25.5723C10.4222 24.4433 10.3268 23.8868 9.96109 22.734C9.50792 21.3347 9.2376 20.1501 9.02294 18.5759C8.99909 18.4169 8.98319 18.2817 8.99114 18.2817C8.99909 18.2817 10.1281 19.4028 11.4955 20.7702ZM16.0352 25.3099L17.1085 26.3833L16.5759 26.9636C13.8171 30.0166 4.99206 39.4061 4.8251 39.4617C4.41963 39.6049 4.18906 39.4538 2.98855 38.2453C1.85163 37.1164 1.81188 37.0687 1.81188 36.7506C1.81188 36.4883 1.85958 36.369 2.07424 36.1544C2.2094 36.0033 4.53093 33.8487 7.21819 31.3602C9.90544 28.8638 12.7278 26.2481 13.4911 25.5326C14.2623 24.825 14.9063 24.2446 14.9301 24.2446C14.954 24.2446 15.4549 24.7216 16.0352 25.3099ZM22.8011 32.2586C22.3797 32.3302 20.1695 31.8611 18.7225 31.4C17.4186 30.9866 16.8939 30.8991 15.757 30.8912L14.787 30.8832L15.0335 30.6049C15.1686 30.4539 15.9001 29.6509 16.6713 28.832L18.0626 27.3373L20.5113 29.786C22.4354 31.7101 22.9283 32.2427 22.8011 32.2586Z" fill="#25282B"/>
</svg>
