<svg width="41" height="40" viewBox="0 0 41 40" fill="none" xmlns="http://www.w3.org/2000/svg">
<path d="M13.2704 2.19244C12.0184 2.59152 11.0951 3.48358 10.6882 4.65734C10.3047 5.78415 10.4534 6.97356 11.1342 8.15515C11.1498 8.17863 10.9073 8.25688 10.5943 8.3273C9.26399 8.64031 7.73027 9.64974 6.87734 10.7687C6.21221 11.6373 5.97745 12.1851 5.18712 14.6421C3.91163 18.5938 3.80208 19.0633 3.80208 20.5892C3.80208 21.8412 3.96641 22.6628 4.78022 25.5816C5.18712 27.0527 5.5236 28.2891 5.5236 28.3204C5.5236 28.3595 4.61589 29.2203 3.4969 30.2375C2.38574 31.2548 1.34501 32.2329 1.18068 32.4129C0.711176 32.9293 0.5625 33.3519 0.5625 34.1657C0.5625 34.7761 0.585975 34.9247 0.773777 35.3082C1.06331 35.9029 1.68149 36.4819 2.27619 36.701C2.94132 36.9514 3.82556 36.9123 4.42809 36.6071C4.94454 36.3567 10.3438 31.4504 10.7038 30.9105C11.1342 30.2688 11.189 29.9089 11.1342 27.9213C11.1107 26.9432 11.1029 26.145 11.1264 26.145C11.142 26.145 11.635 26.5206 12.214 26.9745C12.8713 27.4909 13.2704 27.8587 13.2704 27.9448C13.2704 28.023 13.02 29.6272 12.7148 31.513C12.2923 34.1422 12.1749 35.0812 12.1984 35.5038C12.2532 36.4976 12.7774 37.3114 13.6773 37.7809C14.0529 37.9765 14.1703 38 14.8746 38C15.5319 38 15.7119 37.9687 16.017 37.82C16.5726 37.5461 16.9717 37.1627 17.2456 36.6384C17.4881 36.2002 17.5429 35.8951 18.2081 31.7634C18.9827 26.9666 19.0297 26.4737 18.748 25.7381C18.388 24.7678 18.4193 24.7991 14.8589 21.8256L12.7305 20.0414L13.2 18.6955C13.4661 17.9521 13.8573 16.8253 14.0764 16.1915C14.3033 15.5499 14.5146 15.0334 14.5459 15.0334C14.5772 15.0334 15.1719 15.4559 15.8605 15.9802C17.3708 17.1149 17.7307 17.3027 18.435 17.2948C18.7167 17.2948 19.0688 17.2479 19.2253 17.1931L19.5148 17.0914L19.6009 17.3809C19.7261 17.8113 20.1408 18.3825 20.5008 18.6173C21.1816 19.0711 21.0799 19.0633 24.0925 19.0868C27.1052 19.1103 27.3712 19.0868 27.8642 18.6955C27.9737 18.6095 28.0833 18.5469 28.0911 18.5625C28.1068 18.5782 28.2007 18.9459 28.2946 19.3763C28.3963 19.8067 28.4824 20.1979 28.5059 20.2449C28.5215 20.284 27.5277 21.1135 26.2914 22.076C25.0628 23.0385 23.8499 24.0479 23.5995 24.3218C23.0909 24.8773 22.6527 25.699 22.4571 26.458C22.2223 27.3657 22.2849 28.0622 22.9657 32.272C23.5526 35.9029 23.6152 36.2081 23.8499 36.6384C24.1238 37.1627 24.5229 37.5461 25.0785 37.82C25.3836 37.9687 25.5636 38 26.2209 38C26.9252 38 27.0426 37.9765 27.4182 37.7809C28.3337 37.2957 28.8502 36.4898 28.8971 35.4568C28.9128 35.0656 28.7797 33.7432 28.5059 31.5443L28.0833 28.2187L28.991 27.2953C29.4918 26.7945 29.9222 26.3798 29.9457 26.3798C29.977 26.3798 29.977 27.131 29.9535 28.0465C29.9144 29.8854 29.9691 30.261 30.3839 30.8948C30.7047 31.4035 36.104 36.3098 36.6439 36.5915C37.0039 36.7871 37.1995 36.8341 37.716 36.8497C38.5454 36.8888 39.0854 36.6932 39.6801 36.1533C40.4782 35.4177 40.7521 34.4161 40.4313 33.3597C40.22 32.6633 40.087 32.5146 37.5751 30.214C36.4718 29.2124 35.5719 28.3595 35.5719 28.3204C35.5719 28.2891 35.9006 27.0684 36.3075 25.6207C36.7065 24.1653 37.0821 22.6707 37.1369 22.3029C37.1995 21.8725 37.223 21.1839 37.1995 20.3466C37.1604 19.2511 37.1213 18.9303 36.9178 18.1634C36.5187 16.6688 36.2918 16.2854 35.791 16.2854C35.4545 16.2854 35.1963 16.4419 35.0554 16.7393C34.9302 17.0131 34.9302 17.0366 35.2119 17.9208C35.3685 18.4217 35.5171 19.0164 35.5484 19.2355L35.5954 19.6502H32.7783H29.9613L29.6014 18.0226L29.2336 16.4028L29.664 15.3307C29.8987 14.736 30.0943 14.1805 30.0943 14.1022C30.0943 13.8362 29.9144 13.5388 29.6953 13.4214C29.2101 13.171 28.7797 13.3667 28.5372 13.9379C28.4433 14.1492 28.3415 14.3291 28.3024 14.3291C28.2398 14.3291 26.6435 13.6484 26.6044 13.6014C26.5496 13.5466 27.1208 11.4886 27.2695 11.1678C27.6999 10.2914 28.5998 9.63409 29.6014 9.47759C30.6265 9.31326 31.7533 9.75147 32.434 10.5809C32.6218 10.8157 32.8644 11.0504 32.974 11.1052C33.3965 11.34 33.9756 11.0113 34.0538 10.487C34.1712 9.74364 32.5984 8.3899 31.182 8.02213C30.4856 7.84215 29.4136 7.8578 28.7641 8.06125C28.4902 8.14733 28.2555 8.20993 28.2555 8.2021C28.2476 8.19428 28.2007 7.92822 28.1537 7.6074C27.8407 5.71373 26.2053 4.31304 24.3038 4.31304C23.2944 4.31304 22.4179 4.65734 21.6667 5.3616C20.3991 6.54318 20.0469 8.31165 20.7669 9.86884C20.8764 10.1036 20.9703 10.3227 20.9703 10.354C20.9781 10.4244 18.6697 11.919 18.5915 11.8877C18.4272 11.8251 16.064 9.44629 16.1422 9.42281C16.377 9.34456 16.9795 8.87506 17.2769 8.5464C19.1705 6.44146 18.2472 3.02972 15.5632 2.20027C14.9059 1.99681 13.8808 1.99681 13.2704 2.19244ZM15.3519 3.79658C15.8214 4.01569 16.2518 4.42259 16.4944 4.88427C16.643 5.15815 16.6743 5.33812 16.6743 5.91718C16.6743 6.55883 16.6509 6.66056 16.4318 7.05182C15.2423 9.15676 12.0575 8.3273 12.0654 5.90936C12.0654 4.58691 13.0513 3.62443 14.4051 3.6166C14.8198 3.60878 15.0467 3.65573 15.3519 3.79658ZM25.368 6.13628C25.8062 6.36321 26.1662 6.73099 26.4322 7.23179C26.7061 7.74042 26.6826 8.66378 26.3853 9.26631C25.4932 11.0896 22.8327 10.9331 22.1049 9.01591C21.6354 7.7639 22.3397 6.38668 23.6778 5.94848C24.0612 5.82328 24.9454 5.91718 25.368 6.13628ZM13.4661 9.80624C14.1468 9.97839 14.6868 10.3462 15.7823 11.3713C16.4005 11.9503 16.8621 12.4433 16.8387 12.4981C16.8074 12.592 15.9936 13.7266 15.8449 13.8909C15.8058 13.9301 15.5397 13.7814 15.211 13.531C14.3346 12.8658 14.1781 12.8111 13.7399 13.038C13.4817 13.171 13.4739 13.1867 12.128 17.0053L11.2046 19.6502H8.32498H5.44535V19.4311C5.44535 19.0477 5.67228 18.2417 6.50956 15.6203C6.96341 14.1961 7.46422 12.7876 7.62072 12.4902C8.00415 11.739 9.03706 10.7061 9.78827 10.3227C11.0246 9.68887 12.3079 9.50889 13.4661 9.80624ZM22.6292 12.0129C22.9187 12.3024 22.9735 12.592 22.8014 12.9519C22.7231 13.1397 21.6902 13.8518 19.4992 15.2447C18.4976 15.8785 18.3411 15.8863 17.6212 15.3386C17.2925 15.096 17.1125 14.9004 17.136 14.8378C17.1595 14.7752 17.3551 14.4856 17.5742 14.1805L17.9733 13.6327L18.3567 13.6797C18.7323 13.7266 18.7558 13.7188 19.8591 12.991C22.058 11.5591 22.1441 11.5278 22.6292 12.0129ZM25.0628 13.2336L24.8046 14.2118L24.3116 14.2352L23.8265 14.2587L24.0221 13.9614C24.3038 13.531 24.4603 13.038 24.4603 12.5685V12.1538L24.875 12.0833C25.2115 12.0286 25.2819 12.0364 25.3054 12.1381C25.3132 12.2007 25.2037 12.6937 25.0628 13.2336ZM26.9721 15.4716C27.3321 15.6281 27.6529 15.7768 27.692 15.8081C27.7938 15.902 27.2695 17.0914 27.0269 17.3261L26.8 17.5452L24.1786 17.5218L21.5494 17.4983L21.3224 17.2401C21.0094 16.8879 21.0094 16.4654 21.3224 16.1133L21.5494 15.855L23.5917 15.8472C25.8062 15.8316 25.9236 15.8159 26.1192 15.3777C26.1662 15.276 26.2288 15.1899 26.2601 15.1899C26.2835 15.1899 26.6044 15.3151 26.9721 15.4716ZM14.3503 23.4454C17.2769 25.8946 17.3551 25.9807 17.3551 26.7867C17.3551 27.2327 16.0562 35.4881 15.9388 35.7855C15.7666 36.2315 15.3597 36.4741 14.7963 36.4741C14.2407 36.4741 13.7399 35.942 13.7399 35.3473C13.7399 35.1986 14.006 33.4145 14.3268 31.3956C14.6476 29.3689 14.9137 27.6161 14.9137 27.4909C14.9137 27.3657 14.8433 27.1701 14.7572 27.0605C14.6242 26.8962 11.635 24.4939 10.7821 23.8757C10.4064 23.6019 10.0152 23.6332 9.71784 23.9618L9.49091 24.2122L9.54569 26.9588L9.60829 29.7054L9.42049 29.9793C9.21704 30.2766 4.22464 34.9091 3.84121 35.1517C3.19955 35.5586 2.25272 35.1438 2.11187 34.3848C1.99449 33.7588 2.06492 33.6806 4.66284 31.2939C6.32958 29.768 7.11209 29.009 7.16687 28.8447C7.23729 28.6412 7.13557 28.1952 6.45478 25.7929C5.6175 22.7959 5.4923 22.2794 5.41405 21.6221L5.35927 21.2152H8.5206H11.6898L14.3503 23.4454ZM35.6502 21.4813C35.6502 21.9899 35.4076 23.0071 34.6329 25.8007C33.9678 28.1874 33.8582 28.6412 33.9286 28.8447C33.9834 29.0012 34.7659 29.768 36.4014 31.2704C38.0681 32.7807 38.835 33.5397 38.9132 33.7275C39.1323 34.244 38.9289 34.8465 38.4437 35.1438C38.162 35.3238 37.5829 35.3473 37.3247 35.1986C37.0195 35.0265 31.8159 30.214 31.6515 29.9558C31.5029 29.7132 31.495 29.6193 31.5498 26.9666L31.6046 24.2279L31.3933 23.9775C31.1429 23.6879 30.8769 23.6097 30.5717 23.7349C30.2274 23.8836 26.5809 27.3892 26.5183 27.6239C26.4948 27.7335 26.667 29.4628 26.9095 31.4661C27.1599 33.4693 27.3556 35.2221 27.3556 35.3629C27.3556 35.6916 27.1912 36.0124 26.8861 36.2707C26.6904 36.435 26.5574 36.4741 26.2288 36.4741C25.7123 36.4741 25.3523 36.2472 25.1645 35.7855C25.1019 35.6368 24.1551 29.8932 23.9125 28.1952C23.7717 27.1623 24.1003 26.0824 24.7811 25.339C24.9689 25.1356 26.1975 24.1261 27.5121 23.1011L29.8987 21.2309L32.7783 21.223L35.6502 21.2152V21.4813Z" fill="#25282B"/>
<path d="M34.1949 13.0695C33.5298 13.4764 33.8037 14.4858 34.5784 14.4858C35.4157 14.4858 35.6348 13.2808 34.8522 13.0069C34.5236 12.8895 34.4766 12.8973 34.1949 13.0695Z" fill="#25282B"/>
</svg>
