<svg width="40" height="41" viewBox="0 0 40 41" fill="none" xmlns="http://www.w3.org/2000/svg">
<path d="M19.5077 0.545475C18.7687 0.701061 17.9907 1.14837 17.5337 1.68319L17.1447 2.1305L16.4835 1.96519C13.9844 1.3234 12.0493 1.90685 11.495 3.49187C11.4173 3.7058 11.2811 4.25035 11.1936 4.69765C10.9797 5.74785 10.8533 5.98123 10.3476 6.26323C9.99754 6.44799 9.91974 6.54523 9.9003 6.8175C9.85168 7.25508 10.0851 7.47874 10.7463 7.61488C11.495 7.78019 13.2259 7.78019 13.7802 7.61488C14.529 7.40095 14.879 7.03143 15.4625 5.82565C15.7542 5.22276 16.1237 4.58096 16.289 4.39621L16.5807 4.05587L16.5905 5.7284C16.5905 7.55653 16.6877 8.03301 17.2128 8.72342L17.4656 9.04432L17.1739 9.725C16.3668 11.6309 16.0945 13.2937 16.1334 16.1721C16.1529 18.0488 16.1334 18.3308 15.9389 19.099C15.6667 20.1395 15.2777 21.0147 14.6359 22.026C13.9552 23.0859 13.7413 23.7082 13.7413 24.6709C13.7316 26.1392 14.3442 27.3839 15.4819 28.2105L16.0945 28.6481L16.0459 29.2801C16.0167 29.6399 15.9778 30.2039 15.9487 30.5442L15.8903 31.1569L12.7689 31.0791C11.0477 31.0304 8.98623 30.9916 8.17913 30.9916C6.75942 30.9916 6.7108 31.0013 6.26349 31.2541C6.02039 31.4097 5.68005 31.6917 5.51474 31.8862C4.97019 32.5377 4.92157 32.8683 4.92157 35.5132C4.92157 37.7984 4.93129 37.9345 5.12578 38.1776C5.32026 38.4305 5.75784 38.518 6.12736 38.3721C6.21487 38.3332 6.66218 37.6817 7.12893 36.9135L7.96521 35.5132L8.55837 35.5619C8.88899 35.591 10.3573 35.6786 11.8257 35.7564C13.294 35.8341 14.9763 35.9508 15.5694 36.0092C17.3198 36.1842 18.5547 35.98 19.4785 35.3479C20.2175 34.852 20.5093 34.3269 21.0733 32.5474C21.3455 31.6917 21.6762 30.6318 21.822 30.1845L22.0748 29.3871H22.8819H23.689V29.99C23.689 30.3303 23.6404 32.314 23.5821 34.395C23.4751 37.8665 23.4848 38.236 23.6307 38.6833C23.8446 39.3543 24.2725 39.8307 24.9337 40.1516C25.488 40.4239 25.4977 40.4239 27.7051 40.4531C30.1264 40.492 30.5056 40.4628 30.7973 40.1711C31.0307 39.9377 31.0404 39.3932 30.8168 39.1403C30.7195 39.0334 30.0778 38.6055 29.3776 38.1874C28.6872 37.7692 28.1038 37.4192 28.094 37.4192C28.0551 37.39 28.4441 30.9332 28.5608 29.7177C28.7164 27.9382 28.4636 26.5768 27.8218 25.7308C27.3161 25.0696 26.7035 24.7779 24.0294 23.9416C22.6388 23.504 21.4817 23.1345 21.4719 23.1151C21.4525 23.0956 21.6762 22.6483 21.9679 22.1232C22.5708 21.0341 23.125 19.6825 23.3098 18.8559C23.4168 18.36 23.4848 18.253 23.8252 18.0099C24.8073 17.3292 25.3519 16.386 25.381 15.3261C25.381 14.9857 25.4394 14.7037 25.488 14.7037C25.6339 14.7037 29.2707 14.4315 30.0389 14.3634C30.4667 14.3245 30.6904 14.3342 30.6904 14.4023C30.6904 14.4606 30.5348 14.5092 30.3403 14.5092C29.9902 14.5092 29.6304 14.6551 29.504 14.8399C29.4651 14.8982 29.4262 15.5205 29.4262 16.2207C29.4262 17.3292 29.4457 17.514 29.6013 17.6501C29.7569 17.796 30.0972 17.8154 32.4213 17.8154C35.6205 17.8154 35.3579 17.9613 35.3579 16.1818C35.3579 15.0441 35.3482 14.976 35.1148 14.7523C34.9301 14.5676 34.7745 14.5092 34.4341 14.5092C34.0257 14.5092 33.9868 14.4898 34.016 14.2856C34.0354 14.1106 34.1132 14.0717 34.4828 14.0425C34.7648 14.023 34.9981 13.9355 35.144 13.8091C35.3482 13.6146 35.3579 13.5174 35.3579 12.3116C35.3579 10.7558 35.2899 10.6196 34.5022 10.5418C34.0257 10.5029 33.9966 10.4835 33.9966 10.2307C33.9966 9.97783 34.0257 9.95838 34.5022 9.91948C35.2801 9.84169 35.3579 9.69583 35.3579 8.23722C35.3579 7.20647 35.3288 7.01198 35.1732 6.8175L34.9884 6.58413H32.4115C29.1831 6.58413 29.4262 6.44799 29.4262 8.23722C29.4262 9.71528 29.4846 9.83196 30.2528 9.90976C30.6612 9.95838 30.6904 9.98755 30.6904 10.2404V10.5224H26.334H21.9776L21.8123 10.182L21.647 9.84169H22.6097C24.0197 9.84169 23.9419 10.0362 24.0294 6.55495C24.0877 4.11421 24.078 3.67662 23.9419 3.20987C23.407 1.3623 21.365 0.137066 19.5077 0.545475ZM21.4622 2.12077C21.9581 2.39305 22.4346 2.91815 22.6388 3.4238C22.7555 3.68635 22.7555 6.15627 22.6583 7.67322L22.5999 8.57756L20.976 8.56783C18.9923 8.55811 18.6131 8.44142 18.156 7.70239C17.9713 7.3815 17.9518 7.23564 17.9518 5.41724V3.47242L18.2436 2.96677C18.9048 1.81933 20.2467 1.45954 21.4622 2.12077ZM15.3944 3.09318C15.5986 3.15153 15.5889 3.17097 15.1805 3.6669C14.811 4.12393 14.3247 5.01855 13.9747 5.88399C13.8288 6.24378 13.3426 6.43826 12.6036 6.43826H12.0104L12.1563 6.16599C12.2243 6.02013 12.3897 5.46585 12.4966 4.94075C12.6133 4.40593 12.7786 3.85166 12.8661 3.7058C13.0217 3.44325 13.3912 3.20987 13.8191 3.10291C14.1011 3.03484 15.1513 3.02511 15.3944 3.09318ZM33.9966 8.23722C33.9966 8.57756 33.9966 8.57756 33.559 8.57756C32.8783 8.57756 32.7324 8.78176 32.7324 9.74445V10.5224H32.3921H32.0517V9.80279C32.0517 8.84011 31.8573 8.57756 31.1668 8.57756H30.6904V8.23722V7.89687H32.3435H33.9966V8.23722ZM19.6146 9.84169C20.13 9.84169 20.1592 9.85141 20.3148 10.182C20.5287 10.6196 20.5287 10.6196 20.2467 10.6196C19.8966 10.6196 19.216 10.8822 18.8562 11.1642C18.3894 11.524 18.1463 12.0588 18.1463 12.7297C18.1463 13.4396 18.3797 13.9647 18.9048 14.4315C19.5758 15.0343 19.9744 15.1024 22.0943 14.9468C23.0959 14.869 23.9516 14.8301 24.0099 14.869C24.0585 14.8982 24.078 15.1316 24.0488 15.4136C23.9808 15.9873 23.6112 16.5999 23.1834 16.8236C22.3277 17.2903 22.3082 17.3292 22.0846 18.253C21.7928 19.4102 21.3942 20.4312 20.7718 21.5495L20.2564 22.4733L17.6698 23.5818C16.2501 24.1944 15.0638 24.6515 15.0541 24.6028C14.9665 24.3889 15.2874 23.4943 15.6472 22.9497C16.1723 22.1329 16.7169 21.0244 16.9794 20.2465C17.3976 18.992 17.4851 18.2822 17.4754 16.0165C17.4559 13.284 17.6893 11.8448 18.3991 10.2501C18.6033 9.79307 18.6617 9.725 18.8464 9.78334C18.9729 9.81252 19.3132 9.84169 19.6146 9.84169ZM33.9966 12.3213C33.9966 12.5644 33.9674 12.7589 33.9285 12.7589C33.8799 12.7589 30.8071 12.9826 27.0925 13.2548C19.5466 13.7994 19.8772 13.8091 19.5466 13.109C19.3035 12.6228 19.4299 12.3019 19.9258 12.0782C20.3148 11.8935 20.6454 11.8837 27.1703 11.8837H33.9966V12.3213ZM32.7324 14.8496C32.7324 15.647 32.9075 15.8706 33.559 15.8706C33.9966 15.8706 33.9966 15.8706 33.9966 16.211V16.5513H32.3435H30.6904V16.211V15.8706H31.1668C31.8281 15.8706 32.0517 15.5886 32.0517 14.7912V14.2175H32.3921H32.7324V14.8496ZM23.0181 25.0112C24.5934 25.5072 26.0617 26.0128 26.2854 26.1392C26.5868 26.3143 26.7618 26.5088 26.966 26.9269C27.2189 27.452 27.2383 27.5784 27.2383 28.6092C27.2286 29.2218 27.1119 31.5653 26.9758 33.8115C26.7521 37.3122 26.7327 37.9248 26.8494 38.0999C26.9272 38.2165 27.2772 38.4791 27.6273 38.6833L28.2788 39.0625L27.1703 39.0917C26.5674 39.1112 25.9353 39.0917 25.77 39.0625C25.4005 38.9945 24.9532 38.5374 24.8656 38.1485C24.8365 37.9734 24.8656 35.7564 24.9434 33.2086L25.0699 28.5703L24.8268 28.3661C24.6323 28.191 24.4183 28.1424 23.5334 28.0938C17.5726 27.7243 17.4267 27.7145 16.9308 27.5298C16.4252 27.345 15.7056 26.7227 15.4722 26.2657L15.3458 26.0226L17.6407 25.0307C18.9048 24.4861 19.9939 24.0583 20.0522 24.0777C20.1106 24.0972 21.4428 24.5153 23.0181 25.0112ZM20.6065 29.2898C20.694 29.3676 19.5855 33.0142 19.3035 33.5782C19.0604 34.0741 18.6131 34.4144 17.9713 34.5992C17.3587 34.7839 17.7087 34.7937 11.3881 34.4144C8.82092 34.2588 7.43038 34.2102 7.29424 34.2686C7.18728 34.3269 6.92473 34.6575 6.7108 35.0076L6.33156 35.6591L6.30239 34.4242C6.27322 32.9947 6.37046 32.6933 6.91501 32.4307C7.22618 32.2849 7.63459 32.2751 12.0299 32.3918C16.7071 32.5182 16.8044 32.5182 16.9891 32.3335C17.1447 32.1779 17.1934 31.9251 17.2711 30.8846C17.3198 30.1942 17.3684 29.5038 17.3684 29.3482V29.0662L18.9534 29.144C19.8189 29.1829 20.5676 29.2412 20.6065 29.2898Z" fill="#25282B"/>
<path d="M5.21327 11.9712C4.0172 12.3407 3.29762 13.5173 3.55045 14.6648C3.69631 15.3163 4.11445 15.8803 4.68817 16.2206C5.30078 16.5804 6.22457 16.5998 6.82746 16.2887C7.36229 16.0067 7.88739 15.3843 8.03325 14.8398C8.17911 14.3341 8.11104 13.5854 7.89711 13.1575C7.41091 12.224 6.18567 11.6795 5.21327 11.9712ZM6.48712 13.527C6.71077 13.7507 6.76912 13.8966 6.76912 14.2174C6.76912 15.2093 5.41747 15.5691 4.96044 14.6939C4.78541 14.3439 4.78541 14.0813 4.97016 13.7312C5.15492 13.3715 5.36885 13.2548 5.82588 13.245C6.10788 13.245 6.26347 13.3131 6.48712 13.527Z" fill="#25282B"/>
<path d="M28.2595 20.0522C27.7636 20.5481 28.347 21.3941 28.9888 21.1024C29.4361 20.8982 29.475 20.1883 29.0471 19.9647C28.7554 19.7994 28.4734 19.8383 28.2595 20.0522Z" fill="#25282B"/>
<path d="M7.56665 20.4409C7.31383 20.5479 7.13879 20.9369 7.22631 21.1897C7.25548 21.2869 7.42079 21.5106 7.57638 21.6759L7.87782 21.9968L7.625 22.2593C7.24576 22.6775 7.14852 22.9206 7.25548 23.2026C7.44996 23.7374 7.98479 23.786 8.49044 23.3193L8.85996 22.9886L9.21975 23.3193C9.63788 23.6985 9.98795 23.7374 10.2699 23.4554C10.5714 23.154 10.5228 22.765 10.1241 22.3858L9.79347 22.0649L10.1338 21.6856C10.5519 21.2189 10.5617 20.8105 10.163 20.509C9.85181 20.2854 9.61843 20.3437 9.14195 20.7521L8.81134 21.0438L8.42237 20.6938C8.01396 20.3243 7.92644 20.3048 7.56665 20.4409Z" fill="#25282B"/>
<path d="M35.776 21.8995C35.3287 22.0843 35.2315 22.6191 35.5912 22.9595C36.0483 23.3873 36.8165 22.9595 36.6609 22.3468C36.6123 22.1426 36.1747 21.7731 36.0191 21.812C35.9997 21.812 35.8927 21.8509 35.776 21.8995Z" fill="#25282B"/>
</svg>
