<svg width="41" height="48" viewBox="0 0 41 48" fill="none" xmlns="http://www.w3.org/2000/svg">
<path d="M27.6862 8.11023C27.4476 8.19548 24.1656 9.72138 20.4062 11.503C14.3964 14.3502 13.5098 14.7935 13.1092 15.1601C12.0436 16.1319 11.6344 17.6152 12.0606 18.9706C12.1544 19.2689 12.6488 20.2663 13.1688 21.1784C13.6803 22.0906 14.0724 22.8578 14.0384 22.8919C14.0043 22.926 11.3616 24.4945 8.1649 26.3785L2.34259 29.7968L1.84816 29.7372C1.19177 29.669 0.808162 29.8224 0.603572 30.2486C0.416031 30.6408 0.484227 30.9647 0.799638 31.2716C1.01275 31.4762 1.14915 31.5188 1.79702 31.5785C2.73472 31.6722 3.27177 31.8513 4.26063 32.4224C5.65866 33.2237 6.4344 33.4113 8.12227 33.3516C9.43506 33.3004 10.1767 33.0788 11.3361 32.3883C12.4613 31.7149 13.1092 31.5444 14.3452 31.604C15.4961 31.6467 15.7688 31.7319 16.9452 32.3968C17.397 32.6611 18.0705 32.9765 18.437 33.0958C19.0423 33.3004 19.2128 33.3175 20.5 33.326C21.8213 33.326 21.9492 33.309 22.5885 33.0873C22.9636 32.9509 23.6456 32.6355 24.0974 32.3713C25.2397 31.7319 25.7597 31.5785 26.8679 31.5785C27.9505 31.5785 28.6325 31.7831 29.7066 32.4224C30.1072 32.6526 30.7381 32.9595 31.1131 33.0873C31.7525 33.309 31.8803 33.326 33.2017 33.326C34.4463 33.326 34.6764 33.3004 35.1964 33.1299C35.8613 32.9083 36.2535 32.7208 36.9695 32.2945C37.6515 31.8768 38.325 31.6637 39.203 31.5785C39.8509 31.5188 39.9872 31.4762 40.2004 31.2716C40.5158 30.9647 40.584 30.6408 40.3964 30.2486C40.1663 29.7713 39.8253 29.6604 38.8705 29.7713C37.8817 29.8821 36.9781 30.189 36.0233 30.7345C34.9236 31.3568 34.4804 31.5017 33.5341 31.5529C32.5026 31.6126 31.6587 31.4421 30.9426 31.0244C30.0305 30.4873 29.0672 30.0526 28.5131 29.9247C28.2148 29.8565 27.9505 29.7627 27.9164 29.7286C27.8056 29.6093 20.5682 19.0047 20.5341 18.9194C20.517 18.8683 22.7761 17.6919 25.5636 16.3024C30.2181 13.9752 30.6528 13.7365 30.9853 13.3614C31.9912 12.2276 32.1105 10.5909 31.2751 9.35482C30.9171 8.83482 30.5676 8.54498 29.9112 8.24662C29.2803 7.96531 28.3171 7.90564 27.6862 8.11023ZM29.4253 10.0368C29.7492 10.2499 30.0476 10.7955 30.0476 11.1706C30.039 11.5627 29.7492 12.1253 29.4338 12.3129C29.2803 12.4066 26.9702 13.5745 24.2934 14.9214C20.5341 16.8053 19.3662 17.4276 19.119 17.6834C18.6587 18.1607 18.5138 18.8427 18.7439 19.4735C18.8036 19.6355 20.3892 22.0139 22.2731 24.7503C24.1571 27.4867 25.6744 29.7542 25.6489 29.7968C25.6233 29.8394 25.521 29.8735 25.4187 29.8735C25.0692 29.8821 24.0718 30.2827 23.2023 30.7857C22.1964 31.3568 21.4974 31.5699 20.5597 31.5699C19.6561 31.5785 18.8718 31.3824 18.1557 30.9817C16.3826 29.9673 15.6751 29.7542 14.1065 29.7542C12.8364 29.7542 12.0351 29.9503 11.0377 30.4873C9.69933 31.2204 9.28162 31.3994 8.72752 31.5017C7.94326 31.6381 6.77539 31.5614 6.13604 31.3227C5.61604 31.1267 4.72948 30.6408 4.72948 30.5555C4.72948 30.5214 7.07375 29.1234 9.94654 27.4355C12.8108 25.7562 15.2829 24.2473 15.4449 24.0939C15.837 23.7103 16.0331 23.0112 15.8967 22.4827C15.8456 22.2696 15.3767 21.3404 14.8482 20.4198C14.3282 19.4991 13.8508 18.5955 13.7826 18.408C13.578 17.8198 13.8082 16.9673 14.2941 16.5155C14.439 16.3706 27.098 10.3011 28.2574 9.81515C28.4876 9.71286 29.1354 9.84072 29.4253 10.0368Z" fill="#25282B"/>
<path d="M32.1796 15.8078C30.7901 16.0038 29.5114 16.6602 28.4714 17.7173C27.6957 18.5101 27.3035 19.1153 26.9626 20.0786C26.1612 22.3547 26.6727 24.8609 28.3009 26.617C29.6052 28.0235 31.1822 28.714 33.0747 28.7055C34.1318 28.7055 34.8734 28.552 35.7088 28.177C38.8203 26.7704 40.3121 23.2838 39.1783 20.0701C38.3088 17.6235 36.0754 15.9442 33.4498 15.7822C33.0577 15.7566 32.4865 15.7737 32.1796 15.8078ZM34.2596 17.7343C35.8367 18.1435 37.1836 19.4819 37.5927 21.0504C37.7547 21.6983 37.7547 22.7894 37.5927 23.4373C37.1836 24.9888 35.9134 26.276 34.3193 26.7534C33.7311 26.9238 32.5462 26.9324 31.8813 26.7619C30.3213 26.3527 28.9658 24.9973 28.5567 23.4373C28.2839 22.3632 28.4373 21.0248 28.9658 20.0274C29.3068 19.3881 30.1934 18.493 30.8157 18.152C31.8216 17.615 33.1685 17.453 34.2596 17.7343Z" fill="#25282B"/>
<path d="M0.866769 35.4998C0.551359 35.7555 0.42349 36.1818 0.576933 36.5398C0.755949 36.966 0.909392 37.0513 1.68513 37.128C2.56317 37.2132 3.36448 37.4604 3.90153 37.8014C5.08645 38.5516 6.10088 38.9011 7.32842 38.9693C8.83728 39.0545 10.0137 38.7647 11.3179 37.9975C12.4773 37.307 12.9291 37.1706 14.1055 37.1706C15.2734 37.1621 15.6484 37.2644 16.8504 37.9463C17.8478 38.509 18.3763 38.7136 19.2032 38.8755C20.8996 39.1995 22.5193 38.8926 24.156 37.9378C24.9914 37.4519 25.716 37.2132 26.5344 37.1536C27.5573 37.0768 28.2649 37.2644 29.6288 37.9634C31.1888 38.7647 31.8367 38.9437 33.2006 38.9437C34.6839 38.9522 35.6131 38.688 36.9514 37.8867C37.676 37.4519 38.4091 37.2218 39.2957 37.128C40.0885 37.0513 40.2419 36.966 40.4209 36.5398C40.5744 36.1818 40.4465 35.7555 40.1311 35.4998C39.9606 35.3634 39.7816 35.3293 39.3042 35.3293C38.3154 35.3293 37.3947 35.6021 36.1416 36.2585C34.8032 36.9745 34.2406 37.145 33.2858 37.1536C32.1435 37.1621 31.7855 37.0427 29.9442 36.0795C28.8701 35.5168 28.2137 35.3719 26.7645 35.3719C25.6478 35.3804 25.5199 35.3975 24.7612 35.6532C24.318 35.8067 23.6275 36.1306 23.2183 36.3608C21.198 37.5286 19.5783 37.469 17.413 36.1562C17.1402 35.9942 16.5861 35.7555 16.177 35.6191C15.4779 35.389 15.333 35.3719 14.1055 35.3719C12.9035 35.3804 12.7245 35.3975 12.1022 35.6106C11.7271 35.7299 11.0366 36.0539 10.5678 36.3181C9.37433 37.0086 8.90547 37.145 7.75465 37.145C6.68055 37.145 6.04973 36.9745 5.22284 36.4716C3.95268 35.6959 2.8189 35.3293 1.69366 35.3293C1.21628 35.3293 1.03726 35.3634 0.866769 35.4998Z" fill="#25282B"/>
</svg>
