<svg width="41" height="40" viewBox="0 0 41 40" fill="none" xmlns="http://www.w3.org/2000/svg">
<path d="M40.4972 9.43554C40.0597 11.7177 38.7879 13.6593 37.9046 15.7591C37.7869 16.0393 37.7786 16.231 37.9546 16.4956C41.0315 21.1276 39.5649 27.446 34.7694 30.25C34.5965 30.351 34.386 30.4417 34.1923 30.4437C32.7601 30.4604 31.3289 30.4562 29.8967 30.45C29.4738 30.4479 29.2061 30.1854 29.2155 29.8136C29.2238 29.4594 29.4842 29.2219 29.8884 29.2042C29.979 29.2001 30.0707 29.2032 30.1613 29.2032C31.3716 29.2032 32.583 29.2094 33.7934 29.1969C33.9767 29.1948 34.184 29.1469 34.3381 29.0522C37.2817 27.2293 38.8046 23.6775 38.14 20.2151C37.4921 16.8372 34.7652 14.1197 31.3956 13.4916C27.4229 12.752 23.6356 14.7363 21.994 18.4173C21.9836 18.4413 21.9763 18.4663 21.9659 18.4902C21.7472 18.9746 21.4295 19.1527 21.0691 18.9944C20.6962 18.8308 20.5858 18.4746 20.8191 18.0038C21.0951 17.4455 21.3951 16.8976 21.7201 16.3664C21.8513 16.1518 21.8742 15.9998 21.7659 15.7696C21.0993 14.3592 20.4337 12.9478 19.7994 11.5229C18.013 7.51274 20.2598 3.06924 24.5449 2.14012C24.998 2.04221 25.474 2.01096 25.9386 2.00888C28.5291 1.99638 31.1196 1.9995 33.71 2.00367C37.1546 2.00888 39.8993 4.36812 40.4284 7.76897C40.442 7.85751 40.4753 7.94292 40.4992 8.02937C40.4972 8.49706 40.4972 8.96682 40.4972 9.43554ZM34.5777 13.302C35.1037 12.1656 35.6162 11.0709 36.1182 9.97301C37.0276 7.9825 35.7943 6.07011 33.6017 6.05969C33.3549 6.05865 33.1017 6.07323 32.8643 6.02428C32.5299 5.95449 32.3497 5.71075 32.3841 5.36702C32.4164 5.04725 32.6122 4.82851 32.9445 4.82226C33.4382 4.81289 33.9423 4.78164 34.4235 4.86601C36.9963 5.31807 38.3858 7.96063 37.3192 10.347C36.7734 11.5677 36.2016 12.776 35.6381 13.9967C36.0495 14.3551 36.4443 14.7009 36.864 15.0665C37.5421 13.5853 38.2254 12.1541 38.8556 10.7001C39.2847 9.70845 39.3587 8.65955 39.1264 7.60023C38.5608 5.02121 36.4411 3.27756 33.7944 3.25568C31.1519 3.23381 28.5093 3.24943 25.8678 3.25256C25.6209 3.25256 25.3709 3.25881 25.1282 3.29943C21.3868 3.91815 19.4025 7.65023 20.9774 11.1052C21.5274 12.3114 22.0909 13.5114 22.6502 14.7134C22.6919 14.804 22.745 14.8894 22.7971 14.9852C23.2054 14.6311 23.596 14.2915 24.0012 13.9415C23.9439 13.8103 23.8887 13.6801 23.8304 13.553C23.3273 12.4677 22.8065 11.3917 22.3253 10.297C21.2639 7.88251 22.8429 5.02538 25.4199 4.85559C27.325 4.7306 29.2447 4.81705 31.1581 4.82018C31.507 4.82122 31.7164 5.03475 31.7466 5.37848C31.7779 5.72534 31.5914 5.94928 31.2602 6.03261C31.1237 6.06698 30.9769 6.06178 30.8342 6.06178C29.1416 6.06594 27.4489 6.04199 25.7584 6.07636C24.1585 6.10865 22.9794 7.63565 23.2929 9.20327C23.3085 9.2793 23.3117 9.36159 23.3419 9.43138C23.9127 10.7084 24.4866 11.9844 25.0657 13.2718C28.2572 11.6615 31.4018 11.6719 34.5777 13.302Z" fill="#25282B"/>
<path d="M0.5 22.4835C0.630201 21.8221 0.718738 21.1492 0.898936 20.5024C1.65723 17.7765 3.16131 15.5818 5.59763 14.0798C7.1965 13.0934 8.8714 12.9632 10.5932 13.7205C11.7587 14.2329 12.9233 14.7537 14.0617 15.3245C15.8408 16.2162 16.8095 17.6942 17.0407 19.6608C17.0866 20.0462 16.8407 20.3461 16.4897 20.3805C16.1252 20.4159 15.8523 20.1961 15.8064 19.793C15.696 18.8014 15.319 17.94 14.6169 17.2244C13.5888 16.1766 12.3639 15.9995 11.0213 16.4359C9.60678 16.8953 8.5433 17.84 7.6496 18.99C6.76007 20.1336 6.14552 21.4169 5.7997 22.8262C5.7747 22.9272 5.75283 23.0293 5.72471 23.1293C5.61013 23.5293 5.28723 23.7376 4.93725 23.6407C4.59977 23.548 4.41541 23.2262 4.50811 22.8366C4.8633 21.3305 5.42681 19.9097 6.32467 18.6389C7.38815 17.1338 8.78495 16.0401 10.4942 15.3475C10.5765 15.3141 10.6567 15.2745 10.7463 15.235C9.40054 14.2725 7.59752 14.2892 6.24655 15.1402C4.25396 16.3953 2.96132 18.1785 2.22074 20.3868C1.72597 21.8606 1.61244 23.373 1.9218 24.8928C2.24886 26.501 3.29255 27.4832 4.75914 28.0009C4.60289 27.2208 4.44145 26.4385 4.29354 25.6542C4.26021 25.4771 4.25708 25.2896 4.26854 25.1094C4.2925 24.7334 4.54456 24.4949 4.8935 24.4959C5.24244 24.4969 5.46014 24.7334 5.51326 25.1146C5.60492 25.7687 5.6445 26.4448 5.83928 27.0687C6.55174 29.3467 8.56101 30.2425 10.7609 29.3206C10.9109 29.2581 11.0911 29.2061 11.2463 29.2279C11.5275 29.2665 11.7129 29.454 11.7494 29.7477C11.79 30.0758 11.6348 30.3018 11.339 30.4268C9.97863 31.0028 8.60059 31.1507 7.21525 30.5279C5.93511 29.9518 4.65602 29.3727 3.39463 28.7582C1.7541 27.9582 1.00206 26.5187 0.656241 24.8094C0.599994 24.5313 0.553122 24.2511 0.501042 23.9709C0.5 23.473 0.5 22.9783 0.5 22.4835Z" fill="#25282B"/>
<path d="M28.8822 27.3493C28.6291 31.0824 27.2146 34.1604 24.0793 36.2769C22.3242 37.4623 20.4472 37.7435 18.4744 36.7332C17.538 36.254 16.5797 35.8113 15.6079 35.4114C13.6799 34.6187 12.7331 33.1032 12.3768 31.1397C12.106 29.6502 12.255 28.1836 12.6904 26.7441C12.7768 26.4587 12.7477 26.315 12.4633 26.1702C11.6529 25.7567 10.8769 25.2755 10.0603 24.8765C9.31139 24.5109 9.01766 23.9412 9.0937 23.1412C9.17807 22.2496 9.56763 21.5246 10.3051 21.0111C10.7905 20.6726 11.2957 20.6184 11.8394 20.9309C12.7289 21.4423 13.6445 21.9111 14.5361 22.4204C14.7975 22.5704 14.9413 22.5517 15.1486 22.3225C16.2506 21.0997 17.5495 20.1778 19.1827 19.7987C20.2452 19.5518 21.2711 19.6424 22.2638 20.108C23.346 20.6153 24.4189 21.1465 25.5209 21.6069C27.3687 22.3788 28.303 23.8339 28.6853 25.7129C28.7957 26.2598 28.8207 26.8233 28.8822 27.3493ZM17.2276 31.3085C17.2766 31.8251 17.3005 32.2803 17.3641 32.7303C17.7765 35.6561 20.5556 37.0206 23.1346 35.4197C25.323 34.0614 26.6417 32.0626 27.2937 29.6044C27.7197 28.0003 27.7937 26.3921 27.1333 24.8234C26.5115 23.3454 25.2115 22.5173 23.772 22.6569C22.9565 22.736 22.195 22.9871 21.5159 23.4516C18.7327 25.3546 17.4266 28.0576 17.2276 31.3085ZM22.4711 21.6017C21.8055 21.2726 21.1826 20.9403 20.4462 20.9143C19.1817 20.8705 18.0932 21.3476 17.1537 22.1288C14.683 24.1818 13.4601 26.8431 13.4882 30.0523C13.4976 31.1751 13.8059 32.2355 14.5205 33.1427C15.0444 33.8094 15.7683 34.1458 16.5756 34.4489C14.7517 30.0294 17.5307 23.2631 22.4711 21.6017ZM14.1028 23.6047C13.2674 23.1475 12.4383 22.6923 11.6081 22.2392C11.0425 21.9309 10.8113 21.9986 10.5342 22.5933C10.4374 22.8006 10.3915 23.035 10.3447 23.261C10.2968 23.4912 10.3936 23.6391 10.6134 23.7547C11.43 24.1828 12.2341 24.6338 13.0445 25.0734C13.1081 25.1078 13.182 25.1223 13.2466 25.1453C13.5351 24.6265 13.8111 24.1297 14.1028 23.6047Z" fill="#25282B"/>
<path d="M29.8168 17.2808C32.2062 17.3224 34.2197 19.2004 34.329 21.5139C34.4499 24.0564 32.6885 26.1355 30.2095 26.3761C30.1324 26.3834 30.0532 26.3865 29.9751 26.3865C29.5616 26.3865 29.2689 26.1344 29.2626 25.773C29.2564 25.4293 29.522 25.1866 29.9168 25.1355C30.2501 25.0918 30.5917 25.0512 30.9063 24.9418C32.3229 24.4502 33.1728 23.1096 33.0781 21.5597C32.9916 20.1546 31.9167 18.9453 30.4688 18.6234C29.0699 18.313 27.6002 18.9952 26.9044 20.2775C26.8544 20.3691 26.8149 20.465 26.7617 20.5545C26.568 20.8826 26.2441 20.992 25.9337 20.8368C25.6264 20.6837 25.4972 20.3493 25.6514 20.0098C26.2774 18.6265 27.343 17.7641 28.8137 17.412C29.1408 17.336 29.4824 17.3235 29.8168 17.2808Z" fill="#25282B"/>
</svg>
