<svg width="40" height="40" viewBox="0 0 40 40" fill="none" xmlns="http://www.w3.org/2000/svg">
<path d="M11.5076 0.11557C9.8669 0.342136 7.55434 1.10778 6.9762 1.62342C6.78088 1.78749 6.7965 2.225 6.99182 2.42032C7.21839 2.64688 7.4684 2.61563 8.24967 2.26406C8.63249 2.09218 8.96062 1.95155 8.98406 1.95155C9.0075 1.95155 8.66374 2.31094 8.21842 2.74845C6.70275 4.27974 5.35115 6.33448 4.64801 8.21734C4.55426 8.46735 4.45269 8.67048 4.41363 8.67048C4.3355 8.67048 3.27297 7.44389 3.06984 7.11575C2.92921 6.90481 2.92921 6.897 3.28079 6.39698C3.82768 5.62353 4.66364 4.69381 5.31209 4.14693C5.64804 3.85786 5.92148 3.55316 5.95273 3.44378C6.01523 3.18596 5.82773 2.87346 5.5621 2.7797C5.24178 2.66251 4.91364 2.87346 3.95268 3.8266C1.91356 5.83447 0.66353 8.20953 0.147892 11.0534C0.038514 11.6393 0.00726318 12.2174 0.00726318 13.3581C0.00726318 14.7019 0.038514 14.9988 0.218206 15.866C1.34324 21.2021 5.3824 25.2569 10.6404 26.3194C11.0701 26.4131 11.5466 26.4834 11.6873 26.4834C12.1326 26.4834 11.8513 26.6006 10.3122 27.0694C9.4997 27.3116 8.69499 27.585 8.53874 27.6632C8.0856 27.8975 7.7184 28.2569 7.29652 28.8819C6.33555 30.296 5.03865 31.6476 4.48394 31.7961C3.85111 31.968 3.21828 31.7648 3.11672 31.3508C3.02297 30.9836 3.17922 30.7648 3.82768 30.3117C4.96052 29.5382 7.21058 27.1632 7.35121 26.5928C7.45277 26.1788 7.06995 25.7803 6.66369 25.8819C6.5465 25.9131 6.27305 26.1944 5.97617 26.5772C5.26521 27.4913 3.93705 28.8038 3.18703 29.3273C2.83546 29.5695 2.44483 29.8898 2.31201 30.0382C1.60106 30.8507 1.88231 32.2414 2.8589 32.7336C3.02297 32.8196 3.1636 32.8977 3.1636 32.9133C3.1636 32.9211 3.07766 33.1008 2.96828 33.3118C2.52295 34.1868 2.81984 35.2259 3.6558 35.7024C3.87455 35.8274 4.11675 35.9368 4.17925 35.9368C4.24175 35.9368 4.34331 35.9681 4.40582 36.0071C4.49176 36.0618 4.41363 36.2025 4.06206 36.6478C3.81205 36.9681 3.54642 37.3665 3.46829 37.5384C3.03859 38.4681 3.58548 39.64 4.5777 39.9213C4.74176 39.9682 6.92932 39.9994 10.156 39.9994C16.6327 39.9994 16.1561 40.0619 17.9296 38.8822C20.0703 37.4447 21.5156 36.14 22.3282 34.8977C22.7579 34.2571 23.6329 32.5852 23.7501 32.2102C23.8126 31.9914 23.7423 32.007 25.9767 31.7648C32.344 31.0773 39.3208 30.3039 39.477 30.2648C39.7271 30.2101 39.9614 29.9523 39.9614 29.7335C39.9614 29.4366 39.6724 29.1398 39.3911 29.1398C38.9302 29.132 23.3594 30.8664 23.1797 30.9445C23.0704 30.9836 22.9376 31.1633 22.8438 31.3898C22.461 32.2727 21.7422 33.6789 21.3828 34.218C20.6094 35.3821 19.5234 36.3743 17.5312 37.7337C16.1874 38.6478 15.8827 38.7728 14.8905 38.8119L14.0858 38.8431L14.4842 38.3275C14.7733 37.9369 14.8827 37.7337 14.8827 37.5462C14.8827 37.2181 14.6795 37.0306 14.3123 37.0306C14.0389 37.0306 13.9842 37.0775 13.3123 37.9291L12.6013 38.8275H11.7419H10.8825L11.2732 38.3353C12.2966 37.0384 12.8748 36.2728 12.9451 36.1165C13.1248 35.7337 12.6482 35.2181 12.2263 35.3509C12.1404 35.3821 11.4685 36.1712 10.7341 37.1165L9.40595 38.8275H8.3903H7.36683L7.75747 38.3353C9.65595 35.929 10.8982 34.2571 10.8982 34.0852C10.8982 33.843 10.57 33.5149 10.32 33.5149C10.2107 33.5149 10.0388 33.593 9.9294 33.6868C9.82002 33.7883 8.87468 34.9759 7.82778 36.3275L5.92929 38.7885L5.42147 38.8119C4.99958 38.8275 4.87458 38.8041 4.7027 38.6713C4.24956 38.3119 4.19487 38.3978 7.9606 33.5149C9.87471 31.0461 11.6873 28.7569 12.0076 28.4366C12.9451 27.4678 12.8592 27.4991 21.9141 24.7256C26.3205 23.3818 29.9846 22.2568 30.0627 22.2255C30.3752 22.1005 30.4534 21.5224 30.1956 21.288C30.1096 21.2099 29.9377 21.1474 29.8205 21.1474C29.7034 21.1474 27.9221 21.663 25.8595 22.2958C23.7969 22.9287 22.0391 23.4677 21.9532 23.4912C21.8672 23.5146 22.1875 23.1318 22.6641 22.6474C23.1329 22.1552 23.6094 21.6474 23.7188 21.5068C24.0938 21.0146 29.5315 18.1239 31.6018 17.3191C32.9925 16.7723 34.5629 16.3894 36.1723 16.2097C36.4301 16.1785 37.3207 16.1316 38.1489 16.1004C39.6177 16.0535 39.6724 16.0457 39.813 15.866C40.0083 15.6238 40.0005 15.3816 39.7896 15.116L39.6177 14.8972L37.977 14.9441C34.2425 15.0535 32.1956 15.6003 28.4455 17.4754C27.7111 17.8426 26.7033 18.366 26.2033 18.6395C25.7032 18.9129 25.2736 19.1395 25.2501 19.1395C25.2267 19.1395 25.3048 18.9207 25.4298 18.6473C25.7189 17.9988 26.172 16.5301 26.3439 15.6628C26.5626 14.5613 26.5392 11.8034 26.3048 10.7018C25.422 6.63918 22.9376 3.35003 19.3359 1.4906C16.914 0.240574 14.1483 -0.243816 11.5076 0.11557ZM15.617 1.41248C16.0546 1.49842 16.703 1.6703 17.0702 1.7953C17.7968 2.03749 19.1484 2.63126 19.0937 2.69376C19.0703 2.70939 18.7812 2.7797 18.4374 2.85002C14.6326 3.6391 10.6013 6.72512 8.48405 10.4674C8.24967 10.8737 8.04654 11.2252 8.03872 11.2409C7.9606 11.3346 5.42928 9.67051 5.42928 9.51425C5.42928 9.46737 5.55428 9.10799 5.71054 8.71736C7.15589 5.09226 9.74971 2.27969 12.4998 1.34998C12.992 1.18591 13.1404 1.17028 13.9373 1.20935C14.4295 1.23278 15.1873 1.31873 15.617 1.41248ZM20.8359 3.89692C21.2578 4.06099 23.1641 6.08448 23.1641 6.36573C23.1641 6.42042 22.9922 6.48293 22.7579 6.50636C21.7188 6.63137 20.289 7.10794 18.8281 7.80327C16.5702 8.88924 14.453 10.5768 13.2967 12.2018C12.992 12.6315 12.9607 12.655 12.6482 12.655C12.1091 12.655 11.0779 12.4284 10.0544 12.0924L9.10125 11.7721L9.38251 11.2565C10.0857 9.9752 10.9529 8.85799 12.1951 7.65483C14.6561 5.27195 17.539 3.88129 20.0937 3.83442C20.3984 3.83442 20.7344 3.85786 20.8359 3.89692ZM24.2579 8.21734C24.6173 8.99861 24.9845 10.1158 25.172 11.0143C25.2814 11.5299 25.3126 12.0456 25.3126 13.28C25.3126 14.1628 25.2814 14.9831 25.2423 15.116C25.1876 15.3269 25.1564 15.2722 25.0001 14.5691C24.5392 12.5612 23.4844 10.3658 22.1563 8.63142C21.6953 8.02984 21.6172 7.88921 21.7422 7.88921C21.7735 7.88921 22.1172 7.8189 22.5 7.74077C22.8907 7.65483 23.3751 7.58451 23.5782 7.58451L23.9532 7.5767L24.2579 8.21734ZM3.28079 9.20956C4.77301 10.8033 7.44496 12.4675 9.75752 13.2331C10.656 13.53 12.0388 13.8269 12.531 13.8269C12.6951 13.8269 12.867 13.8737 12.9139 13.9206C13.1873 14.2722 13.7732 16.1551 13.9295 17.2176L13.9998 17.6785L12.7029 17.6317C11.2966 17.5848 10.4919 17.4676 9.10906 17.1004C7.70278 16.7254 6.28087 16.1238 5.07771 15.3894C4.39019 14.9675 4.09331 14.9753 3.9058 15.4128C3.69486 15.9207 4.05424 16.2488 5.72616 17.0691C8.03091 18.2098 10.6404 18.827 13.1014 18.827H14.1248L14.0779 20.2098C14.0233 21.7724 13.9998 21.9365 13.7576 21.9911C12.5779 22.2724 10.0622 22.3505 8.63249 22.1474C6.44493 21.8349 4.53082 21.038 3.33548 19.952C2.88234 19.538 2.7339 19.3348 2.39795 18.6551C1.71043 17.2723 1.28073 15.7175 1.16354 14.1784L1.10885 13.4753L1.67137 14.0769C2.16357 14.6003 2.28076 14.6863 2.49952 14.6863C2.68702 14.6863 2.80421 14.6316 2.9214 14.4831C3.17922 14.1628 3.13235 13.9441 2.71046 13.4909C2.16357 12.905 1.89013 12.53 1.56199 11.9206L1.26511 11.3893L1.40574 10.7487C1.56199 10.0143 1.937 8.84236 2.16357 8.40485L2.31982 8.09234L2.60889 8.44391C2.75734 8.63142 3.06203 8.97517 3.28079 9.20956ZM21.2578 9.38925C23.0938 11.8268 24.1251 14.6238 24.1173 17.1473C24.1173 18.4989 23.9376 19.1083 23.2657 20.1161C22.6172 21.0849 21.125 22.6005 20.2031 23.2255C19.8359 23.4677 19.5312 23.6552 19.5234 23.6474C19.5078 23.6318 19.5859 23.3662 19.6953 23.0537C20.2187 21.5536 20.4375 19.6473 20.289 17.8192C20.1875 16.5301 20.1172 16.3035 19.7968 16.1707C19.5234 16.0535 19.289 16.1238 19.1328 16.3738C19.0156 16.5379 19.0156 16.6785 19.1015 17.6317C19.2578 19.3583 19.1093 21.0224 18.664 22.4365C18.4452 23.1396 17.8515 24.3584 17.6327 24.5537C17.4296 24.7334 16.2733 25.0693 15.2499 25.2412C14.7342 25.3272 14.3045 25.3819 14.2811 25.3662C14.2654 25.3428 14.3514 25.0303 14.4764 24.6709C14.7733 23.8271 15.0858 22.4365 15.1873 21.4677C15.2967 20.4989 15.2967 18.7957 15.1873 17.827C15.0389 16.4285 14.5389 14.53 14.0858 13.6394L13.9295 13.3425L14.2342 12.8972C14.5545 12.4284 15.8046 11.1315 16.3436 10.7174L16.6639 10.4674L16.953 10.9362C17.3905 11.6549 18.039 13.0768 18.3281 13.9362C18.6093 14.8035 18.7578 14.9988 19.1015 14.9988C19.414 14.9988 19.6484 14.7566 19.6484 14.4206C19.6484 13.8659 18.7578 11.6784 18.0546 10.5065L17.6405 9.80332L17.8827 9.63926C18.3124 9.35019 19.1875 8.88142 19.7968 8.6236C20.5 8.31891 20.4062 8.26422 21.2578 9.38925ZM7.6559 23.1709C8.89031 23.4365 11.5623 23.5146 12.8513 23.3271C13.2967 23.2646 13.6795 23.2255 13.6951 23.2334C13.7264 23.2724 13.2732 24.6006 13.0857 25.0147C12.9295 25.3819 12.9139 25.3897 12.5779 25.3897C11.5701 25.3897 9.71064 24.96 8.53874 24.4521C7.49965 24.0068 6.23399 23.2412 5.55428 22.6474C5.51522 22.6162 5.76523 22.6708 6.10117 22.7802C6.44493 22.8818 7.14026 23.0615 7.6559 23.1709ZM10.531 28.296C10.4841 28.3507 9.40595 29.7492 8.12466 31.4055C6.85119 33.0617 5.71835 34.4993 5.61679 34.6087C5.46834 34.7571 5.33553 34.804 4.93708 34.8274C4.49176 34.8587 4.42144 34.8352 4.19487 34.6477C3.99956 34.4837 3.94487 34.3821 3.94487 34.1477C3.94487 33.8118 4.03862 33.7102 4.80426 33.1946C5.78866 32.5383 7.35121 30.8898 8.23404 29.5773C8.71843 28.8663 8.91375 28.7179 9.78877 28.4366C10.5857 28.1788 10.6325 28.171 10.531 28.296Z" fill="#25282B"/>
<path d="M35.6344 19.2954C33.7046 19.8892 32.0327 20.4205 31.9155 20.4674C31.603 20.5924 31.4624 20.9674 31.6108 21.2408C31.8218 21.6158 32.0405 21.6236 33.1421 21.2877C38.0563 19.8111 39.697 19.2876 39.8298 19.1314C40.1189 18.772 39.8454 18.1939 39.3923 18.2095C39.2517 18.2095 37.5641 18.7017 35.6344 19.2954Z" fill="#25282B"/>
</svg>
