<svg width="40" height="40" viewBox="0 0 40 40" fill="none" xmlns="http://www.w3.org/2000/svg">
<path d="M4.15658 39.9996C3.70977 39.751 3.58148 39.3694 3.58228 38.867C3.59347 30.7972 3.58867 22.7278 3.59067 14.6581C3.59187 11.0768 5.58094 8.34674 8.98518 7.2437C10.4191 6.77931 11.8539 6.31851 13.2894 5.85891C14.6323 5.42888 15.2501 4.58202 15.2513 3.16205C15.2517 2.47225 15.2709 1.78165 15.2449 1.09265C15.2254 0.578297 15.3956 0.208219 15.8764 0C16.0327 0 16.1889 0 16.3452 0C16.7944 0.246985 16.9415 0.629053 16.9179 1.13262C16.8703 2.15772 16.965 3.20122 16.8072 4.20674C16.5618 5.77098 15.5791 6.82287 14.0851 7.34002C12.5753 7.86237 11.0474 8.33276 9.52551 8.81953C6.80628 9.68958 5.25083 11.8089 5.25043 14.6593C5.24963 22.7414 5.24723 30.824 5.25682 38.9062C5.25762 39.4193 5.10416 39.7898 4.62497 39.9996C4.46911 39.9996 4.31284 39.9996 4.15658 39.9996Z" fill="#25282B"/>
<path d="M24.6273 0C25.1077 0.209018 25.2764 0.579097 25.2588 1.09345C25.2332 1.84759 25.2484 2.60294 25.2532 3.35788C25.2608 4.52367 25.917 5.42728 27.0308 5.79177C28.5371 6.28494 30.047 6.76812 31.5553 7.25529C34.8888 8.33196 36.9087 11.082 36.9118 14.5797C36.9178 21.2959 36.9138 28.0116 36.9138 34.7278C36.9138 36.1074 36.8975 37.4874 36.9222 38.8666C36.9314 39.3706 36.7908 39.749 36.3471 39.9992C36.1909 39.9992 36.0346 39.9992 35.8783 39.9992C35.4012 39.7886 35.2457 39.4205 35.2465 38.9062C35.2565 30.85 35.2537 22.7934 35.2533 14.7372C35.2533 11.8041 33.7618 9.73394 30.9778 8.81913C29.5339 8.34474 28.0851 7.88355 26.6372 7.42195C24.7109 6.80768 23.6054 5.30938 23.5926 3.27995C23.5882 2.56417 23.6142 1.84719 23.5842 1.13262C23.5631 0.628654 23.7109 0.248184 24.1581 0C24.3148 0 24.4711 0 24.6273 0Z" fill="#25282B"/>
<path d="M9.15892 39.9994C8.6094 39.7052 8.51908 39.2349 8.64097 38.6749C9.00865 36.9872 9.38632 35.3011 9.73442 33.6093C10.3087 30.8202 10.3958 28.0106 10.0541 25.1839C9.82035 23.2507 9.33637 21.3824 8.68573 19.5512C8.44035 18.8606 8.86038 18.2815 9.5282 18.3526C9.89308 18.3914 10.1141 18.6136 10.2348 18.9429C10.9801 20.9771 11.4969 23.0661 11.7371 25.2218C12.1587 29.0069 11.8174 32.7225 10.7895 36.3877C10.5449 37.2602 10.415 38.1678 10.2803 39.0666C10.2136 39.5118 10.0346 39.8203 9.62811 39.9998C9.47145 39.9994 9.31519 39.9994 9.15892 39.9994Z" fill="#25282B"/>
<path d="M30.8792 39.9996C30.4536 39.8145 30.3069 39.4764 30.219 39.0284C29.8833 37.3207 29.484 35.6258 29.1347 33.9209C28.5216 30.9243 28.4417 27.9065 28.8142 24.8727C29.0608 22.8629 29.5536 20.9154 30.2485 19.0162C30.4676 18.4183 30.9787 18.1757 31.4687 18.4379C31.858 18.6461 31.9738 19.0434 31.8272 19.5517C31.4535 20.849 31.0059 22.1327 30.7413 23.4524C29.93 27.5004 30.133 31.5205 31.2129 35.5071C31.5011 36.5706 31.6557 37.6696 31.8787 38.7511C31.991 39.2954 31.8444 39.7194 31.3476 39.9996C31.1917 39.9996 31.0355 39.9996 30.8792 39.9996Z" fill="#25282B"/>
<path d="M19.4111 24.999C19.4111 21.5628 19.4111 18.1266 19.4111 14.69C19.4111 14.5857 19.4103 14.4818 19.4111 14.3775C19.4171 13.7145 19.7256 13.3396 20.2604 13.3448C20.7799 13.35 21.0897 13.7193 21.0897 14.3579C21.0913 21.4517 21.0913 28.5456 21.0897 35.6394C21.0897 36.2469 20.8147 36.6066 20.3383 36.6493C19.8995 36.6885 19.5418 36.4387 19.4487 36.0067C19.4135 35.8436 19.4123 35.671 19.4123 35.5027C19.4107 32.0018 19.4111 28.5004 19.4111 24.999Z" fill="#25282B"/>
<path d="M15.2423 11.5647C15.279 13.3747 14.7099 14.9589 13.4658 16.287C13.0618 16.7182 12.5578 16.7777 12.1953 16.45C11.8073 16.0991 11.8264 15.6088 12.2533 15.148C13.1321 14.1996 13.5653 13.0754 13.5881 11.7881C13.5941 11.45 13.5793 11.1111 13.5993 10.7742C13.6257 10.3385 13.9618 10.0208 14.3826 10.0036C14.8126 9.98604 15.1951 10.3038 15.2375 10.7462C15.2635 11.0167 15.2423 11.2917 15.2423 11.5647Z" fill="#25282B"/>
<path d="M25.2539 11.576C25.2539 11.3158 25.2399 11.0548 25.2571 10.7963C25.2879 10.3303 25.6604 9.99136 26.106 10.0037C26.5432 10.0157 26.8801 10.3415 26.9037 10.8019C26.9288 11.2946 26.9121 11.7902 26.9508 12.2818C27.0376 13.3844 27.5047 14.3184 28.2313 15.1457C28.4056 15.3439 28.5382 15.6349 28.5622 15.895C28.5926 16.2247 28.3716 16.4869 28.0491 16.6032C27.701 16.7283 27.3861 16.6496 27.1223 16.3798C26.1475 15.3823 25.5437 14.1969 25.3334 12.8189C25.2711 12.4093 25.2595 11.992 25.2247 11.5784C25.2347 11.5776 25.2443 11.5768 25.2539 11.576Z" fill="#25282B"/>
</svg>
