<svg width="45" height="45" viewBox="0 0 45 45" fill="none" xmlns="http://www.w3.org/2000/svg">
<path d="M22.5 45C34.9294 45 45 34.9294 45 22.5C45 10.0706 34.9294 0 22.5 0C10.0706 0 0 10.0706 0 22.5C0 34.9294 10.0706 45 22.5 45ZM10.2956 22.0125L31.9894 13.6481C32.9963 13.2844 33.8756 13.8938 33.5494 15.4163L33.5512 15.4144L29.8575 32.8162C29.5837 34.05 28.8506 34.35 27.825 33.7687L22.2 29.6231L19.4869 32.2369C19.1869 32.5369 18.9338 32.79 18.3525 32.79L18.7519 27.0656L29.1769 17.6475C29.6306 17.2481 29.0756 17.0231 28.4775 17.4206L15.5944 25.5319L10.0406 23.7994C8.835 23.4169 8.80875 22.5938 10.2956 22.0125Z" fill="#00B2B5"/>
</svg>
