<svg width="45" height="45" viewBox="0 0 45 45" fill="none" xmlns="http://www.w3.org/2000/svg">
<path fill-rule="evenodd" clip-rule="evenodd" d="M22.5 45C34.9264 45 45 34.9264 45 22.5C45 10.0736 34.9264 0 22.5 0C10.0736 0 0 10.0736 0 22.5C0 34.9264 10.0736 45 22.5 45ZM17.4561 14.878C17.7693 14.789 18.5621 14.6763 19.1822 14.6348C19.3612 14.6229 20.2051 14.6229 21.0682 14.6288C23.1971 14.6585 23.9898 14.8068 24.3159 15.2339C24.6419 15.6729 24.6547 15.7678 24.6355 19.0838L24.6164 22.1626L24.789 22.4889C24.9744 22.8448 25.2237 23.0228 25.5242 23.0228C25.7351 23.0228 26.3809 22.5541 26.7964 22.0974C27.8385 20.9465 29.4176 18.3898 30.1847 16.6161C30.4724 15.9517 30.6962 15.6017 30.9136 15.5068C31.0286 15.4593 32.0196 15.4356 34.3019 15.4178L37.5304 15.4L37.7989 15.5305C38.1761 15.7203 38.2592 15.9873 38.1122 16.539C37.8629 17.4762 36.9678 18.811 34.7239 21.5694C33.132 23.527 32.8954 23.8829 32.8954 24.3516C32.9018 24.9092 33.0233 25.0634 34.8389 26.7303C36.5459 28.2964 37.0445 28.8184 37.6327 29.6371C38.0738 30.2599 38.1697 30.5269 38.1442 31.1142C38.1378 31.3277 37.7798 31.654 37.4473 31.7489C37.1149 31.8379 31.9365 31.9328 31.5529 31.8497C31.393 31.8142 31.0095 31.6718 30.6898 31.5353C29.9866 31.2209 29.5199 30.8354 28.2476 29.5125C26.8923 28.1007 26.5279 27.8515 25.8822 27.8812C25.6904 27.8871 25.2621 28.2549 25.0575 28.5693C24.8337 28.9252 24.6675 29.5955 24.6164 30.3786C24.5588 31.1676 24.4693 31.4226 24.1816 31.6065C23.8236 31.8319 23.3441 31.8794 21.6755 31.8438C19.9941 31.8082 19.5083 31.743 18.3831 31.393C17.5648 31.1379 16.8999 30.8354 15.9857 30.2896C14.023 29.1269 13.1727 28.3439 11.2484 25.9295C9.94419 24.2863 8.71671 22.4058 7.27187 19.8194C6.53027 18.4906 5.52655 16.4144 5.48819 16.1297C5.44344 15.8627 5.5713 15.6551 5.87178 15.5068C6.05718 15.4119 6.33208 15.4 8.7295 15.3822L11.3826 15.3644L11.7343 15.5305C12.1498 15.7263 12.2649 15.8746 12.6357 16.6873C12.9362 17.3576 14.2915 19.8728 14.7774 20.6559C16.1327 22.8626 17.3666 23.6575 17.8972 22.6728C18.1018 22.305 18.1593 22.0736 18.2936 21.0652C18.4982 19.5406 18.3255 17.3813 17.9484 16.6932C17.7246 16.2898 17.2323 15.9814 16.6442 15.8805C16.5099 15.8568 16.3884 15.8093 16.3629 15.7797C16.2414 15.5898 16.9127 15.0322 17.4561 14.878Z" fill="#00B2B5"/>
</svg>
